<?xml version="1.0" encoding="utf-8"?>
<!-- Generator: Adobe Illustrator 21.0.0, SVG Export Plug-In . SVG Version: 6.00 Build 0)  -->
<svg version="1.1" id="Layer_1" xmlns="http://www.w3.org/2000/svg" xmlns:xlink="http://www.w3.org/1999/xlink" x="0px" y="0px"
	 viewBox="0 0 293.6 232.7" style="enable-background:new 0 0 293.6 232.7;" xml:space="preserve">
<style type="text/css">
	.st0{fill:#F75A52;}
	.st1{fill:#FFFFFF;}
</style>
<title>lOGO_PADRÃO_UFC MASSA</title>
<g id="logo">
	<path class="st0" d="M62.8,141.1c-0.1,0.2-0.2,0.5-0.3,0.7c-0.1,0.2-0.4,0.7-0.9,1.4c-0.3,0.5-0.6,0.9-1,1.3l-6.8,7.8l2.6,2.2
		c-0.2,0.4-0.4,0.8-0.6,1.2c-2.4-0.7-5-1-7.5-1.1c-5.2-0.1-10.3,1.7-14.5,4.9c-7.3,5.6-9.5,15.6-5.4,23.8c-1,0-1.9,0.1-2.8,0.2
		c-0.4,0.1-0.8,0.1-1.2,0.2c-1.3-0.4-2.7-0.5-4-0.3c-0.4,0-0.7,0-1.2,0c-0.7,0-1.4,0-2.2,0.1c-0.8-0.1-1.5-0.1-2.3-0.1h-0.3
		c-0.5-0.1-1.1-0.1-1.6-0.1c-0.4,0-0.8,0-1.2,0.1h-0.1h-0.7h-0.5c-1.6,0.1-3.1,0.4-4.5,1.1c-3.6,1.8-5.8,5.4-5.8,9.4v0.4
		c0.1,3.6,0.2,4.8,0.3,5.5v0.2v0.4l0,0c0,0.1,0,0.3,0,0.6s0,0.4,0,0.7c0,1.4,0,2.2,0.1,2.7c0,0.3,0,0.6,0.1,0.9
		c0.4,3.9,2.9,7.3,6.5,8.9l2,0.9h8.2h0c0.3,0,0.7,0.1,1,0.1c0,0.9,0.1,1.7,0.2,2.4v0.1c0,0,0,0.1,0,0.3c0,1.1,0.2,2.1,0.3,3.2
		l0.1,0.4c0.3,1.7,1,3.4,1.9,4.8v0.1l0.5,0.7c0.8,1.1,1.8,2.1,3,2.9l0.6,0.4l0.4,0.2l0.5,0.3l0.1,0l0.3,0.2l0.6,0.3l0.6,0.3l0.4,0.2
		l0.7,0.2l1.3,0.4h0.7c0.6,0.1,1.2,0.1,1.7,0.1c0.5,0,0.9,0,1.4-0.1c0.6,0,1.2-0.1,1.8-0.2c0.6,0.1,1.1,0.1,1.7,0.1H47h0.8h0.5h0.4
		c0.7,0,1.5-0.1,2.2-0.3l0.8,0.6l3.3-0.3h3.7l0.6-0.1l0.3,0.2h8.8c0.4,0,0.7,0.1,1.1,0.1c0.4,0,0.8,0,1.1,0h0.7h3.1h0.1h2.2
		c0.3,0,0.6,0,0.8,0h0.8h8.6c0.3,0,0.6,0.1,0.9,0.1s0.6,0,1,0s0.8,0,1.1-0.1h0.3l0.6-0.1H92l0.7-0.2h0.2c0.2,0,0.5,0.1,0.7,0.1
		l0.2,0.1h2c0.3,0,0.5,0,0.8,0h1.9c0.8,0,1.6-0.1,2.3-0.3c0.7,0.1,1.4,0.2,2.2,0.2c0.4,0,0.7,0,1,0h1h0.8h0.2
		c0.8,0.2,1.6,0.2,2.5,0.2c0.5,0,0.9,0,2-0.1h0.3c0.4,0,0.8,0,1.1-0.1h0.2h0.8l0.5-0.1c1.1-0.1,2.2-0.2,3.3-0.5l0.1,0.1
		c1.1,0.4,2.3,0.6,3.5,0.5h0.8h3.8c1.2,0,2.5-0.2,3.6-0.7c1,0.4,2.1,0.6,3.2,0.6c0.5,0,0.9,0.1,1.3,0.1s0.6,0,0.9,0h1
		c0.5,0,0.9,0,1.4-0.1l0.1,0.1h9.7c0.7,0,1.3,0,2,0c0.5,0,0.9,0,2-0.1h0.3c0.4,0,0.8,0,1.1-0.1h0.2h0.8l0.5-0.1
		c0.9-0.1,1.8-0.2,2.6-0.3l0.7,0.5h8.8c0.4,0,0.7,0.1,1.1,0.1c0.4,0,0.8,0,1.1,0h0.7h3.1l0,0h1.6c0.3,0,0.5,0,0.8,0h1.9
		c0.8,0,1.6-0.1,2.3-0.3c0.7,0.1,1.4,0.2,2.2,0.2c0.4,0,0.7,0,1,0h1h0.8h0.4c0.3,0,0.6,0,0.9,0s0.6,0,0.9,0h0.6h0.2
		c0.7,0.1,1.6,0.1,2.6,0.1h0.4h0.3h0.7c0.8,0,1.7-0.1,2.5-0.3c0.6-0.1,1.1-0.3,1.7-0.5c1.4,0.5,2.9,0.8,4.4,0.8c1,0,2-0.1,2.9-0.2
		h0.3h0.1h0.1c0.3,0,0.6-0.1,0.9-0.2l0.4-0.1h0.1c0.5-0.1,1-0.3,1.5-0.5c0.7,0.3,1.5,0.5,2.2,0.7c1,0.2,2.1,0.3,3.1,0.3h0.2
		c0.7,0,1.5,0,2.2-0.1h0.1h0.1c1.2-0.2,2.4-0.5,3.6-0.8l0.2-0.1l0.2-0.1c0.7-0.2,1.3-0.5,1.9-0.9c0.6,0.4,1.2,0.7,1.8,0.9
		c0.5,0.2,1,0.4,1.6,0.6c0.7,0.2,1.5,0.4,2.2,0.5c0.5,0.1,0.9,0.1,1.3,0.2l1,0.1l1,0.1l0.9,0.1l0.9-0.1c0.4,0,0.8-0.1,1.2-0.2h4.7
		h0.8h4.2l0,0c0.6,0,1.3-0.1,1.9-0.2c0.7,0.1,1.4,0.2,2.2,0.2c0.4,0,0.7,0,1,0h1h0.6c0.5,0.1,1.1,0.1,1.6,0.1h0.8h3l0.2-0.1h0.1
		c0.3,0,0.6,0,0.9,0h0.6c0.3,0,0.5,0,0.8,0h1.9h0.5h3.2h0.1c0.2,0,0.5,0,0.7,0s0.7,0,1,0h1h0.8h0.4c0.3,0,0.6,0,0.9,0
		c5.7,0,10.4-4.6,10.4-10.3c0,0,0,0,0,0c0-1.7-0.4-3.3-1.1-4.8l-0.2-0.6c-0.1-0.2-0.1-0.4-0.2-0.5v-0.1l0,0l-0.1-0.3v-0.1v-0.1
		l-0.3-0.6h1.4c0.8,0,1.6-0.1,2.3-0.3c0.7,0.1,1.4,0.2,2.2,0.2c0.4,0,0.7,0,1,0h1h0.8h0.4c0.3,0,0.6,0,0.9,0
		c5.7,0,10.4-4.6,10.4-10.3c0,0,0,0,0,0c0-1.7-0.4-3.3-1.1-4.8l-0.2-0.6c-0.1-0.2-0.1-0.4-0.2-0.5v-0.1l0,0l-0.1-0.3v-0.1l0,0
		l-1-2.1c-0.7-1.4-1.3-2.5-1.8-3.4l-0.1-0.2l-0.5-0.8l-0.2-0.3l-0.2-0.3c-0.1-0.2-0.2-0.5-0.4-0.7c-0.1-0.2-0.2-0.4-0.4-0.7
		l-0.2-0.3c-1-1.9-2.5-3.5-4.4-4.5c-0.8-0.4-1.6-0.8-2.5-1c-1-0.3-2.1-0.4-3.1-0.4c-0.4,0-0.7,0-1.1,0h-0.3h-0.6
		c-2.8,0-5.4,1.2-7.4,3.1c-1.3-1.3-3-2.3-4.9-2.8c-1-0.3-2.1-0.4-3.1-0.4c-0.4,0-0.7,0-1.1,0h-0.3H258c-0.8,0-1.6,0.1-2.4,0.3
		c-0.3-0.1-0.6-0.2-1-0.2c-0.9-0.2-1.9-0.4-2.9-0.4h-0.4c-0.5,0-0.9-0.1-1.2-0.1c-0.5-0.1-1-0.1-1.5-0.1c-0.9,0-1.8,0.1-2.7,0.4
		h-0.7c-0.4,0-0.8,0-1.3-0.1h-4.6l-0.6,0.5l-0.7-0.2l-0.3-0.1l-1.5-0.1l-1-0.1l-0.7-0.1h-0.6h-0.3c-0.5,0-0.8,0-0.9,0h-0.1
		c1-0.4,2-0.9,3-1.4c1.8,0.4,3.7,0.6,5.5,0.6h0c6.6,0,13-2.5,17.9-7c5.1-4.8,7.9-11.5,7.7-18.4c0-3.5-0.8-7-2.5-10.1
		c-2.4-4.6-7.2-7.5-12.4-7.6h-0.2c-0.4,0-0.8,0-1.2,0.1l0.3-0.3c1.4-1.4,2.5-3,3.3-4.8c0.8-1.8,1.3-3.9,1.2-5.9
		c-0.1-2.2-0.7-4.3-1.8-6.1l-0.1-0.2h2.2l2-0.9c2.3-1,7.7-4.4,7.7-13.3c0-2-0.3-3.9-1-5.7c-0.7-1.9-1.8-3.6-3.3-5
		c-1.6-1.5-3.5-2.5-5.6-3.1c-0.5-0.1-1.1-0.3-1.6-0.4l0.2-0.2l0.8-2.1c0.9-2.4,2.3-8.6-4-14.9c-1.4-1.4-3-2.5-4.8-3.3
		c-1.7-0.8-3.6-1.2-5.5-1.2H240c-2.2,0.1-4.3,0.7-6.1,1.8c-1.1,0.6-2.1,1.3-3,2.1c-0.4,0.4-0.9,0.8-1.5,1.4s-1.1,1.1-1.7,1.8
		c0-0.3,0-0.5,0-0.8c0.1-3.3-1-6.6-3.2-9.1c-1.7-1.7-3.7-3-6-3.8l-0.9-0.4c-0.5-0.2-0.9-0.4-1.4-0.5c-0.4-0.1-0.7-0.3-1.1-0.4
		l-0.7-0.2c-2-0.8-4.1-1.4-6.3-1.7c-2.9-0.3-5.8-0.5-8.8-0.5h-0.2c-2.1-0.1-4.2,0-6.3,0.3c-0.4,0.1-0.9,0.1-1.3,0.3
		s-0.8,0.1-1.2,0.2c-1.3,0.2-2.5,0.6-3.7,1.1c-0.4,0.1-0.6,0.2-0.6,0.2h-0.2l-0.2,0.1c-1.9,0.5-3.8,1.4-5.4,2.5
		c2.6-3.7,2.9-8.5,0.8-12.5l-0.2-0.5c-0.3-0.8-0.5-1.6-0.7-2.3v-0.3l-0.1-0.3c-0.3-1-0.4-1.7-0.5-2.1l-0.3-0.9l-0.1-0.6
		c0-0.2-0.1-0.4-0.2-0.8v-0.2v-0.2l-0.7-2.7c-0.1-0.3-0.1-0.7-0.3-1.1c-0.1-0.6-0.3-1.2-0.5-1.7l-0.4-1.7v-0.1v-0.1
		c-0.2-0.7-0.4-1.5-0.6-2.3c-0.3-1.2-0.4-1.6-0.5-2l-0.1-0.5c-0.2-0.6-0.3-0.9-0.3-1.2l0,0l-0.2-0.9l-0.2-1.3
		c-0.1-0.5-0.3-1.5-0.9-4.5V26v-0.2l-0.8-3.2c-0.3-1.1-0.7-2.5-1.4-4.7c-0.5-1.4-0.8-2.8-1.1-4.3c-0.2-0.8-0.4-1.6-0.7-2.3l-0.1-0.6
		l-0.1-0.4l-0.1-0.4l-0.4-1.2L169,8.3l-0.1-0.2c-1.3-4-4.8-6.9-8.9-7.5c-2-0.3-4.1-0.4-6.1-0.4c-1-0.1-2.5-0.1-5.2-0.2h-7.2
		l-2.8,2.3l-0.3,0.3l-3.9,3.1v2.1l-0.7,1.2c-1.6,2.4-2.9,5-4.1,7.6l-0.2,0.3c-0.1,0.2-0.3,0.5-0.6,0.9s-0.6,1.1-0.9,1.6l-0.1,0.2
		l-0.1,0.2l-0.5,1.1l-1.1,2.2l-0.1,0.2l-0.1,0.2c-0.2,0.4-0.6,1.2-1.3,2.6l-1.9,2.9l-0.3,0.4l-0.3,0.5c-0.4,0.7-0.7,1.3-1,2.1
		c-1.7,3.8-3.7,7.5-5.8,11.2l-0.4,0.7l-0.3,0.8c-0.7,1.8-1.8,4.3-3.2,7.4c-1.2,2.1-1.9,4.4-1.9,6.8c0,1,0.1,2,0.4,3
		c-1.2-0.2-2.4-0.4-3.6-0.4c-2.2,0-4.3,0.6-6.2,1.7c-1.4-0.6-2.9-1-4.5-1c-1,0-2.1,0.2-3.1,0.5h-1.1c-0.8,0-2.1,0-3.8,0h-3.1
		l-2.1,0.1c-1,0-1.6,0-1.9,0h-0.4c-1.1-0.2-2.3-0.3-3.4-0.3c-2.3-0.1-4.7,0.5-6.7,1.7c-3.1,1.8-5.2,5-5.5,8.6c-0.1,1-0.1,2-0.1,3
		c0,0.8,0,1.9,0,3.3V79c-0.6-0.7-1.2-1.3-1.8-1.9s-1.1-1.1-1.5-1.4c-0.9-0.8-1.9-1.5-3-2.1c-1.9-1.1-4-1.7-6.2-1.8h-0.4
		c-1.9,0-3.8,0.4-5.5,1.2c-1.8,0.8-3.4,1.9-4.8,3.3c-6.3,6.3-4.9,12.5-4,14.9l0.8,2.1l0.2,0.2c-0.5,0.1-1,0.2-1.6,0.4
		c-2.1,0.5-4,1.6-5.6,3.1c-1.5,1.4-2.6,3.1-3.3,5c-0.7,1.8-1,3.8-1,5.7c0,8.9,5.4,12.3,7.7,13.3l2,0.9h2.2l-0.1,0.2
		c-1.1,1.9-1.7,4.1-1.8,6.3c0,2,0.4,4,1.2,5.9c0.8,1.8,1.9,3.4,3.3,4.8c3.2,3.2,6.7,4.8,10.5,4.8c1.5,0,3-0.3,4.4-0.8l2.1-0.8
		l1.6-1.6"/>
	<path class="st1" d="M152,33.3c2.5,0.1,4,0.2,4.5,0.3s0.7,0.2,0.7,0.5c0.1,0.3,0.1,0.5,0.3,0.7l0.3,1l0.3,1.1
		c0.2,0.4,0.3,0.7,0.4,1.1c0.3,1.5,0.7,3,1.2,4.5c0.5,1.5,0.8,2.6,1,3.3l0.7,2.7c0.4,1.8,0.6,2.9,0.7,3.4l0.2,1.4
		c0,0.1,0.1,0.4,0.2,0.9c0,0.3,0.1,0.5,0.2,0.8c0,0.1,0.1,0.4,0.2,0.8c0.1,0.4,0.2,0.7,0.2,0.8c0,0.1,0.1,0.5,0.3,1.2
		c0.2,0.7,0.4,1.4,0.6,2l0.4,1.8c0.1,0.3,0.2,0.7,0.3,1c0.1,0.5,0.2,0.8,0.2,1l0.7,2.5c0.1,0.7,0.3,1.4,0.6,2.1
		c0.1,0.3,0.2,0.8,0.4,1.5c0.2,1,0.5,2.1,0.9,3.1c0.2,0.6,0.4,1.3,0.7,1.8c0,0,0.1,0.1,0.1,0.4c0,0.2,0,0.5-0.1,0.7
		c-0.1,0.2-0.5,0.3-1,0.3h-2.5c-0.2,0-0.4,0.1-0.7,0.1h-0.7h-0.6h-0.2c-0.1,0-0.3,0.1-0.4,0.1h-0.6h-0.7h-1.9
		c-0.7,0.1-1.5,0.2-2.2,0.2c-0.5,0-1,0-1.4-0.2h-0.8c-0.1-0.2-0.2-0.7-0.5-1.5c-0.2-0.8-0.5-1.5-0.6-2c-0.3-1.2-0.5-1.9-0.6-2.2
		c-2.4,0.3-4.8,0.5-7.3,0.6h-0.5h-0.4c-0.4-0.1-0.8-0.1-1.3-0.1c-0.2,0-0.8,0-1.9,0.1h-0.6h-0.7c0,0.2-0.1,0.4-0.2,0.5
		c0,0.1-0.1,0.2-0.2,0.4l-0.2,0.5l-0.1,0.3l-0.1,0.2c0,0.1,0,0.1-0.1,0.2l-0.1,0.1c-0.2,0.3-0.4,0.7-0.5,1.1
		c-0.4,1.1-0.8,1.7-1.1,1.9c-0.5,0.1-1,0.2-1.5,0.1c-1-0.1-1.9-0.1-2.9-0.1h-0.8c-0.8,0-1.7,0-2.7-0.1s-1.9-0.2-2.8-0.3l-1.3-0.2
		c-0.8-0.1-1.2-0.3-1.3-0.7c-0.1-0.2-0.1-0.3-0.1-0.5c0.1-0.7,0.4-1.4,0.8-2c1.4-2.9,2.4-5.3,3.1-7.1c2-3.4,3.8-6.9,5.4-10.5
		c0.1-0.2,0.1-0.3,0.2-0.4l0.2-0.2l1.9-3c0.7-1.3,1.2-2.3,1.5-3l1-2l0.5-1.1c0.2-0.3,0.3-0.7,0.6-1c0-0.1,0.1-0.2,0.2-0.3
		c0.1-0.2,0.2-0.4,0.4-0.6l0.4-0.7c0.9-1.9,1.9-3.8,3-5.6l1.5-2.5c0.1-0.1,0.1-0.2,0.2-0.3l0.2-0.3c0,0,0.1-0.1,0.1-0.2l0.3-0.2h2.8
		C150.6,33.2,151.9,33.3,152,33.3z M143.9,61.2l1.3,0.1h5.1c-0.1-0.6-0.2-1-0.3-1.2l-0.1-0.3c-0.1-0.2-0.2-0.3-0.2-0.5
		c-0.1-0.2-0.1-0.3-0.2-0.5l-0.7-2.2l-0.6-2c-0.1-0.3-0.2-0.7-0.2-1c0-0.2-0.2-0.3-0.4-0.4c-0.3,0.6-0.5,1.1-0.7,1.8l-0.9,1.9
		c-0.1,0.2-0.3,0.5-0.4,0.7c0,0.2-0.1,0.3-0.2,0.5l-0.1,0.3c-0.2,0.3-0.4,0.6-0.5,1l-0.4,0.9c-0.2,0.1-0.3,0.3-0.3,0.4
		c0,0.1,0,0.2-0.1,0.3L143.9,61.2z"/>
	<path class="st1" d="M86.4,86.1c0.4-0.2,0.8-0.2,1.2-0.2c0.5,0,1.1,0,1.6,0.2c0.6,0.1,1.1,0.1,1.7,0.1c0.5,0,1.1,0,1.9,0h1.5h2.8
		h3.1c0.7,0,1.3,0,1.9,0.1h0.2c0.3,0,0.6-0.1,0.9-0.2c0.2-0.1,0.4-0.2,0.5-0.2c0.2,0,0.4,0.2,0.5,0.5c0.2,1.3,0.3,2.6,0.2,3.9
		c-0.2,2.5-0.2,5-0.2,7.5v2.6c0,0.9,0,1.7,0,2.3c0,0.6,0,1,0,1c-0.1,0.4-0.1,1.9-0.1,4.6c0,4.2,0,6.5,0.1,6.9
		c0.2,2.2,0.6,4.3,1.1,6.5c0.3,1.2,0.9,2.4,1.6,3.4c0.3,0.2,0.6,0.2,0.9,0.2c1,0,1.9-0.5,2.6-1.2c0.6-0.7,1-1.4,1.3-2.3
		c0.3-1.9,0.4-3.8,0.3-5.8c0.1-1.8,0-3.6-0.3-5.4c-0.1-0.1-0.1-0.2-0.1-0.3c0-0.2,0-0.3,0-0.5c0-0.2,0-0.4,0-0.6v-0.3
		c-0.1-0.2-0.1-0.4-0.1-0.6c0-0.2,0-0.5,0-1s0-0.8,0-1v-0.5c-0.1-0.3-0.1-0.7-0.1-1c0-0.3,0-0.7,0-1.3s0-1.1,0-1.4v-0.7
		c-0.1-0.3-0.1-0.7-0.1-1c0-0.3,0-0.7,0-1.3s0-0.9,0-1.1v-0.3c-0.1-0.6-0.1-1.5-0.1-2.7c0-0.8,0-1.9,0.1-3.3
		c0.1-1.4,0.1-2.4,0.1-2.9c0-0.5,0-1.1-0.1-1.6v-1.1l-0.1-0.3c0-0.1,0-0.2,0.1-0.2c0.3-0.2,0.7-0.4,1.1-0.4c0.6,0,1.1,0.1,1.7,0.2
		c1.4,0.2,2.7,0.3,4.1,0.2c0.7,0,1.4,0,2.2,0h1.4c1,0,2,0.1,3,0.2c1.5,0.1,2.2,0.2,2.3,0.4c0.2,0.2,0.3,2.2,0.4,6.2v7.2
		c0,1.9,0,3.6-0.1,5.1c-0.2,1.6-0.2,3.3-0.2,4.9c0,1.3,0,2.4-0.1,3.4c-0.1,1.8-0.2,4.1-0.2,7.1c0,2.1-0.1,4.5-0.2,7.3
		c-0.1,0.5-0.1,1.4-0.2,2.7c-0.1,1.3-0.1,2.3-0.1,2.7c0,1.4-0.3,2.7-0.7,4c-0.1,0.6-0.3,1.2-0.5,1.7c-0.1,0.4-0.3,0.8-0.5,1.1
		c-0.1,0.2-0.2,0.5-0.4,0.7c-0.1,0.2-0.2,0.4-0.3,0.6c-0.5,0.7-1.1,1.3-1.7,1.9c-1.8,1.7-4,2.9-6.5,3.2c-0.5,0-0.9,0.2-1.3,0.4
		c-1.7,0.3-3.4,0.5-5.1,0.5c-0.9,0.1-1.9,0.2-2.8,0.2c-1,0-2-0.1-3-0.3c-0.4-0.2-0.9-0.3-1.3-0.3c-0.2-0.1-0.6-0.3-1.4-0.6
		c-0.8-0.5-1.6-0.9-2.4-1.3c-0.7-0.3-1.3-0.7-1.9-1.2l-1.3-0.6c-1.1-0.7-2.1-1.7-2.9-2.7c-0.1-0.2-0.3-0.4-0.4-0.6
		c-0.2-0.3-0.4-0.5-0.5-0.7c-1.5-1.9-2.5-4.1-2.7-6.5c-0.1-0.4-0.3-1.2-0.5-2.3c-0.6-3.3-0.9-6.6-1-10c-0.2-2.7-0.4-4.9-0.6-6.7
		c-0.4-3-0.6-6-0.6-9c0-2.4-0.1-4.8-0.5-7.2c-0.2-1-0.2-2.1-0.2-3.1c0-0.4,0-1.1,0-2.3c0-1.2,0-2.2,0-3c0-1.5,0.1-2.2,0.2-2.2
		C86.1,86.5,86.4,86.4,86.4,86.1C86.4,86.1,86.4,86.1,86.4,86.1z"/>
	<path class="st1" d="M150.6,146c-0.7,0.1-1.4,0.2-2.2,0.2c-1.4,0-2.8-0.1-4.3-0.2c-0.9-0.1-1.8-0.2-2.6-0.2c-0.5,0-1.1,0-1.6,0.2
		c-0.6,0.2-1.3,0.2-1.9,0.2c-0.6,0-1.7-0.1-3.3-0.2c-0.9,0.1-1.8-0.1-2.6-0.4c-0.5-0.4-0.9-0.9-0.9-1.6c-0.1-0.8-0.1-1.6-0.1-2.3
		c0-1.5,0-2.7,0.1-3.6c0.1-1.1,0.2-3.9,0.2-8.3c0-7-0.1-11.6-0.4-13.9c-0.2-1.5-0.3-3-0.3-4.4c-0.1-2.9-0.2-5.4-0.4-7.4
		c-0.2-2.7-0.4-6.6-0.5-11.8c0-0.6-0.1-1.8-0.2-3.6c-0.1-1.8-0.2-2.9-0.2-3.4c0-0.3,0-0.5,0.1-0.8c0.2-0.5,0.8-0.7,2-0.7h5
		c0.3,0,0.7,0,1.2,0h1c0.2,0,0.5,0,0.7-0.1h1.8h0.4h0.5h0.5h0.4h22.6c0.3,0.7,0.4,1.5,0.3,2.3v9.3c0.1,2,0,4.1-0.2,6.1
		c-0.1,0.5-0.2,1.1-0.2,1.6h-0.2c-0.1,0-0.2-0.1-0.3-0.1c-0.1,0-0.2,0-0.3,0.1h-3.4c-0.5,0-1.1,0-1.9,0h-1.6c-0.5,0-0.9,0-1.4,0.1
		c-0.3,0.1-0.7,0.1-1,0.1c-0.3,0-0.6,0-0.9-0.1c-0.2-0.1-0.5-0.1-0.7-0.1h-1.1c-0.6,0-1.1,0-1.5,0h-1.3c-0.2-0.1-0.4-0.1-0.5-0.1
		c-0.5,0-0.8,0.6-0.8,1.9c0,0.7,0,1.4,0.2,2.1c0.1,1.1,0.3,2.2,0.6,3.3c0.3,0.5,2.1,0.7,5.4,0.7c1.7,0,2.9,0,3.8-0.1
		c0.4,0,0.8,0,1.4-0.1l1.5-0.1h0.9c0.8,0.2,1.2,0.3,1.3,0.5l0.4,0.4l-0.1,3.6c0,3.1,0,5.7,0.1,7.8c0,2.5-0.1,3.9-0.4,4.2
		c-0.4,0.3-1,0.5-1.5,0.4h-0.2c-0.3,0-0.6,0.1-0.9,0.2c-2.2,0.3-4.5,0.4-6.7,0.3c-2.4,0-3.8,0.1-4.1,0.4c-0.2,0.3-0.3,0.7-0.2,1
		c0,0.1,0,1.5,0.1,4.3c0.1,2.8,0.1,5.5,0.2,8.2C150.5,144.6,150.6,145.9,150.6,146z"/>
	<path class="st1" d="M204.5,87.9c0.6,0.2,1.2,0.5,1.7,0.9c0.3,0.5,0.5,1.2,0.4,1.8c0,0.2,0,0.7-0.1,1.4c-0.1,0.6-0.1,1.1-0.1,1.7
		c0,0.3,0,0.8,0,1.3s0,1.1,0,1.5v1.3c0,0.2,0,0.5,0,0.9s0,0.7,0,0.9v1.9c0,0.3-0.1,0.5-0.2,0.8c-0.1,0.2-0.1,0.5-0.2,0.7
		c0,0.4,0.1,0.7,0.2,1.1c0.1,0.3,0.1,0.7,0.2,1c0.1,0.9,0,1.9-0.2,2.8c-0.1,0.1-0.3,0.1-0.4,0.2c-0.2,0-0.4-0.1-0.5-0.3
		c-0.2-0.2-0.3-0.3-0.4-0.3c-0.8-0.3-1.5-0.7-2.1-1.2c-1.1-1-2.4-1.8-3.9-2.3c-0.2,0-0.4-0.1-0.6-0.2c-0.2-0.1-0.5-0.1-0.7-0.2
		c-1.6-0.5-3.2-0.8-4.8-0.8c-1.2-0.1-2.4,0.1-3.5,0.4c-1.2,0.5-2.2,1.3-3.1,2.3c-0.6,0.6-1.2,1.2-1.6,2c-0.5,1.2-0.8,2.5-0.9,3.8
		c-0.3,1.4-0.4,2.9-0.5,4.3c0,0.2,0,0.5,0.1,0.7c0,0.2,0.1,0.5,0.2,0.7c0.1,0.3,0.2,0.7,0.3,1c0.3,1.9,0.8,3.7,1.4,5.4
		c0.8,1.5,2.2,2.6,3.8,3.1c1.9,0.4,2.8,0.6,2.9,0.6h0.2h0.2c0.3-0.1,0.6-0.1,0.9-0.2h0.9h0.9h0.4c0.8-0.1,1.8-0.2,2.8-0.3
		c1-0.1,2.1-0.2,3.1-0.4c0.3,0,0.6-0.1,0.9-0.2c0.3-0.1,0.6-0.2,0.9-0.3c0.2,0,0.5-0.1,0.7-0.2c0.3-0.1,0.5-0.1,0.8-0.2
		c0.3,0,0.5,0.1,0.7,0.3c0.2,0.2,0.3,0.5,0.3,0.9c0,0.3-0.1,0.6-0.2,0.9c-0.1,0.3-0.1,0.7-0.2,1v12.8c0,0.3,0.1,0.6,0.2,0.9
		c0.1,0.3,0.1,0.5,0.2,0.8c0,0.3-0.1,0.5-0.3,0.7c-0.5,0.4-1.1,0.7-1.7,0.7c-0.6,0-1.1,0.2-1.6,0.3c-0.3,0.1-0.6,0.2-0.8,0.4
		c-0.3,0.2-0.6,0.3-0.9,0.4c-0.2,0.1-1.2,0.2-3.1,0.5l-1.4,0.4l-1.4,0.4c-0.9,0.2-1.8,0.3-2.6,0.3c-0.7,0-1.4,0-2.1-0.2
		c-2.8-0.6-4.3-0.9-4.5-1c-0.2-0.2-0.5-0.3-0.8-0.2c-1.2-0.3-2.3-0.9-3.3-1.6c-1.4-0.8-2.6-1.7-3.8-2.8c-1.2-1.2-2.3-2.6-3.3-4
		c-0.1-0.2-0.3-0.4-0.5-0.5c-0.3-0.2-0.6-0.5-0.8-0.8l-0.5-0.9c-0.3-0.5-0.5-1-0.9-1.4l-1-1.6c-0.2-0.5-0.4-0.9-0.5-1.2
		c-0.9-2.2-1.5-4.6-1.8-6.9c-0.3-1.8-0.4-3.7-0.5-5.5v-0.3c0-0.1,0-0.5,0.1-1.3c0.1-0.8,0.1-1.4,0.1-1.9c0-2.3,0.1-4.7,0.5-7
		c0.1-0.8,0.3-1.5,0.5-2.3c0.2-0.6,0.4-1.4,0.6-2.3l0.9-2.6c0.1-0.2,0.4-1,0.9-2.4c0.2-0.4,0.4-0.8,0.5-1.2c0.7-1.6,1.6-3,2.7-4.4
		c1.1-1.4,2.3-2.6,3.6-3.7c1.2-1,2.5-1.8,3.9-2.3c0.7-0.2,1.4-0.4,2.1-0.6c0.5-0.3,1.1-0.4,1.6-0.5c0.2-0.1,0.4-0.1,0.5-0.1
		c0.2,0,0.4-0.1,0.6-0.1c0.2,0,0.3-0.1,0.5-0.1c1.3-0.2,2.7-0.2,4-0.2c3.1,0.1,5.2,0.2,6.4,0.3c1.3,0.2,2.5,0.6,3.7,1.1
		c0.2,0,0.5,0.1,0.7,0.2c0.3,0.1,0.5,0.2,0.8,0.3c0.3,0.1,0.6,0.2,0.9,0.4C203.9,87.8,204.2,87.9,204.5,87.9z"/>
	<path class="st1" d="M100.1,160.9c0.3,0.2,0.4,0.5,0.4,0.9c-0.2,1.1-0.6,2.1-1.2,3c-0.9,1.5-1.9,3-3,4.3c-1.3,1.6-2.9,2.9-4.7,3.9
		c-1.7,1.1-3.7,1.6-5.7,1.7c-1.6,0-3.1-0.4-4.4-1.1c-1.3-0.7-2.5-1.8-3.3-3.1c-2.5-0.5-5-1.3-7.3-2.2c-3.3-1.3-5.7-1.9-7.3-1.9
		c-1.7-0.1-3.4,0.5-4.7,1.7c-1.2,1-1.9,2.6-1.9,4.2c0,1.1,0.3,2.3,1,3.2c0.7,0.9,1.8,1.4,3,1.4c0.7,0,1.3-0.1,1.9-0.5
		c0.4-0.3,0.8-0.8,0.9-1.3c0.1-0.5,0.2-0.9,0.2-1.4c0-0.4-0.1-0.8-0.2-1.2c2.3-0.3,3.5,0.5,3.5,2.4c0,1.4-0.7,2.7-1.8,3.6
		c-1.2,1-2.7,1.6-4.3,1.5c-2,0-3.9-0.8-5.3-2.1c-1.5-1.4-2.4-3.4-2.3-5.4c0-2.3,1.1-4.5,2.9-5.9c2-1.5,4.4-2.3,6.9-2.3
		c2.2,0,5.5,0.8,9.9,2.5c1.3,0.5,2.5,0.9,3.6,1.2c-0.3-0.9-0.4-1.9-0.4-2.9c0-2.4,0.7-4.8,2.1-6.7c1.2-1.9,3.3-3,5.5-3
		c1.3-0.1,2.6,0.5,3.5,1.4c0.9,1,1.3,2.4,1.2,3.7c0,3.2-1.8,6-5.3,8.4c0.8,1.4,2.3,2.3,4,2.3c1.6-0.1,3.2-0.7,4.4-1.8
		c1.5-1.1,2.8-2.4,3.9-3.9c1-1.4,2-2.9,2.8-4.4C99,160.6,99.6,160.6,100.1,160.9z M87.3,150.2c-1.8,2.2-3.4,3.3-4.9,3.3
		c-0.8-0.1-1.5-0.5-2.1-1.1c0.5-0.6,1-1.3,1.5-1.9c0.4-0.7,0.8-1.2,1.1-1.7c0.3-0.5,0.5-1,0.7-1.5c0.2-0.5,0.4-0.9,0.5-1.2
		c0.1-0.3,0.2-0.6,0.3-1l0.2-0.7c0.8-0.5,1.8-0.8,2.8-0.8c0.6,0,1.2,0.1,1.8,0.3c0.5,0.1,0.8,0.5,0.8,1
		C90,146.3,89.1,148,87.3,150.2L87.3,150.2z M82.8,159.7c-0.5,1.1-0.8,2.4-0.7,3.6c0,0.9,0.1,1.8,0.3,2.8c2.1-1.9,3.2-3.9,3.2-5.7
		c0-1.2-0.4-1.9-1.2-1.9C83.9,158.5,83.3,158.9,82.8,159.7L82.8,159.7z"/>
	<path class="st1" d="M146.7,162.6c-0.2,0.9-0.6,1.8-1.2,2.5c-0.9,1.3-2,2.6-3.1,3.7c-1.4,1.4-3.1,2.5-4.8,3.4
		c-1.8,0.9-3.7,1.5-5.8,1.5c-1.3,0.1-2.5-0.4-3.5-1.3c-1-1.1-1.4-2.6-1.3-4c0-1.2,0.1-2.4,0.3-3.6c0.2-1.4,0.3-2.4,0.3-2.9
		c0-0.3-0.1-0.5-0.3-0.5c-0.1,0-0.3,0.1-0.4,0.1c-0.2,0.1-0.3,0.3-0.4,0.4l-0.4,0.6c-0.1,0.2-0.2,0.5-0.4,0.8
		c-0.2,0.3-0.3,0.7-0.4,0.9c-0.1,0.3-0.2,0.6-0.4,1.1l-0.4,1.1c-0.5,1.5-1.3,3-2.1,4.4c-0.5,0.9-1.3,1.5-2.4,1.6
		c-1.1,0-2.2-0.6-2.8-1.6c0.4-2.5,0.7-4.9,0.8-7.4c0-1.9-0.1-2.8-0.4-2.8s-0.8,0.7-1.5,2c-0.7,1.3-1.3,2.8-2,4.4
		c-0.7,1.6-1.6,3-2.7,4.4c-0.8,1.1-2,1.9-3.4,2c-1.2,0-2.3-0.5-3.1-1.4c0.1-0.5,0.2-1.8,0.4-3.8c0.2-2,0.3-3.4,0.4-4.2
		c0-1.1,0-2.2-0.1-3.3c-0.1-1.2-0.3-2.4-0.7-3.6c0.7-0.7,1.7-1.1,2.8-1.1c2.1,0,3.2,2.1,3.2,6.3c0,1.4-0.1,2.9-0.3,4.3
		c0.9-2.2,2-4.4,3.2-6.5c1.4-2.2,3.1-3.3,5-3.3c1.1-0.1,2.1,0.5,2.7,1.4c0.7,1.1,1.1,2.4,1,3.7c0,0.7,0,1.2,0,1.5
		c0.7-1.7,1.6-3.2,2.8-4.6c1-1,2.3-1.6,3.8-1.5c0.9,0,1.8,0.3,2.5,1c0.6,0.8,1,1.8,0.9,2.8c0,0.7-0.1,1.7-0.2,3.2s-0.2,2.6-0.2,3.2
		c0,2.3,0.7,3.4,2.1,3.4c1.6,0,3.6-1,5.8-2.9c2.1-1.8,4-3.9,5.5-6.3C146.3,161.6,146.7,161.9,146.7,162.6z"/>
	<path class="st1" d="M166.7,161.8c0.1,0.1,0.2,0.3,0.3,0.6c-0.2,0.7-0.4,1.4-0.9,2c-0.6,1.1-1.4,2.1-2.1,3.1
		c-0.9,1.1-1.9,2.1-3.1,2.9c-1,0.8-2.2,1.2-3.4,1.3c-1.7,0-2.7-1.1-3-3.3c-0.6,1.6-1.6,3-3,4c-1.2,1-2.7,1.5-4.2,1.6
		c-1.5,0-2.9-0.6-3.9-1.7c-1-1.2-1.6-2.7-1.5-4.3c0-2.9,1-5.8,3-8c1.8-2.2,4.5-3.5,7.3-3.5c1.5,0,2.9,0.5,4,1.4
		c1,0.7,1.8,1.7,2.2,2.9c-0.4,1.6-0.6,3.3-0.7,5c0,1.7,0.5,2.6,1.4,2.6c0.4,0,0.8-0.2,1.1-0.5c0.5-0.4,1-0.8,1.5-1.3
		c0.5-0.6,1-1.1,1.5-1.6s1-1.1,1.5-1.9l1.2-1.5h0.2C166.2,161.5,166.5,161.6,166.7,161.8z M151.5,166.1c1-1.9,1.8-3.9,2.2-5.9
		c-0.3-0.8-0.8-1.2-1.4-1.2c-1.1,0-2.2,1.1-3.4,3.2c-1,1.6-1.6,3.5-1.8,5.5c0,0.4,0.1,0.9,0.3,1.3c0.2,0.4,0.4,0.6,0.7,0.6
		C149.2,169.5,150.3,168.4,151.5,166.1z"/>
	<path class="st1" d="M183,163c-2.8,0.5-5.4,1.4-7.9,2.7c0.9,1,1.3,2.2,1.4,3.6c0,1.7-0.9,3.3-2.4,4.3c-1.7,1.2-3.8,1.8-5.9,1.6
		c-1,0-1.9-0.2-2.8-0.8c-0.6-0.4-1-1.1-1-1.9c0-1.5,1.4-3.3,4.1-5.2c-1-0.9-1.9-1.8-2.7-2.9c-0.5-0.8-0.8-1.8-0.8-2.8
		c0-1.1,0.3-2.1,1-3c0.7-0.8,1.6-1.5,2.6-1.8c1.2-0.4,2.4-0.5,3.7-0.4c0.8,0,1.5,0.4,2.1,0.9c0,0.9-0.4,1.7-1.2,2.2
		c-1,0.6-2.2,0.9-3.4,0.7c-0.4,0.8,0.5,1.9,2.8,3.4c0.3,0.2,0.6,0.4,0.9,0.7c3.6-1.7,6.3-2.6,8.2-2.6
		C182.7,161.6,183.1,162.1,183,163z M170,168.7c-2.1,1.5-3.2,2.8-3.2,3.7c0,0.2,0.2,0.3,0.6,0.3c0.7,0,1.4-0.3,2-0.7
		c0.6-0.4,1-1.1,1-1.9C170.4,169.6,170.2,169.1,170,168.7L170,168.7z"/>
	<path class="st1" d="M198.8,163c-2.8,0.5-5.4,1.4-7.9,2.7c0.9,1,1.3,2.2,1.4,3.6c0,1.7-0.9,3.3-2.4,4.3c-1.7,1.2-3.8,1.8-5.9,1.6
		c-1,0-1.9-0.2-2.8-0.8c-0.6-0.4-1-1.1-1-1.9c0-1.5,1.4-3.3,4.1-5.2c-1-0.9-1.9-1.8-2.7-2.9c-0.5-0.8-0.8-1.8-0.8-2.8
		c0-1.1,0.3-2.1,1-3c0.7-0.8,1.6-1.5,2.6-1.8c1.2-0.4,2.4-0.5,3.7-0.4c0.8,0,1.5,0.4,2.1,0.9c0,0.9-0.4,1.7-1.2,2.2
		c-1,0.6-2.2,0.9-3.4,0.7c-0.4,0.8,0.5,1.9,2.8,3.4c0.3,0.2,0.6,0.4,0.9,0.7c3.6-1.7,6.3-2.6,8.2-2.6
		C198.6,161.6,199,162.1,198.8,163z M185.8,168.7c-2.1,1.5-3.2,2.8-3.2,3.7c0,0.2,0.2,0.3,0.6,0.3c0.7,0,1.4-0.3,2-0.7
		c0.6-0.4,1-1.1,1-1.9C186.2,169.6,186.1,169.1,185.8,168.7L185.8,168.7z"/>
	<path class="st1" d="M238.4,152.8c0.7,1.3,1,2.9,1,4.4c0.1,3.5-1.2,6.8-3.8,9.2c-2.5,2.3-5.8,3.6-9.3,3.6c-2.1,0.1-4.2-0.5-6-1.8
		c-1.9,2.2-4.6,3.6-7.6,3.6c-1.2,0.1-2.4-0.3-3.3-1.2c-0.7-0.7-1.3-1.6-1.6-2.6c-0.6,1.7-1.6,3.1-3,4.1c-1.2,1-2.7,1.6-4.3,1.7
		c-1.5,0-2.9-0.6-3.9-1.7c-1-1.2-1.6-2.7-1.5-4.3c0-2.9,1-5.8,3-8c1.8-2.2,4.5-3.5,7.3-3.5c1.5,0,2.9,0.5,4,1.4
		c1,0.7,1.8,1.7,2.2,2.9c-0.4,1.6-0.6,3.3-0.7,4.9c0,2.2,0.8,3.3,2.4,3.3c2-0.1,3.9-1,5.3-2.5c-0.6-1-0.9-2.1-0.9-3.3
		c-0.1-1,0.2-2.1,0.9-2.9c0.5-0.6,1.2-0.9,2-0.9c0.7,0,1.4,0.3,1.8,0.9c0.4,0.6,0.6,1.2,0.6,1.9c0,1.5-0.4,2.9-1.1,4.2
		c1.1,0.8,2.5,1.2,3.9,1.2c2.4,0,4.6-0.8,6.4-2.4c1.9-1.5,2.9-3.8,2.9-6.2c0-0.7-0.1-1.4-0.2-2.1c-0.1-0.6-0.3-1.1-0.7-1.6
		c-0.2-0.3-0.5-0.7-0.8-1c-0.3-0.3-0.6-0.6-1-0.9c-0.5-0.4-0.7-0.6-0.8-0.6c0.8-1.2,2.2-1.9,3.6-1.9
		C236.7,150.9,237.9,151.7,238.4,152.8z M205,166.1c1-1.9,1.8-3.9,2.2-5.9c-0.3-0.8-0.8-1.2-1.4-1.2c-1.1,0-2.2,1.1-3.4,3.2
		c-1,1.6-1.6,3.5-1.8,5.5c0,0.4,0.1,0.9,0.3,1.3c0.2,0.4,0.4,0.6,0.7,0.6C202.7,169.5,203.8,168.4,205,166.1z M220,162.5
		c0,0.6,0.1,1.3,0.4,1.9c0.5-0.8,0.8-1.7,0.9-2.6c0-0.5-0.2-0.8-0.5-0.8C220.3,161.1,220,161.6,220,162.5L220,162.5z"/>
	<path class="st1" d="M222.2,114.2c0.2-0.3,0.5-0.6,0.8-0.7c0.4-0.2,0.7-0.3,1.1-0.4c0.3-0.1,0.9-0.2,1.7-0.3
		c2.6-0.4,5.3-0.7,7.9-0.7h1.4c0.4,0,0.8,0.1,1.2,0.2c0.4,0.1,0.8,0.3,1.1,0.5c0.3,0.3,0.5,0.6,0.6,1c0.2,0.5,0.3,1.1,0.3,1.7
		c0,1.8-0.5,2.9-1.4,3.3c-1.2,0-3.7-0.2-7.4-0.7c-3.7-0.4-6.1-0.9-7-1.4C221.9,116.1,221.8,115,222.2,114.2L222.2,114.2z"/>
	<path class="st1" d="M216.2,105.6c-0.1-0.4-0.1-0.7,0.1-1.1c0.1-0.4,0.3-0.7,0.5-1.1c0.2-0.3,0.5-0.7,1-1.4
		c1.6-2.2,3.3-4.2,5.1-6.1c0.4-0.4,0.8-0.7,1-0.9c0.3-0.3,0.6-0.5,1-0.7c0.3-0.2,0.7-0.3,1.1-0.4c0.4,0,0.8,0.1,1.2,0.3
		c0.5,0.2,1,0.6,1.4,1c1.3,1.3,1.7,2.4,1.4,3.4c-0.9,0.9-2.8,2.5-5.7,4.8c-2.9,2.3-4.9,3.6-5.9,3.9
		C217.3,107.1,216.5,106.5,216.2,105.6L216.2,105.6z"/>
	<path class="st1" d="M218.1,123.5c0.4-0.1,0.7-0.1,1.1,0.1c0.4,0.1,0.7,0.3,1.1,0.5c0.3,0.2,0.7,0.5,1.4,1c2.2,1.6,4.2,3.3,6.1,5.1
		c0.4,0.4,0.7,0.8,0.9,1c0.3,0.3,0.5,0.6,0.7,1c0.2,0.3,0.3,0.7,0.4,1.1c0,0.4-0.1,0.8-0.3,1.2c-0.2,0.5-0.6,1-1,1.4
		c-1.3,1.3-2.4,1.7-3.4,1.4c-0.9-0.9-2.5-2.8-4.8-5.7c-2.3-2.9-3.6-4.9-3.9-5.9C216.6,124.7,217.2,123.9,218.1,123.5L218.1,123.5z"
		/>
	<path class="st1" d="M70.3,115.3c0,0.6-0.1,1.1-0.5,1.6c-0.9,0.5-3.3,0.9-7,1.4c-3.7,0.4-6.2,0.7-7.4,0.7c-0.9-0.4-1.4-1.5-1.4-3.3
		c0-0.6,0.1-1.2,0.3-1.7c0.1-0.4,0.4-0.7,0.6-1c0.3-0.3,0.7-0.5,1.1-0.6c0.4-0.1,0.8-0.2,1.2-0.2h1.4c2.7,0.1,5.3,0.3,7.9,0.7
		c0.8,0.1,1.4,0.2,1.7,0.3c0.4,0.1,0.8,0.2,1.1,0.4c0.4,0.1,0.7,0.4,0.8,0.7C70.2,114.6,70.3,114.9,70.3,115.3z"/>
	<path class="st1" d="M75.5,106.6c-0.4,0.4-0.9,0.7-1.5,0.8c-1-0.3-3-1.6-5.9-3.9c-2.9-2.3-4.8-3.9-5.7-4.8c-0.4-1,0.1-2.1,1.4-3.4
		c0.4-0.4,0.9-0.8,1.4-1c0.4-0.2,0.8-0.3,1.2-0.3c0.4,0,0.8,0.2,1.1,0.4c0.4,0.2,0.7,0.4,1,0.7c0.2,0.2,0.6,0.5,1,0.9
		c1.8,1.9,3.5,4,5.1,6.1c0.5,0.7,0.8,1.1,1,1.4c0.2,0.3,0.4,0.7,0.5,1.1c0.2,0.3,0.2,0.7,0.1,1.1C76,106,75.8,106.3,75.5,106.6z"/>
	<path class="st1" d="M75.2,124.1c0.4,0.4,0.7,0.9,0.8,1.5c-0.3,1-1.6,2.9-3.9,5.9c-2.3,2.9-3.9,4.8-4.8,5.7c-1,0.4-2.1-0.1-3.4-1.4
		c-0.4-0.4-0.8-0.9-1-1.4c-0.2-0.4-0.3-0.8-0.3-1.2c0-0.4,0.2-0.8,0.4-1.1c0.2-0.4,0.4-0.7,0.7-1c0.2-0.2,0.5-0.6,1-1
		c1.9-1.8,4-3.5,6.1-5.1c0.7-0.5,1.1-0.8,1.4-1c0.3-0.2,0.7-0.4,1.1-0.5c0.3-0.2,0.7-0.2,1.1-0.1C74.6,123.6,74.9,123.8,75.2,124.1z
		"/>
	<path class="st1" d="M34.2,194c0,0.1,0,0.5,0,1.4c0,0.9,0,1.4,0,1.6v0.1v0.1v0.1c0,0.1,0,0.2-0.1,0.3h-2.2
		c-0.1-0.1-0.2-0.2-0.2-0.4c0-0.1,0-0.2,0-0.4c0-0.1,0-0.9-0.1-2.3c0-0.1,0-0.2,0-0.4s0-0.4,0-0.4s0-0.1,0-0.2s0-0.1,0-0.1
		c0-0.1,0-0.1,0-0.2l-0.1-0.5c-0.1-0.6-0.1-2-0.2-4.1l0,0c0-0.1,0-0.1,0.1-0.2c0.1,0,0.2,0,0.3,0l0,0h1h0.7h0.1c0.2,0,0.4,0,0.7,0
		c0.3,0,0.6,0,0.8,0c0.3,0,0.6,0,0.9,0H36h0.2c0.1,0,0.3,0.1,0.4,0.2c0.1,0.1,0.3,0.2,0.4,0.3c0.2,0.3,0.4,0.7,0.4,1.1
		c0,0.1,0,0.3,0,0.4c0,0.4,0,0.7-0.1,1.1c-0.1,0.5-0.3,1-0.6,1.4l-0.1,0.2c-0.3,0.4-0.7,0.7-1.2,0.8c-0.2,0-0.4,0.1-0.6,0.1h-0.4
		C34.3,193.9,34.2,194,34.2,194z M34.6,190.1h-0.2h-0.3c-0.2,0-0.3,0-0.3,0c0,0,0,0.1,0,0.1c0,0,0,0,0,0.1c0,0,0,0.1,0,0.1
		c0,0.3,0,0.7,0,1c0,0,0,0.1,0,0.1c0,0,0,0.1,0,0.1c0,0.1,0,0.1,0,0.2l0,0H34c0.2-0.1,0.4-0.2,0.6-0.4c0.1-0.1,0.2-0.3,0.2-0.6
		c0-0.2,0-0.4-0.1-0.5C34.7,190.2,34.6,190.1,34.6,190.1z"/>
	<path class="st1" d="M40.2,188.3h0.3c0.1,0,0.1,0,0.2,0h0.2c0.1,0,0.1,0.1,0.1,0.2c0,0.1,0,0.1,0,0.2c0,0.1,0,0.1,0,0.3
		s0,0.2,0,0.3s0,0.2,0,0.4c0,0.1,0,0.2,0,0.4v3.1c0,0.1,0,0.1,0,0.2v1.4c0,0.2,0,0.5,0,0.7c0,0.1,0,0.2,0,0.3v1.4v0.5h-2.2h-0.4
		c-0.1,0-0.1,0-0.1,0c0,0,0-0.1,0-0.1c0,0,0-0.1,0-0.2s0-0.2,0-0.2v-3.4c0,0,0-0.1,0-0.2s0-0.2,0-0.2c0-0.1,0-0.1,0-0.2v-0.6
		c0,0,0,0,0-0.1c0,0,0-0.1,0-0.1c0,0,0-0.1,0-0.1v-0.1c0,0,0-0.1,0-0.2s0-0.1,0-0.2c0,0,0-0.1,0-0.1v-3.3c0.2,0,0.5,0,0.7,0
		c0.3,0,0.5,0,0.8,0H40.2L40.2,188.3z"/>
	<path class="st1" d="M47,188.2h3.7h1.2h0.5h0.1c0.1,0,0.2,0,0.3,0.1v0.1l0,0v0.1c0,0.2,0,0.5,0,0.8s0,0.5,0,0.7v0.3
		c0,0.3,0,0.5-0.1,0.8c0,0.1-0.1,0.2-0.3,0.2c-0.2,0-0.5,0.1-0.7,0.1h-0.1h-0.1v0.1c0,0.1,0,0.2,0,0.2v0.1c0,0.1,0,0.2,0,0.2
		c0,0.1,0,0.1,0,0.2c0,0.1,0,0.2,0,0.3c0,0,0,0.1,0,0.1c0,0,0,0.1,0,0.1s0,0.1,0,0.1v2.9c0,0.2,0,0.4,0,0.6c0,0.1,0,0.2,0,0.2
		c0,0.1,0,0.1,0,0.2c0,0.2,0,0.3-0.1,0.5c-0.1,0.1-0.3,0.1-0.4,0.1h-1.1c-0.1,0-0.1,0-0.2,0c-0.1,0-0.3,0-0.4,0h-0.4h-0.1
		c-0.1,0-0.1,0-0.1-0.1l-0.1-0.1V197c0-0.1,0-0.3,0-0.4c0-0.1,0-0.1,0-0.2l0,0c0,0,0-0.1,0-0.2s0-0.1,0-0.2s0-0.1,0-0.2s0-0.1,0-0.1
		s0-0.1,0-0.2s0-0.3,0-0.4c0-0.3,0-0.7,0-1.2c0-0.1,0-0.2,0-0.3c0-0.1,0-0.2,0-0.3v-0.7c0-0.2,0-0.4,0-0.6c0-0.2,0-0.4,0-0.6
		c0-0.2,0-0.4,0-0.6l0,0h-0.8c-0.4,0-0.6,0-0.8,0c-0.6,0-1.1,0.1-1.7,0.4c-0.1,0.1-0.2,0.2-0.3,0.3c-0.1,0.1-0.2,0.2-0.3,0.4
		c-0.1,0.1-0.1,0.2-0.2,0.3c-0.1,0.2-0.1,0.5-0.1,0.7c0,0.3,0,0.6,0.2,0.8c0.1,0.2,0.2,0.4,0.4,0.5H45h0.1h0.1h0.1
		c0.7,0.1,1.4,0.1,2.2,0.1c0,0,0,0,0,0.1c0,0,0,0.1,0,0.1c0,0,0,0.1,0,0.1v2.2c0,0,0,0.1,0,0.2s0,0.2,0,0.2s0,0.2-0.1,0.3l-0.7-0.1
		l-0.8-0.1l-0.7-0.1c-0.2,0-0.5-0.1-0.7-0.1c-0.2,0-0.4-0.1-0.6-0.2c-0.2-0.1-0.4-0.2-0.5-0.3c-0.1-0.1-0.2-0.2-0.3-0.3
		c-0.1-0.1-0.2-0.2-0.2-0.3c0,0,0-0.1-0.1-0.1c0,0-0.1-0.1-0.1-0.1l-0.1-0.1l-0.1-0.2l-0.2-0.3l-0.1-0.2c-0.1-0.3-0.2-0.7-0.3-1.1
		c0-0.3-0.1-0.6-0.1-0.9v0.2v-0.2c0-0.1,0-0.2,0-0.3c0-0.4,0-0.7,0.1-1.1c0-0.1,0-0.2,0.1-0.4c0,0,0-0.2,0.1-0.4l0.1-0.4
		c0,0,0.1-0.2,0.1-0.4l0.1-0.2c0.1-0.3,0.3-0.6,0.5-0.8c0.2-0.2,0.5-0.4,0.8-0.5l0.2-0.1c0.1,0,0.1-0.1,0.2-0.1h0.2
		c0.3-0.1,0.7-0.2,1.1-0.2C45.9,188.3,46.4,188.2,47,188.2z"/>
	<path class="st1" d="M58,188.6c0.1,0.1,0.1,0.1,0.2,0.1l0.1,0.1l0.1,0.1l0.2,0.1h0.1c0.1,0,0.3,0.1,0.4,0.2l0.1,0.1l0.1,0.1
		l0.3,0.3l0.3,0.3c0.2,0.2,0.4,0.4,0.5,0.7l0.1,0.3c0.1,0.3,0.2,0.6,0.3,0.9c0,0,0,0.1,0,0.1c0.1,0.3,0.1,0.6,0.1,0.9
		c0,0.1,0,0.2,0,0.3c0,0,0,0.1,0,0.1c0,0.1-0.1,0.3-0.1,0.4c-0.1,0.2-0.1,0.4-0.1,0.5c0,0,0,0.1,0,0.1c0,0,0,0.1,0,0.1
		c0,0.1,0,0.1-0.1,0.2c0,0.1,0,0.1-0.1,0.2c-0.1,0.2-0.1,0.3-0.2,0.5l-0.1,0.1l-0.1,0.1c0,0.1-0.1,0.1-0.1,0.2
		c-0.1,0-0.2,0.1-0.3,0.4c-0.1,0.1-0.1,0.2-0.2,0.3c-0.1,0.1-0.2,0.2-0.3,0.2l0,0l0,0c0,0.1-0.1,0.1-0.2,0.2l-0.3,0.2
		c-0.1,0.1-0.2,0.2-0.3,0.2l0,0l0,0h-0.1h-0.1c-0.2,0.1-0.4,0.2-0.6,0.2h-0.5H57c-0.1,0-0.2,0-0.4-0.1l-0.4-0.1H56
		c-0.1,0-0.3-0.1-0.4-0.2c-0.2-0.1-0.3-0.2-0.4-0.3c-0.1-0.1-0.2-0.2-0.3-0.3l-0.3-0.3c-0.1-0.1-0.2-0.3-0.2-0.4l-0.2-0.4l-0.2-0.5
		c-0.1-0.2-0.2-0.4-0.2-0.5v-0.1v-0.1c0-0.1,0-0.2-0.1-0.3c0-0.1,0-0.2-0.1-0.3c0-0.1,0-0.2,0-0.4s0-0.2,0-0.2c0-0.2,0-0.4,0-0.7
		c0-0.8,0.2-1.6,0.5-2.4c0-0.1,0.1-0.1,0.1-0.2l0.1-0.2c0-0.1,0.1-0.2,0.2-0.3c0.1-0.1,0.2-0.2,0.3-0.3c0.3-0.3,0.6-0.5,1-0.6
		c0.4-0.2,0.9-0.2,1.3-0.2h0.1C57.5,188.3,57.7,188.5,58,188.6z M57.3,191.9c-0.1,0-0.2,0-0.2,0h-0.2c-0.1,0.1-0.2,0.1-0.3,0.2
		c-0.4,0.4-0.7,1-0.7,1.6c0,0.1,0,0.1,0,0.2c0,0.2,0.1,0.4,0.3,0.6c0.1,0.1,0.1,0.2,0.3,0.2c0.1,0.1,0.2,0.1,0.3,0.1
		c0.1,0,0.1,0,0.2,0c0.1,0,0.2-0.1,0.3-0.2c0.1-0.1,0.1-0.2,0.2-0.3l0.1-0.2c0.1-0.1,0.1-0.3,0.2-0.4c0-0.2,0-0.4,0-0.5
		c0-0.2,0-0.5-0.1-0.7c0-0.1-0.1-0.2-0.1-0.3C57.5,192,57.5,192,57.3,191.9L57.3,191.9z"/>
	<path class="st1" d="M66.7,188.1H67h0.2c0.2,0,0.3,0.1,0.4,0.3c0,0.1,0,0.1,0,0.2v0.3v1.9c0,0.2-0.2,0.3-0.4,0.3h-0.4
		c0,0-0.1,0-0.2,0h-0.1c-0.1,0-0.2,0-0.3,0H66c-0.3,0-0.6,0.1-0.9,0.1c-0.1,0-0.3,0.1-0.4,0.1l-0.2,0.1c-0.1,0-0.1,0.1-0.2,0.1
		l-0.1,0.1c0,0.1-0.1,0.1-0.1,0.2v0.2c0,0,0,0.1,0,0.2s0,0.1,0,0.2c0,0.1,0,0.1,0,0.2c0,0.1,0,0.2,0,0.3v0.2c0,0,0,0.1,0,0.1v0.1
		v0.1c0,0.1,0.1,0.3,0.2,0.4c0,0,0,0.1,0,0.1c0,0,0,0.1,0.1,0.1l0.1,0.3c0,0.1,0.1,0.2,0.2,0.3l0.1,0.1l0.2,0.2l0.2,0.2l0.2,0.1
		c0,0,0.1,0,0.1,0l0,0c0,0,0-0.1,0-0.1c0-0.1,0-0.3,0-0.6c0-0.3,0-0.6,0-0.7c0,0,0,0,0-0.1v-0.1l0,0c0,0,0,0,0-0.1c0,0,0-0.1,0-0.1
		c0,0,0-0.1,0-0.1l0,0v-0.1c0,0,0-0.1,0-0.1s0-0.1,0-0.1c0,0,0,0,0-0.1l0,0c0,0,0-0.1,0-0.1s0-0.1,0-0.2c0-0.1,0-0.1,0-0.2v-0.2
		c0-0.1,0-0.1,0-0.2s0-0.1,0-0.1l0,0c0,0,0-0.1,0.1-0.1h0.4c0.2,0,0.4,0,0.6,0c0.1,0,0.2,0,0.4,0c0.2,0,0.4,0,0.6,0
		c0.2,0,0.4,0,0.6,0l0,0l0,0c0,0,0,0,0,0.1c0,0,0,0.1,0,0.1v0.7c0,0.1,0,0.4,0,0.7c0,0.3,0,0.5,0,0.6c0,0.2,0,0.4,0,0.7
		c0,0.2,0,0.4,0,0.5s0,0.3,0,0.7c0,0.2,0,0.3,0,0.4s0,0.2,0,0.4s0,0.2,0,0.3v0.1c0,0,0,0,0,0.1l0,0c0,0.1,0,0.1,0,0.2
		c0,0-0.1,0.1-0.1,0.1l-0.1,0.1h-0.1c-0.5,0.2-1.1,0.3-1.7,0.2c-0.4,0-0.9,0-1.3-0.1h-0.2c-0.1,0-0.2-0.1-0.4-0.1
		c-0.1,0-0.2-0.1-0.3-0.2l-0.1-0.1c-0.6-0.3-1.1-0.7-1.6-1.2l-0.1-0.1l-0.1-0.1l0,0l-0.1-0.2l-0.1-0.1l0-0.1c0,0,0-0.1,0-0.1l0,0
		v-0.1v-0.1c-0.1-0.2-0.1-0.4-0.2-0.6c0-0.1,0-0.2-0.1-0.4c0-0.1-0.1-0.3-0.1-0.4c0-0.1,0-0.2-0.1-0.3c0-0.4,0-0.7,0-0.9
		c-0.1-0.7,0.1-1.5,0.4-2.2l0.1-0.1l0.1-0.1c0.4-0.7,1.1-1.2,1.8-1.6C64.7,188.2,65.7,188.1,66.7,188.1z"/>
	<path class="st1" d="M69.6,188.3h0.7c0.3,0,0.6,0.1,0.9,0.1h0.1h0.1c0.3,0,0.6,0.1,0.9,0.3c0.4,0.2,0.8,0.4,1.1,0.6
		c0.2,0.2,0.4,0.3,0.6,0.5c0.1,0.1,0.2,0.3,0.3,0.4c0.1,0.2,0.1,0.3,0.1,0.5c0,0.1,0,0.2,0,0.3c0,0.1,0,0.2-0.1,0.2c0,0,0,0,0,0.1
		c0,0.3-0.2,0.6-0.4,0.9c-0.2,0.3-0.4,0.6-0.7,0.9c0,0.1,0,0.1,0,0.2c0,0.1,0,0.2,0.1,0.3l0.2,0.3c0.1,0.2,0.2,0.4,0.3,0.6l0.5,0.7
		c0.5,0.7,0.8,1.3,1.2,1.9l0.2,0.3c0,0-0.1,0.1-0.2,0.1h-0.1c-0.2,0-0.4,0-0.6,0h-0.3H73c-0.1,0-0.1,0-0.2,0h-0.1c0,0,0-0.1,0-0.1
		c0-0.1,0-0.1-0.1-0.1l-0.4-0.8c-0.2-0.4-0.3-0.7-0.5-1s-0.3-0.5-0.4-0.6v1.8c0,0.1,0,0.1,0,0.2s0,0.1,0,0.2c0,0,0,0.1,0,0.1
		c0,0,0,0.1,0,0.1c0,0,0,0.1,0,0.1v0.1l0,0h-2h-0.3H69c-0.1,0-0.1,0-0.1-0.1c0-0.1,0-0.1,0-0.2c0,0,0-0.1,0-0.3s0-0.3,0-0.4v-0.6
		c0,0,0-0.1,0-0.2s0-0.2,0-0.3c0-0.1,0-0.2,0-0.3v-0.9c0-0.1,0-0.3,0-0.5c0-0.1,0-0.3,0-0.4s0-0.3,0-0.3v-0.1c0,0,0-0.1,0-0.1
		c0,0,0-0.1,0-0.2s0-0.1,0-0.2s0-0.2,0-0.3s0-0.1,0-0.1c0-0.1,0-0.1,0-0.2c0,0,0-0.1,0-0.1c0,0,0-0.1,0-0.1s0-0.1,0-0.1v-0.4
		c0-0.2,0-0.4,0-0.5s0-0.4,0-0.6v-0.5c0,0,0-0.1,0-0.1c0,0,0-0.1,0-0.1s0-0.1,0-0.1s0-0.2,0-0.3s0-0.2,0-0.2c0,0,0-0.1,0-0.1l0,0
		c0,0,0-0.1,0-0.2s0-0.2,0-0.2c0-0.1,0-0.1,0-0.2L69.6,188.3z M71.3,190.7c-0.1-0.1-0.3-0.1-0.4-0.1c0,0-0.1,0-0.1,0
		c0,0,0,0.1,0,0.2s0,0.1,0,0.3c0,0.1,0,0.2,0,0.4c0,0.2,0,0.4,0,0.6h0.1l0.3-0.1c0.3-0.1,0.5-0.3,0.5-0.6c0,0,0-0.1,0-0.1
		c0,0,0-0.1,0-0.1C71.6,190.9,71.5,190.7,71.3,190.7L71.3,190.7z"/>
	<path class="st1" d="M78.6,188.5c0.2,0,0.4,0,0.6,0c0.1,0,0.3,0,0.4,0h0.1h0.1c0,0,0.1,0,0.1,0.1l0.1,0.1l0.2,0.3
		c0.1,0.2,0.2,0.3,0.2,0.4c0,0.1,0.1,0.2,0.1,0.3c0,0,0.1,0.1,0.1,0.2c0.1,0.2,0.2,0.5,0.4,0.7c0,0.1,0.1,0.1,0.1,0.2l0.1,0.1
		l0.1,0.1l0.2,0.3c0.1,0.2,0.1,0.3,0.2,0.4c0.4,0.6,0.8,1.4,1.4,2.6c0.6,1.1,0.9,1.8,1,1.9c0,0.1,0.1,0.2,0.1,0.3
		c0,0.2,0.1,0.3,0.2,0.4c0.1,0.2,0.2,0.4,0.2,0.6l0,0l0,0h-0.3h-0.3h-0.3h-0.3H83h-1.6h-0.2H81c0,0-0.1,0-0.1,0
		c-0.1-0.2-0.2-0.4-0.2-0.6c0-0.3-0.1-0.5-0.2-0.7l-0.1-0.2H80h-0.3h-0.4h-1.4l0,0v0.1v0.1c-0.1,0.4-0.3,0.7-0.5,1.1
		c-0.1,0.1-0.1,0.2-0.2,0.2h-0.2c-0.1,0-0.1,0-0.2,0h-0.6c-0.1,0-0.3,0-0.4,0c-0.2,0-0.4,0-0.6,0h-0.2h-0.1h-0.3
		c-0.1,0-0.2,0-0.2-0.1l0,0v-0.1l0.1-0.3l0.1-0.2c0-0.1,0.1-0.2,0.1-0.4v-0.1l0.1-0.2l0.1-0.2l0.2-0.5c0-0.1,0.1-0.2,0.1-0.3
		c0,0,0.1-0.1,0.1-0.1l0,0l0,0v-0.1c0.1-0.1,0.1-0.3,0.2-0.4c0-0.1,0.1-0.2,0.1-0.3c0.1-0.1,0.1-0.3,0.1-0.4c0-0.1,0.1-0.3,0.1-0.3
		c0-0.1,0.1-0.1,0.1-0.2c0,0,0-0.1,0-0.1c0,0,0-0.1,0-0.1V193l0.1-0.3l0.1-0.4c0-0.1,0-0.1,0.1-0.2L76,192c0.1-0.2,0.2-0.5,0.2-0.7
		v-0.1V191v-0.1c0-0.1,0.1-0.3,0.2-0.4l0.1-0.3c0-0.1,0.1-0.1,0.1-0.2v-0.1c0,0,0-0.1,0-0.1l0.1-0.4c0.1-0.3,0.2-0.5,0.3-0.8
		c0-0.1,0.1-0.2,0.3-0.2h1L78.6,188.5z M79,192.2c0-0.1-0.1-0.2-0.1-0.2l0,0c0,0,0,0,0,0.1l-0.1,0.3c0,0.1-0.1,0.3-0.1,0.4
		c-0.1,0.4-0.2,0.6-0.2,0.7v0.2v0.1v0.1l0,0v0.1c0.3,0.1,0.7,0.1,1,0.1h0.3c0.1,0,0.2,0,0.2,0l0,0c0-0.2-0.1-0.3-0.2-0.4
		c-0.1-0.1-0.1-0.3-0.2-0.4l-0.1-0.1l-0.1-0.2l-0.1-0.1l-0.1-0.2v-0.1L79,192.2z"/>
	<path class="st1" d="M92.3,188.8h0.4c0,0,0.1,0,0.1,0c0.1,0.2,0.1,0.4,0.1,0.7c0,0.2,0,0.3,0,0.5v1.1c0,0.1,0,0.3,0,0.5
		s0,0.3,0,0.3s0,0.2,0,0.4s0,0.4,0,0.6c0,0.2,0,0.3,0,0.5l0,0c0,0.2,0,0.4,0,0.5s0,0.2,0,0.3c0,0.1,0,0.2,0,0.2v0.1c0,0,0,0.1,0,0.1
		v0.2c0,0.1,0,0.1,0,0.2s0,0.2,0,0.4c0,0.6,0,1,0,1l0,0c0,0,0,0.1,0,0.1c0,0.1,0,0.1,0,0.2v0.3c0,0.1-0.1,0.2-0.2,0.2h-2.7
		c0,0,0,0,0-0.1v-0.1c0,0,0-0.1,0-0.1v-0.1c0-0.1,0-0.2,0-0.4s0-0.4,0-0.6v-0.2c0-0.1,0-0.2,0-0.4c0-0.1,0-0.2,0-0.3s0-0.1,0-0.1
		v-0.1c0,0,0-0.1,0-0.1c0,0,0,0,0-0.1v-0.7l0,0c0-0.1,0-0.2,0-0.3c0-0.1,0-0.2,0-0.2l-0.4,0.3l-0.5,0.3c-0.1,0-0.1,0-0.2,0
		c0,0-0.1,0-0.1,0l-0.6-0.6l-0.3-0.2l-0.2-0.2l-0.1-0.1V193l0,0c-0.1,0-0.1,0-0.1,0.1v0.3c0,0.1,0,0.3,0,0.4c0,0.2,0,0.3,0,0.4
		c0,0.1,0,0.2,0,0.3c0,0.1,0,0.2,0,0.3v0.1l0,0v0.3c0,0,0,0.1,0,0.1s0,0.1,0,0.1c0,0,0,0.1,0,0.1c0,0,0,0.1,0,0.3s0,0.2,0,0.3v0.8
		c0,0.1,0,0.1,0,0.2s0,0.2,0,0.2l0,0l0,0h-0.4c0,0-0.1,0-0.1,0H87h-0.1h-0.2h-0.3h-0.4h-0.8H85h-0.3l0,0v-0.1c0,0,0-0.1,0-0.1
		s0-0.1,0-0.2v-0.5c0-0.4,0-0.7,0-0.8c0-1.4,0-2.1,0-2.3l0,0v-0.1c0-0.2,0-0.3,0-0.4s0-0.1,0-0.1s0-0.1,0-0.1c0,0,0-0.1,0-0.1
		c0,0,0-0.1,0-0.1v-0.1c0-0.1,0-0.1,0-0.2s0-0.2,0-0.4c0-0.1,0-0.2,0-0.4c0,0,0-0.1,0-0.2s0-0.2,0-0.2V191c0,0,0-0.1,0-0.3
		s0-0.3,0-0.3c0-0.8,0.1-1.2,0.1-1.3V189c0-0.1,0-0.2,0.1-0.4l0,0h0.5c0.2,0,0.5,0,1,0c0.2,0,0.5,0,0.7,0c0.1,0,0.1,0,0.2,0
		c0,0,0.1,0,0.1,0.1v0.1c0.1,0.1,0.1,0.1,0.2,0.2c0.2,0.1,0.4,0.3,0.6,0.4c0.1,0.1,0.2,0.1,0.2,0.2l0.3,0.2c0,0.1,0.1,0.1,0.2,0.1
		l0.4,0.3c0,0,0.1,0.1,0.1,0.1l0.2-0.1l0.2-0.2h0.1l0.1-0.1l0.1-0.1c0.1-0.1,0.2-0.1,0.3-0.2c0.2-0.1,0.3-0.2,0.5-0.4
		c0.1-0.1,0.3-0.2,0.4-0.3l0.2-0.2c0.1-0.1,0.2-0.2,0.3-0.2h0.7L92.3,188.8z"/>
	<path class="st1" d="M97.8,188.5c0.2,0,0.4,0,0.6,0c0.1,0,0.3,0,0.4,0H99H99c0,0,0.1,0,0.1,0.1l0.1,0.1l0.2,0.3
		c0.1,0.2,0.2,0.3,0.2,0.4c0,0.1,0.1,0.2,0.1,0.3c0,0,0.1,0.1,0.1,0.2c0.1,0.2,0.2,0.5,0.4,0.7c0,0.1,0.1,0.1,0.1,0.2l0.1,0.1
		l0.1,0.1l0.2,0.3c0.1,0.2,0.1,0.3,0.2,0.4c0.4,0.6,0.8,1.4,1.4,2.6s0.9,1.8,1,1.9c0,0.1,0.1,0.2,0.1,0.3c0,0.2,0.1,0.3,0.2,0.4
		c0.1,0.2,0.2,0.4,0.2,0.6l0,0l0,0h-0.3h-0.3h-0.3h-0.3h-0.4h-1.6h-0.2h-0.2c0,0-0.1,0-0.1,0c-0.1-0.2-0.2-0.4-0.2-0.6
		c0-0.3-0.1-0.5-0.2-0.7l-0.1-0.2h-0.2H99h-0.4h-1.4l0,0v0.1v0.1c-0.1,0.4-0.3,0.7-0.5,1.1c-0.1,0.1-0.1,0.2-0.2,0.2h-0.2
		c-0.1,0-0.1,0-0.2,0h-0.6c-0.1,0-0.3,0-0.4,0c-0.2,0-0.4,0-0.6,0h-0.2h-0.1h-0.3c-0.1,0-0.2,0-0.2-0.1l0,0v-0.1l0.1-0.3l0.1-0.2
		c0-0.1,0.1-0.2,0.1-0.4v-0.1l0.1-0.2l0.1-0.2l0.2-0.5c0-0.1,0.1-0.2,0.1-0.3c0,0,0.1-0.1,0.1-0.1l0,0l0,0v-0.1
		c0.1-0.1,0.1-0.3,0.2-0.4c0-0.1,0.1-0.2,0.1-0.3c0.1-0.1,0.1-0.3,0.1-0.4c0-0.1,0.1-0.3,0.1-0.3c0-0.1,0.1-0.1,0.1-0.2
		c0,0,0-0.1,0-0.1c0,0,0-0.1,0-0.1V193l0.1-0.3l0.1-0.4c0-0.1,0-0.1,0.1-0.2l0.1-0.2c0.1-0.2,0.2-0.5,0.2-0.7v-0.1V191v-0.1
		c0-0.1,0.1-0.3,0.2-0.4l0.1-0.3c0-0.1,0.1-0.1,0.1-0.2v-0.1c0,0,0-0.1,0-0.1l0.1-0.4c0.1-0.3,0.2-0.5,0.3-0.8
		c0-0.1,0.1-0.2,0.3-0.2h1L97.8,188.5z M98.3,192.2c0-0.1-0.1-0.2-0.1-0.2l0,0c0,0,0,0,0,0.1l-0.1,0.3c0,0.1-0.1,0.3-0.1,0.4
		c-0.1,0.4-0.2,0.6-0.2,0.7v0.2v0.1v0.1l0,0v0.1c0.3,0.1,0.7,0.1,1,0.1H99c0.1,0,0.2,0,0.2,0l0,0c0-0.2-0.1-0.3-0.2-0.4
		c-0.1-0.1-0.1-0.3-0.2-0.4l-0.1-0.1l-0.1-0.2l-0.1-0.1l-0.1-0.2v-0.1L98.3,192.2z"/>
	<path class="st1" d="M106.7,188.3h0.6h0.4h0.1c0,0,0.1,0.1,0.1,0.1v0.1c-0.1,0.3-0.2,0.5-0.4,0.7l-0.1,0.1l-0.1,0.1l0,0l-0.1,0.1
		l-0.1,0.1c-0.2,0.4-0.4,0.8-0.4,1.2c0,0.1,0,0.3,0,0.4c0,0.1,0,0.2,0,0.3c0,0.2,0.1,0.4,0.2,0.6c0.1,0.2,0.3,0.4,0.4,0.6
		c0.3,0.5,0.5,0.7,0.6,0.8c0,0.1,0.1,0.2,0.2,0.2l0.1,0.2c0,0.1,0.1,0.1,0.1,0.2c0,0.1,0.1,0.3,0.1,0.4c0,0.1,0,0.1,0,0.2
		c0,0.2-0.1,0.5-0.2,0.7c0,0.1-0.1,0.1-0.1,0.2l-0.3,0.6c-0.1,0.2-0.2,0.3-0.3,0.5c-0.1,0.2-0.2,0.4-0.3,0.6
		c-0.1,0.2-0.2,0.3-0.2,0.3h-0.7h-0.7c-0.1,0-0.2,0-0.3,0h-2c0,0,0-0.1,0-0.1c0,0,0-0.1,0-0.1v-0.1c0-0.1,0.2-0.3,0.6-0.6
		c0.1-0.1,0.2-0.2,0.3-0.3c0.1-0.1,0.2-0.2,0.2-0.3c0.1-0.1,0.1-0.2,0.2-0.3c0.1-0.1,0.1-0.2,0.2-0.3l0.2-0.3
		c0.1-0.1,0.2-0.3,0.2-0.5l0,0c0-0.4-0.2-0.8-0.5-1.1c-0.4-0.3-0.7-0.7-1-1.1c0-0.1-0.1-0.1-0.1-0.2c-0.1-0.2-0.1-0.4-0.1-0.5
		c0-0.1,0-0.1,0-0.2c0-0.1,0-0.1,0-0.2c0,0,0,0,0-0.1s0-0.1,0-0.1s0-0.2,0.1-0.5c0.1-0.3,0.2-0.6,0.4-0.9l0.1-0.3l0.1-0.1
		c0.1-0.1,0.1-0.2,0.2-0.3c0-0.1,0.1-0.2,0.1-0.2c0,0,0,0,0.1-0.1l0.1-0.1c0,0,0.1-0.1,0.1-0.1h1c0.2,0,0.3,0,0.5,0
		c0.1,0,0.2,0,0.3,0L106.7,188.3z"/>
	<path class="st1" d="M115.5,188.3h3.1l0,0l0,0c0,0,0,0.1,0,0.1c0,0,0,0.1,0,0.2s0,0.3,0,0.4v0.2l0,0v0.2c0,0,0,0,0,0.1v0.4
		c0,0.1,0,0.1,0,0.2c0,0,0,0.1,0,0.1c0,0,0,0.1,0,0.1c0,0.1,0,0.1,0,0.2c0,0.1-0.1,0.1-0.2,0.1c-0.2,0-0.4,0-0.7,0c-0.3,0-0.7,0-1,0
		h-0.1c-0.1,0-0.1,0-0.1,0.1c0,0.1,0,0.2,0,0.3c0,0.1,0,0.2,0,0.2c0,0.1,0,0.2,0.1,0.2c0.1,0,0.3,0,0.4,0h0.5c0.4,0,0.7-0.1,0.9-0.1
		h0.1h0.3c0.1,0,0.3,0,0.4,0.1c0,0,0,0,0,0.1v0.1c0,0,0,0,0,0.1l0,0v0.2c0,0,0,0.1,0,0.1c0,0,0,0.1,0,0.2s0,0.2,0,0.2v1.5
		c0,0.1,0,0.2,0,0.2c0,0,0,0.1,0,0.1c0,0-0.1,0.1-0.2,0.1h-0.6h-0.8h-0.2h-0.3h-0.1H117c0,0.1,0,0.1,0,0.2c0,0.3,0,0.4,0.1,0.5
		c0.1,0,0.2,0,0.2,0h1h0.6c0.1,0,0.1,0,0.2,0h0.4h0.3c0.1,0,0.1,0.2,0.1,0.7c0,0.7,0,0.2,0,0.4s0,0.4,0,0.5c0,0.3,0,0.6,0,0.9l0,0
		h-5.8c-0.1,0-0.1-0.2-0.1-0.4c0-0.5,0-0.9-0.1-1.4c0,0,0-0.1,0-0.3s0-0.3,0-0.5v-0.6c0-0.1,0-0.2,0-0.3s0-0.2,0-0.2v-0.1
		c0-0.1,0-0.2,0-0.3s0-0.2,0-0.3c0-0.2,0-0.4,0-0.7c0-0.1,0-0.1,0-0.2c0-0.1,0-0.2,0-0.3c0-0.3-0.1-0.6-0.1-0.8c0-0.1,0-0.2,0-0.4
		s0-0.2,0-0.3c0-0.3-0.1-0.6-0.1-0.9c0-0.2,0-0.3,0-0.5v-0.1l0,0c0,0,0,0,0-0.1c0-0.2,0-0.4,0.1-0.7h1.9L115.5,188.3z"/>
	<path class="st1" d="M132.5,188.1c0.1,0,0.3,0,0.4,0c0.1,0,0.2,0,0.3,0c0,0,0.1,0,0.1,0h0.1h0.1l0,0c0.1,0.3,0.1,0.5,0.1,0.8
		c0,0,0,0.1,0,0.2s0,0.1,0,0.2s0,0.3,0,0.5v0.2c0,0.5,0,0.8,0,1c0,0.1,0,0.2,0,0.3c0,0.1,0,0.3,0,0.7c0,0.1,0,0.1,0,0.2
		c0,0.1,0,0.1,0,0.2c0,0,0,0.1,0,0.1s0,0.1,0,0.1c0,0.5,0,0.8,0,0.9s0,0.2,0,0.5c0,0.2,0,0.5,0,0.7c0,0.1,0,0.3,0,0.4
		c0,0.1,0,0.1,0,0.2c0,0,0,0.1,0,0.1s0,0.1,0,0.2s0,0.2,0,0.3v0.3c0,0,0,0.1,0,0.1c0,0,0,0.1,0,0.1s0,0.1,0,0.1v0.4c0,0,0,0.1,0,0.1
		c0,0,0,0.1,0,0.1s0,0.1,0,0.1v0.5c0,0-0.1,0-0.1,0h-0.2h-0.4h-0.4h-0.3H131c-0.1,0-0.1-0.1-0.1-0.2v-1.5c0,0,0-0.1,0-0.2
		c0-0.1,0-0.1,0-0.2c0-0.1,0-0.1,0-0.2c0-0.1,0-0.1,0-0.2c0-0.1,0-0.2,0-0.3V194c0-0.1,0-0.1,0-0.2s0-0.2,0-0.2c0-0.1,0-0.1,0-0.2
		c0-0.1-0.1-0.2-0.1-0.2s-0.1,0.1-0.2,0.2c-0.1,0.1-0.1,0.2-0.2,0.3l-0.2,0.3l-0.1,0.2c0,0-0.1,0.1-0.1,0.1c0,0-0.1,0.1-0.1,0.1
		c0,0.1-0.1,0.1-0.2,0.2c-0.1,0.2-0.3,0.3-0.4,0.3c-0.1,0-0.3-0.2-0.5-0.5l-0.2-0.3l-0.2-0.2l-0.2-0.2c-0.1-0.1-0.1-0.1-0.1-0.1
		s0,0.1,0,0.2s0,0.1,0,0.1s0,0.1,0,0.1s0,0.3,0,0.4v0.1c0,0.2,0,0.4,0,0.6c0,0.5,0,1.2,0,1.9v0.2c0,0.1,0,0.1,0,0.2
		c-0.1,0-0.2,0-0.3,0h-0.4h-0.8h-0.3h-0.3c-0.1,0-0.1,0-0.2,0c0,0,0,0-0.1,0h-0.1c0,0-0.1-0.1-0.1-0.1c0-0.1,0-0.2,0-0.2v-0.3
		c0-0.1,0-0.2,0-0.4s0-0.3,0-0.4c0-0.1,0-0.1,0-0.2s0-0.1,0-0.1v-0.5c0-0.2,0-0.5,0-0.9c0-0.3,0-0.7,0-1.1c0-0.6,0-0.1,0-0.2
		s0-0.1,0-0.2v-0.3c0,0,0-0.2,0-0.5c0-0.1,0-0.3,0-0.4v-0.4c0-0.1,0-0.2,0-0.3c0-0.1,0-0.2,0-0.3v-0.1c0-0.5,0-1-0.1-1.4
		c0,0,0-0.1,0-0.2s0-0.1,0-0.2s0-0.1,0-0.2s0-0.1,0-0.2s0.1-0.3,0.1-0.4h0.7c0.1,0,0.2,0,0.3,0.1h0.2c0.1,0,0.3,0.1,0.4,0.2l0.3,0.2
		c0.1,0.1,0.2,0.1,0.3,0.2l0.1,0.1c0.2,0.2,0.5,0.4,0.7,0.6c0.1,0.1,0.2,0.2,0.3,0.2c0.1,0.1,0.1,0.2,0.2,0.2
		c0.1,0.1,0.2,0.2,0.3,0.3l0.2,0.2l0.1,0.1c0,0,0.1,0,0.1-0.1l0.5-0.6l0.2-0.2l0.2-0.2c0.1-0.1,0.1-0.1,0.2-0.2l0.2-0.3l0.2-0.3
		l0.2-0.2c0.1-0.1,0.1-0.2,0.2-0.3c0.1-0.2,0.4-0.3,0.6-0.3h0.6L132.5,188.1z"/>
	<path class="st1" d="M137.8,188.5c0.2,0,0.4,0,0.6,0c0.1,0,0.3,0,0.4,0h0.1h0.1c0,0,0.1,0,0.1,0.1l0.1,0.1l0.2,0.3
		c0.1,0.2,0.2,0.3,0.2,0.4c0,0.1,0.1,0.2,0.1,0.3c0,0,0.1,0.1,0.1,0.2c0.1,0.2,0.2,0.5,0.4,0.7c0,0.1,0.1,0.1,0.1,0.2l0.1,0.1
		l0.1,0.1l0.2,0.3c0.1,0.2,0.1,0.3,0.2,0.4c0.4,0.6,0.8,1.4,1.4,2.6s0.9,1.8,1,1.9c0,0.1,0.1,0.2,0.1,0.3c0,0.2,0.1,0.3,0.2,0.4
		c0.1,0.2,0.2,0.4,0.2,0.6l0,0l0,0h-0.3h-0.3h-0.3h-0.3h-0.4h-1.6h-0.2H140c0,0-0.1,0-0.1,0c-0.1-0.2-0.2-0.4-0.2-0.6
		c0-0.3-0.1-0.5-0.2-0.7l-0.1-0.2h-0.2h-0.3h-0.4H137l0,0v0.1v0.1c-0.1,0.4-0.3,0.7-0.5,1.1c-0.1,0.1-0.1,0.2-0.2,0.2H136
		c-0.1,0-0.1,0-0.2,0h-0.6c-0.1,0-0.3,0-0.4,0c-0.2,0-0.4,0-0.6,0H134h-0.1h-0.3c-0.1,0-0.2,0-0.2-0.1l0,0v-0.1l0.1-0.3l0.1-0.2
		c0-0.1,0.1-0.2,0.1-0.4v-0.1l0.1-0.2l0.1-0.2l0.2-0.5c0-0.1,0.1-0.2,0.1-0.3c0,0,0.1-0.1,0.1-0.1l0,0l0,0v-0.1
		c0.1-0.1,0.1-0.3,0.2-0.4c0-0.1,0.1-0.2,0.1-0.3c0.1-0.1,0.1-0.3,0.1-0.4c0-0.1,0.1-0.3,0.1-0.3c0-0.1,0.1-0.1,0.1-0.2
		c0,0,0-0.1,0-0.1c0,0,0-0.1,0-0.1V193l0.1-0.3l0.1-0.4c0-0.1,0-0.1,0.1-0.2l0.1-0.2c0.1-0.2,0.2-0.5,0.2-0.7v-0.1V191v-0.1
		c0-0.1,0.1-0.3,0.2-0.4l0.1-0.3c0-0.1,0.1-0.1,0.1-0.2v-0.1c0,0,0-0.1,0-0.1l0.1-0.4c0.1-0.3,0.2-0.5,0.3-0.8
		c0-0.1,0.1-0.2,0.3-0.2h1L137.8,188.5z M138.2,192.2c0-0.1-0.1-0.2-0.1-0.2l0,0c0,0,0,0,0,0.1l-0.1,0.3c0,0.1-0.1,0.3-0.1,0.4
		c-0.1,0.4-0.2,0.6-0.2,0.7v0.2v0.1v0.1l0,0v0.1c0.3,0.1,0.7,0.1,1,0.1h0.3c0.1,0,0.2,0,0.2,0l0,0c0-0.2-0.1-0.3-0.2-0.4
		c-0.1-0.1-0.1-0.3-0.2-0.4l-0.1-0.1l-0.1-0.2l-0.1-0.1l-0.1-0.2v-0.1L138.2,192.2z"/>
	<path class="st1" d="M146.1,194.3c0,0.1,0,0.2,0,0.3c0,0.2,0,0.4,0,0.7c0,0.3,0,0.5,0,0.6c0,0.1,0,0.1,0,0.2c0,0.1,0,0.2,0,0.3v0.2
		v0.2c0,0.2,0,0.3,0,0.5v0.1c0,0.1-0.1,0.1-0.1,0.2c-0.1,0-0.2,0.1-0.3,0.1c-0.5,0-0.9,0-1.1,0h-0.4c-0.1,0-0.2,0-0.3,0h-0.1
		c-0.2,0-0.4,0-0.6-0.1c-0.1-0.1-0.1-0.2-0.1-0.3V197c0-0.1,0-0.2,0-0.4s0-0.2,0-0.2c0-0.2,0-0.5,0-0.7v-0.2c0-0.1,0-0.2,0-0.3
		c0-0.1,0-0.2,0-0.3c0-0.1,0-0.3,0-0.5s0-0.2,0-0.4c0-0.1,0-0.1,0-0.2v-0.6c0-1.9,0-3.3-0.1-4.3c0-0.1,0-0.3,0-0.7v-0.3
		c0-0.1,0-0.2,0.1-0.2c0.2-0.1,0.5-0.1,0.7-0.1c0.1,0,0.1,0,0.2,0h0.7c0.4,0,0.8,0,1.1,0h0.4l0,0h0.1h0.8h0.8c0.1,0,0.2,0,0.3,0.1
		l0.2,0.1l0.2,0.1c0.1,0,0.2,0.1,0.2,0.1c0.2,0.1,0.4,0.2,0.5,0.3l0.2,0.1c0.4,0.2,0.5,0.4,0.5,0.4l0.1,0.2c0.1,0.2,0.2,0.4,0.3,0.6
		c0,0.1,0,0.2,0.1,0.2v0.2c0,0.1,0,0.1,0,0.2v0.5c-0.1,0.6-0.2,1.1-0.4,1.6c-0.1,0.4-0.3,0.7-0.7,1c-0.4,0.2-0.8,0.4-1.2,0.4
		c-0.6,0.1-1.1,0.2-1.6,0.2C146.5,194.1,146.3,194.2,146.1,194.3z M147.2,190.2c-0.3,0-0.5,0-0.8,0h-0.6v0.6c0,0,0,0.1,0,0.2
		s0,0.2,0,0.2c0,0,0,0.1,0,0.1v0.1c0,0,0,0.1,0,0.2s0,0.1,0,0.2c0,0,0,0.1,0,0.1c0,0,0.1,0.1,0.2,0.1h0.5l0.5-0.1
		c0.1,0,0.2,0,0.2-0.1c0.1,0,0.1-0.1,0.2-0.1c0.1-0.1,0.1-0.2,0.2-0.4c0.1-0.2,0.1-0.3,0.1-0.5c0-0.1,0-0.2,0-0.2l0,0
		c0-0.1-0.1-0.2-0.1-0.3C147.5,190.3,147.4,190.3,147.2,190.2L147.2,190.2L147.2,190.2z"/>
	<path class="st1" d="M153.5,188.5c0.2,0,0.4,0,0.6,0c0.1,0,0.3,0,0.4,0h0.1h0.1c0,0,0.1,0,0.1,0.1l0.1,0.1l0.2,0.3
		c0.1,0.2,0.2,0.3,0.2,0.4c0,0.1,0.1,0.2,0.1,0.3c0,0,0.1,0.1,0.1,0.2c0.1,0.2,0.2,0.5,0.4,0.7c0,0.1,0.1,0.1,0.1,0.2l0.1,0.1
		l0.1,0.1l0.2,0.3c0.1,0.2,0.1,0.3,0.2,0.4c0.4,0.6,0.8,1.4,1.4,2.6c0.6,1.1,0.9,1.8,1,1.9c0,0.1,0.1,0.2,0.1,0.3
		c0,0.2,0.1,0.3,0.2,0.4c0.1,0.2,0.2,0.4,0.2,0.6l0,0l0,0h-0.3h-0.3h-0.3h-0.3h-0.4h-1.6h-0.2h-0.2c0,0-0.1,0-0.1,0
		c-0.1-0.2-0.2-0.4-0.2-0.6c0-0.3-0.1-0.5-0.2-0.7l-0.1-0.2h-0.2h-0.3h-0.4h-1.4l0,0v0.1v0.1c-0.1,0.4-0.3,0.7-0.5,1.1
		c-0.1,0.1-0.1,0.2-0.2,0.2H152c-0.1,0-0.1,0-0.2,0H151c-0.1,0-0.3,0-0.4,0c-0.2,0-0.4,0-0.6,0h-0.2h-0.1h-0.3c-0.1,0-0.2,0-0.2-0.1
		l0,0v-0.1l0.1-0.3l0.1-0.2c0-0.1,0.1-0.2,0.1-0.4v-0.1l0.1-0.2l0.1-0.2l0.2-0.5c0.1-0.1,0.1-0.1,0.2-0.2c0,0,0.1-0.1,0.1-0.1l0,0
		l0,0v-0.1c0.1-0.1,0.1-0.3,0.2-0.4c0-0.1,0.1-0.2,0.1-0.3c0.1-0.1,0.1-0.3,0.1-0.4c0-0.1,0.1-0.3,0.1-0.3c0-0.1,0.1-0.1,0.1-0.2
		c0,0,0-0.1,0-0.1c0,0,0-0.1,0-0.1v-0.1l0.1-0.3l0.1-0.4c0-0.1,0-0.1,0.1-0.2l0.1-0.2c0.1-0.2,0.2-0.5,0.2-0.7v-0.1v-0.1V191
		c0-0.1,0.1-0.3,0.2-0.4l0.1-0.3c0-0.1,0.1-0.1,0.1-0.2V190c0,0,0-0.1,0-0.1l0.1-0.4c0.1-0.3,0.2-0.5,0.3-0.8c0-0.1,0.1-0.2,0.3-0.2
		h1L153.5,188.5z M153.9,192.2c0-0.1-0.1-0.2-0.1-0.2l0,0c0,0,0,0,0,0.1l-0.1,0.3c0,0.1-0.1,0.3-0.1,0.4c-0.1,0.4-0.2,0.6-0.2,0.7
		v0.2v0.1v0.1l0,0v0.1c0.3,0.1,0.7,0.1,1,0.1h0.3c0.1,0,0.2,0,0.2,0l0,0c0-0.2-0.1-0.3-0.2-0.4c-0.1-0.1-0.1-0.3-0.2-0.4l-0.1-0.1
		l-0.1-0.2l-0.1-0.1l-0.1-0.2v-0.1L153.9,192.2z"/>
	<path class="st1" d="M167.6,188.3h0.6h0.4h0.1c0,0,0.1,0.1,0.1,0.1v0.1c-0.1,0.3-0.2,0.5-0.4,0.7l-0.1,0.1l-0.1,0.1l0,0l-0.1,0.1
		l-0.1,0.1c-0.2,0.4-0.4,0.8-0.4,1.2c0,0.1,0,0.3,0,0.4c0,0.1,0,0.2,0,0.3c0,0.2,0.1,0.4,0.2,0.6c0.1,0.2,0.3,0.4,0.4,0.6
		c0.3,0.5,0.5,0.7,0.6,0.8c0,0.1,0.1,0.2,0.2,0.2l0.1,0.2c0,0.1,0.1,0.1,0.1,0.2c0,0.1,0.1,0.3,0.1,0.4c0,0.1,0,0.1,0,0.2
		c0,0.2-0.1,0.5-0.2,0.7c0,0.1-0.1,0.1-0.1,0.2l-0.3,0.6c-0.1,0.2-0.2,0.3-0.3,0.5c-0.1,0.2-0.2,0.4-0.3,0.6
		c-0.1,0.2-0.2,0.3-0.2,0.3h-0.7h-0.7c-0.1,0-0.2,0-0.3,0h-2c0,0,0-0.1,0-0.1c0,0,0-0.1,0-0.1v-0.1c0-0.1,0.2-0.3,0.6-0.6
		c0.1-0.1,0.2-0.2,0.3-0.3c0.1-0.1,0.2-0.2,0.2-0.3c0.1-0.1,0.1-0.2,0.2-0.3c0.1-0.1,0.1-0.2,0.2-0.3l0.2-0.3
		c0.1-0.1,0.2-0.3,0.2-0.5l0,0c0-0.4-0.2-0.8-0.5-1.1c-0.4-0.3-0.7-0.7-1-1.1c0-0.1-0.1-0.1-0.1-0.2c-0.1-0.2-0.1-0.4-0.1-0.5
		c0-0.1,0-0.1,0-0.2c0-0.1,0-0.1,0-0.2c0,0,0,0,0-0.1s0-0.1,0-0.1s0-0.2,0.1-0.5c0.1-0.3,0.2-0.6,0.4-0.9l0.1-0.3l0.1-0.1
		c0.1-0.1,0.1-0.2,0.2-0.3c0-0.1,0.1-0.2,0.1-0.2c0,0,0,0,0.1-0.1l0.1-0.1c0,0,0.1-0.1,0.1-0.1h1c0.2,0,0.3,0,0.5,0
		c0.1,0,0.2,0,0.3,0L167.6,188.3z"/>
	<path class="st1" d="M174.2,188.6c0.1,0.1,0.1,0.1,0.2,0.1l0.1,0.1l0.1,0.1l0.2,0.1h0.1c0.1,0,0.3,0.1,0.4,0.2l0.1,0.1l0.1,0.1
		l0.3,0.3l0.3,0.3c0.2,0.2,0.4,0.4,0.5,0.7l0.1,0.3c0.1,0.3,0.2,0.6,0.3,0.9c0,0,0,0.1,0,0.1c0.1,0.3,0.1,0.6,0.1,0.9
		c0,0.1,0,0.2,0,0.3c0,0,0,0.1,0,0.1c0,0.1-0.1,0.3-0.1,0.4c-0.1,0.2-0.1,0.4-0.1,0.5c0,0,0,0.1,0,0.1c0,0,0,0.1,0,0.1
		c0,0.1,0,0.1-0.1,0.2c0,0.1,0,0.1-0.1,0.2c-0.1,0.2-0.1,0.3-0.2,0.5l-0.1,0.1l-0.1,0.1c0,0.1-0.1,0.1-0.1,0.2
		c-0.1,0-0.2,0.1-0.3,0.4c-0.1,0.1-0.1,0.2-0.2,0.3c-0.1,0.1-0.2,0.2-0.3,0.2l0,0l0,0c0,0.1-0.1,0.1-0.2,0.2L175,197
		c-0.1,0.1-0.2,0.2-0.4,0.2l0,0l0,0h-0.1h-0.1c-0.2,0.1-0.4,0.2-0.6,0.2h-0.5H173c-0.1,0-0.2,0-0.4-0.1l-0.4-0.1H172
		c-0.1,0-0.3-0.1-0.4-0.2c-0.2-0.1-0.3-0.2-0.4-0.3c-0.1-0.1-0.2-0.2-0.3-0.3l-0.3-0.3c-0.1-0.1-0.2-0.3-0.2-0.4l-0.2-0.4l-0.2-0.5
		c-0.1-0.2-0.2-0.4-0.2-0.5v-0.1v-0.1c0-0.1,0-0.2-0.1-0.3c0-0.1,0-0.2-0.1-0.3c0-0.1,0-0.2,0-0.4s0-0.2,0-0.2c0-0.2,0-0.4,0-0.7
		c0-0.8,0.2-1.6,0.5-2.4c0-0.1,0.1-0.1,0.1-0.2l0.1-0.2c0-0.1,0.1-0.2,0.2-0.3c0.1-0.1,0.2-0.2,0.3-0.3c0.3-0.3,0.6-0.5,1-0.6
		c0.4-0.2,0.9-0.2,1.4-0.2h0.1C173.6,188.3,173.9,188.4,174.2,188.6z M173.6,191.9c-0.1,0-0.2,0-0.2,0h-0.2
		c-0.1,0.1-0.2,0.1-0.3,0.2c-0.4,0.4-0.7,1-0.7,1.6c0,0.1,0,0.1,0,0.2c0,0.2,0.1,0.4,0.3,0.6c0.1,0.1,0.1,0.2,0.3,0.2
		c0.1,0.1,0.2,0.1,0.3,0.1c0.1,0,0.1,0,0.2,0c0.1,0,0.2-0.1,0.3-0.2c0.1-0.1,0.1-0.2,0.2-0.3l0.1-0.2c0.1-0.1,0.1-0.3,0.2-0.4
		c0-0.2,0-0.4,0-0.5c0-0.2,0-0.5-0.1-0.7c0-0.1-0.1-0.2-0.1-0.3C173.8,192,173.7,192,173.6,191.9L173.6,191.9z"/>
	<path class="st1" d="M178.3,188.3c0.1,0.1,0.3,0.2,0.4,0.3l0.2,0.1c0.7,0.4,1.4,0.8,2,1.3l0.9,0.5c0.3,0.1,0.6,0.3,0.9,0.5
		c0.1,0.1,0.5,0.3,1.3,0.7s1.1,0.6,1.2,0.6c0,0,0.1,0,0.1,0v-0.1c0-0.1,0-0.2,0-0.4c0-0.2,0-0.4,0-0.6c0,0,0-0.1,0-0.1
		c0,0,0-0.1,0-0.2s0-0.2,0-0.2s0-0.2,0-0.3s0-0.2,0-0.2c0-0.1,0-0.2,0-0.4c0-0.2,0-0.3,0-0.5c0-0.4,0-0.8,0-1.1c0-0.5,0-0.1,0.1-0.1
		h0.2h0.3h0.4h0.8h0.6c0.1,0,0.2,0,0.3,0.1c0,0,0,0.4,0,1.2v1.8c0,0.1,0,0.2,0,0.3c0,0.2,0,0.3,0,0.3c0,0.1,0,0.2,0,0.3
		c0,0.2,0,0.5,0,0.9v0.5c0,0.1,0,0.3,0,0.5s0,0.4,0,0.5v0.3c0,0.3,0,0.7,0,1v1.2c0,0.3-0.1,0.4-0.2,0.4c-0.1,0-0.3-0.1-0.4-0.1
		c-0.1,0-0.2-0.1-0.2-0.1l-0.8-0.4c-0.4-0.2-0.8-0.4-1.2-0.6l-0.3-0.1c-0.1-0.1-0.2-0.1-0.3-0.2c-0.6-0.2-1.1-0.4-1.6-0.7l-0.7-0.3
		l-0.3-0.1c-0.2-0.1-0.3-0.1-0.5-0.1h-0.1l0,0v0.1c0,0,0,0.1,0,0.1c0,0.1,0,0.1,0,0.2c0,0.2,0,0.4,0,0.6c0,0.1,0,0.2,0,0.4
		c0,0.1,0,0.3,0,0.4c0,0,0,0.1,0,0.1c0,0,0,0.1,0,0.2s0,0.1,0,0.1v0.1c0,0.1,0,0.1,0,0.2c0,0.1,0,0.1,0,0.2v0.1h-3.4
		c0-0.1,0-0.2,0-0.3c0-0.2,0-0.5,0-0.9v-1.7c0-0.5,0-0.8,0-0.9c0-0.2,0-0.5,0-0.9v-0.8c0-0.3,0-0.6,0-1c0-0.4,0-0.9,0-1.4V189
		c0,0,0-0.1,0-0.2s0-0.2,0-0.2c0,0,0-0.1,0-0.1c0-0.1,0-0.1,0-0.2c0-0.1,0.1-0.2,0.2-0.2C178.1,188.1,178.3,188.2,178.3,188.3z"/>
	<path class="st1" d="M193.2,188.6c0.1,0.1,0.1,0.1,0.2,0.1l0.1,0.1l0.1,0.1l0.2,0.1h0.1c0.1,0,0.3,0.1,0.4,0.2l0.1,0.1l0.1,0.1
		l0.3,0.3l0.3,0.3c0.2,0.2,0.4,0.4,0.5,0.7l0.1,0.3c0.1,0.3,0.2,0.6,0.3,0.9c0,0,0,0.1,0,0.1c0.1,0.3,0.1,0.6,0.1,0.9
		c0,0.1,0,0.2,0,0.3c0,0,0,0.1,0,0.1c0,0.1-0.1,0.3-0.1,0.4c-0.1,0.3-0.1,0.4-0.1,0.5c0,0,0,0.1,0,0.1c0,0,0,0.1,0,0.1
		c0,0.1,0,0.1-0.1,0.2l-0.1,0.2c-0.1,0.2-0.1,0.3-0.2,0.5l-0.1,0.1l-0.1,0.1c0,0.1-0.1,0.1-0.1,0.2c-0.1,0-0.2,0.1-0.3,0.4
		c-0.1,0.1-0.2,0.2-0.3,0.3c-0.1,0.1-0.2,0.2-0.3,0.2l0,0l0,0c0,0.1-0.1,0.1-0.2,0.2l-0.3,0.2c-0.1,0.1-0.2,0.2-0.4,0.2l0,0l0,0
		h-0.1h-0.1c-0.2,0.1-0.4,0.2-0.6,0.2h-0.5H192c-0.1,0-0.2,0-0.4-0.1l-0.4-0.1H191c-0.1,0-0.3-0.1-0.4-0.2c-0.2-0.1-0.3-0.2-0.4-0.3
		c-0.1-0.1-0.2-0.2-0.3-0.3l-0.3-0.3c-0.1-0.1-0.2-0.3-0.2-0.4l-0.2-0.4l-0.2-0.5c-0.1-0.2-0.2-0.4-0.2-0.5v-0.1v-0.1
		c0-0.1,0-0.2-0.1-0.3c0-0.1,0-0.2-0.1-0.3c0-0.1,0-0.2,0-0.4s0-0.2,0-0.2c0-0.2,0-0.4,0-0.7c0-0.8,0.2-1.6,0.5-2.4
		c0-0.1,0.1-0.1,0.1-0.2l0.1-0.2c0-0.1,0.1-0.2,0.2-0.3c0.1-0.1,0.2-0.2,0.3-0.3c0.3-0.3,0.6-0.5,1-0.6c0.4-0.2,0.9-0.2,1.4-0.2h0.1
		C192.5,188.3,192.9,188.4,193.2,188.6z M192.5,191.9c-0.1,0-0.2,0-0.2,0h-0.2c-0.1,0.1-0.2,0.1-0.3,0.2c-0.4,0.4-0.7,1-0.7,1.6
		c0,0.1,0,0.1,0,0.2c0,0.2,0.1,0.4,0.3,0.6c0.1,0.1,0.1,0.2,0.3,0.2c0.1,0.1,0.2,0.1,0.3,0.1c0.1,0,0.1,0,0.2,0
		c0.1,0,0.2-0.1,0.3-0.2c0.1-0.1,0.1-0.2,0.2-0.3l0.1-0.2c0.1-0.1,0.1-0.3,0.2-0.4c0-0.2,0-0.4,0-0.5c0-0.3,0-0.5-0.1-0.8
		c0-0.1-0.1-0.2-0.1-0.3c-0.1-0.1-0.1-0.2-0.2-0.2L192.5,191.9z"/>
	<path class="st1" d="M201.2,188.6c0.3,0,0.6,0,0.9,0l0.3,0.1c0.1,0,0.3,0.1,0.4,0.2c0.1,0.1,0.3,0.1,0.4,0.2
		c0.2,0.3,0.4,0.7,0.4,1.1c0,0.1,0,0.2,0,0.3c0,0.2,0,0.4-0.1,0.6c-0.1,0.5-0.3,1-0.7,1.4c0,0.1-0.1,0.1-0.1,0.2
		c0,0.1-0.1,0.1-0.2,0.2c-0.1,0.1-0.1,0.1-0.1,0.2l-0.1,0.2c0,0-0.1,0.1-0.1,0.1c0.1,0.2,0.3,0.4,0.5,0.6c0.2,0.2,0.4,0.4,0.6,0.6
		l0.5,0.4l0.3,0.2c0.5,0.5,0.9,0.9,1,1c0.4,0.3,0.7,0.6,0.9,0.8l0.2,0.2c0.1,0.1,0.2,0.2,0.2,0.2s-0.1,0.1-0.4,0.1h-0.4h-0.3h-0.2
		h-0.6c-0.5,0.1-1.1,0.1-1.6,0.1c0,0-0.1,0-0.1,0c-0.3-0.2-0.6-0.5-0.8-0.8l-0.1-0.1l-0.1-0.1l-0.2-0.2l-0.2-0.3l-0.3-0.2l-0.5-0.6
		c-0.1-0.1-0.2-0.2-0.3-0.3l-0.2-0.3c0-0.1-0.1-0.1-0.1-0.1s0,0.3,0,0.8s0,0.8,0,0.9v0.1l0,0c0,0,0,0.2,0,0.4s0,0.4,0,0.4h-0.7h-1
		h-1.2c-0.2,0-0.4,0-0.6,0c0,0-0.1-0.2-0.1-0.5v-0.3c0-0.1,0-0.2,0-0.4c0-0.1,0-0.7-0.1-1.7c-0.1-1.5,0-0.1,0-0.2s0-0.2,0-0.3
		s0-0.1,0-0.2v-0.1c0-0.1,0-0.1,0-0.2c0-0.1,0-0.4-0.1-0.8c0-0.3,0-0.5-0.1-0.8c0,0,0-0.2,0-0.5s0-0.5,0-0.7v-0.1c0-0.2,0-0.4,0-0.5
		c0-0.2,0-0.5,0-0.7c0-0.3,0-0.5,0-0.6c0-0.1,0.1-0.1,0.1-0.2c0.1,0,0.2-0.1,0.3-0.1L201.2,188.6L201.2,188.6z M200.9,190.4h-0.2
		h-0.3c-0.2,0-0.3,0-0.3,0c0,0,0,0.1,0,0.1c0,0,0,0,0,0.1c0,0,0,0.1,0,0.1c0,0.2,0,0.4,0.1,0.6c0,0,0,0.1,0,0.3c0,0.1,0,0.2,0,0.3
		c0,0,0,0.2,0,0.4c0,0.1,0,0.2,0,0.3l0,0c0.1,0,0.3-0.2,0.5-0.6c0.2-0.3,0.4-0.7,0.4-1.1c0-0.1,0-0.2-0.1-0.3
		C200.9,190.4,200.9,190.4,200.9,190.4L200.9,190.4z"/>
	<path class="st1" d="M208.4,188.3h0.3c0.1,0,0.3,0,0.4,0h0.4c0.3,0,0.5,0,0.8,0.1c0.3,0.1,0.5,0.2,0.7,0.3l0.3,0.2l0.6,0.4
		c0.2,0.1,0.4,0.3,0.6,0.5c0.2,0.2,0.4,0.4,0.5,0.6l0.1,0.1c0.1,0.2,0.2,0.4,0.3,0.6c0,0.1,0.1,0.2,0.1,0.3c0.1,0.2,0.2,0.5,0.2,0.8
		c0,0.1,0,0.2,0,0.5c0,0.4,0,0.7,0,0.8c-0.1,0.3-0.1,0.5-0.2,0.8c-0.1,0.3-0.1,0.4-0.2,0.5c0,0.1-0.1,0.1-0.1,0.2s0,0.1-0.1,0.2
		c0,0.2-0.1,0.3-0.2,0.4c-0.1,0.1-0.3,0.4-0.6,0.8c-0.3,0.3-0.7,0.6-1.1,0.8c-0.5,0.2-1,0.3-1.5,0.4c-0.3,0-0.6,0.1-0.9,0.1h-0.2
		c-0.3,0-0.6-0.1-0.9-0.1c-0.2,0-0.5-0.1-0.7-0.2c-0.2-0.1-0.4-0.2-0.6-0.3c0,0-0.1-0.1-0.1-0.1c-0.3-0.3-0.6-0.6-0.9-0.9l-0.3-0.4
		l-0.2-0.3c-0.3-0.6-0.5-1.2-0.7-1.8c0-0.2-0.1-0.3-0.1-0.5c0-0.1,0-0.3,0-0.4c0-0.1,0-0.2,0.1-0.3c0-0.2,0.1-0.4,0.2-0.7v-0.1v-0.1
		v-0.1c0-0.2,0.1-0.3,0.2-0.4c0.1-0.2,0.2-0.3,0.4-0.5c0.1-0.1,0.1-0.1,0.2-0.2l0.3-0.3l0.2-0.3c0.3-0.3,0.6-0.5,0.9-0.7l0.4-0.2
		C207.5,188.4,208,188.3,208.4,188.3z M209.1,191.4h-0.4h-0.1c0,0-0.1,0-0.1,0c-0.1,0-0.3,0.1-0.4,0.2c-0.2,0.1-0.3,0.3-0.4,0.5
		c-0.1,0.2-0.2,0.4-0.2,0.7v0.2l0,0c0,0.2,0,0.4,0.1,0.7c0,0.3,0.2,0.6,0.4,0.8c0.1,0.1,0.3,0.2,0.4,0.2c0.1,0,0.2,0,0.4,0
		c0.2,0,0.4,0,0.6-0.1l0.2-0.1c0.1-0.1,0.2-0.2,0.3-0.3c0.1-0.1,0.1-0.1,0.2-0.2c0-0.1,0-0.1,0.1-0.2c0.1-0.2,0.2-0.4,0.2-0.6
		c0-0.1,0-0.2,0-0.3c0,0,0-0.1,0-0.1c0-0.1,0-0.1,0-0.2s0-0.2-0.1-0.3c-0.1-0.3-0.1-0.4-0.2-0.4l-0.2-0.1c-0.1-0.1-0.2-0.1-0.3-0.2
		h-0.1h-0.1l0,0l0,0L209.1,191.4z"/>
	<path class="st1" d="M220,188.1h0.3h0.6l0.7,0.1c0.1,0,0.3,0.1,0.4,0.1c0.4,0.1,0.8,0.2,1.2,0.4c0.3,0.1,0.6,0.2,0.9,0.4
		c0.4,0.2,0.7,0.6,0.9,1c0.1,0.3,0.1,0.5,0.1,0.8c0,0.6-0.1,1.1-0.4,1.6v0.1l0,0c0,0.1-0.1,0.1-0.1,0.2c-0.1,0.2-0.3,0.3-0.4,0.5
		c-0.1,0.2-0.3,0.3-0.5,0.4c-0.1,0.1-0.3,0.1-0.4,0.2l-0.6,0.2c-0.1,0-0.2,0.1-0.3,0.1c-0.1,0.4-0.1,0.8-0.1,1.2c0,0.4,0,0.8,0,1.1
		c0,0.4,0,0.6,0,0.8c0,0.2,0,0.3-0.1,0.4h-0.7l-0.7-0.1c-0.2,0-0.3,0-0.5,0.1h-0.9h-0.2h-0.1c0,0-0.1,0-0.1-0.1c0,0,0-0.1,0-0.1
		c0,0,0-0.1,0-0.1c0,0,0-0.1,0-0.2s0-0.1,0-0.2s0-0.3,0-0.4c0,0,0-0.1,0-0.1c0,0,0-0.1,0-0.1c0,0,0-0.1,0-0.2s0-0.3,0-0.4v-1
		c0-0.1,0-0.3,0-0.6c0-0.3,0-0.5,0-0.6c0-0.2,0-0.3,0-0.5v-0.4c0-0.1,0-0.2,0-0.3c0-0.1,0-0.2,0-0.4s0-0.3,0-0.3c0-0.1,0-0.1,0-0.2
		c0-0.1,0-0.1,0-0.2c0,0,0-0.1,0-0.2s0-0.1,0-0.1v-0.4c0-0.4,0-0.8,0-1.1c0-0.3,0-0.7,0-1c0-0.1,0-0.2,0.1-0.3
		c0.1,0,0.1-0.1,0.2-0.1h0.2L220,188.1z M222.1,190.6H222c-0.1,0-0.1,0-0.2,0c0,0.1-0.1,0.1-0.1,0.2c0,0.1,0,0.3,0,0.4
		c0,0.3,0,0.6,0.1,0.8c0,0,0,0,0.1,0h0.1h0.1h0.1c0.1,0,0.1,0,0.2-0.1h0.1c0.1,0,0.2-0.1,0.2-0.2c0.1-0.1,0.1-0.2,0.2-0.3
		c0-0.1,0.1-0.2,0.1-0.3c0-0.1,0-0.3-0.1-0.4C222.6,190.7,222.4,190.6,222.1,190.6L222.1,190.6z"/>
	<path class="st1" d="M229.5,188.3c0.5,0,0.9,0,1,0.1c0.1,0,0.1,0.1,0.2,0.1c0,0.1,0,0.1,0.1,0.2l0.1,0.2l0.1,0.2
		c0,0.1,0.1,0.2,0.1,0.2c0.1,0.3,0.2,0.7,0.3,1c0.1,0.3,0.2,0.6,0.2,0.7l0.1,0.6c0.1,0.4,0.1,0.6,0.1,0.7v0.3v0.2c0,0.1,0,0.1,0,0.2
		v0.2v0.2l0.1,0.3l0.1,0.4l0.1,0.4c0,0.1,0,0.1,0.1,0.2v0.2l0.1,0.5c0,0.2,0.1,0.3,0.1,0.4l0.1,0.3c0,0.2,0.1,0.5,0.2,0.7
		c0,0.1,0.1,0.3,0.2,0.4c0,0,0,0,0,0.1s0,0.1,0,0.2s-0.1,0.1-0.2,0.1h-1.8h-0.5c-0.1,0-0.2,0-0.3,0h-0.2c0,0,0-0.1-0.1-0.3
		s-0.1-0.3-0.1-0.4l-0.1-0.5c-0.5,0.1-1,0.1-1.6,0.1h0.1h-0.3h-0.4H227c0,0,0,0.1,0,0.1v0.1v0.1v0.1l0,0l0,0l0,0
		c0,0.1-0.1,0.2-0.1,0.2c-0.1,0.2-0.2,0.4-0.2,0.4c-0.1,0-0.2,0-0.3,0c-0.2,0-0.4,0-0.6,0h-0.2h-0.6l-0.6-0.1H224
		c-0.2,0-0.3,0-0.3-0.1c0,0,0-0.1,0-0.1c0-0.2,0.1-0.3,0.2-0.4c0.3-0.7,0.5-1.2,0.7-1.5c0.4-0.7,0.8-1.5,1.2-2.3v-0.1l0,0l0.4-0.6
		c0.1-0.3,0.3-0.5,0.3-0.7l0.2-0.4l0.1-0.2c0-0.1,0.1-0.1,0.1-0.2v-0.1l0.1-0.1l0.1-0.1c0.2-0.4,0.4-0.8,0.7-1.2l0.3-0.5v-0.1v-0.1
		l0,0h0.1h0.6L229.5,188.3z M227.8,194.3h1.4l-0.1-0.3V194v-0.1v-0.1l-0.1-0.5l-0.1-0.4c0-0.1,0-0.2,0-0.2c0,0,0,0,0-0.1h-0.1
		c-0.1,0.1-0.1,0.2-0.2,0.4l-0.2,0.4l-0.1,0.2c0,0,0,0.1,0,0.1v0.1c-0.1,0.1-0.1,0.1-0.1,0.2l-0.1,0.2c0,0-0.1,0.1-0.1,0.1v0.1
		L227.8,194.3z"/>
	<path class="st1" d="M232.8,188.1h0.1h0.4h0.1h0.4h0.5c0.2,0,0.4,0.1,0.7,0.1c0.3,0,0.6,0,0.9,0.1l0.4,0.1c0.3,0.1,0.7,0.2,1,0.3
		c0.2,0.1,0.3,0.2,0.4,0.3c0.2,0.3,0.4,0.6,0.5,0.9c0,0.2,0.1,0.4,0.1,0.6c0,0.4-0.1,0.8-0.2,1.2c-0.1,0.1-0.2,0.2-0.3,0.3l-0.2,0.2
		c0,0.1-0.1,0.1-0.1,0.2c0,0.1-0.1,0.1-0.1,0.2c-0.1,0.1-0.2,0.2-0.2,0.2s0.1,0.2,0.4,0.4c0.1,0.1,0.2,0.2,0.4,0.3l0.2,0.2l0.2,0.2
		l0.1,0.1l0.1,0.1c0.2,0.2,0.3,0.4,0.5,0.6l0.4,0.3c0.1,0.1,0.1,0.1,0.2,0.1c0.4,0.3,0.7,0.6,1,0.9c0.5,0.5,0.8,0.8,0.9,0.9
		c0.1,0.1,0.2,0.2,0.2,0.2v0.1c0,0.1,0,0.1-0.1,0.2h-3.5l-0.3-0.4l-0.4-0.5l-0.4-0.4c-0.1-0.2-0.3-0.4-0.4-0.5l-0.4-0.4L236,195
		l-0.1-0.1l-0.1-0.1v-0.1l0,0c0,0,0,0.1,0,0.1c0,0,0,0.1,0,0.1c0,0,0,0.1,0,0.1c0,0,0,0.3,0.1,0.7c0.1,0.4,0.1,0.7,0.1,1.1v0.1
		c0,0.3,0,0.5,0,0.6s0,0.1-0.1,0.1h-2.3h-0.1h-0.1h-0.1v-0.1v-0.1v-0.1c0-0.1,0-0.2,0-0.3c0-0.4,0-0.9-0.1-1.5c-0.1-0.9,0-0.1,0-0.3
		v-0.4c0-0.5,0-0.7,0-0.8c0-0.2,0-0.3,0-0.5c0-0.2,0-0.3,0-0.5c0-0.3,0-0.2,0-0.6c0-0.1,0-0.2,0-0.3v-0.3c0-0.4,0-0.6,0-0.6V191
		c0,0,0-0.2-0.1-0.6v-0.4v-0.3c0-0.1,0-0.2,0-0.3c0,0,0-0.1,0-0.1v-0.1v-0.1c0,0,0-0.1,0-0.1c0-0.1,0-0.1,0-0.1c0-0.1,0-0.2,0-0.3
		c0-0.1,0-0.3,0.1-0.4c0,0,0.1-0.1,0.1-0.1L232.8,188.1z M235.6,190.4c-0.1,0-0.2-0.1-0.3-0.1h-0.1c0,0,0,0-0.1,0c0,0.1,0,0.2,0,0.4
		c0,0.2,0,0.3,0,0.5c0,0.3,0,0.4,0.1,0.4h0.3c0.1,0,0.2,0,0.2-0.1c0.1,0,0.2-0.1,0.2-0.1c0.1-0.1,0.1-0.2,0.2-0.3
		c0-0.1,0.1-0.2,0.1-0.3l0,0c0-0.1-0.1-0.1-0.1-0.2c0-0.1-0.1-0.1-0.2-0.1L235.6,190.4z"/>
	<path class="st1" d="M241.9,188.5c0.2,0,0.4,0,0.6,0c0.1,0,0.3,0,0.4,0h0.1h0.1c0,0,0.1,0,0.1,0.1l0,0.1l0.2,0.3
		c0.1,0.2,0.2,0.3,0.2,0.4c0,0.1,0.1,0.2,0.1,0.3c0,0,0.1,0.1,0.1,0.2c0.1,0.2,0.2,0.5,0.4,0.7c0,0.1,0.1,0.1,0.1,0.2l0.1,0.1
		l0.1,0.1l0.2,0.3c0.1,0.2,0.1,0.3,0.2,0.4c0.4,0.6,0.8,1.4,1.4,2.6s0.9,1.8,1,1.9c0,0.1,0.1,0.2,0.1,0.3c0,0.2,0.1,0.3,0.2,0.4
		c0.1,0.2,0.2,0.4,0.2,0.6l0,0l0,0h-0.3h-0.3h-0.3h-0.3h-0.4h-1.6h-0.2h-0.2c0,0-0.1,0-0.1,0c-0.1-0.2-0.2-0.4-0.2-0.6
		c0-0.3-0.1-0.5-0.2-0.7l-0.1-0.2h-0.2h-0.3h-0.4h-1.4l0,0v0.1v0.1c-0.1,0.4-0.3,0.7-0.5,1.1c-0.1,0.1-0.1,0.2-0.2,0.2h-0.2
		c-0.1,0-0.1,0-0.2,0h-0.6c-0.1,0-0.3,0-0.4,0c-0.2,0-0.4,0-0.6,0h-0.2h-0.1h-0.3c-0.1,0-0.2,0-0.2-0.1l0,0v-0.1l0.1-0.3l0.1-0.2
		c0-0.1,0.1-0.2,0.1-0.4v-0.1l0.1-0.2l0.1-0.2l0.2-0.5c0-0.1,0.1-0.2,0.1-0.3c0,0,0.1-0.1,0.1-0.1l0,0l0,0v-0.1
		c0.1-0.1,0.1-0.3,0.2-0.4c0-0.1,0.1-0.2,0.1-0.3c0.1-0.1,0.1-0.3,0.1-0.4c0-0.1,0.1-0.3,0.1-0.3c0-0.1,0.1-0.1,0.1-0.2
		c0,0,0-0.1,0-0.1c0,0,0-0.1,0-0.1V193l0.1-0.3l0.1-0.4c0-0.1,0-0.1,0.1-0.2l0.1-0.2c0.1-0.2,0.2-0.5,0.2-0.7v-0.1V191v-0.1
		c0-0.1,0.1-0.3,0.2-0.4l0.1-0.3c0-0.1,0.1-0.1,0.1-0.2v-0.1c0,0,0-0.1,0-0.1l0.1-0.4c0.1-0.3,0.2-0.5,0.3-0.8
		c0-0.1,0.1-0.2,0.3-0.2h1L241.9,188.5z M242.3,192.2c0-0.1-0.1-0.2-0.1-0.2l0,0c0,0,0,0,0,0.1l-0.1,0.3c0,0.1-0.1,0.3-0.1,0.4
		c-0.1,0.4-0.2,0.6-0.2,0.7v0.2v0.1v0.1l0,0v0.1c0.3,0.1,0.7,0.1,1,0.1h0.3c0.1,0,0.2,0,0.2,0l0,0c0-0.2-0.1-0.3-0.2-0.4
		c-0.1-0.1-0.1-0.3-0.2-0.4l-0.1-0.1l-0.1-0.2l0-0.1l-0.1-0.2v-0.1L242.3,192.2z"/>
	<path class="st1" d="M256.5,188.5c0.2,0,0.4,0,0.6,0c0.1,0,0.3,0,0.4,0h0.1h0.1c0,0,0.1,0,0.1,0.1l0,0.1l0.2,0.3
		c0.1,0.2,0.2,0.3,0.2,0.4c0,0.1,0.1,0.2,0.1,0.3c0,0,0.1,0.1,0.1,0.2c0.1,0.2,0.2,0.5,0.4,0.7c0,0.1,0.1,0.1,0.1,0.2l0.1,0.1
		l0.1,0.1l0.2,0.3c0.1,0.2,0.1,0.3,0.2,0.4c0.4,0.6,0.8,1.4,1.4,2.6c0.6,1.1,0.9,1.8,1,1.9c0,0.1,0.1,0.2,0.1,0.3
		c0,0.2,0.1,0.3,0.2,0.4c0.1,0.2,0.2,0.4,0.2,0.6l0,0l0,0h-0.3h-0.3h-0.3h-0.3h-0.4h-1.6h-0.2h-0.2c0,0-0.1,0-0.1,0
		c-0.1-0.2-0.2-0.4-0.2-0.6c0-0.3-0.1-0.5-0.2-0.7l-0.1-0.2H258h-0.3h-0.4h-1.4l0,0v0.1v0.1c-0.1,0.4-0.3,0.7-0.5,1.1
		c-0.1,0.1-0.1,0.2-0.2,0.2H255c-0.1,0-0.1,0-0.2,0H254c-0.1,0-0.3,0-0.4,0c-0.2,0-0.4,0-0.6,0h-0.2h-0.1h-0.3c-0.1,0-0.2,0-0.2-0.1
		l0,0v-0.1l0.1-0.3l0.1-0.2c0-0.1,0.1-0.2,0.1-0.4v-0.1l0.1-0.2l0.1-0.2l0.2-0.5c0.1-0.1,0.1-0.1,0.2-0.2c0,0,0.1-0.1,0.1-0.1l0,0
		l0,0v-0.1c0.1-0.1,0.1-0.3,0.2-0.4c0-0.1,0.1-0.2,0.1-0.3c0.1-0.1,0.1-0.3,0.1-0.4c0-0.1,0.1-0.3,0.1-0.3c0-0.1,0.1-0.1,0.1-0.2
		c0,0,0-0.1,0-0.1c0,0,0-0.1,0-0.1v-0.1l0.1-0.3l0.1-0.4c0-0.1,0-0.1,0.1-0.2l0.1-0.2c0.1-0.2,0.2-0.5,0.2-0.7v-0.1v-0.1V191
		c0-0.1,0.1-0.3,0.2-0.4l0.1-0.3c0-0.1,0.1-0.1,0.1-0.2V190c0,0,0-0.1,0-0.1l0.1-0.4c0.1-0.3,0.2-0.5,0.3-0.8c0-0.1,0.1-0.2,0.3-0.2
		h1L256.5,188.5z M256.9,192.2c0-0.1-0.1-0.2-0.1-0.2l0,0c0,0,0,0,0,0.1l-0.1,0.3c0,0.1-0.1,0.3-0.1,0.4c-0.1,0.4-0.2,0.6-0.2,0.7
		v0.2v0.1v0.1l0,0v0.1c0.3,0.1,0.7,0.1,1,0.1h0.3c0.1,0,0.2,0,0.2,0l0,0c0-0.2-0.1-0.3-0.2-0.4c-0.1-0.1-0.1-0.3-0.2-0.4l-0.1-0.1
		l-0.1-0.2l0-0.1l-0.1-0.2v-0.1L256.9,192.2z"/>
	<path class="st1" d="M46.7,203c0.1,0,0.1,0,0.2,0c0.1,0,0.2,0,0.2,0h2c0,0,0.1,0,0.1,0h0.1c0,0,0.1,0,0.1,0.1c0,0.2,0,0.4,0,0.6
		c0,0.4,0,0.8,0,1.1v0.4c0,0.1,0,0.3,0,0.4s0,0.1,0,0.2s0,0.3,0,0.7c0,0.7,0,1,0,1.1c0,0.3,0.1,0.7,0.2,1c0,0.2,0.1,0.4,0.3,0.5
		c0,0,0.1,0,0.1,0c0.2,0,0.3-0.1,0.4-0.2c0.1-0.1,0.2-0.2,0.2-0.4c0-0.3,0-0.6,0-0.9c0-0.3,0-0.5,0-0.8l0,0c0,0,0-0.1,0-0.1
		c0,0,0-0.1,0-0.1l0,0c0,0,0-0.1,0-0.1c0,0,0-0.1,0-0.2s0-0.1,0-0.2v-0.1c0-0.1,0-0.1,0-0.2c0,0,0-0.1,0-0.2s0-0.2,0-0.2v-0.2
		c0-0.1,0-0.1,0-0.2c0,0,0-0.1,0-0.2s0-0.1,0-0.2l0,0c0-0.1,0-0.2,0-0.4s0-0.3,0-0.5s0-0.4,0-0.4c0-0.1,0-0.2,0-0.3V203l0,0
		c0,0,0.1-0.1,0.2-0.1H51c0.2,0,0.4,0,0.6,0h0.6h0.4c0.2,0,0.3,0,0.4,0.1c0.1,0.3,0.1,0.7,0.1,1v1.1c0,0.3,0,0.5,0,0.8
		c0,0.2,0,0.5,0,0.8c0,0.2,0,0.4,0,0.5s0,0.6,0,1.1s0,0.7,0,1.1c0,0.1,0,0.2,0,0.4s0,0.4,0,0.4c0,0.2,0,0.4-0.1,0.6
		c0,0.1,0,0.2-0.1,0.3c0,0.1,0,0.1-0.1,0.2l-0.1,0.1c0,0,0,0.1,0,0.1c-0.1,0.1-0.2,0.2-0.3,0.3c-0.3,0.3-0.6,0.4-1,0.5
		c-0.1,0-0.1,0-0.2,0.1c-0.3,0.1-0.5,0.1-0.8,0.1h-0.4c-0.2,0-0.3,0-0.5,0c-0.1,0-0.1,0-0.2,0l-0.2-0.1c-0.1-0.1-0.2-0.1-0.4-0.2
		c-0.1,0-0.2-0.1-0.3-0.2l-0.2-0.1c-0.2-0.1-0.3-0.3-0.4-0.4l-0.1-0.1l-0.1-0.1c-0.2-0.3-0.4-0.6-0.4-1c0-0.1,0-0.2-0.1-0.4
		c-0.1-0.5-0.1-1-0.2-1.5c0-0.4,0-0.7-0.1-1c-0.1-0.5-0.1-0.9-0.1-1.4c0-0.4,0-0.7-0.1-1.1c0-0.2,0-0.3,0-0.5c0-0.1,0-0.2,0-0.4
		s0-0.3,0-0.4s0-0.3,0-0.3L46.7,203z"/>
	<path class="st1" d="M53.8,202.9h0.5c0.1,0,0.1,0.1,0.2,0.1l0.2,0.2l0.1,0.1l0.2,0.1c0.5,0.4,1,0.8,1.4,1.3l0.5,0.5
		c0.2,0.1,0.3,0.3,0.4,0.5c0.1,0.1,0.1,0.2,0.2,0.3c0.1,0.1,0.1,0.2,0.2,0.2s0,0,0,0V206c0-0.1,0-0.2,0-0.4s0-0.5,0-0.5v-0.5
		c0-0.1,0-0.2,0-0.3s0-0.2,0-0.2s0-0.3,0-0.4s0-0.3,0-0.5v-0.1c0,0,0-0.1,0-0.1c0,0,0.1,0,0.1,0h0.1h0.7h0.3h0.6h0.5
		c0.1,0,0.2,0,0.3,0.1c0,0,0,0.4,0,1.2v1.8c0,0.1,0,0.2,0,0.3c0,0.2,0,0.3,0,0.3c0,0.1,0,0.2,0,0.3c0,0.2,0,0.5,0,0.9v0.4
		c0,0.1,0,0.3,0,0.5c0,0.2,0,0.4,0,0.5v0.3c0,0.3,0,0.7,0,1v1.2c0,0.3-0.1,0.4-0.2,0.4c-0.1,0-0.3-0.1-0.4-0.1
		c-0.1,0-0.2-0.1-0.2-0.1l-0.3-0.3l-0.2-0.2l-0.2-0.1l-0.3-0.3c-0.1-0.1-0.2-0.1-0.3-0.2c-0.1-0.1-0.2-0.1-0.2-0.2
		c-0.3-0.2-0.5-0.4-0.7-0.7l-0.3-0.3l-0.1-0.1c0-0.1-0.1-0.1-0.2-0.1l0,0v0.2c0,0.1,0,0.1,0,0.2c0,0.1,0,0.3,0,0.5
		c0,0.1,0,0.3,0,0.4s0,0.2,0,0.3c0,0.1,0,0.1,0,0.2c0,0.1,0,0.1,0,0.2c0,0,0,0.1,0,0.2s0,0.1,0,0.1v0.1c0,0,0,0.1,0,0.2s0,0.1,0,0.2
		c0,0,0,0,0,0.1H54c-0.1,0-0.2,0-0.2,0c0-0.1,0-0.2,0-0.3c0-0.2,0-0.5,0-0.9v-1.7c0-0.5,0-0.8,0-0.9c0-0.2,0-0.5,0-0.9v-0.8
		c0-0.3,0-0.6,0-1c0-0.4,0-0.9,0-1.4v-0.6c0,0,0-0.1,0-0.2s0-0.2,0-0.2c0,0,0-0.1,0-0.1l0,0v-0.1c0,0,0-0.1,0-0.1
		C53.8,202.9,53.8,202.9,53.8,202.9z"/>
	<path class="st1" d="M61.4,210.3L61.4,210.3c0-0.2,0-1.2-0.1-2.9s-0.1-2.6-0.1-2.6c-0.1-0.3-0.1-0.5-0.1-0.8c0,0,0-0.1,0-0.1v-0.1
		c0-0.1,0-0.1,0.1-0.2l0.1-0.1h1.1h0.6h0.5h0.4c0.1,0,0.1,0,0.1,0c0,0,0,0.1,0,0.1c0,0,0,0.1,0,0.3v0.1c0,0.3,0,0.7,0,1.4
		c0,0.4,0,0.7,0.1,1.1c0,0,0,0.3,0,0.7s0,0.6,0,0.7c0,0.3,0,0.9,0.1,1.9c0,1,0.1,1.6,0.1,1.8c0,0.1,0,0.2,0,0.3
		c0,0.2-0.1,0.3-0.1,0.3c-0.3,0.1-0.6,0.1-0.9,0.1h-0.1h-0.3h-0.2h-0.1c-0.2,0-0.5,0-0.7,0h-0.1c0,0-0.1-0.1-0.1-0.4
		C61.5,211.8,61.5,211.2,61.4,210.3z"/>
	<path class="st1" d="M64.7,203.2l0.8-0.1h0.2h2.1h0.1c0.2,0,0.3,0.1,0.4,0.4c0,0.1,0,0.1,0,0.2l0.1,0.4l0.5,1.6
		c0.1,0.4,0.3,0.8,0.4,1.2l0.1,0.2l0,0l0.2,0.6c0,0.1,0.1,0.3,0.1,0.4l0.1,0.3l0.1-0.3l0,0l0.1-0.2l0,0l0.1-0.2l0.1-0.4l0.1-0.4l0,0
		c0-0.1,0-0.3,0.1-0.4c0,0,0-0.1,0-0.1v-0.1v-0.1c0,0,0-0.1,0-0.1V206v-0.1v-0.1l0,0c0-0.1,0.1-0.3,0.1-0.4l0.2-0.7l0.2-0.6v-0.1
		V204v-0.1l0,0l0,0l0.1-0.4c0-0.2,0.1-0.3,0.1-0.4s0.1,0,0.1,0h0.2h0.2h0.3c0.1,0,0.2,0,0.3,0h1.1h0.2h0.1c0.1,0,0.3,0,0.4,0
		c0.2,0,0.2,0,0.2,0.1c0,0,0,0.1,0,0.1c0,0,0,0.1,0,0.1c0,0,0,0.1,0,0.1v0.1c0,0.1,0,0.1,0,0.2c0,0.1,0,0.2-0.1,0.3l0,0l0,0
		c0,0,0,0.1,0,0.1c0,0,0,0.1,0,0.1l0,0l0,0l-0.2,0.5c-0.1,0.3-0.2,0.5-0.2,0.6l-0.2,0.4l0,0c0,0.1,0,0.1,0,0.2c0,0,0,0.1,0,0.1l0,0
		l-0.2,0.5c-0.1,0.3-0.2,0.5-0.3,0.7c-0.1,0.3-0.2,0.6-0.3,0.9c-0.1,0.4-0.2,0.7-0.3,0.9l-0.2,0.6c-0.1,0.2-0.1,0.3-0.2,0.5
		l-0.1,0.4l-0.2,0.6c-0.1,0.2-0.2,0.4-0.3,0.6c-0.1,0.2-0.2,0.3-0.3,0.3h-1.4c-0.2,0-0.4,0-0.6,0h-0.4l-0.1-0.1
		c-0.3-0.4-0.5-0.8-0.7-1.2c-0.2-0.4-0.4-0.8-0.6-1.2l0,0l0,0c0-0.1-0.1-0.2-0.1-0.3c-0.2-0.3-0.4-0.7-0.5-1c-0.1-0.3-0.3-0.7-0.4-1
		c0-0.1,0-0.2-0.1-0.4l-0.1-0.2v-0.1v-0.1v-0.1v-0.1c0,0,0-0.1-0.1-0.1v-0.1l0,0l-0.1-0.3l-0.2-0.4l-0.1-0.2l0,0
		c-0.2-0.3-0.3-0.7-0.4-1C65,204,64.8,203.6,64.7,203.2z"/>
	<path class="st1" d="M77,202.9h3.4l0,0l0,0c0,0,0,0.1,0,0.1c0,0,0,0.1,0,0.2s0,0.3,0,0.4v0.2l0,0v0.1c0,0,0,0,0,0.1v0.4
		c0,0.1,0,0.1,0,0.2c0,0,0,0.1,0,0.1c0,0,0,0.1,0,0.1c0,0.1,0,0.1,0,0.2c0,0.1-0.1,0.1-0.3,0.1s-0.4,0-0.9,0c-0.3,0-0.7,0-1,0h-0.1
		c-0.1,0-0.1,0-0.1,0.1c0,0.1,0,0.2,0,0.3c0,0.1,0,0.2,0,0.2c0,0.1,0,0.2,0.1,0.2c0.1,0,0.3,0,0.4,0H79c0.2,0,0.3,0,0.2,0h0.1h0.3
		c0.1,0,0.3,0,0.4,0.1c0,0,0,0,0,0.1v0c0,0,0,0,0,0.1l0,0v0.2c0,0,0,0.1,0,0.1c0,0.2,0,0.4,0,0.6s0,0.4,0,0.6c0,0.1,0,0.2,0,0.2
		c0,0,0,0.1,0,0.1c0,0-0.1,0.1-0.2,0.1h-0.7c0.1,0,0.1,0,0.1,0h-0.6h-0.1c0,0.1,0,0.1,0,0.2c0,0.5,0,0.8,0.1,0.9c0.1,0,0.2,0,0.2,0
		h1h0.6c0.1,0,0.1,0,0.2,0h0.6c0-0.3,0-0.4,0-0.5s0-0.3,0-0.5s0-0.2,0-0.2s0-0.1,0-0.1v-0.1c0,0,0-0.1,0-0.1c0,0,0-0.1,0-0.2
		s0-0.1,0-0.2s0-0.2,0-0.3s0-0.1,0-0.1c0-0.1,0-0.1,0-0.2c0,0,0-0.1,0-0.1c0,0,0-0.1,0-0.1s0-0.1,0-0.1V206c0-0.2,0-0.4,0-0.5
		s0-0.4,0-0.6v-0.5c0,0,0-0.1,0-0.1c0,0,0-0.1,0-0.1s0-0.1,0-0.1s0-0.2,0-0.3s0-0.2,0-0.2c0,0,0-0.1,0-0.1l0,0c0,0,0-0.1,0-0.2
		s0-0.2,0-0.2c0-0.1,0-0.1,0-0.2H82c0.5,0,1,0,1.4,0.1l0.7,0.1l0.6,0.2c0.2,0.1,0.4,0.1,0.6,0.2c0.2,0.1,0.4,0.2,0.6,0.3
		c0.2,0.1,0.3,0.3,0.5,0.4c0.1,0.2,0.2,0.4,0.3,0.6c0.1,0.2,0.1,0.5,0.1,0.8c0,0,0,0.1,0,0.1c0,0.1,0,0.2-0.1,0.2c0,0,0,0,0,0.1
		c0,0.3-0.2,0.6-0.4,0.9c-0.2,0.3-0.4,0.6-0.7,0.9c0,0.1,0,0.1,0,0.2c0,0.1,0,0.2,0.1,0.3l0.2,0.3c0.1,0.2,0.2,0.4,0.3,0.5l0.5,0.7
		c0.5,0.7,0.8,1.3,1.2,1.9l0.2,0.3c0,0-0.1,0.1-0.2,0.1h-0.1c-0.2,0-0.4,0-0.6,0h-0.3h-1.4c-0.1,0-0.1,0-0.2,0h-0.1c0,0,0-0.1,0-0.1
		c0-0.1,0-0.1-0.1-0.1l-0.4-0.8c-0.2-0.4-0.3-0.7-0.5-1s-0.3-0.5-0.4-0.6v1.8c0,0.1,0,0.1,0,0.2s0,0.1,0,0.2c0,0,0,0.1,0,0.1
		c0,0,0,0.1,0,0.1c0,0,0,0.1,0,0.1v0.1l0,0H83l0,0h-1.2h-0.2h-0.2c0,0-0.1,0-0.1,0h-5.6c-0.1,0-0.1-0.2-0.1-0.4c0-0.5,0-0.9-0.1-1.4
		c0,0,0-0.1,0-0.3s0-0.3,0-0.5v-0.6c0-0.1,0-0.2,0-0.3c0-0.1,0-0.2,0-0.2v0c0-0.1,0-0.2,0-0.3s0-0.2,0-0.3c0-0.2,0-0.4,0-0.7
		c0-0.1,0-0.1,0-0.2c0-0.1,0-0.2,0-0.3c0-0.3-0.1-0.6-0.1-0.8c0-0.1,0-0.2,0-0.4c0-0.1,0-0.2,0-0.3c0-0.3-0.1-0.6-0.1-0.9
		c0-0.2,0-0.3,0-0.5l0,0c0,0,0,0,0-0.1c0-0.2,0-0.4,0.1-0.7h1.9L77,202.9z M84,205.3c-0.1-0.1-0.3-0.1-0.4-0.1c0,0-0.1,0-0.1,0
		c0,0,0,0.1,0,0.2s0,0.1,0,0.3c0,0.1,0,0.2,0,0.4c0,0.2,0,0.4,0,0.6h0.1l0.3-0.1c0.3-0.1,0.5-0.3,0.5-0.6c0,0,0-0.1,0-0.1
		c0,0,0-0.1,0-0.1C84.2,205.6,84.1,205.4,84,205.3z"/>
	<path class="st1" d="M91.4,202.9h0.4H92h0.2h0.1l0,0c0,0,0,0.1,0,0.1c0,0.1,0,0.1,0,0.2l-0.1,0.2l-0.2,0.3
		c-0.3,0.5-0.4,0.8-0.5,0.9s-0.1,0.3-0.2,0.5c-0.1,0.3-0.1,0.6-0.1,0.9v0.2c0,0.1,0,0.3,0.1,0.4c0.1,0.2,0.2,0.4,0.3,0.5v0.1v0.1
		l0,0l0.1,0.1c0.1,0.1,0.2,0.2,0.3,0.3c0.1,0.1,0.2,0.2,0.3,0.2c0.1,0,0.1,0.1,0.2,0.2c0,0.1,0.1,0.1,0.1,0.2
		c0.1,0.1,0.2,0.3,0.2,0.4c0,0,0,0.1,0.1,0.2c0,0.1,0.1,0.2,0.1,0.3c0,0.1,0,0.2,0,0.2c0,0.3-0.1,0.6-0.3,0.9l-0.1,0.1l-0.1,0.1
		c-0.1,0.1-0.1,0.2-0.2,0.3c-0.1,0.1-0.1,0.2-0.2,0.3c-0.1,0.1-0.2,0.3-0.3,0.4c-0.1,0.1-0.2,0.2-0.3,0.3l-0.3,0.3H89h-0.4
		c-0.1,0-0.2,0-0.3,0h-0.1H88h-0.3c-0.1,0-0.2,0-0.3-0.1l0,0c0-0.1,0-0.2,0.1-0.2c0-0.1,0.1-0.1,0.1-0.2c0-0.2,0.1-0.3,0.2-0.4
		l0.3-0.3l0.2-0.3c0.2-0.2,0.3-0.4,0.5-0.7l0.1-0.2l0,0v-0.1v-0.1c0.1-0.1,0.1-0.2,0.1-0.3v0c0-0.2,0-0.3-0.1-0.5l-0.1-0.2l-0.1-0.1
		l-0.1-0.1c0,0-0.1-0.1-0.1-0.1l-0.1-0.1l-0.3-0.3l-0.4-0.4c-0.3-0.3-0.4-0.6-0.5-0.9c0-0.1,0-0.3,0-0.4c0-0.1,0-0.2,0-0.3v0v-0.1
		c0,0,0-0.1,0-0.1c0-0.2,0.1-0.4,0.2-0.7c0-0.1,0.1-0.2,0.1-0.3c0-0.1,0.1-0.2,0.1-0.4c0-0.1,0.1-0.3,0.2-0.4c0-0.1,0.1-0.2,0.1-0.3
		l0.1-0.1v-0.1l0.1-0.2c0-0.1,0-0.1,0.1-0.2c0-0.1,0.1-0.1,0.3-0.1c0.1,0,0.2,0,0.3,0h0.3h0.5h0.6c0.1,0,0.2,0,0.3,0h0.7L91.4,202.9
		z"/>
	<path class="st1" d="M94,210.3L94,210.3c0-0.2,0-1.2-0.1-2.9c-0.1-1.7-0.1-2.6-0.1-2.6c-0.1-0.3-0.1-0.5-0.1-0.8c0,0,0-0.1,0-0.1
		v-0.1c0-0.1,0-0.1,0.1-0.2l0.1-0.1h1.1h0.6h0.5h0.4c0.1,0,0.1,0,0.1,0c0,0,0,0.1,0,0.1c0,0,0,0.1,0,0.3v0.1c0,0.3,0,0.7,0,1.4
		c0,0.4,0,0.7,0.1,1.1c0,0,0,0.3,0,0.7s0,0.6,0,0.7c0,0.3,0,0.9,0.1,1.9c0,1,0.1,1.6,0.1,1.8c0,0.1,0,0.2,0,0.3
		c0,0.2-0.1,0.3-0.1,0.3c-0.3,0.1-0.6,0.1-0.9,0.1h-0.1h-0.3h-0.2h0c-0.2,0-0.5,0-0.7,0h-0.2c0,0-0.1-0.1-0.1-0.4
		C94,211.8,94,211.2,94,210.3z"/>
	<path class="st1" d="M99,203l1,0.1c0.2,0,0.3,0.1,0.5,0.2c0.3,0.1,0.6,0.3,0.9,0.5h0.1l0.1,0.1c0.1,0.1,0.2,0.1,0.3,0.2l0.2,0.2
		c0.1,0.1,0.3,0.3,0.4,0.4c0.1,0.1,0.2,0.3,0.3,0.4c0.1,0.1,0.1,0.2,0.2,0.3l0.2,0.3c0,0.1,0.1,0.2,0.1,0.3l0.1,0.1
		c0.2,0.4,0.3,0.9,0.3,1.4c0,0,0,0.1,0,0.1s0,0.1,0,0.1c0,0.2-0.1,0.5-0.2,0.7c-0.1,0.2-0.1,0.4-0.3,0.5l-0.1,0.2
		c-0.1,0.1-0.1,0.3-0.2,0.4c-0.2,0.4-0.5,0.7-0.8,1l-0.4,0.3l-0.1,0.1l-0.1,0.1l0,0h-0.1l-0.1,0.1c-0.3,0.2-0.5,0.3-0.8,0.5
		c-0.2,0.1-0.5,0.2-0.8,0.2h-0.2c-0.1,0-0.3,0.1-0.4,0.1c-0.1,0-0.2,0-0.2,0h-0.3h-0.2h-0.2h-0.3h-0.3c0,0-0.1,0-0.1,0
		c0-0.1,0-0.2,0-0.3c0-0.1,0-0.2,0-0.4s0-0.3,0-0.4s0-0.4,0-0.5s0-0.1,0-0.2s0-0.1,0-0.2c0,0,0-0.1,0-0.1v-0.2c0-0.1,0-0.2,0-0.3
		s0-0.1,0-0.2v-0.9c0-0.1,0-0.3,0-0.4c0-0.1,0-0.3,0-0.4v-0.7c0-0.2,0-0.4,0-0.6c0-0.1,0-0.1,0-0.2c0-0.1,0-0.1,0-0.2
		c0-0.1,0-0.2,0-0.4s0-0.4,0-0.4c0-0.1,0-0.1,0-0.2v-1.3c0,0,0-0.1,0-0.1c0,0,0-0.1,0-0.1c0-0.1,0-0.1,0-0.2c0,0,0-0.1,0-0.1
		s0-0.1,0-0.1v-0.1c0,0,0-0.1,0.1-0.1c0,0,0.1,0,0.1,0h0.1C98.2,202.8,98.6,202.9,99,203z M99.9,205.8c-0.1,0-0.1,0-0.2,0
		c0,0,0,0,0,0.1v0.1c0,0.1,0,0.1,0,0.2c0,0.4,0,0.6,0,0.6c0,0.1,0,0.2,0,0.3c0,0.1,0,0.1,0,0.2c0,0.1,0,0.1,0,0.3s0,0.2,0,0.2
		s0,0.2,0,0.4s0,0.2,0,0.2s0,0.1,0,0.1h0.1h0.2l0.1-0.1c0.3-0.1,0.5-0.3,0.6-0.6c0.2-0.2,0.2-0.5,0.3-0.8v-0.1c0-0.1,0-0.2-0.1-0.3
		c-0.1-0.2-0.2-0.3-0.4-0.5l-0.1-0.1l-0.1-0.1c0,0-0.1-0.1-0.1-0.1h-0.1C100,205.9,100,205.9,99.9,205.8L99.9,205.8z"/>
	<path class="st1" d="M107.3,203.1c0.2,0,0.4,0,0.6,0c0.1,0,0.3,0,0.4,0h0.1h0.1c0,0,0.1,0,0.1,0.1l0.1,0.1l0.2,0.3
		c0.1,0.2,0.2,0.3,0.2,0.4c0,0.1,0.1,0.2,0.1,0.3c0,0,0.1,0.1,0.1,0.2c0.1,0.2,0.2,0.5,0.4,0.7c0,0.1,0.1,0.1,0.1,0.2l0.1,0.1
		l0.1,0.1l0.2,0.3c0.1,0.2,0.1,0.3,0.2,0.5c0.4,0.6,0.8,1.4,1.4,2.6s0.9,1.8,1,2c0,0.1,0.1,0.2,0.1,0.3c0,0.2,0.1,0.3,0.2,0.4
		c0.1,0.2,0.2,0.4,0.2,0.6l0,0l0,0h-0.3h-0.3h-0.3h-0.3h-0.4H110h-0.2h-0.2c0,0-0.1,0-0.1,0c-0.1-0.2-0.2-0.4-0.2-0.6
		c0-0.3-0.1-0.5-0.2-0.7l-0.1-0.2h-0.2h-0.3H108h-1.4l0,0v0.1v0.1c-0.1,0.4-0.3,0.7-0.5,1.1c-0.1,0.1-0.1,0.2-0.2,0.2h-0.2
		c-0.1,0-0.1,0-0.2,0h-0.6c-0.1,0-0.3,0-0.4,0c-0.2,0-0.4,0-0.6,0h-0.2h-0.1h-0.3c-0.1,0-0.2,0-0.2-0.1l0,0v-0.1l0.1-0.3l0.1-0.2
		c0-0.1,0.1-0.2,0.1-0.4V211l0.1-0.2l0.1-0.2l0.2-0.5c0-0.1,0.1-0.2,0.1-0.3c0,0,0.1-0.1,0.1-0.1l0,0l0,0v0c0.1-0.1,0.1-0.3,0.2-0.5
		c0-0.1,0.1-0.2,0.1-0.3c0.1-0.1,0.1-0.3,0.1-0.4c0-0.1,0.1-0.3,0.1-0.3c0-0.1,0.1-0.1,0.1-0.2c0,0,0-0.1,0-0.1c0,0,0-0.1,0-0.1
		v-0.1l0.1-0.3l0.1-0.4c0-0.1,0-0.1,0.1-0.2l0.1-0.2c0.1-0.2,0.2-0.5,0.2-0.7v-0.1v-0.1v-0.1c0-0.1,0.1-0.3,0.2-0.5l0.1-0.3
		c0-0.1,0.1-0.1,0.1-0.2v-0.1c0,0,0-0.1,0-0.1l0.1-0.4c0.1-0.3,0.2-0.5,0.3-0.8c0-0.1,0.1-0.2,0.3-0.2h1L107.3,203.1z M107.7,206.9
		c0-0.1-0.1-0.2-0.1-0.2l0,0c0,0,0,0,0,0.1l-0.1,0.3c0,0.1-0.1,0.3-0.1,0.4c-0.1,0.4-0.2,0.6-0.2,0.7v0.2v0.1v0.1l0,0v0.1
		c0.3,0.1,0.7,0.1,1,0.1h0.3c0.1,0,0.2,0,0.2,0l0,0c0-0.2-0.1-0.3-0.2-0.4c-0.1-0.1-0.1-0.3-0.2-0.5l-0.1-0.1l-0.1-0.2l-0.1-0.1
		l-0.1-0.2V207L107.7,206.9z"/>
	<path class="st1" d="M116.2,202.8h1.4c0.4,0,0.8,0.1,1.2,0.1c0.4,0.1,0.8,0.2,1.1,0.3c0.1,0.1,0.2,0.1,0.4,0.1
		c0.8,0.4,1.5,0.8,2.1,1.4c0.1,0.1,0.2,0.3,0.3,0.4l0.2,0.3c0,0,0,0.1,0.1,0.3c0.1,0.2,0.1,0.4,0.1,0.5c0,0.1,0,0.2,0,0.3
		c0,0.3,0,0.5,0,0.5v0.2c0,0.1,0,0.1,0,0.2c0,0.1-0.1,0.2-0.1,0.3c0,0.2-0.1,0.3-0.1,0.5l0,0v0.1v0.1v0.1l-0.1,0.2
		c0,0.1,0,0.1-0.1,0.2c0,0.1,0,0.1-0.1,0.2l-0.1,0.2v0.1c-0.1,0.2-0.2,0.4-0.4,0.6c-0.1,0.1-0.1,0.2-0.2,0.3
		c-0.1,0.2-0.3,0.5-0.6,0.6l-0.2,0.2l0,0l0,0l0,0H121h-0.1l-0.2,0.1c-1,0.4-2,0.6-3,0.6h-0.1h-0.1h-0.1c-0.4,0-0.7,0-1.1,0.1h-0.4
		c-0.2,0-0.3,0-0.5,0l-0.9,0.1c-0.3,0-0.5,0-0.8-0.1c0,0,0-0.1,0-0.1c0,0,0-0.1,0-0.1c0,0,0-0.1,0-0.1c0,0,0-0.1,0-0.1s0-0.1,0-0.1
		c0,0,0-0.1,0-0.1v-0.2c0-0.1,0-0.1,0-0.2c0-0.1,0-0.2,0-0.4s0-0.3,0-0.4v-1.3c0,0,0,0,0-0.1s0-0.1,0-0.3v-0.3c0-0.2,0-0.4,0-0.5
		s0-0.1,0-0.1s0-0.1,0-0.1c0,0,0,0,0-0.1v-0.1c0,0,0-0.1,0-0.1c0,0,0-0.1,0-0.1c0,0,0-0.1,0-0.1v-0.7c0,0,0,0,0-0.1c0,0,0-0.1,0-0.3
		s0-0.3,0-0.4s0-0.1,0-0.1s0-0.1,0-0.1c0-0.1,0-0.1,0-0.2c0-0.1,0-0.1,0-0.2c0-0.1,0-0.2,0-0.3v-0.4c0-0.1,0-0.2,0-0.3
		c0-0.2,0-0.3,0-0.4c0-0.1,0-0.2,0-0.2c0-0.1,0-0.3,0-0.4c0,0,0-0.1,0-0.1c0.3-0.1,0.6-0.2,0.9-0.2h0.2h0.1h0.3h0.2h0.2h0.2h0.8
		L116.2,202.8z M117.2,206.2v1c0,0.4,0,0.7,0,0.7c0,0.1,0,0.2,0,0.4v0.2c0,0.1,0.1,0.1,0.2,0.1h0.2h0.1l0,0c0.2,0,0.3-0.1,0.4-0.2
		l0.2-0.1l0.1-0.1l0.1-0.1c0,0,0.1-0.1,0.2-0.1c0.2-0.1,0.4-0.3,0.5-0.6c0-0.1,0.1-0.1,0.1-0.2c0,0,0-0.1,0-0.1v-0.1
		c0-0.2-0.1-0.4-0.3-0.5c-0.2-0.2-0.5-0.3-0.7-0.3c-0.2,0-0.3-0.1-0.5-0.1C117.6,206.1,117.4,206.1,117.2,206.2L117.2,206.2z"/>
	<path class="st1" d="M123.3,202.9h0.2c0.6,0,0.9,0,1,0c0.2,0,0.3,0.1,0.5,0.1l0,0c0.1,0,0.3,0,0.4,0h0.7h0.5h0.6h0.4
		c0,0,0.1,0,0.1,0.1v0.1c0,0,0,0,0,0.1s0,0.1,0,0.1s0,0,0,0l0,0v0.1c0,0.1,0,0.2,0,0.3c0,0.1,0,0.2,0,0.3l0,0c0,0,0,0,0,0.1
		s0,0.1,0,0.1c0,0,0,0.1,0,0.1l0,0c0,0,0,0.1,0,0.1s0,0.1,0,0.1c0,0,0,0.1,0,0.1c0,0.1,0,0.2,0,0.3c0,0,0,0.1,0,0.1
		c0,0.1-0.1,0.1-0.2,0.1h-0.3c-0.2,0.1-0.4,0.1-0.6,0.1h-0.1h-0.5h-0.4l0,0c0,0,0,0.1,0,0.1c0,0.2,0,0.3,0,0.5c0,0,0,0.1,0,0.1
		c0,0,0,0.1,0,0.1c0,0,0,0,0,0.1v0.1c0.2,0,0.4,0,0.6,0c0.4,0,0.7,0,0.8,0h0.2c0.2,0,0.3,0,0.5,0.1c0.1,0,0.1,0.1,0.1,0.2
		c0,0,0,0.1,0,0.1c0,0.1,0,0.2,0,0.3v0.8c0,0.1,0,0.2,0,0.4c0,0,0,0,0,0.1v0.1c0,0,0,0.1,0,0.1c0,0.1,0,0.2,0,0.3
		c0,0-0.1,0.1-0.1,0.1c-0.2,0.1-0.3,0.1-0.5,0.1c-0.4,0-0.7,0-1.1-0.1h-0.1c-0.1,0-0.1,0.1-0.1,0.2v0.1c0,0.4,0,0.6,0.1,0.6h0.2
		c0.1,0,0.2,0,0.3,0h1c0.1,0,0.1,0,0.2,0h0.1c0.1,0,0.2,0,0.2,0.1c0,0.3,0,0.6,0,0.9c0,0.3,0,0.5,0,0.6c0,0.1,0,0.1,0,0.2
		s0,0.2,0,0.2c0,0.1,0,0.2-0.1,0.3c0,0.1-0.1,0.1-0.2,0.1h-3.7h-0.2h-0.2h-0.1l0,0l0,0l0,0l0,0V212v-0.1c-0.1-0.2-0.1-0.4-0.1-0.6
		c0-0.7,0-1,0-1.1v-0.1c0-0.1,0-0.1,0-0.2s0-0.2,0-0.3c0-0.4,0-0.7-0.1-1.1c0-0.2,0-0.3,0-0.5c0-0.3,0-0.5,0-0.5
		c-0.2-1.9-0.3-3.1-0.4-3.7c0-0.2,0-0.4,0-0.6c0-0.1,0-0.1,0-0.2C123.3,203,123.3,202.9,123.3,202.9z"/>
	<path class="st1" d="M136.9,212.2c-0.1,0-0.2,0-0.3,0h-0.7h-0.4c-0.1,0-0.2,0-0.2,0c-0.1,0-0.2,0-0.3,0h-0.5c-0.1,0-0.3,0-0.4-0.1
		c-0.1-0.1-0.1-0.1-0.1-0.2c0-0.1,0-0.2,0-0.4c0-0.2,0-0.4,0-0.5s0-0.6,0-1.3c0-1.1,0-1.8-0.1-2.1c0-0.2,0-0.5,0-0.7
		c0-0.4,0-0.8-0.1-1.1s-0.1-0.9-0.1-1.8c0-0.9,0-1.1,0-0.6c0-0.3,0-0.4,0-0.5c0,0,0-0.1,0-0.1c0-0.1,0.1-0.1,0.3-0.1h5.2
		c0,0.1,0,0.2,0,0.4v1.4c0,0.3,0,0.6,0,0.9c0,0.1,0,0.2,0,0.3h-2.5c-0.1,0-0.1,0.1-0.1,0.3c0,0.1,0,0.2,0,0.3c0,0.2,0.1,0.3,0.1,0.5
		c0,0.1,0.3,0.1,0.8,0.1h0.8h0.2h0.1c0.1,0,0.2,0,0.2,0.1l0.1,0.1v0.5c0,0.5,0,0.9,0,1.2c0,0.2,0,0.4-0.1,0.6
		c-0.1,0-0.1,0.1-0.2,0.1l0,0h-0.1c-0.3,0-0.7,0-1,0c-0.2,0-0.4,0-0.6,0.1c0,0.1,0,0.1,0,0.2c0,0,0,0.2,0,0.7s0,0.8,0,1.3
		S136.9,212.2,136.9,212.2z"/>
	<path class="st1" d="M141.9,202.9h3.1l0,0l0,0c0,0,0,0.1,0,0.1c0,0,0,0.1,0,0.2s0,0.3,0,0.4v0.2l0,0v0.1c0,0,0,0,0,0.1v0.4
		c0,0.1,0,0.1,0,0.2c0,0,0,0.1,0,0.1c0,0,0,0.1,0,0.1c0,0.1,0,0.1,0,0.2c0,0.1-0.1,0.1-0.2,0.1c-0.2,0-0.4,0-0.7,0c-0.3,0-0.7,0-1,0
		H143c-0.1,0-0.1,0-0.1,0.1c0,0.1,0,0.2,0,0.3c0,0.1,0,0.2,0,0.2c0,0.1,0,0.2,0.1,0.2c0.1,0,0.3,0,0.4,0h0.5c0.4,0,0.7-0.1,0.9-0.1
		h0.1h0.3c0.1,0,0.3,0,0.4,0.1c0,0,0,0,0,0.1v0c0,0,0,0,0,0.1l0,0v0.3c0,0,0,0.1,0,0.1c0,0,0,0.1,0,0.2s0,0.2,0,0.2v1.5
		c0,0.1,0,0.2,0,0.2c0,0,0,0.1,0,0.1c0,0-0.1,0.1-0.2,0.1h-0.6H144h-0.2h-0.3h-0.1h-0.1c0,0.1,0,0.1,0,0.2c0,0.3,0,0.4,0.1,0.5
		c0.1,0,0.2,0,0.2,0h1h0.6c0.1,0,0.1,0,0.2,0h0.4h0.3c0.1,0,0.1,0.2,0.1,0.7c0,0.7,0,0.2,0,0.4s0,0.4,0,0.5c0,0.3,0,0.6,0,0.9l0,0
		h-5.8c-0.1,0-0.1-0.2-0.1-0.4c0-0.5,0-0.9-0.1-1.4c0,0,0-0.1,0-0.3s0-0.3,0-0.5v-0.6c0-0.1,0-0.2,0-0.3c0-0.1,0-0.2,0-0.2v0.1
		c0-0.1,0-0.2,0-0.3s0-0.2,0-0.3c0-0.2,0-0.4,0-0.7c0-0.1,0-0.1,0-0.2c0-0.1,0-0.2,0-0.3c0-0.3-0.1-0.6-0.1-0.8c0-0.1,0-0.2,0-0.4
		s0-0.2,0-0.3c0-0.3-0.1-0.6-0.1-0.9c0-0.2,0-0.3,0-0.5v-0.1l0,0c0,0,0,0,0-0.1c0-0.2,0-0.4,0.1-0.7h1.9L141.9,202.9z"/>
	<path class="st1" d="M149.8,202.8h1.4c0.4,0,0.8,0.1,1.2,0.1c0.4,0.1,0.8,0.2,1.1,0.3c0.1,0.1,0.2,0.1,0.4,0.1
		c0.8,0.4,1.5,0.8,2.1,1.4c0.1,0.1,0.2,0.3,0.3,0.4l0.2,0.3c0,0,0,0.1,0.1,0.3c0.1,0.2,0.1,0.4,0.1,0.5c0,0.1,0,0.2,0,0.3
		c0,0.3,0,0.5,0,0.5v0.2c0,0.1,0,0.1,0,0.2c0,0.1-0.1,0.2-0.1,0.3c0,0.2-0.1,0.3-0.1,0.5l0,0v0.1v0.1v0.1l-0.1,0.2
		c0,0.1,0,0.1-0.1,0.2c0,0.1,0,0.1-0.1,0.2l-0.1,0.2v0.1c-0.1,0.2-0.2,0.4-0.4,0.6c-0.1,0.1-0.1,0.2-0.2,0.3
		c-0.1,0.2-0.3,0.5-0.6,0.6l-0.2,0.2l0,0l0,0l0,0h-0.1h-0.1l-0.2,0.1c-1,0.4-2,0.6-3,0.6H151h-0.1h-0.1c-0.4,0-0.7,0-1.1,0.1h-0.4
		c-0.2,0-0.3,0-0.5,0l-0.9,0.1c-0.3,0-0.5,0-0.8-0.1c0,0,0-0.1,0-0.1c0,0,0-0.1,0-0.1c0,0,0-0.1,0-0.1c0,0,0-0.1,0-0.1s0-0.1,0-0.1
		c0,0,0-0.1,0-0.1v-0.2c0-0.1,0-0.1,0-0.2c0-0.1,0-0.2,0-0.4s0-0.3,0-0.4v-1.3c0,0,0,0,0-0.1s0-0.1,0-0.3v-0.3c0-0.2,0-0.4,0-0.5
		s0-0.1,0-0.1s0-0.1,0-0.1c0,0,0,0,0-0.1v-0.1c0,0,0-0.1,0-0.1c0,0,0-0.1,0-0.1c0,0,0-0.1,0-0.1v-0.7c0,0,0,0,0-0.1c0,0,0-0.1,0-0.3
		s0-0.3,0-0.4s0-0.1,0-0.1s0-0.1,0-0.1c0-0.1,0-0.1,0-0.2c0-0.1,0-0.1,0-0.2c0-0.1,0-0.2,0-0.3v-0.4c0-0.1,0-0.2,0-0.3
		c0-0.2,0-0.3,0-0.4c0-0.1,0-0.2,0-0.2c0-0.1,0-0.3,0-0.4c0,0,0-0.1,0-0.1c0.3-0.1,0.6-0.2,0.9-0.2h0.2h0.1h0.3h0.2h0.2h0.2h0.8
		L149.8,202.8z M150.8,206.2v1c0,0.4,0,0.7,0,0.7c0,0.1,0,0.2,0,0.4v0.2c0,0.1,0.1,0.1,0.2,0.1h0.2h0.1l0,0c0.2,0,0.3-0.1,0.4-0.2
		l0.2-0.1l0.1-0.1l0.1-0.1c0,0,0.1-0.1,0.2-0.1c0.2-0.1,0.4-0.3,0.5-0.6c0-0.1,0.1-0.1,0.1-0.2c0,0,0-0.1,0-0.1v-0.1
		c0-0.2-0.1-0.4-0.3-0.5c-0.2-0.2-0.5-0.3-0.7-0.3c-0.2,0-0.3-0.1-0.5-0.1C151.2,206.1,151,206.1,150.8,206.2L150.8,206.2z"/>
	<path class="st1" d="M158.8,202.9h3.4l0,0l0,0c0,0,0,0.1,0,0.1c0,0,0,0.1,0,0.2s0,0.3,0,0.4v0.2l0,0v0.1c0,0,0,0,0,0.1v0.4
		c0,0.1,0,0.1,0,0.2c0,0,0,0.1,0,0.1c0,0,0,0.1,0,0.1c0,0.1,0,0.1,0,0.2c0,0.1-0.1,0.1-0.3,0.1s-0.4,0-0.9,0c-0.3,0-0.7,0-1,0h-0.1
		c-0.1,0-0.1,0-0.1,0.1c0,0.1,0,0.2,0,0.3c0,0.1,0,0.2,0,0.2c0,0.1,0,0.2,0.1,0.2c0.1,0,0.3,0,0.4,0h0.5c0.2,0,0.3,0,0.2,0h0.1h0.3
		c0.1,0,0.3,0,0.4,0.1c0,0,0,0,0,0.1v0c0,0,0,0,0,0.1l0,0v0.2c0,0,0,0.1,0,0.1c0,0.2,0,0.4,0,0.6s0,0.4,0,0.6c0,0.1,0,0.2,0,0.2
		c0,0,0,0.1,0,0.1c0,0-0.1,0.1-0.2,0.1H161c0.1,0,0.1,0,0.1,0h-0.6h-0.1c0,0.1,0,0.1,0,0.2c0,0.5,0,0.8,0.1,0.9c0.1,0,0.2,0,0.2,0h1
		h0.6c0.1,0,0.1,0,0.2,0h0.5c0-0.3,0-0.4,0-0.5s0-0.3,0-0.5s0-0.2,0-0.2s0-0.1,0-0.1v-0.1c0,0,0-0.1,0-0.1c0,0,0-0.1,0-0.2
		s0-0.1,0-0.2s0-0.2,0-0.3s0-0.1,0-0.1c0-0.1,0-0.1,0-0.2c0,0,0-0.1,0-0.1c0,0,0-0.1,0-0.1s0-0.1,0-0.1V206c0-0.2,0-0.4,0-0.5
		s0-0.4,0-0.6v-0.5c0,0,0-0.1,0-0.1c0,0,0-0.1,0-0.1s0-0.1,0-0.1s0-0.2,0-0.3s0-0.2,0-0.2c0,0,0-0.1,0-0.1l0,0c0,0,0-0.1,0-0.2
		s0-0.2,0-0.2c0-0.1,0-0.1,0-0.2h0.7c0.5,0,1,0,1.4,0.1l0.6,0.1l0.6,0.2c0.2,0.1,0.4,0.1,0.6,0.2c0.2,0.1,0.4,0.2,0.6,0.3
		c0.2,0.1,0.3,0.3,0.5,0.4c0.1,0.2,0.2,0.4,0.3,0.6c0.1,0.2,0.1,0.5,0.1,0.8c0,0,0,0.1,0,0.1c0,0.1,0,0.2-0.1,0.2c0,0,0,0,0,0.1
		c0,0.3-0.2,0.6-0.4,0.9c-0.2,0.3-0.4,0.6-0.7,0.9c0,0.1,0,0.1,0,0.2c0,0.1,0,0.2,0.1,0.3l0.2,0.3c0.1,0.2,0.2,0.4,0.3,0.5l0.5,0.7
		c0.5,0.7,0.8,1.3,1.2,1.9l0.2,0.3c0,0-0.1,0.1-0.2,0.1h-0.1c-0.2,0-0.4,0-0.6,0h-0.4h-1.4c-0.1,0-0.1,0-0.2,0h-0.1c0,0,0-0.1,0-0.1
		c0-0.1,0-0.1-0.1-0.1l-0.4-0.8c-0.2-0.4-0.3-0.7-0.5-1c-0.1-0.3-0.3-0.5-0.4-0.6v1.8c0,0.1,0,0.1,0,0.2s0,0.1,0,0.2
		c0,0,0,0.1,0,0.1c0,0,0,0.1,0,0.1c0,0,0,0.1,0,0.1v0.1l0,0h-0.9l0,0h-1.2h-0.2h-0.1c0,0-0.1,0-0.1,0h-5.6c-0.1,0-0.1-0.2-0.1-0.4
		c0-0.5,0-0.9-0.1-1.4c0,0,0-0.1,0-0.3s0-0.3,0-0.5v-0.6c0-0.1,0-0.2,0-0.3c0-0.1,0-0.2,0-0.2v0c0-0.1,0-0.2,0-0.3s0-0.2,0-0.3
		c0-0.2,0-0.4,0-0.7c0-0.1,0-0.1,0-0.2c0-0.1,0-0.2,0-0.3c0-0.3-0.1-0.6-0.1-0.8c0-0.1,0-0.2,0-0.4s0-0.2,0-0.3
		c0-0.3-0.1-0.6-0.1-0.9c0-0.2,0-0.3,0-0.5l0,0c0,0,0,0,0-0.1c0-0.2,0-0.4,0.1-0.7h1.9L158.8,202.9z M165.7,205.3
		c-0.1-0.1-0.3-0.1-0.4-0.1c0,0-0.1,0-0.1,0c0,0,0,0.1,0,0.2s0,0.1,0,0.3c0,0.1,0,0.2,0,0.4c0,0.2,0,0.4,0,0.6h0.1l0.3-0.1
		c0.3-0.1,0.5-0.3,0.5-0.6c0,0,0-0.1,0-0.1c0,0,0-0.1,0-0.1C166,205.6,165.9,205.4,165.7,205.3L165.7,205.3z"/>
	<path class="st1" d="M172.3,203.1c0.2,0,0.4,0,0.6,0c0.1,0,0.3,0,0.4,0h0.1h0.1c0,0,0.1,0,0.1,0.1l0.1,0.1l0.2,0.3
		c0.1,0.2,0.2,0.3,0.2,0.4c0,0.1,0.1,0.2,0.1,0.3c0,0,0.1,0.1,0.1,0.2c0.1,0.2,0.2,0.5,0.4,0.7c0,0.1,0.1,0.1,0.1,0.2l0.1,0.1
		l0.1,0.1l0.2,0.3c0.1,0.2,0.1,0.3,0.2,0.5c0.4,0.6,0.8,1.4,1.4,2.6c0.6,1.1,0.9,1.8,1,2c0,0.1,0.1,0.2,0.1,0.3
		c0,0.2,0.1,0.3,0.2,0.4c0.1,0.2,0.2,0.4,0.2,0.6l0,0l0,0h-0.3h-0.3h-0.3h-0.3h-0.4H175h-0.2h-0.2c0,0-0.1,0-0.1,0
		c-0.1-0.2-0.2-0.4-0.2-0.6c0-0.3-0.1-0.5-0.2-0.7l-0.1-0.2h-0.2h-0.3H173h-1.4l0,0v0.1v0.1c-0.1,0.4-0.3,0.7-0.5,1.1
		c-0.1,0.1-0.1,0.2-0.2,0.2h-0.2c-0.1,0-0.1,0-0.2,0h-0.6c-0.1,0-0.3,0-0.4,0c-0.2,0-0.4,0-0.6,0h-0.2h-0.1h-0.3
		c-0.1,0-0.2,0-0.2-0.1l0,0v-0.1l0.1-0.3l0.1-0.2c0-0.1,0.1-0.2,0.1-0.4V211l0.1-0.2l0.1-0.2l0.2-0.5c0-0.1,0.1-0.2,0.1-0.3
		c0,0,0.1-0.1,0.1-0.1l0,0l0,0v0c0.1-0.1,0.1-0.3,0.2-0.5c0-0.1,0.1-0.2,0.1-0.3c0.1-0.1,0.1-0.3,0.1-0.4c0-0.1,0.1-0.3,0.1-0.3
		c0-0.1,0.1-0.1,0.1-0.2c0,0,0-0.1,0-0.1c0,0,0-0.1,0-0.1v-0.1l0.1-0.3l0.1-0.4c0-0.1,0-0.1,0.1-0.2l0.1-0.2
		c0.1-0.2,0.2-0.5,0.2-0.7v-0.1v-0.1v-0.1c0-0.1,0.1-0.3,0.2-0.5l0.1-0.3c0-0.1,0.1-0.1,0.1-0.2v-0.1c0,0,0-0.1,0-0.1l0.1-0.4
		c0.1-0.3,0.2-0.5,0.3-0.8c0-0.1,0.1-0.2,0.3-0.2h1L172.3,203.1z M172.8,206.9c0-0.1-0.1-0.2-0.1-0.2l0,0c0,0,0,0,0,0.1l-0.1,0.3
		c0,0.1-0.1,0.3-0.1,0.4c-0.1,0.4-0.2,0.6-0.2,0.7v0.2v0.1v0.1l0,0v0.1c0.3,0.1,0.7,0.1,1,0.1h0.3c0.1,0,0.2,0,0.2,0l0,0
		c0-0.2-0.1-0.3-0.2-0.4c-0.1-0.1-0.1-0.3-0.2-0.5l-0.1-0.1l-0.1-0.2l-0.1-0.1l-0.1-0.2V207L172.8,206.9z"/>
	<path class="st1" d="M179.9,203h0.6c0.8,0,1.3,0,1.6,0c0.2,0,0.3,0.1,0.3,0.2l0,0c0,0,0,0.1,0,0.1s0,0.1,0,0.2s0,0.2,0,0.5
		s0,0.7,0,1c0,1.4,0,2.2,0,2.3v0.1c0,0,0,0.1,0,0.2s0,0.2,0,0.3v0.5c0,0.1,0,0.3,0,0.4s0,0.2,0,0.3c0,0.1,0,0.2,0,0.2
		c0,0,0,0.1,0,0.1h1.2c0.1,0,0.2,0,0.2,0.1c0,0.1,0,0.3,0,0.4c0,0.8,0,1.3,0,1.5c0,0.2-0.1,0.5-0.1,0.7c0,0.1-0.1,0.1-0.3,0.1
		c-0.1,0-0.1,0-0.2,0c-0.1,0-0.3,0-0.4,0c-0.4,0-0.7,0-0.9,0c-1,0-1.5,0-1.6,0c-0.2,0-0.5,0-0.7,0c-0.3,0-0.6,0-0.9-0.1
		c-0.1,0-0.1-0.1-0.1-0.3s0-0.2,0-0.4c0-1,0-1.7,0.1-2.2c0-0.6,0-1.3,0-2c0-0.1,0-0.2,0-0.3v-0.3v-0.4c0-0.1,0-0.2,0-0.3
		c0-0.2,0-0.6,0-1.4c0-0.2,0-0.5-0.1-0.8c0-0.1,0-0.2,0-0.3c0-0.2,0-0.3,0.1-0.4s0.2-0.1,0.4-0.1l0.4-0.1h0.2L179.9,203z"/>
	<path class="st1" d="M189.3,203.1h0.1h0.1h0.8c0.4,0,0.8,0.1,1.2,0.2c0.5,0.2,0.9,0.4,1.4,0.6l0.1,0.1l0.1,0.1
		c0.1,0.1,0.3,0.2,0.4,0.3l0.3,0.3l0.3,0.3l0.3,0.3c0.1,0.1,0.3,0.3,0.4,0.5l0.1,0.1l0.1,0.1c0.1,0.1,0.1,0.1,0.2,0.2
		c0,0.1,0.1,0.2,0.1,0.3c0.1,0.1,0.1,0.3,0.1,0.4c0,0.1,0,0.1,0,0.2c0,0.1,0,0.1,0,0.2c0,0.2,0,0.4,0,0.5c0,0.4-0.1,0.8-0.2,1.2
		c0,0.1-0.1,0.4-0.3,0.7c-0.1,0.2-0.2,0.4-0.3,0.6c0,0.1-0.1,0.1-0.1,0.2c-0.2,0.4-0.5,0.7-0.9,1l-0.2,0.1l-0.2,0.1
		c-0.1,0.1-0.1,0.1-0.2,0.1c-0.1,0-0.1,0-0.1,0.1c-0.1,0.1-0.2,0.1-0.3,0.1c-0.1,0.1-0.3,0.1-0.4,0.1H192h-0.1c-0.1,0-0.2,0-0.4,0
		h-0.2h-0.2c-0.3,0.1-0.7,0.1-1,0.1c-0.2,0-0.5,0-0.7-0.1c-0.1-0.1-0.1-0.3-0.1-0.5c0-0.1,0-0.2,0-0.3v-0.1c0-0.1,0-0.1,0-0.3
		c0-0.1,0-0.2,0-0.3l-0.2-5.7c0-0.3,0-0.6,0-0.7v-0.2v-0.4c0-0.2,0-0.3,0-0.3c0-0.1,0-0.1,0-0.2C189.2,203,189.2,203,189.3,203.1z
		 M191.8,206c0,0,0,0.1,0,0.2s0,0.3,0,0.7l0.1,0.6c0,0.2,0,0.5,0,1c0,0.2,0,0.4,0,0.6l0,0c0.1-0.1,0.2-0.1,0.3-0.2
		c0.2-0.2,0.4-0.4,0.5-0.7v-0.1V208c0.1-0.3,0.1-0.6,0.1-0.9c0-0.3-0.1-0.5-0.3-0.7C192.2,206.1,192,205.9,191.8,206
		C191.8,205.9,191.8,205.9,191.8,206L191.8,206z"/>
	<path class="st1" d="M200,202.9h0.3c0.1,0,0.3,0,0.4,0h0.4c0.3,0,0.5,0,0.8,0.1c0.3,0.1,0.5,0.2,0.7,0.3l0.3,0.2l0.6,0.4
		c0.2,0.1,0.4,0.3,0.6,0.5c0.2,0.2,0.4,0.4,0.5,0.6l0.1,0.1c0.1,0.2,0.2,0.4,0.3,0.6c0,0.1,0.1,0.2,0.1,0.3c0.1,0.2,0.2,0.5,0.2,0.8
		c0,0.1,0,0.2,0,0.5c0,0.4,0,0.7,0,0.8c-0.1,0.3-0.1,0.5-0.2,0.8c-0.1,0.3-0.1,0.4-0.2,0.5c0,0.1-0.1,0.1-0.1,0.2s0,0.1-0.1,0.2
		c0,0.2-0.1,0.3-0.2,0.4c-0.1,0.1-0.3,0.4-0.6,0.8c-0.3,0.3-0.7,0.6-1.1,0.8c-0.5,0.2-1,0.3-1.5,0.4c-0.3,0-0.6,0.1-0.9,0.1h-0.2
		c-0.3,0-0.6-0.1-0.9-0.1c-0.2,0-0.5-0.1-0.7-0.2c-0.2-0.1-0.4-0.2-0.6-0.3c0,0-0.1-0.1-0.1-0.1c-0.3-0.3-0.6-0.6-0.9-0.9l-0.3-0.4
		l-0.2-0.3c-0.3-0.6-0.5-1.2-0.7-1.8c0-0.2-0.1-0.3-0.1-0.5c0-0.1,0-0.3,0-0.4c0-0.1,0-0.2,0.1-0.3c0-0.2,0.1-0.4,0.2-0.7V206v-0.1
		v-0.1c0-0.2,0.1-0.3,0.2-0.4c0.1-0.2,0.2-0.3,0.4-0.5c0.1-0.1,0.1-0.1,0.2-0.2l0.3-0.3l0.2-0.3c0.3-0.3,0.6-0.5,0.9-0.7l0.4-0.2
		C199,203.1,199.5,203,200,202.9z M200.6,206h-0.4h-0.1c0,0-0.1,0-0.1,0c-0.1,0-0.3,0.1-0.4,0.2c-0.2,0.1-0.3,0.3-0.4,0.5
		c-0.1,0.2-0.2,0.4-0.2,0.7v0.2l0,0c0,0.2,0,0.4,0.1,0.7c0,0.3,0.2,0.6,0.4,0.8c0.1,0.1,0.3,0.2,0.4,0.2c0.1,0,0.2,0,0.4,0
		c0.2,0,0.4,0,0.6-0.1l0.2-0.1c0.1-0.1,0.2-0.2,0.3-0.3c0.1-0.1,0.1-0.1,0.2-0.2c0-0.1,0-0.1,0.1-0.2c0.1-0.2,0.2-0.4,0.2-0.6
		c0-0.1,0-0.2,0-0.3c0,0,0-0.1,0-0.1c0,0,0-0.1,0-0.2s0-0.2-0.1-0.3c-0.1-0.3-0.1-0.4-0.2-0.4l-0.2-0.1c-0.1-0.1-0.2-0.1-0.3-0.2
		H201h-0.1l0,0l0,0L200.6,206z"/>
	<path class="st1" d="M217.7,202.9h3.2l0,0l0,0c0,0,0,0.1,0,0.1c0,0,0,0.1,0,0.2s0,0.3,0,0.4v0.2l0,0c0,0,0,0.1,0,0.4
		c0,0.2,0,0.3,0,0.3v0.4c0,0.1,0,0.1,0,0.2c0,0,0,0.1,0,0.1c0,0,0,0.1,0,0.1c0,0.1,0,0.1,0,0.2c0,0.1-0.1,0.1-0.3,0.1
		c-0.2,0-0.5,0-0.7,0c-0.3,0-0.7,0-1,0h-0.1c-0.1,0-0.1,0-0.1,0.1c0,0.1,0,0.2,0,0.3c0,0.1,0,0.2,0,0.2c0,0.1,0,0.2,0.1,0.2
		c0.1,0,0.3,0,0.4,0h0.5c0.4,0,0.7-0.1,0.9-0.1h0.1h0.3c0.1,0,0.3,0,0.4,0.1c0,0,0,0,0,0.1v0c0,0,0,0,0,0.1l0,0v0.2c0,0,0,0.1,0,0.1
		c0,0.2,0,0.3,0,0.5s0,0.4,0,0.5v0.3c0,0.1,0,0.2,0,0.2c0,0,0,0.1,0,0.1c0,0.1-0.1,0.1-0.2,0.1h-0.6h-0.7h-0.2h-0.3h-0.1
		c0,0,0,0-0.1,0c0,0.1,0,0.1,0,0.2c0,0.3,0,0.4,0.1,0.5c0.1,0,0.2,0,0.2,0h1h0.6c0.1,0,0.1,0,0.2,0h0.4h0.3c0.1,0,0.1,0.3,0.1,0.7
		c0,0,0,0.2,0,0.4s0,0.4,0,0.5c0,0.3,0,0.6,0,0.9l0,0h-5.7c-0.1-0.1-0.1-0.2-0.1-0.4c0-0.5,0-0.9-0.1-1.4c0,0,0-0.1,0-0.3
		s0-0.3,0-0.5s0-0.4,0-0.6s0-0.2,0-0.3s0-0.2,0-0.2v0.1c0-0.1,0-0.2,0-0.3s0-0.2,0-0.3c0-0.2,0-0.4,0-0.7c0-0.1,0-0.1,0-0.2
		c0-0.1,0-0.2,0-0.3c0-0.3-0.1-0.6-0.1-0.8v-0.1c-0.4,0-0.8,0-1.2,0.1c-0.3,0-0.6,0.1-0.9,0.3c-0.1,0.1-0.2,0.2-0.3,0.3
		c-0.1,0.1-0.2,0.2-0.3,0.4c-0.1,0.1-0.1,0.2-0.2,0.3c-0.1,0.3-0.1,0.6-0.1,0.9c0,0.3,0,0.6,0.2,0.8c0.1,0.2,0.2,0.4,0.4,0.5h0.1
		h0.1h0.1h0.1c0.3,0,0.5,0,0.8,0h0.9c0,0,0,0,0,0.1c0,0,0,0.1,0,0.1c0,0,0,0.1,0,0.1v2.2c0,0,0,0.1,0,0.2s0,0.2,0,0.2s0,0.2-0.1,0.3
		l-0.7,0l-0.7-0.1l-0.6-0.1c-0.2,0-0.4-0.1-0.6-0.1l-0.5-0.2c-0.2-0.1-0.3-0.2-0.5-0.3c-0.1-0.1-0.2-0.2-0.3-0.3
		c-0.1-0.1-0.2-0.2-0.2-0.3c0,0,0-0.1-0.1-0.1c0,0-0.1-0.1-0.1-0.1l-0.2-0.3l-0.2-0.3l-0.1-0.2c-0.1-0.3-0.2-0.7-0.3-1.1
		c0-0.3-0.1-0.6-0.1-0.9V208v-0.2c0-0.1,0-0.3,0-0.3c0-0.4,0-0.8,0.1-1.2c0-0.1,0-0.2,0.1-0.4c0,0,0-0.2,0.1-0.4l0.1-0.4
		c0,0,0.1-0.2,0.1-0.4l0.1-0.2c0.2-0.3,0.4-0.5,0.6-0.8c0.2-0.2,0.5-0.4,0.8-0.5l0.2-0.1c0.1,0,0.1-0.1,0.2-0.1h0.2
		c0.4-0.1,0.7-0.2,1.1-0.2c0.5-0.1,1.1-0.1,1.6-0.1h0.4l0,0h0.2h0.2h1.2L217.7,202.9z"/>
	<path class="st1" d="M226.8,203.1c0.2,0,0.4,0,0.6,0c0.1,0,0.3,0,0.4,0h0.1h0.1c0,0,0.1,0,0.1,0.1l0.1,0.1l0.2,0.3
		c0.1,0.2,0.2,0.3,0.2,0.4c0,0.1,0.1,0.2,0.1,0.3c0,0,0.1,0.1,0.1,0.2c0.1,0.2,0.2,0.5,0.4,0.7c0,0.1,0.1,0.1,0.1,0.2l0.1,0.1
		l0.1,0.1l0.2,0.3c0.1,0.2,0.1,0.3,0.2,0.5c0.4,0.6,0.8,1.4,1.4,2.6c0.6,1.1,0.9,1.8,1,2c0,0.1,0.1,0.2,0.1,0.3
		c0,0.2,0.1,0.3,0.2,0.4c0.1,0.2,0.2,0.4,0.2,0.6l0,0l0,0h-0.3h-0.3h-0.3h-0.3h-0.4h-1.6h-0.2h-0.2c0,0-0.1,0-0.1,0
		c-0.1-0.2-0.2-0.4-0.2-0.6c0-0.3-0.1-0.5-0.2-0.7l-0.1-0.2h-0.2H228h-0.4h-1.4l0,0v0.1v0.1c-0.1,0.4-0.3,0.7-0.5,1.1
		c-0.1,0.1-0.1,0.2-0.2,0.2h-0.2c-0.1,0-0.1,0-0.2,0h-0.6c-0.1,0-0.3,0-0.4,0c-0.2,0-0.4,0-0.6,0h-0.2h-0.1h-0.3
		c-0.1,0-0.2,0-0.2-0.1l0,0v-0.1l0.1-0.3l0.1-0.2c0-0.1,0.1-0.2,0.1-0.4V211l0.1-0.2l0.1-0.2l0.2-0.5c0-0.1,0.1-0.2,0.1-0.3
		c0,0,0.1-0.1,0.1-0.1l0,0l0,0v0c0.1-0.1,0.1-0.3,0.2-0.5c0-0.1,0.1-0.2,0.1-0.3c0.1-0.1,0.1-0.3,0.1-0.4c0-0.1,0.1-0.3,0.1-0.3
		c0-0.1,0.1-0.1,0.1-0.2c0,0,0-0.1,0-0.1c0,0,0-0.1,0-0.1v-0.1l0.1-0.3l0.1-0.4c0-0.1,0-0.1,0.1-0.2l0.1-0.2
		c0.1-0.2,0.2-0.5,0.2-0.7v-0.1v-0.1v-0.1c0-0.1,0.1-0.3,0.2-0.5l0.1-0.3c0-0.1,0.1-0.1,0.1-0.2v-0.1c0,0,0-0.1,0-0.1l0.1-0.4
		c0.1-0.3,0.2-0.5,0.3-0.8c0-0.1,0.1-0.2,0.3-0.2h1L226.8,203.1z M227.3,206.9c0-0.1-0.1-0.2-0.1-0.2l0,0c0,0,0,0,0,0.1l-0.1,0.3
		c0,0.1-0.1,0.3-0.1,0.4c-0.1,0.4-0.2,0.6-0.2,0.7v0.2v0.1v0.1l0,0v0.1c0.3,0.1,0.7,0.1,1,0.1h0.3c0.1,0,0.2,0,0.2,0l0,0
		c0-0.2-0.1-0.3-0.2-0.4c-0.1-0.1-0.1-0.3-0.2-0.5l-0.1-0.1l-0.1-0.2l-0.1-0.1l-0.1-0.2V207L227.3,206.9z"/>
	<path class="st1" d="M232.1,202.7h0.1h0.4h0.1h0.4h0.5c0.2,0,0.4,0.1,0.7,0.1c0.3,0,0.6,0,0.9,0.1l0.4,0.1c0.3,0.1,0.7,0.2,1,0.3
		c0.2,0.1,0.3,0.2,0.4,0.3c0.2,0.3,0.4,0.6,0.5,0.9c0,0.2,0.1,0.4,0.1,0.6c0,0.4-0.1,0.8-0.2,1.2c-0.1,0.1-0.2,0.2-0.3,0.3l-0.2,0.2
		c0,0.1-0.1,0.1-0.1,0.2c0,0.1-0.1,0.1-0.1,0.2c-0.1,0.1-0.2,0.2-0.2,0.2s0.1,0.2,0.4,0.4c0.1,0.1,0.2,0.2,0.4,0.3l0.2,0.2l0.2,0.2
		l0.1,0.1l0.1,0.1c0.2,0.2,0.3,0.4,0.5,0.5l0.4,0.3c0.1,0.1,0.1,0.1,0.2,0.1c0.4,0.3,0.7,0.6,1,0.9c0.5,0.5,0.8,0.8,0.9,0.9
		c0.1,0.1,0.2,0.2,0.2,0.2v0.1c0,0.1,0,0.1-0.1,0.2h-3.5l-0.3-0.4l-0.4-0.5l-0.4-0.4c-0.1-0.2-0.3-0.4-0.4-0.5l-0.4-0.4l-0.3-0.2
		l-0.1-0.1l-0.1-0.1v-0.1l0,0c0,0,0,0.1,0,0.1c0,0,0,0.1,0,0.1c0,0,0,0.1,0,0.1c0,0,0,0.3,0.1,0.7c0.1,0.4,0.1,0.7,0.1,1.1v0.1
		c0,0.3,0,0.5,0,0.6s0,0.1-0.1,0.1H233h-0.1h-0.1h-0.1v-0.1V212v-0.1c0-0.1,0-0.2,0-0.3c0-0.4,0-0.9-0.1-1.5c-0.1-0.9,0-0.1,0-0.3
		v-0.4c0-0.5,0-0.7,0-0.8c0-0.2,0-0.3,0-0.5c0-0.2,0-0.3,0-0.5c0-0.3,0-0.2,0-0.6c0-0.1,0-0.2,0-0.3v-0.3c0-0.4,0-0.6,0-0.6v-0.3
		c0,0,0-0.2-0.1-0.6v-0.4v-0.3c0-0.1,0-0.2,0-0.3c0,0,0-0.1,0-0.1v-0.1v-0.1c0,0,0-0.1,0-0.1c0-0.1,0-0.1,0-0.1c0-0.1,0-0.2,0-0.3
		c0-0.1,0-0.3,0.1-0.4c0,0,0.1-0.1,0.1-0.1L232.1,202.7z M234.9,205.1c-0.1,0-0.2-0.1-0.3-0.1h-0.1c0,0,0,0-0.1,0c0,0.1,0,0.2,0,0.4
		c0,0.2,0,0.3,0,0.5c0,0.3,0,0.4,0.1,0.4h0.3c0.1,0,0.2,0,0.2-0.1c0.1,0,0.2-0.1,0.2-0.1c0.1-0.1,0.1-0.2,0.2-0.3
		c0-0.1,0.1-0.2,0.1-0.3l0,0c0-0.1-0.1-0.1-0.1-0.2c0-0.1-0.1-0.1-0.2-0.1L234.9,205.1z"/>
	<path class="st1" d="M241.2,203.1c0.2,0,0.4,0,0.6,0c0.1,0,0.3,0,0.4,0h0.1h0.1c0,0,0.1,0,0.1,0.1l0,0.1l0.2,0.3
		c0.1,0.2,0.2,0.3,0.2,0.4c0,0.1,0.1,0.2,0.1,0.3c0,0,0.1,0.1,0.1,0.2c0.1,0.2,0.2,0.5,0.4,0.7c0,0.1,0.1,0.1,0.1,0.2l0.1,0.1
		l0.1,0.1l0.2,0.3c0.1,0.2,0.1,0.3,0.2,0.5c0.4,0.6,0.8,1.4,1.4,2.6c0.6,1.1,0.9,1.8,1,2c0,0.1,0.1,0.2,0.1,0.3
		c0,0.2,0.1,0.3,0.2,0.4c0.1,0.2,0.2,0.4,0.2,0.6l0,0l0,0h-0.3h-0.3h-0.3h-0.3h-0.4h-1.6h-0.2h-0.2c0,0-0.1,0-0.1,0
		c-0.1-0.2-0.2-0.4-0.2-0.6c0-0.3-0.1-0.5-0.2-0.7l-0.1-0.2h-0.2h-0.3h-0.4h-0.3h-0.4h-0.7l0,0v0.1v0.1c-0.1,0.4-0.3,0.7-0.5,1.1
		c-0.1,0.1-0.1,0.2-0.2,0.2h-0.2c-0.1,0-0.1,0-0.2,0h-0.6c-0.1,0-0.3,0-0.4,0c-0.2,0-0.4,0-0.6,0h-0.2h-0.1h-0.2h-0.1h-0.1l0,0
		c0-0.2,0-0.5,0.1-0.7c0-0.1,0.1-0.2,0.1-0.4V211l0.1-0.2l0.1-0.2l0.2-0.5c0-0.1,0.1-0.2,0.1-0.3c0,0,0.1-0.1,0.1-0.1l0,0l0,0v0
		c0.1-0.1,0.1-0.3,0.2-0.5c0-0.1,0.1-0.2,0.1-0.3c0.1-0.1,0.1-0.3,0.1-0.4c0-0.1,0.1-0.3,0.1-0.3c0-0.1,0.1-0.1,0.1-0.2
		c0,0,0-0.1,0-0.1c0,0,0-0.1,0-0.1v-0.1l0.1-0.3l0.1-0.4c0-0.1,0-0.1,0.1-0.2l0.1-0.2c0.1-0.2,0.2-0.5,0.2-0.7v-0.1v-0.1v-0.1
		c0-0.1,0.1-0.3,0.2-0.5l0.1-0.3c0-0.1,0.1-0.1,0.1-0.2v-0.1c0,0,0-0.1,0-0.1l0.1-0.4c0.1-0.3,0.2-0.5,0.3-0.8
		c0-0.1,0.1-0.2,0.3-0.2h1L241.2,203.1z M241.4,201.1h2c0.1,0,0.1,0,0.1,0l-0.1,0.3c-0.1,0.2-0.3,0.5-0.5,0.7
		c-0.2,0.3-0.4,0.5-0.4,0.6c0,0.1-0.1,0.1-0.1,0.2c0,0-0.1,0-0.1,0h-1.6c-0.1,0-0.2,0-0.2,0l0,0c0-0.1,0.1-0.2,0.1-0.3
		c0.1-0.1,0.1-0.2,0.2-0.3c0.1-0.2,0.3-0.4,0.4-0.6c0-0.1,0-0.1,0.1-0.2C241.3,201.2,241.3,201.1,241.4,201.1L241.4,201.1
		L241.4,201.1z M241.6,207.1c0-0.1-0.1-0.2-0.1-0.2l0,0c0,0-0.1,0.2-0.2,0.5s-0.2,0.6-0.2,0.7v0.2v0.1v0.1l0,0v0.1
		c0.3,0.1,0.7,0.1,1,0.1h0.3c0.1,0,0.2,0,0.2,0l0,0c0-0.1-0.1-0.3-0.1-0.4c-0.1-0.1-0.1-0.3-0.2-0.4c-0.1-0.1-0.1-0.2-0.2-0.3
		l-0.1-0.2l-0.1-0.1L241.6,207.1z"/>
</g>
</svg>
