<?xml version="1.0" encoding="utf-8"?>
<!-- Generator: Adobe Illustrator 21.0.0, SVG Export Plug-In . SVG Version: 6.00 Build 0)  -->
<svg version="1.1" id="Layer_1" xmlns="http://www.w3.org/2000/svg" xmlns:xlink="http://www.w3.org/1999/xlink" x="0px" y="0px"
	 viewBox="0 0 229.1 164.4" style="enable-background:new 0 0 229.1 164.4;" xml:space="preserve">
<style type="text/css">
	.st0{fill:#FFFFFF;}
</style>
<title>lOGO_PADRÃO_UFC MASSA</title>
<g id="logo">
	<path class="st0" d="M119.3,0c2.3,0.1,3.6,0.2,4.1,0.3s0.6,0.2,0.6,0.5c0.1,0.3,0.1,0.5,0.3,0.6l0.3,0.9l0.3,1
		c0.2,0.4,0.3,0.6,0.4,1c0.3,1.4,0.6,2.7,1.1,4.1s0.7,2.4,0.9,3l0.6,2.5c0.4,1.6,0.5,2.6,0.6,3.1l0.2,1.3c0,0.1,0.1,0.4,0.2,0.8
		c0,0.3,0.1,0.5,0.2,0.7c0,0.1,0.1,0.4,0.2,0.7c0.1,0.4,0.2,0.6,0.2,0.7s0.1,0.5,0.3,1.1s0.4,1.3,0.5,1.8l0.4,1.6
		c0.1,0.3,0.2,0.6,0.3,0.9c0.1,0.5,0.2,0.7,0.2,0.9l0.6,2.3c0.1,0.6,0.3,1.3,0.5,1.9c0.1,0.3,0.2,0.7,0.4,1.4
		c0.2,0.9,0.5,1.9,0.8,2.8c0.2,0.5,0.4,1.2,0.6,1.6c0,0,0.1,0.1,0.1,0.4c0,0.2,0,0.5-0.1,0.6c-0.1,0.2-0.5,0.3-0.9,0.3h-2.3
		c-0.2,0-0.4,0.1-0.6,0.1h-0.6H129h-0.2c-0.1,0-0.3,0.1-0.4,0.1h-0.5h-0.6h-1.7c-0.6,0.1-1.4,0.2-2,0.2c-0.5,0-0.9,0-1.3-0.2h-0.7
		c-0.1-0.2-0.2-0.6-0.5-1.4c-0.2-0.7-0.5-1.4-0.5-1.8c-0.3-1.1-0.5-1.7-0.5-2c-2.2,0.3-4.4,0.5-6.7,0.5h-0.5h-0.4
		c-0.4-0.1-0.7-0.1-1.2-0.1c-0.2,0-0.7,0-1.7,0.1H109h-0.6c0,0.2-0.1,0.4-0.2,0.5c0,0.1-0.1,0.2-0.2,0.4l-0.2,0.5l-0.1,0.3l-0.1,0.2
		c0,0.1,0,0.1-0.1,0.2l-0.1,0.1c-0.2,0.3-0.4,0.6-0.5,1c-0.4,1-0.7,1.5-1,1.7c-0.5,0.1-0.9,0.2-1.4,0.1c-0.9-0.1-1.7-0.1-2.6-0.1
		h-0.7c-0.7,0-1.5,0-2.5-0.1c-0.9-0.1-1.7-0.2-2.6-0.3l-1.2-0.2c-0.7-0.1-1.1-0.3-1.2-0.6c-0.1-0.2-0.1-0.3-0.1-0.5
		c0.1-0.6,0.4-1.3,0.7-1.8c1.3-2.6,2.2-4.8,2.8-6.5c1.8-3.1,3.5-6.3,4.9-9.6c0.1-0.2,0.1-0.3,0.2-0.4l0.2-0.2l1.7-2.7
		c0.6-1.2,1.1-2.1,1.4-2.7l0.9-1.8l0.5-1c0.2-0.3,0.3-0.6,0.5-0.9c0-0.1,0.1-0.2,0.2-0.3c0.1-0.2,0.2-0.4,0.4-0.5l0.4-0.6
		c0.8-1.7,1.7-3.5,2.7-5.1l1.4-2.3c0.1-0.1,0.1-0.2,0.2-0.3l0.2-0.3c0,0,0.1-0.1,0.1-0.2l0.3-0.2h2.6C118-0.1,119.2,0,119.3,0z
		 M111.9,25.5l1.2,0.1h4.6c-0.1-0.5-0.2-0.9-0.3-1.1l-0.1-0.3c-0.1-0.2-0.2-0.3-0.2-0.5c-0.1-0.2-0.1-0.3-0.2-0.5l-0.6-2l-0.5-1.8
		c-0.1-0.3-0.2-0.6-0.2-0.9c0-0.2-0.2-0.3-0.4-0.4c-0.3,0.5-0.5,1-0.6,1.6l-0.8,1.7c-0.1,0.2-0.3,0.5-0.4,0.6c0,0.2-0.1,0.3-0.2,0.5
		l-0.1,0.3c-0.2,0.3-0.4,0.5-0.5,0.9l-0.4,0.8c-0.2,0.1-0.3,0.3-0.3,0.4c0,0.1,0,0.2-0.1,0.3L111.9,25.5z"/>
	<path class="st0" d="M59.4,48.2c0.4-0.2,0.7-0.2,1.1-0.2c0.5,0,1,0,1.5,0.2c0.5,0.1,1,0.1,1.5,0.1c0.5,0,1,0,1.7,0h1.4h2.6H72
		c0.6,0,1.2,0,1.7,0.1h0.2c0.3,0,0.5-0.1,0.8-0.2c0.2-0.1,0.4-0.2,0.5-0.2c0.2,0,0.4,0.2,0.5,0.5c0.2,1.2,0.3,2.4,0.2,3.6
		c-0.2,2.3-0.2,4.6-0.2,6.8v2.4c0,0.8,0,1.5,0,2.1c0,0.5,0,0.9,0,0.9c-0.1,0.4-0.1,1.7-0.1,4.2c0,3.8,0,5.9,0.1,6.3
		c0.2,2,0.5,3.9,1,5.9c0.3,1.1,0.8,2.2,1.5,3.1c0.3,0.2,0.5,0.2,0.8,0.2c0.9,0,1.7-0.5,2.4-1.1c0.5-0.6,0.9-1.3,1.2-2.1
		c0.3-1.7,0.4-3.5,0.3-5.3c0.1-1.6,0-3.3-0.3-4.9c-0.1-0.1-0.1-0.2-0.1-0.3c0-0.2,0-0.3,0-0.5s0-0.4,0-0.5v-0.3
		c-0.1-0.2-0.1-0.4-0.1-0.5s0-0.5,0-0.9c0-0.5,0-0.7,0-0.9v-0.5c-0.1-0.3-0.1-0.6-0.1-0.9s0-0.6,0-1.2c0-0.5,0-1,0-1.3v-0.6
		c-0.1-0.3-0.1-0.6-0.1-0.9c0-0.3,0-0.6,0-1.2c0-0.5,0-0.8,0-1v-0.3c-0.1-0.5-0.1-1.4-0.1-2.5c0-0.7,0-1.7,0.1-3s0.1-2.2,0.1-2.6
		c0-0.5,0-1-0.1-1.5v-1l-0.1-0.3c0-0.1,0-0.2,0.1-0.2c0.3-0.2,0.6-0.4,1-0.4c0.5,0,1,0.1,1.5,0.2c1.3,0.2,2.5,0.3,3.7,0.2
		c0.6,0,1.3,0,2,0h1.3c0.9,0,1.8,0.1,2.7,0.2c1.4,0.1,2,0.2,2.1,0.4c0.2,0.2,0.3,2,0.4,5.7v6.6c0,1.7,0,3.3-0.1,4.6
		c-0.2,1.5-0.2,3-0.2,4.5c0,1.2,0,2.2-0.1,3.1c-0.1,1.6-0.2,3.7-0.2,6.5c0,1.9-0.1,4.1-0.2,6.7c-0.1,0.5-0.1,1.3-0.2,2.5
		c-0.1,1.2-0.1,2.1-0.1,2.5c0,1.3-0.3,2.5-0.6,3.6c-0.1,0.5-0.3,1.1-0.5,1.5c-0.1,0.4-0.3,0.7-0.5,1c-0.1,0.2-0.2,0.5-0.4,0.6
		c-0.1,0.2-0.2,0.4-0.3,0.5c-0.5,0.6-1,1.2-1.5,1.7c-1.6,1.5-3.6,2.6-5.9,2.9c-0.5,0-0.8,0.2-1.2,0.4c-1.5,0.3-3.1,0.5-4.6,0.5
		c-0.8,0.1-1.7,0.2-2.6,0.2c-0.9,0-1.8-0.1-2.7-0.3c-0.4-0.2-0.8-0.3-1.2-0.3c-0.2-0.1-0.5-0.3-1.3-0.5c-0.7-0.5-1.5-0.8-2.2-1.2
		c-0.6-0.3-1.2-0.6-1.7-1.1l-1.2-0.5c-1-0.6-1.9-1.5-2.6-2.5c-0.1-0.2-0.3-0.4-0.4-0.5c-0.2-0.3-0.4-0.5-0.5-0.6
		c-1.4-1.7-2.3-3.7-2.5-5.9c-0.1-0.4-0.3-1.1-0.5-2.1c-0.5-3-0.8-6-0.9-9.1c-0.2-2.5-0.4-4.5-0.5-6.1c-0.4-2.7-0.5-5.5-0.5-8.2
		c0-2.2-0.1-4.4-0.5-6.6c-0.2-0.9-0.2-1.9-0.2-2.8c0-0.4,0-1,0-2.1c0-1.1,0-2,0-2.7c0-1.4,0.1-2,0.2-2
		C59.2,48.5,59.4,48.4,59.4,48.2L59.4,48.2z"/>
	<path class="st0" d="M118,102.8c-0.6,0.1-1.3,0.2-2,0.2c-1.3,0-2.6-0.1-3.9-0.2c-0.8-0.1-1.6-0.2-2.4-0.2c-0.5,0-1,0-1.5,0.2
		c-0.5,0.2-1.2,0.2-1.7,0.2c-0.5,0-1.5-0.1-3-0.2c-0.8,0.1-1.6-0.1-2.4-0.4c-0.5-0.4-0.8-0.8-0.8-1.5c-0.1-0.7-0.1-1.5-0.1-2.1
		c0-1.4,0-2.5,0.1-3.3c0.1-1,0.2-3.6,0.2-7.6c0-6.4-0.1-10.6-0.4-12.7c-0.2-1.4-0.3-2.7-0.3-4c-0.1-2.6-0.2-4.9-0.4-6.7
		c-0.2-2.5-0.4-6-0.5-10.8c0-0.5-0.1-1.6-0.2-3.3c-0.1-1.6-0.2-2.6-0.2-3.1c0-0.3,0-0.5,0.1-0.7c0.2-0.5,0.7-0.6,1.8-0.6h4.6
		c0.3,0,0.6,0,1.1,0h0.9c0.2,0,0.5,0,0.6-0.1h1.6h0.4h0.5h0.5h0.4h20.6c0.3,0.6,0.4,1.4,0.3,2.1v8.5c0.1,1.8,0,3.7-0.2,5.6
		c-0.1,0.5-0.2,1-0.2,1.5h-0.2c-0.1,0-0.2-0.1-0.3-0.1c-0.1,0-0.2,0-0.3,0.1h-3.1c-0.5,0-1,0-1.7,0h-1.5c-0.5,0-0.8,0-1.3,0.1
		c-0.3,0.1-0.6,0.1-0.9,0.1s-0.5,0-0.8-0.1c-0.2-0.1-0.5-0.1-0.6-0.1h-1c-0.5,0-1,0-1.4,0h-1.2c-0.2-0.1-0.4-0.1-0.5-0.1
		c-0.5,0-0.7,0.5-0.7,1.7c0,0.6,0,1.3,0.2,1.9c0.1,1,0.3,2,0.5,3c0.3,0.5,1.9,0.6,4.9,0.6c1.5,0,2.6,0,3.5-0.1c0.4,0,0.7,0,1.3-0.1
		l1.4-0.1h0.8c0.7,0.2,1.1,0.3,1.2,0.5l0.4,0.4l-0.1,3.3c0,2.8,0,5.2,0.1,7.1c0,2.3-0.1,3.6-0.4,3.8c-0.4,0.3-0.9,0.5-1.4,0.4h-0.2
		c-0.3,0-0.5,0.1-0.8,0.2c-2,0.3-4.1,0.4-6.1,0.3c-2.2,0-3.5,0.1-3.7,0.4c-0.2,0.3-0.3,0.6-0.2,0.9c0,0.1,0,1.4,0.1,3.9
		c0.1,2.6,0.1,5,0.2,7.5C117.9,101.5,118,102.7,118,102.8z"/>
	<path class="st0" d="M167.1,49.8c0.5,0.2,1.1,0.5,1.5,0.8c0.3,0.5,0.5,1.1,0.4,1.6c0,0.2,0,0.6-0.1,1.3c-0.1,0.5-0.1,1-0.1,1.5
		c0,0.3,0,0.7,0,1.2c0,0.5,0,1,0,1.4v1.2c0,0.2,0,0.5,0,0.8s0,0.6,0,0.8v1.7c0,0.3-0.1,0.5-0.2,0.7c-0.1,0.2-0.1,0.5-0.2,0.6
		c0,0.4,0.1,0.6,0.2,1c0.1,0.3,0.1,0.6,0.2,0.9c0.1,0.8,0,1.7-0.2,2.6c-0.1,0.1-0.3,0.1-0.4,0.2c-0.2,0-0.4-0.1-0.5-0.3
		c-0.2-0.2-0.3-0.3-0.4-0.3c-0.7-0.3-1.4-0.6-1.9-1.1c-1-0.9-2.2-1.6-3.6-2.1c-0.2,0-0.4-0.1-0.5-0.2c-0.2-0.1-0.5-0.1-0.6-0.2
		c-1.5-0.5-2.9-0.7-4.4-0.7c-1.1-0.1-2.2,0.1-3.2,0.4c-1.1,0.5-2,1.2-2.8,2.1c-0.5,0.5-1.1,1.1-1.5,1.8c-0.5,1.1-0.7,2.3-0.8,3.5
		c-0.3,1.3-0.4,2.6-0.5,3.9c0,0.2,0,0.5,0.1,0.6c0,0.2,0.1,0.5,0.2,0.6c0.1,0.3,0.2,0.6,0.3,0.9c0.3,1.7,0.7,3.4,1.3,4.9
		c0.7,1.4,2,2.4,3.5,2.8c1.7,0.4,2.6,0.5,2.6,0.5h0.2h0.2c0.3-0.1,0.5-0.1,0.8-0.2h0.8h0.8h0.4c0.7-0.1,1.6-0.2,2.6-0.3
		c0.9-0.1,1.9-0.2,2.8-0.4c0.3,0,0.5-0.1,0.8-0.2c0.3-0.1,0.5-0.2,0.8-0.3c0.2,0,0.5-0.1,0.6-0.2c0.3-0.1,0.5-0.1,0.7-0.2
		c0.3,0,0.5,0.1,0.6,0.3c0.2,0.2,0.3,0.5,0.3,0.8c0,0.3-0.1,0.5-0.2,0.8c-0.1,0.3-0.1,0.6-0.2,0.9v11.7c0,0.3,0.1,0.5,0.2,0.8
		c0.1,0.3,0.1,0.5,0.2,0.7c0,0.3-0.1,0.5-0.3,0.6c-0.5,0.4-1,0.6-1.5,0.6c-0.5,0-1,0.2-1.5,0.3c-0.3,0.1-0.5,0.2-0.7,0.4
		c-0.3,0.2-0.5,0.3-0.8,0.4c-0.2,0.1-1.1,0.2-2.8,0.5l-1.3,0.4l-1.3,0.4c-0.8,0.2-1.6,0.3-2.4,0.3c-0.6,0-1.3,0-1.9-0.2
		c-2.6-0.5-3.9-0.8-4.1-0.9c-0.2-0.2-0.5-0.3-0.7-0.2c-1.1-0.3-2.1-0.8-3-1.5c-1.3-0.7-2.4-1.5-3.5-2.6c-1.1-1.1-2.1-2.4-3-3.6
		c-0.1-0.2-0.3-0.4-0.5-0.5c-0.3-0.2-0.5-0.5-0.7-0.7l-0.5-0.8c-0.3-0.5-0.5-0.9-0.8-1.3l-0.9-1.5c-0.2-0.5-0.4-0.8-0.5-1.1
		c-0.8-2-1.4-4.2-1.6-6.3c-0.3-1.6-0.4-3.4-0.5-5v-0.3c0-0.1,0-0.5,0.1-1.2c0.1-0.7,0.1-1.3,0.1-1.7c0-2.1,0.1-4.3,0.5-6.4
		c0.1-0.7,0.3-1.4,0.5-2.1c0.2-0.5,0.4-1.3,0.5-2.1l0.8-2.4c0.1-0.2,0.4-0.9,0.8-2.2c0.2-0.4,0.4-0.7,0.5-1.1c0.6-1.5,1.5-2.7,2.5-4
		c1-1.3,2.1-2.4,3.3-3.4c1.1-0.9,2.3-1.6,3.6-2.1c0.6-0.2,1.3-0.4,1.9-0.5c0.5-0.3,1-0.4,1.5-0.5c0.2-0.1,0.4-0.1,0.5-0.1
		c0.2,0,0.4-0.1,0.5-0.1c0.2,0,0.3-0.1,0.5-0.1c1.2-0.2,2.5-0.2,3.6-0.2c2.8,0.1,4.7,0.2,5.8,0.3c1.2,0.2,2.3,0.5,3.4,1
		c0.2,0,0.5,0.1,0.6,0.2c0.3,0.1,0.5,0.2,0.7,0.3c0.3,0.1,0.5,0.2,0.8,0.4C166.6,49.7,166.8,49.8,167.1,49.8z"/>
	<path class="st0" d="M71.9,116.4c0.3,0.2,0.4,0.5,0.4,0.8c-0.2,1-0.5,1.9-1.1,2.7c-0.8,1.4-1.7,2.7-2.7,3.9
		c-1.2,1.5-2.6,2.6-4.3,3.6c-1.5,1-3.4,1.5-5.2,1.5c-1.5,0-2.8-0.4-4-1c-1.2-0.6-2.3-1.6-3-2.8c-2.3-0.5-4.6-1.2-6.7-2
		c-3-1.2-5.2-1.7-6.7-1.7c-1.5-0.1-3.1,0.5-4.3,1.5c-1.1,0.9-1.7,2.4-1.7,3.8c0,1,0.3,2.1,0.9,2.9c0.6,0.8,1.6,1.3,2.7,1.3
		c0.6,0,1.2-0.1,1.7-0.5c0.4-0.3,0.7-0.7,0.8-1.2c0.1-0.5,0.2-0.8,0.2-1.3c0-0.4-0.1-0.7-0.2-1.1c2.1-0.3,3.2,0.5,3.2,2.2
		c0,1.3-0.6,2.5-1.6,3.3c-1.1,0.9-2.5,1.5-3.9,1.4c-1.8,0-3.6-0.7-4.8-1.9c-1.4-1.3-2.2-3.1-2.1-4.9c0-2.1,1-4.1,2.6-5.4
		c1.8-1.4,4-2.1,6.3-2.1c2,0,5,0.7,9,2.3c1.2,0.5,2.3,0.8,3.3,1.1c-0.3-0.8-0.4-1.7-0.4-2.6c0-2.2,0.6-4.4,1.9-6.1
		c1.1-1.7,3-2.7,5-2.7c1.2-0.1,2.4,0.5,3.2,1.3c0.8,0.9,1.2,2.2,1.1,3.4c0,2.9-1.6,5.5-4.8,7.7c0.7,1.3,2.1,2.1,3.6,2.1
		c1.5-0.1,2.9-0.6,4-1.6c1.4-1,2.6-2.2,3.6-3.6c0.9-1.3,1.8-2.6,2.6-4C70.9,116.1,71.5,116.1,71.9,116.4z M60.3,106.6
		c-1.6,2-3.1,3-4.5,3c-0.7-0.1-1.4-0.5-1.9-1c0.5-0.5,0.9-1.2,1.4-1.7c0.4-0.6,0.7-1.1,1-1.5c0.3-0.5,0.5-0.9,0.6-1.4
		s0.4-0.8,0.5-1.1c0.1-0.3,0.2-0.5,0.3-0.9l0.2-0.6c0.7-0.5,1.6-0.7,2.6-0.7c0.5,0,1.1,0.1,1.6,0.3c0.5,0.1,0.7,0.5,0.7,0.9
		C62.7,103,61.9,104.6,60.3,106.6L60.3,106.6z M56.2,115.3c-0.5,1-0.7,2.2-0.6,3.3c0,0.8,0.1,1.6,0.3,2.6c1.9-1.7,2.9-3.6,2.9-5.2
		c0-1.1-0.4-1.7-1.1-1.7C57.2,114.2,56.6,114.5,56.2,115.3L56.2,115.3z"/>
	<path class="st0" d="M114.4,117.9c-0.2,0.8-0.5,1.6-1.1,2.3c-0.8,1.2-1.8,2.4-2.8,3.4c-1.3,1.3-2.8,2.3-4.4,3.1
		c-1.6,0.8-3.4,1.4-5.3,1.4c-1.2,0.1-2.3-0.4-3.2-1.2c-0.9-1-1.3-2.4-1.2-3.6c0-1.1,0.1-2.2,0.3-3.3c0.2-1.3,0.3-2.2,0.3-2.6
		c0-0.3-0.1-0.5-0.3-0.5c-0.1,0-0.3,0.1-0.4,0.1c-0.2,0.1-0.3,0.3-0.4,0.4l-0.4,0.5c-0.1,0.2-0.2,0.5-0.4,0.7
		c-0.2,0.3-0.3,0.6-0.4,0.8c-0.1,0.3-0.2,0.5-0.4,1l-0.4,1c-0.5,1.4-1.2,2.7-1.9,4c-0.5,0.8-1.2,1.4-2.2,1.5c-1,0-2-0.5-2.6-1.5
		c0.4-2.3,0.6-4.5,0.7-6.7c0-1.7-0.1-2.6-0.4-2.6s-0.7,0.6-1.4,1.8c-0.6,1.2-1.2,2.6-1.8,4c-0.6,1.5-1.5,2.7-2.5,4
		c-0.7,1-1.8,1.7-3.1,1.8c-1.1,0-2.1-0.5-2.8-1.3c0.1-0.5,0.2-1.6,0.4-3.5c0.2-1.8,0.3-3.1,0.4-3.8c0-1,0-2-0.1-3
		c-0.1-1.1-0.3-2.2-0.6-3.3c0.6-0.6,1.5-1,2.6-1c1.9,0,2.9,1.9,2.9,5.7c0,1.3-0.1,2.6-0.3,3.9c0.8-2,1.8-4,2.9-5.9
		c1.3-2,2.8-3,4.6-3c1-0.1,1.9,0.5,2.5,1.3c0.6,1,1,2.2,0.9,3.4c0,0.6,0,1.1,0,1.4c0.6-1.5,1.5-2.9,2.6-4.2c0.9-0.9,2.1-1.5,3.5-1.4
		c0.8,0,1.6,0.3,2.3,0.9c0.5,0.7,0.9,1.6,0.8,2.6c0,0.6-0.1,1.5-0.2,2.9c-0.1,1.4-0.2,2.4-0.2,2.9c0,2.1,0.6,3.1,1.9,3.1
		c1.5,0,3.3-0.9,5.3-2.6c1.9-1.6,3.6-3.6,5-5.7C114.1,117,114.4,117.3,114.4,117.9z"/>
	<path class="st0" d="M132.7,117.2c0.1,0.1,0.2,0.3,0.3,0.5c-0.2,0.6-0.4,1.3-0.8,1.8c-0.5,1-1.3,1.9-1.9,2.8
		c-0.8,1-1.7,1.9-2.8,2.6c-0.9,0.7-2,1.1-3.1,1.2c-1.5,0-2.5-1-2.7-3c-0.5,1.5-1.5,2.7-2.7,3.6c-1.1,0.9-2.5,1.4-3.8,1.5
		c-1.4,0-2.6-0.5-3.6-1.5c-0.9-1.1-1.5-2.5-1.4-3.9c0-2.6,0.9-5.3,2.7-7.3c1.6-2,4.1-3.2,6.7-3.2c1.4,0,2.6,0.5,3.6,1.3
		c0.9,0.6,1.6,1.5,2,2.6c-0.4,1.5-0.5,3-0.6,4.6c0,1.5,0.5,2.4,1.3,2.4c0.4,0,0.7-0.2,1-0.5c0.5-0.4,0.9-0.7,1.4-1.2
		c0.5-0.5,0.9-1,1.4-1.5c0.5-0.5,0.9-1,1.4-1.7l1.1-1.4h0.2C132.2,116.9,132.5,117,132.7,117.2z M118.8,121.1c0.9-1.7,1.6-3.6,2-5.4
		c-0.3-0.7-0.7-1.1-1.3-1.1c-1,0-2,1-3.1,2.9c-0.9,1.5-1.5,3.2-1.6,5c0,0.4,0.1,0.8,0.3,1.2c0.2,0.4,0.4,0.5,0.6,0.5
		C116.7,124.2,117.7,123.2,118.8,121.1z"/>
	<path class="st0" d="M147.5,118.3c-2.6,0.5-4.9,1.3-7.2,2.5c0.8,0.9,1.2,2,1.3,3.3c0,1.5-0.8,3-2.2,3.9c-1.5,1.1-3.5,1.6-5.4,1.5
		c-0.9,0-1.7-0.2-2.6-0.7c-0.5-0.4-0.9-1-0.9-1.7c0-1.4,1.3-3,3.7-4.7c-0.9-0.8-1.7-1.6-2.5-2.6c-0.5-0.7-0.7-1.6-0.7-2.6
		c0-1,0.3-1.9,0.9-2.7c0.6-0.7,1.5-1.4,2.4-1.6c1.1-0.4,2.2-0.5,3.4-0.4c0.7,0,1.4,0.4,1.9,0.8c0,0.8-0.4,1.5-1.1,2
		c-0.9,0.5-2,0.8-3.1,0.6c-0.4,0.7,0.5,1.7,2.6,3.1c0.3,0.2,0.5,0.4,0.8,0.6c3.3-1.5,5.7-2.4,7.5-2.4
		C147.2,117,147.6,117.4,147.5,118.3z M135.7,123.5c-1.9,1.4-2.9,2.6-2.9,3.4c0,0.2,0.2,0.3,0.5,0.3c0.6,0,1.3-0.3,1.8-0.6
		s0.9-1,0.9-1.7C136,124.3,135.8,123.8,135.7,123.5L135.7,123.5z"/>
	<path class="st0" d="M161.9,118.3c-2.6,0.5-4.9,1.3-7.2,2.5c0.8,0.9,1.2,2,1.3,3.3c0,1.5-0.8,3-2.2,3.9c-1.5,1.1-3.5,1.6-5.4,1.5
		c-0.9,0-1.7-0.2-2.6-0.7c-0.5-0.4-0.9-1-0.9-1.7c0-1.4,1.3-3,3.7-4.7c-0.9-0.8-1.7-1.6-2.5-2.6c-0.5-0.7-0.7-1.6-0.7-2.6
		c0-1,0.3-1.9,0.9-2.7c0.6-0.7,1.5-1.4,2.4-1.6c1.1-0.4,2.2-0.5,3.4-0.4c0.7,0,1.4,0.4,1.9,0.8c0,0.8-0.4,1.5-1.1,2
		c-0.9,0.5-2,0.8-3.1,0.6c-0.4,0.7,0.5,1.7,2.6,3.1c0.3,0.2,0.5,0.4,0.8,0.6c3.3-1.5,5.7-2.4,7.5-2.4
		C161.7,117,162.1,117.4,161.9,118.3z M150.1,123.5c-1.9,1.4-2.9,2.6-2.9,3.4c0,0.2,0.2,0.3,0.5,0.3c0.6,0,1.3-0.3,1.8-0.6
		c0.5-0.4,0.9-1,0.9-1.7C150.4,124.3,150.3,123.8,150.1,123.5L150.1,123.5z"/>
	<path class="st0" d="M198,109c0.6,1.2,0.9,2.6,0.9,4c0.1,3.2-1.1,6.2-3.5,8.4c-2.3,2.1-5.3,3.3-8.5,3.3c-1.9,0.1-3.8-0.5-5.5-1.6
		c-1.7,2-4.2,3.3-6.9,3.3c-1.1,0.1-2.2-0.3-3-1.1c-0.6-0.6-1.2-1.5-1.5-2.4c-0.5,1.5-1.5,2.8-2.7,3.7c-1.1,0.9-2.5,1.5-3.9,1.5
		c-1.4,0-2.6-0.5-3.6-1.5c-0.9-1.1-1.5-2.5-1.4-3.9c0-2.6,0.9-5.3,2.7-7.3c1.6-2,4.1-3.2,6.7-3.2c1.4,0,2.6,0.5,3.6,1.3
		c0.9,0.6,1.6,1.5,2,2.6c-0.4,1.5-0.5,3-0.6,4.5c0,2,0.7,3,2.2,3c1.8-0.1,3.6-0.9,4.8-2.3c-0.5-0.9-0.8-1.9-0.8-3
		c-0.1-0.9,0.2-1.9,0.8-2.6c0.5-0.5,1.1-0.8,1.8-0.8c0.6,0,1.3,0.3,1.6,0.8c0.4,0.5,0.5,1.1,0.5,1.7c0,1.4-0.4,2.6-1,3.8
		c1,0.7,2.3,1.1,3.6,1.1c2.2,0,4.2-0.7,5.8-2.2c1.7-1.4,2.6-3.5,2.6-5.7c0-0.6-0.1-1.3-0.2-1.9c-0.1-0.5-0.3-1-0.6-1.5
		c-0.2-0.3-0.5-0.6-0.7-0.9c-0.3-0.3-0.5-0.5-0.9-0.8c-0.5-0.4-0.6-0.5-0.7-0.5c0.7-1.1,2-1.7,3.3-1.7
		C196.5,107.2,197.6,108,198,109z M167.6,121.1c0.9-1.7,1.6-3.6,2-5.4c-0.3-0.7-0.7-1.1-1.3-1.1c-1,0-2,1-3.1,2.9
		c-0.9,1.5-1.5,3.2-1.6,5c0,0.4,0.1,0.8,0.3,1.2c0.2,0.4,0.4,0.5,0.6,0.5C165.5,124.2,166.5,123.2,167.6,121.1z M181.3,117.8
		c0,0.5,0.1,1.2,0.4,1.7c0.5-0.7,0.7-1.5,0.8-2.4c0-0.5-0.2-0.7-0.5-0.7C181.5,116.5,181.3,117,181.3,117.8L181.3,117.8z"/>
	<path class="st0" d="M183.3,73.8c0.2-0.3,0.5-0.5,0.7-0.6c0.4-0.2,0.6-0.3,1-0.4c0.3-0.1,0.8-0.2,1.5-0.3c2.4-0.4,4.8-0.6,7.2-0.6
		h1.3c0.4,0,0.7,0.1,1.1,0.2s0.7,0.3,1,0.5c0.3,0.3,0.5,0.5,0.5,0.9c0.2,0.5,0.3,1,0.3,1.5c0,1.6-0.5,2.6-1.3,3
		c-1.1,0-3.4-0.2-6.7-0.6c-3.4-0.4-5.6-0.8-6.4-1.3C183,75.5,182.9,74.5,183.3,73.8L183.3,73.8z"/>
	<path class="st0" d="M177.8,65.9c-0.1-0.4-0.1-0.6,0.1-1c0.1-0.4,0.3-0.6,0.5-1c0.2-0.3,0.5-0.6,0.9-1.3c1.5-2,3-3.8,4.6-5.6
		c0.4-0.4,0.7-0.6,0.9-0.8c0.3-0.3,0.5-0.5,0.9-0.6c0.3-0.2,0.6-0.3,1-0.4c0.4,0,0.7,0.1,1.1,0.3c0.5,0.2,0.9,0.5,1.3,0.9
		c1.2,1.2,1.5,2.2,1.3,3.1c-0.8,0.8-2.6,2.3-5.2,4.4c-2.6,2.1-4.5,3.3-5.4,3.6C178.8,67.3,178.1,66.8,177.8,65.9L177.8,65.9z"/>
	<path class="st0" d="M179.5,82.3c0.4-0.1,0.6-0.1,1,0.1c0.4,0.1,0.6,0.3,1,0.5c0.3,0.2,0.6,0.5,1.3,0.9c2,1.5,3.8,3,5.6,4.6
		c0.4,0.4,0.6,0.7,0.8,0.9c0.3,0.3,0.5,0.5,0.6,0.9c0.2,0.3,0.3,0.6,0.4,1c0,0.4-0.1,0.7-0.3,1.1c-0.2,0.5-0.5,0.9-0.9,1.3
		c-1.2,1.2-2.2,1.5-3.1,1.3c-0.8-0.8-2.3-2.6-4.4-5.2c-2.1-2.6-3.3-4.5-3.6-5.4C178.2,83.3,178.7,82.6,179.5,82.3L179.5,82.3z"/>
	<path class="st0" d="M44.8,74.8c0,0.5-0.1,1-0.5,1.5c-0.8,0.5-3,0.8-6.4,1.3c-3.4,0.4-5.7,0.6-6.7,0.6c-0.8-0.4-1.3-1.4-1.3-3
		c0-0.5,0.1-1.1,0.3-1.5c0.1-0.4,0.4-0.6,0.5-0.9c0.3-0.3,0.6-0.5,1-0.5c0.4-0.1,0.7-0.2,1.1-0.2h1.3c2.5,0.1,4.8,0.3,7.2,0.6
		c0.7,0.1,1.3,0.2,1.5,0.3c0.4,0.1,0.7,0.2,1,0.4c0.4,0.1,0.6,0.4,0.7,0.6C44.7,74.1,44.8,74.4,44.8,74.8z"/>
	<path class="st0" d="M49.5,66.8c-0.4,0.4-0.8,0.6-1.4,0.7c-0.9-0.3-2.7-1.5-5.4-3.6c-2.6-2.1-4.4-3.6-5.2-4.4
		c-0.4-0.9,0.1-1.9,1.3-3.1c0.4-0.4,0.8-0.7,1.3-0.9c0.4-0.2,0.7-0.3,1.1-0.3c0.4,0,0.7,0.2,1,0.4c0.4,0.2,0.6,0.4,0.9,0.6
		c0.2,0.2,0.5,0.5,0.9,0.8c1.6,1.7,3.2,3.6,4.6,5.6c0.5,0.6,0.7,1,0.9,1.3s0.4,0.6,0.5,1c0.2,0.3,0.2,0.6,0.1,1
		C50,66.3,49.8,66.6,49.5,66.8z"/>
	<path class="st0" d="M49.2,82.8c0.4,0.4,0.6,0.8,0.7,1.4c-0.3,0.9-1.5,2.6-3.6,5.4c-2.1,2.6-3.6,4.4-4.4,5.2
		c-0.9,0.4-1.9-0.1-3.1-1.3c-0.4-0.4-0.7-0.8-0.9-1.3c-0.2-0.4-0.3-0.7-0.3-1.1s0.2-0.7,0.4-1c0.2-0.4,0.4-0.6,0.6-0.9
		c0.2-0.2,0.5-0.5,0.9-0.9c1.7-1.6,3.6-3.2,5.6-4.6c0.6-0.5,1-0.7,1.3-0.9s0.6-0.4,1-0.5c0.3-0.2,0.6-0.2,1-0.1
		C48.7,82.3,49,82.5,49.2,82.8z"/>
	<path class="st0" d="M2.9,146c0,0.1,0,0.5,0,1.4s0,1.4,0,1.6v0.1v0.1v0.1c0,0.1,0,0.2-0.1,0.3H0.6c-0.1-0.1-0.2-0.2-0.2-0.4
		c0-0.1,0-0.2,0-0.4c0-0.1,0-0.9-0.1-2.3c0-0.1,0-0.2,0-0.4c0-0.2,0-0.4,0-0.4s0-0.1,0-0.2s0-0.1,0-0.1c0-0.1,0-0.1,0-0.2l-0.1-0.5
		c-0.1-0.6-0.1-2-0.2-4.1l0,0c0-0.1,0-0.1,0.1-0.2c0.1,0,0.2,0,0.3,0l0,0h1h0.7h0.1c0.2,0,0.4,0,0.7,0s0.6,0,0.8,0
		c0.3,0,0.6,0,0.9,0h0.1h0.2c0.1,0,0.3,0.1,0.4,0.2c0.1,0.1,0.3,0.2,0.4,0.3c0.2,0.3,0.4,0.7,0.4,1.1c0,0.1,0,0.3,0,0.4
		c0,0.4,0,0.7-0.1,1.1c-0.1,0.5-0.3,1-0.6,1.4l-0.1,0.2c-0.3,0.4-0.7,0.7-1.2,0.8c-0.2,0-0.4,0.1-0.6,0.1H3.1
		C3,145.9,2.9,146,2.9,146z M3.3,142.2H3.1H2.8c-0.2,0-0.3,0-0.3,0v0.1c0,0,0,0,0,0.1v0.1c0,0.3,0,0.7,0,1v0.1v0.1
		c0,0.1,0,0.1,0,0.2l0,0h0.2c0.2-0.1,0.4-0.2,0.6-0.4c0.1-0.1,0.2-0.3,0.2-0.6c0-0.2,0-0.4-0.1-0.5C3.4,142.3,3.3,142.2,3.3,142.2z"
		/>
	<path class="st0" d="M8.8,140.4h0.3c0.1,0,0.1,0,0.2,0h0.2c0.1,0,0.1,0.1,0.1,0.2s0,0.1,0,0.2c0,0.1,0,0.1,0,0.3c0,0.2,0,0.2,0,0.3
		c0,0.1,0,0.2,0,0.4c0,0.1,0,0.2,0,0.4v3.1c0,0.1,0,0.1,0,0.2v1.4c0,0.2,0,0.5,0,0.7c0,0.1,0,0.2,0,0.3v1.4v0.5H7.4H7
		c-0.1,0-0.1,0-0.1,0v-0.1c0,0,0-0.1,0-0.2s0-0.2,0-0.2v-3.4c0,0,0-0.1,0-0.2c0-0.1,0-0.2,0-0.2c0-0.1,0-0.1,0-0.2v-0.6
		c0,0,0,0,0-0.1v-0.1v-0.1v-0.1c0,0,0-0.1,0-0.2c0-0.1,0-0.1,0-0.2v-0.1v-3.3c0.2,0,0.5,0,0.7,0c0.3,0,0.5,0,0.8,0L8.8,140.4
		L8.8,140.4z"/>
	<path class="st0" d="M15.6,140.3h3.7h1.2h0.5H21c0.1,0,0.2,0,0.3,0.1v0.1l0,0v0.1c0,0.2,0,0.5,0,0.8c0,0.3,0,0.5,0,0.7v0.3
		c0,0.3,0,0.5-0.1,0.8c0,0.1-0.1,0.2-0.3,0.2s-0.5,0.1-0.7,0.1h-0.1H20v0.1c0,0.1,0,0.2,0,0.2v0.1c0,0.1,0,0.2,0,0.2
		c0,0.1,0,0.1,0,0.2c0,0.1,0,0.2,0,0.3v0.1v0.1v0.1v2.9c0,0.2,0,0.4,0,0.6c0,0.1,0,0.2,0,0.2c0,0.1,0,0.1,0,0.2c0,0.2,0,0.3-0.1,0.5
		c-0.1,0.1-0.3,0.1-0.4,0.1h-1.1c-0.1,0-0.1,0-0.2,0c-0.1,0-0.3,0-0.4,0h-0.4h-0.1c-0.1,0-0.1,0-0.1-0.1l-0.1-0.1V149
		c0-0.1,0-0.3,0-0.4c0-0.1,0-0.1,0-0.2l0,0c0,0,0-0.1,0-0.2s0-0.1,0-0.2c0-0.1,0-0.1,0-0.2s0-0.1,0-0.1s0-0.1,0-0.2s0-0.3,0-0.4
		c0-0.3,0-0.7,0-1.2c0-0.1,0-0.2,0-0.3c0-0.1,0-0.2,0-0.3v-0.7c0-0.2,0-0.4,0-0.6s0-0.4,0-0.6c0-0.2,0-0.4,0-0.6l0,0h-0.8
		c-0.4,0-0.6,0-0.8,0c-0.6,0-1.1,0.1-1.7,0.4c-0.1,0.1-0.2,0.2-0.3,0.3s-0.2,0.2-0.3,0.4c-0.1,0.1-0.1,0.2-0.2,0.3
		c-0.1,0.2-0.1,0.5-0.1,0.7c0,0.3,0,0.6,0.2,0.8c0.1,0.2,0.2,0.4,0.4,0.5h0h0.1h0.1h0.1c0.7,0.1,1.4,0.1,2.2,0.1c0,0,0,0,0,0.1v0.1
		v0.1v2.2c0,0,0,0.1,0,0.2s0,0.2,0,0.2s0,0.2-0.1,0.3l-0.7-0.1l-0.8-0.1l-0.7-0.1c-0.2,0-0.5-0.1-0.7-0.1s-0.4-0.1-0.6-0.2
		c-0.2-0.1-0.4-0.2-0.5-0.3s-0.2-0.2-0.3-0.3s-0.2-0.2-0.2-0.3c0,0,0-0.1-0.1-0.1l-0.1-0.1l-0.1-0.1l-0.1-0.2l-0.2-0.3l-0.1-0.2
		c-0.1-0.3-0.2-0.7-0.3-1.1c0-0.3-0.1-0.6-0.1-0.9v0.2v-0.2c0-0.1,0-0.2,0-0.3c0-0.4,0-0.7,0.1-1.1c0-0.1,0-0.2,0.1-0.4
		c0,0,0-0.2,0.1-0.4l0.1-0.4c0,0,0.1-0.2,0.1-0.4l0.1-0.2c0.1-0.3,0.3-0.6,0.5-0.8c0.2-0.2,0.5-0.4,0.8-0.5l0.2-0.1
		c0.1,0,0.1-0.1,0.2-0.1h0.2c0.3-0.1,0.7-0.2,1.1-0.2C14.5,140.4,15,140.3,15.6,140.3z"/>
	<path class="st0" d="M26.5,140.7c0.1,0.1,0.1,0.1,0.2,0.1l0.1,0.1l0.1,0.1l0.2,0.1h0.1c0.1,0,0.3,0.1,0.4,0.2l0.1,0.1l0.1,0.1
		l0.3,0.3l0.3,0.3c0.2,0.2,0.4,0.4,0.5,0.7l0.1,0.3c0.1,0.3,0.2,0.6,0.3,0.9v0.1c0.1,0.3,0.1,0.6,0.1,0.9c0,0.1,0,0.2,0,0.3v0.1
		c0,0.1-0.1,0.3-0.1,0.4c-0.1,0.2-0.1,0.4-0.1,0.5v0.1v0.1c0,0.1,0,0.1-0.1,0.2c0,0.1,0,0.1-0.1,0.2c-0.1,0.2-0.1,0.3-0.2,0.5
		l-0.1,0.1l-0.1,0.1c0,0.1-0.1,0.1-0.1,0.2c-0.1,0-0.2,0.1-0.3,0.4c-0.1,0.1-0.1,0.2-0.2,0.3c-0.1,0.1-0.2,0.2-0.3,0.2l0,0l0,0
		c0,0.1-0.1,0.1-0.2,0.2l-0.3,0.2c-0.1,0.1-0.2,0.2-0.3,0.2l0,0l0,0h-0.1h-0.1c-0.2,0.1-0.4,0.2-0.6,0.2h-0.5h-0.1
		c-0.1,0-0.2,0-0.4-0.1l-0.4-0.1h-0.2c-0.1,0-0.3-0.1-0.4-0.2c-0.2-0.1-0.3-0.2-0.4-0.3c-0.1-0.1-0.2-0.2-0.3-0.3l-0.3-0.3
		c-0.1-0.1-0.2-0.3-0.2-0.4l-0.2-0.4l-0.2-0.5c-0.1-0.2-0.2-0.4-0.2-0.5v-0.1v-0.1c0-0.1,0-0.2-0.1-0.3c0-0.1,0-0.2-0.1-0.3
		c0-0.1,0-0.2,0-0.4c0-0.2,0-0.2,0-0.2c0-0.2,0-0.4,0-0.7c0-0.8,0.2-1.6,0.5-2.4c0-0.1,0.1-0.1,0.1-0.2l0.1-0.2
		c0-0.1,0.1-0.2,0.2-0.3c0.1-0.1,0.2-0.2,0.3-0.3c0.3-0.3,0.6-0.5,1-0.6c0.4-0.2,0.9-0.2,1.3-0.2h0.1
		C26,140.4,26.2,140.6,26.5,140.7z M25.8,144c-0.1,0-0.2,0-0.2,0h-0.2c-0.1,0.1-0.2,0.1-0.3,0.2c-0.4,0.4-0.7,1-0.7,1.6
		c0,0.1,0,0.1,0,0.2c0,0.2,0.1,0.4,0.3,0.6c0.1,0.1,0.1,0.2,0.3,0.2c0.1,0.1,0.2,0.1,0.3,0.1s0.1,0,0.2,0c0.1,0,0.2-0.1,0.3-0.2
		c0.1-0.1,0.1-0.2,0.2-0.3l0.1-0.2c0.1-0.1,0.1-0.3,0.2-0.4c0-0.2,0-0.4,0-0.5c0-0.2,0-0.5-0.1-0.7c0-0.1-0.1-0.2-0.1-0.3
		C26,144.1,26,144.1,25.8,144L25.8,144z"/>
	<path class="st0" d="M35.1,140.2h0.3h0.2c0.2,0,0.3,0.1,0.4,0.3c0,0.1,0,0.1,0,0.2v0.3v1.9c0,0.2-0.2,0.3-0.4,0.3h-0.4
		c0,0-0.1,0-0.2,0h-0.1c-0.1,0-0.2,0-0.3,0h-0.2c-0.3,0-0.6,0.1-0.9,0.1c-0.1,0-0.3,0.1-0.4,0.1l-0.2,0.1c-0.1,0-0.1,0.1-0.2,0.1
		l-0.1,0.1c0,0.1-0.1,0.1-0.1,0.2v0.2c0,0,0,0.1,0,0.2s0,0.1,0,0.2s0,0.1,0,0.2c0,0.1,0,0.2,0,0.3v0.2v0.1v0.1v0.1
		c0,0.1,0.1,0.3,0.2,0.4v0.1c0,0,0,0.1,0.1,0.1l0.1,0.3c0,0.1,0.1,0.2,0.2,0.3l0.1,0.1l0.2,0.2l0.2,0.2l0.2,0.1h0.1l0,0v-0.1
		c0-0.1,0-0.3,0-0.6c0-0.3,0-0.6,0-0.7c0,0,0,0,0-0.1v-0.1l0,0c0,0,0,0,0-0.1v-0.1v-0.1l0,0v-0.1v-0.1v-0.1c0,0,0,0,0-0.1l0,0v-0.1
		c0,0,0-0.1,0-0.2c0-0.1,0-0.1,0-0.2v-0.2c0-0.1,0-0.1,0-0.2c0-0.1,0-0.1,0-0.1l0,0c0,0,0-0.1,0.1-0.1h0.4c0.2,0,0.4,0,0.6,0
		c0.1,0,0.2,0,0.4,0c0.2,0,0.4,0,0.6,0s0.4,0,0.6,0l0,0l0,0c0,0,0,0,0,0.1v0.1v0.7c0,0.1,0,0.4,0,0.7s0,0.5,0,0.6c0,0.2,0,0.4,0,0.7
		c0,0.2,0,0.4,0,0.5c0,0.1,0,0.3,0,0.7c0,0.2,0,0.3,0,0.4s0,0.2,0,0.4c0,0.2,0,0.2,0,0.3v0.1c0,0,0,0,0,0.1l0,0c0,0.1,0,0.1,0,0.2
		l-0.1,0.1l-0.1,0.1h-0.1c-0.5,0.2-1.1,0.3-1.7,0.2c-0.4,0-0.9,0-1.3-0.1h-0.2c-0.1,0-0.2-0.1-0.4-0.1c-0.1,0-0.2-0.1-0.3-0.2
		l-0.1-0.1c-0.6-0.3-1.1-0.7-1.6-1.2l-0.1-0.1l-0.1-0.1l0,0l-0.1-0.2l-0.1-0.1v-0.1v-0.1l0,0v-0.1v-0.1c-0.1-0.2-0.1-0.4-0.2-0.6
		c0-0.1,0-0.2-0.1-0.4c0-0.1-0.1-0.3-0.1-0.4c0-0.1,0-0.2-0.1-0.3c0-0.4,0-0.7,0-0.9c-0.1-0.7,0.1-1.5,0.4-2.2l0.1-0.1l0.1-0.1
		c0.4-0.7,1.1-1.2,1.8-1.6C33.1,140.3,34.1,140.2,35.1,140.2z"/>
	<path class="st0" d="M38,140.4h0.7c0.3,0,0.6,0.1,0.9,0.1h0.1h0.1c0.3,0,0.6,0.1,0.9,0.3c0.4,0.2,0.8,0.4,1.1,0.6
		c0.2,0.2,0.4,0.3,0.6,0.5c0.1,0.1,0.2,0.3,0.3,0.4c0.1,0.2,0.1,0.3,0.1,0.5c0,0.1,0,0.2,0,0.3s0,0.2-0.1,0.2c0,0,0,0,0,0.1
		c0,0.3-0.2,0.6-0.4,0.9c-0.2,0.3-0.4,0.6-0.7,0.9c0,0.1,0,0.1,0,0.2c0,0.1,0,0.2,0.1,0.3l0.2,0.3c0.1,0.2,0.2,0.4,0.3,0.6l0.5,0.7
		c0.5,0.7,0.8,1.3,1.2,1.9l0.2,0.3c0,0-0.1,0.1-0.2,0.1h-0.1c-0.2,0-0.4,0-0.6,0h-0.3h-1.5c-0.1,0-0.1,0-0.2,0H41v-0.1
		c0-0.1,0-0.1-0.1-0.1l-0.4-0.8c-0.2-0.4-0.3-0.7-0.5-1s-0.3-0.5-0.4-0.6v1.8c0,0.1,0,0.1,0,0.2c0,0.1,0,0.1,0,0.2v0.1v0.1v0.1v0.1
		l0,0h-2h-0.3l0,0c-0.1,0-0.1,0-0.1-0.1s0-0.1,0-0.2c0,0,0-0.1,0-0.3c0-0.2,0-0.3,0-0.4v-0.6c0,0,0-0.1,0-0.2c0-0.1,0-0.2,0-0.3
		s0-0.2,0-0.3v-0.9c0-0.1,0-0.3,0-0.5c0-0.1,0-0.3,0-0.4c0-0.1,0-0.3,0-0.3V145v-0.1c0,0,0-0.1,0-0.2s0-0.1,0-0.2c0-0.1,0-0.2,0-0.3
		c0-0.1,0-0.1,0-0.1c0-0.1,0-0.1,0-0.2v-0.1v-0.1v-0.1v-0.4c0-0.2,0-0.4,0-0.5s0-0.4,0-0.6v-0.5v-0.1v-0.1v-0.1c0,0,0-0.2,0-0.3
		c0-0.1,0-0.2,0-0.2v-0.1l0,0c0,0,0-0.1,0-0.2s0-0.2,0-0.2c0-0.1,0-0.1,0-0.2L38,140.4z M39.7,142.8c-0.1-0.1-0.3-0.1-0.4-0.1h-0.1
		c0,0,0,0.1,0,0.2c0,0.1,0,0.1,0,0.3c0,0.1,0,0.2,0,0.4c0,0.2,0,0.4,0,0.6h0.1l0.3-0.1c0.3-0.1,0.5-0.3,0.5-0.6v-0.1v-0.1
		C40,143,39.9,142.8,39.7,142.8L39.7,142.8z"/>
	<path class="st0" d="M46.9,140.6c0.2,0,0.4,0,0.6,0c0.1,0,0.3,0,0.4,0H48h0.1c0,0,0.1,0,0.1,0.1l0.1,0.1l0.2,0.3
		c0.1,0.2,0.2,0.3,0.2,0.4c0,0.1,0.1,0.2,0.1,0.3c0,0,0.1,0.1,0.1,0.2c0.1,0.2,0.2,0.5,0.4,0.7c0,0.1,0.1,0.1,0.1,0.2l0.1,0.1
		l0.1,0.1l0.2,0.3c0.1,0.2,0.1,0.3,0.2,0.4c0.4,0.6,0.8,1.4,1.4,2.6c0.6,1.1,0.9,1.8,1,1.9c0,0.1,0.1,0.2,0.1,0.3
		c0,0.2,0.1,0.3,0.2,0.4c0.1,0.2,0.2,0.4,0.2,0.6l0,0l0,0h-0.3h-0.3H52h-0.3h-0.4h-1.6h-0.2h-0.2h-0.1c-0.1-0.2-0.2-0.4-0.2-0.6
		c0-0.3-0.1-0.5-0.2-0.7l-0.1-0.2h-0.4H48h-0.4h-1.4l0,0v0.1v0.1c-0.1,0.4-0.3,0.7-0.5,1.1c-0.1,0.1-0.1,0.2-0.2,0.2h-0.2
		c-0.1,0-0.1,0-0.2,0h-0.6c-0.1,0-0.3,0-0.4,0c-0.2,0-0.4,0-0.6,0h-0.2h-0.1h-0.3c-0.1,0-0.2,0-0.2-0.1l0,0v-0.1l0.1-0.3l0.1-0.2
		c0-0.1,0.1-0.2,0.1-0.4v-0.1l0.1-0.2l0.1-0.2l0.2-0.5c0-0.1,0.1-0.2,0.1-0.3l0.1-0.1l0,0l0,0v-0.1c0.1-0.1,0.1-0.3,0.2-0.4
		c0-0.1,0.1-0.2,0.1-0.3c0.1-0.1,0.1-0.3,0.1-0.4c0-0.1,0.1-0.3,0.1-0.3c0-0.1,0.1-0.1,0.1-0.2v-0.1v-0.1v-0.1l0.1-0.3l0.1-0.4
		c0-0.1,0-0.1,0.1-0.2l-0.2-0.1c0.1-0.2,0.2-0.5,0.2-0.7v-0.1v-0.2V143c0-0.1,0.1-0.3,0.2-0.4l0.1-0.3c0-0.1,0.1-0.1,0.1-0.2V142
		v-0.1l0.1-0.4c0.1-0.3,0.2-0.5,0.3-0.8c0-0.1,0.1-0.2,0.3-0.2h1L46.9,140.6z M47.3,144.3c0-0.1-0.1-0.2-0.1-0.2l0,0
		C47.2,144.1,47.2,144.1,47.3,144.3l-0.2,0.2c0,0.1-0.1,0.3-0.1,0.4c-0.1,0.4-0.2,0.6-0.2,0.7v0.2v0.1v0.1l0,0v0.1
		c0.3,0.1,0.7,0.1,1,0.1h0.3c0.1,0,0.2,0,0.2,0l0,0c0-0.2-0.1-0.3-0.2-0.4s-0.1-0.3-0.2-0.4l-0.1-0.1l-0.1-0.2l-0.1-0.1l-0.1-0.2
		v-0.1L47.3,144.3z"/>
	<path class="st0" d="M60.5,140.9h0.4H61c0.1,0.2,0.1,0.4,0.1,0.7c0,0.2,0,0.3,0,0.5v1.1c0,0.1,0,0.3,0,0.5c0,0.2,0,0.3,0,0.3
		s0,0.2,0,0.4c0,0.2,0,0.4,0,0.6s0,0.3,0,0.5l0,0c0,0.2,0,0.4,0,0.5s0,0.2,0,0.3s0,0.2,0,0.2v0.1v0.1v0.2c0,0.1,0,0.1,0,0.2
		s0,0.2,0,0.4c0,0.6,0,1,0,1l0,0v0.1c0,0.1,0,0.1,0,0.2v0.3c0,0.1-0.1,0.2-0.2,0.2h-2.7c0,0,0,0,0-0.1V149v-0.1v-0.1
		c0-0.1,0-0.2,0-0.4c0-0.2,0-0.4,0-0.6v-0.2c0-0.1,0-0.2,0-0.4c0-0.1,0-0.2,0-0.3c0-0.1,0-0.1,0-0.1v-0.1v-0.1c0,0,0,0,0-0.1v-0.7
		l0,0c0-0.1,0-0.2,0-0.3s0-0.2,0-0.2l-0.4,0.3l-0.5,0.3c-0.1,0-0.1,0-0.2,0H57l-0.6-0.6l-0.3-0.2l-0.2-0.2l-0.1-0.1v0.2l0,0
		c-0.1,0-0.1,0-0.1,0.1v0.3c0,0.1,0,0.3,0,0.4c0,0.2,0,0.3,0,0.4c0,0.1,0,0.2,0,0.3c0,0.1,0,0.2,0,0.3v0.1l0,0v0.3v0.1v0.1v0.1
		c0,0,0,0.1,0,0.3c0,0.2,0,0.2,0,0.3v0.8c0,0.1,0,0.1,0,0.2s0,0.2,0,0.2l0,0l0,0h-0.4h-0.1h0h-0.1h-0.2h-0.3h-0.4h-0.8h-0.2h-0.3
		l0,0v-0.1v-0.1c0,0,0-0.1,0-0.2v-0.5c0-0.4,0-0.7,0-0.8c0-1.4,0-2.1,0-2.3l0,0v-0.1c0-0.2,0-0.3,0-0.4c0-0.1,0-0.1,0-0.1v-0.1v-0.1
		v-0.1v-0.1c0-0.1,0-0.1,0-0.2c0-0.1,0-0.2,0-0.4c0-0.1,0-0.2,0-0.4c0,0,0-0.1,0-0.2s0-0.2,0-0.2v0.1c0,0,0-0.1,0-0.3
		c0-0.2,0-0.3,0-0.3c0-0.8,0.1-1.2,0.1-1.3v-0.1c0-0.1,0-0.2,0.1-0.4l0,0h0.5c0.2,0,0.5,0,1,0c0.2,0,0.5,0,0.7,0c0.1,0,0.1,0,0.2,0
		c0,0,0.1,0,0.1,0.1v0.1c0.1,0.1,0.1,0.1,0.2,0.2c0.2,0.1,0.4,0.3,0.6,0.4c0.1,0.1,0.2,0.1,0.2,0.2l0.3,0.2c0,0.1,0.1,0.1,0.2,0.1
		l0.4,0.3l0.1,0.1l0.2-0.1l0.2-0.2h0.1l0.1-0.1l0.1-0.1c0.1-0.1,0.2-0.1,0.3-0.2c0.2-0.1,0.3-0.2,0.5-0.4c0.1-0.1,0.3-0.2,0.4-0.3
		l0.2-0.2c0.1-0.1,0.2-0.2,0.3-0.2h0.7L60.5,140.9z"/>
	<path class="st0" d="M65.9,140.6c0.2,0,0.4,0,0.6,0c0.1,0,0.3,0,0.4,0h0.2l0,0c0,0,0.1,0,0.1,0.1l0.1,0.1l0.2,0.3
		c0.1,0.2,0.2,0.3,0.2,0.4c0,0.1,0.1,0.2,0.1,0.3c0,0,0.1,0.1,0.1,0.2c0.1,0.2,0.2,0.5,0.4,0.7c0,0.1,0.1,0.1,0.1,0.2l0.1,0.1
		l0.1,0.1l0.2,0.3c0.1,0.2,0.1,0.3,0.2,0.4c0.4,0.6,0.8,1.4,1.4,2.6s0.9,1.8,1,1.9c0,0.1,0.1,0.2,0.1,0.3c0,0.2,0.1,0.3,0.2,0.4
		c0.1,0.2,0.2,0.4,0.2,0.6l0,0l0,0h-0.3h-0.3H71h-0.3h-0.4h-1.6h-0.2h-0.2h-0.1c-0.1-0.2-0.2-0.4-0.2-0.6c0-0.3-0.1-0.5-0.2-0.7
		l-0.1-0.2h-0.2h-0.4h-0.4h-1.4l0,0v0.1v0.1c-0.1,0.4-0.3,0.7-0.5,1.1c-0.1,0.1-0.1,0.2-0.2,0.2h-0.2c-0.1,0-0.1,0-0.2,0h-0.6
		c-0.1,0-0.3,0-0.4,0c-0.2,0-0.4,0-0.6,0h-0.2h-0.1h-0.3c-0.1,0-0.2,0-0.2-0.1l0,0v-0.1L62,149l0.1-0.2c0-0.1,0.1-0.2,0.1-0.4v-0.1
		l0.1-0.2l0.1-0.2l0.2-0.5c0-0.1,0.1-0.2,0.1-0.3l0.1-0.1l0,0l0,0v-0.1c0.1-0.1,0.1-0.3,0.2-0.4c0-0.1,0.1-0.2,0.1-0.3
		c0.1-0.1,0.1-0.3,0.1-0.4c0-0.1,0.1-0.3,0.1-0.3c0-0.1,0.1-0.1,0.1-0.2v-0.1v-0.1v-0.1l0.1-0.3l0.1-0.4c0-0.1,0-0.1,0.1-0.2
		l0.1-0.2c0.1-0.2,0.2-0.5,0.2-0.7v-0.1v-0.1V143c0-0.1,0.1-0.3,0.2-0.4l0.1-0.3c0-0.1,0.1-0.1,0.1-0.2V142v-0.1l0.1-0.4
		c0.1-0.3,0.2-0.5,0.3-0.8c0-0.1,0.1-0.2,0.3-0.2L65.9,140.6L65.9,140.6z M66.4,144.3c0-0.1-0.1-0.2-0.1-0.2l0,0
		C66.3,144.1,66.3,144.1,66.4,144.3l-0.2,0.2c0,0.1-0.1,0.3-0.1,0.4c-0.1,0.4-0.2,0.6-0.2,0.7v0.2v0.1v0.1l0,0v0.1
		c0.3,0.1,0.7,0.1,1,0.1h0.2c0.1,0,0.2,0,0.2,0l0,0c0-0.2-0.1-0.3-0.2-0.4c-0.1-0.1-0.1-0.3-0.2-0.4l-0.1-0.1l-0.1-0.2l-0.1-0.1
		l-0.1-0.2v-0.1L66.4,144.3z"/>
	<path class="st0" d="M74.8,140.4h0.6h0.4h0.1l0.1,0.1v0.1c-0.1,0.3-0.2,0.5-0.4,0.7l-0.1,0.1l-0.1,0.1l0,0l-0.1,0.1l-0.1,0.1
		c-0.2,0.4-0.4,0.8-0.4,1.2c0,0.1,0,0.3,0,0.4s0,0.2,0,0.3c0,0.2,0.1,0.4,0.2,0.6c0.1,0.2,0.3,0.4,0.4,0.6c0.3,0.5,0.5,0.7,0.6,0.8
		c0,0.1,0.1,0.2,0.2,0.2l0.1,0.2c0,0.1,0.1,0.1,0.1,0.2c0,0.1,0.1,0.3,0.1,0.4c0,0.1,0,0.1,0,0.2c0,0.2-0.1,0.5-0.2,0.7
		c0,0.1-0.1,0.1-0.1,0.2l-0.3,0.6c-0.1,0.2-0.2,0.3-0.3,0.5c-0.1,0.2-0.2,0.4-0.3,0.6c-0.1,0.2-0.2,0.3-0.2,0.3h-0.7h-0.7
		c-0.1,0-0.2,0-0.3,0h-2v-0.1v-0.1v-0.1c0-0.1,0.2-0.3,0.6-0.6c0.1-0.1,0.2-0.2,0.3-0.3c0.1-0.1,0.2-0.2,0.2-0.3
		c0.1-0.1,0.1-0.2,0.2-0.3c0.1-0.1,0.1-0.2,0.2-0.3l0.2-0.3c0.1-0.1,0.2-0.3,0.2-0.5l0,0c0-0.4-0.2-0.8-0.5-1.1
		c-0.4-0.3-0.7-0.7-1-1.1c0-0.1-0.1-0.1-0.1-0.2c-0.1-0.2-0.1-0.4-0.1-0.5s0-0.1,0-0.2c0-0.1,0-0.1,0-0.2c0,0,0,0,0-0.1
		c0-0.1,0-0.1,0-0.1s0-0.2,0.1-0.5c0.1-0.3,0.2-0.6,0.4-0.9l0.1-0.3l0.1-0.1c0.1-0.1,0.1-0.2,0.2-0.3c0-0.1,0.1-0.2,0.1-0.2
		s0,0,0.1-0.1l0.1-0.1l0.1-0.1h1c0.2,0,0.3,0,0.5,0c0.1,0,0.2,0,0.3,0L74.8,140.4z"/>
	<path class="st0" d="M83.5,140.4h3.1l0,0l0,0v0.1c0,0,0,0.1,0,0.2s0,0.3,0,0.4v0.2l0,0v0.2c0,0,0,0,0,0.1v0.4c0,0.1,0,0.1,0,0.2
		v0.1v0.1c0,0.1,0,0.1,0,0.2c0,0.1-0.1,0.1-0.2,0.1c-0.2,0-0.4,0-0.7,0s-0.7,0-1,0h-0.1c-0.1,0-0.1,0-0.1,0.1s0,0.2,0,0.3
		s0,0.2,0,0.2c0,0.1,0,0.2,0.1,0.2c0.1,0,0.3,0,0.4,0h0.5c0.4,0,0.7-0.1,0.9-0.1h0.1h0.3c0.1,0,0.3,0,0.4,0.1c0,0,0,0,0,0.1v0.1
		c0,0,0,0,0,0.1l0,0v0.2v0.1c0,0,0,0.1,0,0.2s0,0.2,0,0.2v1.5c0,0.1,0,0.2,0,0.2v0.1c0,0-0.1,0.1-0.2,0.1h-0.6h-0.8h-0.2h-0.3H85h0
		c0,0.1,0,0.1,0,0.2c0,0.3,0,0.4,0.1,0.5c0.1,0,0.2,0,0.2,0h1h0.6c0.1,0,0.1,0,0.2,0h0.4h0.3c0.1,0,0.1,0.2,0.1,0.7
		c0,0.7,0,0.2,0,0.4c0,0.2,0,0.4,0,0.5c0,0.3,0,0.6,0,0.9l0,0h-5.8c-0.1,0-0.1-0.2-0.1-0.4c0-0.5,0-0.9-0.1-1.4c0,0,0-0.1,0-0.3
		c0-0.2,0-0.3,0-0.5v-0.6c0-0.1,0-0.2,0-0.3c0-0.1,0-0.2,0-0.2v-0.1c0-0.1,0-0.2,0-0.3s0-0.2,0-0.3c0-0.2,0-0.4,0-0.7
		c0-0.1,0-0.1,0-0.2c0-0.1,0-0.2,0-0.3c0-0.3-0.1-0.6-0.1-0.8c0-0.1,0-0.2,0-0.4c0-0.2,0-0.2,0-0.3c0-0.3-0.1-0.6-0.1-0.9
		c0-0.2,0-0.3,0-0.5V141l0,0c0,0,0,0,0-0.1c0-0.2,0-0.4,0.1-0.7h1.9L83.5,140.4z"/>
	<path class="st0" d="M100.3,140.2c0.1,0,0.3,0,0.4,0c0.1,0,0.2,0,0.3,0h0.1h0.1h0.1l0,0c0.1,0.3,0.1,0.5,0.1,0.8c0,0,0,0.1,0,0.2
		s0,0.1,0,0.2c0,0.1,0,0.3,0,0.5v0.2c0,0.5,0,0.8,0,1c0,0.1,0,0.2,0,0.3c0,0.1,0,0.3,0,0.7c0,0.1,0,0.1,0,0.2c0,0.1,0,0.1,0,0.2v0.1
		v0.1c0,0.5,0,0.8,0,0.9s0,0.2,0,0.5c0,0.2,0,0.5,0,0.7c0,0.1,0,0.3,0,0.4c0,0.1,0,0.1,0,0.2v0.1c0,0,0,0.1,0,0.2c0,0.1,0,0.2,0,0.3
		v0.3v0.1v0.1v0.1v0.4v0.1v0.1v0.1v0.5h-0.1h-0.2h-0.4h-0.4H100h-1.2c-0.1,0-0.1-0.1-0.1-0.2V148c0,0,0-0.1,0-0.2c0-0.1,0-0.1,0-0.2
		c0-0.1,0-0.1,0-0.2c0-0.1,0-0.1,0-0.2c0-0.1,0-0.2,0-0.3V146c0-0.1,0-0.1,0-0.2s0-0.2,0-0.2c0-0.1,0-0.1,0-0.2
		c0-0.1-0.1-0.2-0.1-0.2s-0.1,0.1-0.2,0.2c-0.1,0.1-0.1,0.2-0.2,0.3l-0.2,0.3l-0.1,0.2l-0.1,0.1l-0.1,0.1c0,0.1-0.1,0.1-0.2,0.2
		c-0.1,0.2-0.3,0.3-0.4,0.3c-0.1,0-0.3-0.2-0.5-0.5l-0.2-0.3l-0.2-0.2l-0.2-0.2c-0.1-0.1-0.1-0.1-0.1-0.1s0,0.1,0,0.2s0,0.1,0,0.1
		v0.1c0,0,0,0.3,0,0.4v0.1c0,0.2,0,0.4,0,0.6c0,0.5,0,1.2,0,1.9v0.2c0,0.1,0,0.1,0,0.2c-0.1,0-0.2,0-0.3,0h-0.4h-0.8h-0.3h-0.3
		c-0.1,0-0.1,0-0.2,0c0,0,0,0-0.1,0h-0.1l-0.1-0.1c0-0.1,0-0.2,0-0.2v-0.3c0-0.1,0-0.2,0-0.4c0-0.2,0-0.3,0-0.4c0-0.1,0-0.1,0-0.2
		s0-0.1,0-0.1v-0.5c0-0.2,0-0.5,0-0.9c0-0.3,0-0.7,0-1.1c0-0.6,0-0.1,0-0.2s0-0.1,0-0.2v-0.3c0,0,0-0.2,0-0.5c0-0.1,0-0.3,0-0.4
		v-0.4c0-0.1,0-0.2,0-0.3c0-0.1,0-0.2,0-0.3v-0.1c0-0.5,0-1-0.1-1.4c0,0,0-0.1,0-0.2c0-0.1,0-0.1,0-0.2s0-0.1,0-0.2
		c0-0.1,0-0.1,0-0.2s0.1-0.3,0.1-0.4h0.7c0.1,0,0.2,0,0.3,0.1h0.2c0.1,0,0.3,0.1,0.4,0.2l0.3,0.2c0.1,0.1,0.2,0.1,0.3,0.2l0.1,0.1
		c0.2,0.2,0.5,0.4,0.7,0.6c0.1,0.1,0.2,0.2,0.3,0.2c0.1,0.1,0.1,0.2,0.2,0.2c0.1,0.1,0.2,0.2,0.3,0.3l0.2,0.2l0.1,0.1
		c0,0,0.1,0,0.1-0.1l0.5-0.6l0.2-0.2l0.2-0.2c0.1-0.1,0.1-0.1,0.2-0.2l0.2-0.3l0.2-0.3l0.2-0.2c0.1-0.1,0.1-0.2,0.2-0.3
		c0.1-0.2,0.4-0.3,0.6-0.3h0.6L100.3,140.2z"/>
	<path class="st0" d="M105.6,140.6c0.2,0,0.4,0,0.6,0c0.1,0,0.3,0,0.4,0h0.1h0.1c0,0,0.1,0,0.1,0.1l0.1,0.1l0.2,0.3
		c0.1,0.2,0.2,0.3,0.2,0.4c0,0.1,0.1,0.2,0.1,0.3c0,0,0.1,0.1,0.1,0.2c0.1,0.2,0.2,0.5,0.4,0.7c0,0.1,0.1,0.1,0.1,0.2l0.1,0.1
		l0.1,0.1l0.2,0.3c0.1,0.2,0.1,0.3,0.2,0.4c0.4,0.6,0.8,1.4,1.4,2.6s0.9,1.8,1,1.9c0,0.1,0.1,0.2,0.1,0.3c0,0.2,0.1,0.3,0.2,0.4
		c0.1,0.2,0.2,0.4,0.2,0.6l0,0l0,0h-0.3h-0.3h-0.3h-0.3h-0.4h-1.6h-0.2h-0.4h-0.1c-0.1-0.2-0.2-0.4-0.2-0.6c0-0.3-0.1-0.5-0.2-0.7
		l-0.1-0.2H107h-0.3h-0.4h-1.5l0,0v0.1v0.1c-0.1,0.4-0.3,0.7-0.5,1.1c-0.1,0.1-0.1,0.2-0.2,0.2h-0.3c-0.1,0-0.1,0-0.2,0H103
		c-0.1,0-0.3,0-0.4,0c-0.2,0-0.4,0-0.6,0h-0.2h-0.1h-0.3c-0.1,0-0.2,0-0.2-0.1l0,0v-0.1l0.1-0.3l0.1-0.2c0-0.1,0.1-0.2,0.1-0.4v-0.1
		l0.1-0.2l0.1-0.2l0.2-0.5c0-0.1,0.1-0.2,0.1-0.3l0.1-0.1l0,0l0,0v-0.1c0.1-0.1,0.1-0.3,0.2-0.4c0-0.1,0.1-0.2,0.1-0.3
		c0.1-0.1,0.1-0.3,0.1-0.4c0-0.1,0.1-0.3,0.1-0.3c0-0.1,0.1-0.1,0.1-0.2v-0.1v-0.1v-0.1l0.1-0.3l0.1-0.4c0-0.1,0-0.1,0.1-0.2
		l0.1-0.2c0.1-0.2,0.2-0.5,0.2-0.7v-0.1v-0.1V143c0-0.1,0.1-0.3,0.2-0.4l0.1-0.3c0-0.1,0.1-0.1,0.1-0.2V142v-0.1l0.1-0.4
		c0.1-0.3,0.2-0.5,0.3-0.8c0-0.1,0.1-0.2,0.3-0.2h1L105.6,140.6z M106,144.3c0-0.1-0.1-0.2-0.1-0.2l0,0
		C105.9,144.1,105.9,144.1,106,144.3l-0.2,0.2c0,0.1-0.1,0.3-0.1,0.4c-0.1,0.4-0.2,0.6-0.2,0.7v0.2v0.1v0.1l0,0v0.1
		c0.3,0.1,0.7,0.1,1,0.1h0.3c0.1,0,0.2,0,0.2,0l0,0c0-0.2-0.1-0.3-0.2-0.4c-0.1-0.1-0.1-0.3-0.2-0.4l-0.1-0.1l-0.1-0.2l-0.1-0.1
		l-0.1-0.2v-0.1L106,144.3z"/>
	<path class="st0" d="M113.8,146.3c0,0.1,0,0.2,0,0.3c0,0.2,0,0.4,0,0.7c0,0.3,0,0.5,0,0.6s0,0.1,0,0.2c0,0.1,0,0.2,0,0.3v0.2v0.2
		c0,0.2,0,0.3,0,0.5v0.1c0,0.1-0.1,0.1-0.1,0.2c-0.1,0-0.2,0.1-0.3,0.1c-0.5,0-0.9,0-1.1,0h-0.4c-0.1,0-0.2,0-0.3,0h-0.1
		c-0.2,0-0.4,0-0.6-0.1c-0.1-0.1-0.1-0.2-0.1-0.3V149c0-0.1,0-0.2,0-0.4c0-0.2,0-0.2,0-0.2c0-0.2,0-0.5,0-0.7v-0.2
		c0-0.1,0-0.2,0-0.3c0-0.1,0-0.2,0-0.3c0-0.1,0-0.3,0-0.5c0-0.2,0-0.2,0-0.4c0-0.1,0-0.1,0-0.2v-0.6c0-1.9,0-3.3-0.1-4.3
		c0-0.1,0-0.3,0-0.7V140c0-0.1,0-0.2,0.1-0.2c0.2-0.1,0.5-0.1,0.7-0.1c0.1,0,0.1,0,0.2,0h0.7c0.4,0,0.8,0,1.1,0h0.4l0,0h0.1h0.8h0.8
		c0.1,0,0.2,0,0.3,0.1l0.2,0.1l0.2,0.1c0.1,0,0.2,0.1,0.2,0.1c0.2,0.1,0.4,0.2,0.5,0.3l0.2,0.1c0.4,0.2,0.5,0.4,0.5,0.4l0.1,0.2
		c0.1,0.2,0.2,0.4,0.3,0.6c0,0.1,0,0.2,0.1,0.2v0.2c0,0.1,0,0.1,0,0.2v0.5c-0.1,0.6-0.2,1.1-0.4,1.6c-0.1,0.4-0.3,0.7-0.7,1
		c-0.4,0.2-0.8,0.4-1.2,0.4c-0.6,0.1-1.1,0.2-1.6,0.2C114.2,146.1,114,146.2,113.8,146.3z M114.9,142.3c-0.3,0-0.5,0-0.8,0h-0.6v0.6
		c0,0,0,0.1,0,0.2s0,0.2,0,0.2v0.1v0.1c0,0,0,0.1,0,0.2c0,0.1,0,0.1,0,0.2v0.1c0,0,0.1,0.1,0.2,0.1h0.5l0.5-0.1c0.1,0,0.2,0,0.2-0.1
		c0.1,0,0.1-0.1,0.2-0.1c0.1-0.1,0.1-0.2,0.2-0.4c0.1-0.2,0.1-0.3,0.1-0.5c0-0.1,0-0.2,0-0.2l0,0c0-0.1-0.1-0.2-0.1-0.3
		C115.2,142.4,115.1,142.4,114.9,142.3L114.9,142.3L114.9,142.3z"/>
	<path class="st0" d="M121.2,140.6c0.2,0,0.4,0,0.6,0c0.1,0,0.3,0,0.4,0h0.1h0.1c0,0,0.1,0,0.1,0.1l0.1,0.1l0.2,0.3
		c0.1,0.2,0.2,0.3,0.2,0.4c0,0.1,0.1,0.2,0.1,0.3c0,0,0.1,0.1,0.1,0.2c0.1,0.2,0.2,0.5,0.4,0.7c0,0.1,0.1,0.1,0.1,0.2l0.1,0.1
		l0.1,0.1l0.2,0.3c0.1,0.2,0.1,0.3,0.2,0.4c0.4,0.6,0.8,1.4,1.4,2.6c0.6,1.1,0.9,1.8,1,1.9c0,0.1,0.1,0.2,0.1,0.3
		c0,0.2,0.1,0.3,0.2,0.4c0.1,0.2,0.2,0.4,0.2,0.6l0,0l0,0h-0.3h-0.3h-0.3h-0.3h-0.4h-1.6h-0.2h-0.2h-0.1c-0.1-0.2-0.2-0.4-0.2-0.6
		c0-0.3-0.1-0.5-0.2-0.7l-0.1-0.2h-0.2h-0.3H122h-1.4l0,0v0.1v0.1c-0.1,0.4-0.3,0.7-0.5,1.1c-0.1,0.1-0.1,0.2-0.2,0.2h-0.3
		c-0.1,0-0.1,0-0.2,0h-0.8c-0.1,0-0.3,0-0.4,0c-0.2,0-0.4,0-0.6,0h-0.2h-0.1h-0.3c-0.1,0-0.2,0-0.2-0.1l0,0v-0.1l0.1-0.3l0.1-0.2
		c0-0.1,0.1-0.2,0.1-0.4v-0.1l0.1-0.2l0.1-0.2l0.2-0.5c0.1-0.1,0.1-0.1,0.2-0.2l0.1-0.1l0,0l0,0V147c0.1-0.1,0.1-0.3,0.2-0.4
		c0-0.1,0.1-0.2,0.1-0.3c0.1-0.1,0.1-0.3,0.1-0.4c0-0.1,0.1-0.3,0.1-0.3c0-0.1,0.1-0.1,0.1-0.2v-0.1v-0.1v-0.1l0.1-0.3l0.1-0.4
		c0-0.1,0-0.1,0.1-0.2l0.1-0.2c0.1-0.2,0.2-0.5,0.2-0.7v-0.1v-0.1v-0.1c0-0.1,0.1-0.3,0.2-0.4l0.1-0.3c0-0.1,0.1-0.1,0.1-0.2v-0.1
		V142l0.1-0.4c0.1-0.3,0.2-0.5,0.3-0.8c0-0.1,0.1-0.2,0.3-0.2H121.2L121.2,140.6z M121.5,144.3c0-0.1-0.1-0.2-0.1-0.2l0,0
		C121.4,144.1,121.4,144.1,121.5,144.3l-0.2,0.2c0,0.1-0.1,0.3-0.1,0.4c-0.1,0.4-0.2,0.6-0.2,0.7v0.2v0.1v0.1l0,0v0.1
		c0.3,0.1,0.7,0.1,1,0.1h0.3c0.1,0,0.2,0,0.2,0l0,0c0-0.2-0.1-0.3-0.2-0.4c-0.1-0.1-0.1-0.3-0.2-0.4l-0.1-0.1l-0.1-0.2l-0.1-0.1
		l-0.1-0.2v-0.1L121.5,144.3z"/>
	<path class="st0" d="M135.1,140.4h0.6h0.4h0.1l0.1,0.1v0.1c-0.1,0.3-0.2,0.5-0.4,0.7l-0.1,0.1l-0.1,0.1l0,0l-0.1,0.1l-0.1,0.1
		c-0.2,0.4-0.4,0.8-0.4,1.2c0,0.1,0,0.3,0,0.4s0,0.2,0,0.3c0,0.2,0.1,0.4,0.2,0.6c0.1,0.2,0.3,0.4,0.4,0.6c0.3,0.5,0.5,0.7,0.6,0.8
		c0,0.1,0.1,0.2,0.2,0.2l0.1,0.2c0,0.1,0.1,0.1,0.1,0.2c0,0.1,0.1,0.3,0.1,0.4c0,0.1,0,0.1,0,0.2c0,0.2-0.1,0.5-0.2,0.7
		c0,0.1-0.1,0.1-0.1,0.2l-0.3,0.6c-0.1,0.2-0.2,0.3-0.3,0.5c-0.1,0.2-0.2,0.4-0.3,0.6c-0.1,0.2-0.2,0.3-0.2,0.3h-0.7H134
		c-0.1,0-0.2,0-0.3,0h-2v-0.1v-0.1v-0.1c0-0.1,0.2-0.3,0.6-0.6c0.1-0.1,0.2-0.2,0.3-0.3c0.1-0.1,0.2-0.2,0.2-0.3
		c0.1-0.1,0.1-0.2,0.2-0.3c0.1-0.1,0.1-0.2,0.2-0.3l0.2-0.3c0.1-0.1,0.2-0.3,0.2-0.5l0,0c0-0.4-0.2-0.8-0.5-1.1
		c-0.4-0.3-0.7-0.7-1-1.1c0-0.1-0.1-0.1-0.1-0.2c-0.1-0.2-0.1-0.4-0.1-0.5s0-0.1,0-0.2c0-0.1,0-0.1,0-0.2c0,0,0,0,0-0.1
		c0-0.1,0-0.1,0-0.1s0-0.2,0.1-0.5c0.1-0.3,0.2-0.6,0.4-0.9l0.1-0.3l0.1-0.1c0.1-0.1,0.1-0.2,0.2-0.3c0-0.1,0.1-0.2,0.1-0.2
		s0,0,0.1-0.1l0.1-0.1l0.1-0.1h1c0.2,0,0.3,0,0.5,0c0.1,0,0.2,0,0.3,0L135.1,140.4z"/>
	<path class="st0" d="M141.7,140.7c0.1,0.1,0.1,0.1,0.2,0.1l0.1,0.1l0.1,0.1l0.2,0.1h0.1c0.1,0,0.3,0.1,0.4,0.2l0.1,0.1l0.1,0.1
		l0.3,0.3l0.3,0.3c0.2,0.2,0.4,0.4,0.5,0.7l0.1,0.3c0.1,0.3,0.2,0.6,0.3,0.9v0.1c0.1,0.3,0.1,0.6,0.1,0.9c0,0.1,0,0.2,0,0.3v0.1
		c0,0.1-0.1,0.3-0.1,0.4c-0.1,0.2-0.1,0.4-0.1,0.5v0.1v0.1c0,0.1,0,0.1-0.1,0.2c0,0.1,0,0.1-0.1,0.2c-0.1,0.2-0.1,0.3-0.2,0.5
		l-0.1,0.1l-0.1,0.1c0,0.1-0.1,0.1-0.1,0.2c-0.1,0-0.2,0.1-0.3,0.4c-0.1,0.1-0.1,0.2-0.2,0.3c-0.1,0.1-0.2,0.2-0.3,0.2l0,0l0,0
		c0,0.1-0.1,0.1-0.2,0.2l-0.2,0.2c-0.1,0.1-0.2,0.2-0.4,0.2l0,0l0,0H142h-0.1c-0.2,0.1-0.4,0.2-0.6,0.2h-0.5h-0.3
		c-0.1,0-0.2,0-0.4-0.1l-0.4-0.1h-0.2c-0.1,0-0.3-0.1-0.4-0.2c-0.2-0.1-0.3-0.2-0.4-0.3c-0.1-0.1-0.2-0.2-0.3-0.3l-0.3-0.3
		c-0.1-0.1-0.2-0.3-0.2-0.4l-0.2-0.4l-0.2-0.5c-0.1-0.2-0.2-0.4-0.2-0.5v-0.1v-0.1c0-0.1,0-0.2-0.1-0.3c0-0.1,0-0.2-0.1-0.3
		c0-0.1,0-0.2,0-0.4c0-0.2,0-0.2,0-0.2c0-0.2,0-0.4,0-0.7c0-0.8,0.2-1.6,0.5-2.4c0-0.1,0.1-0.1,0.1-0.2l0.1-0.2
		c0-0.1,0.1-0.2,0.2-0.3c0.1-0.1,0.2-0.2,0.3-0.3c0.3-0.3,0.6-0.5,1-0.6c0.4-0.2,0.9-0.2,1.4-0.2h0.1
		C141.1,140.4,141.4,140.5,141.7,140.7z M141.1,144c-0.1,0-0.2,0-0.2,0h-0.2c-0.1,0.1-0.2,0.1-0.3,0.2c-0.4,0.4-0.7,1-0.7,1.6
		c0,0.1,0,0.1,0,0.2c0,0.2,0.1,0.4,0.3,0.6c0.1,0.1,0.1,0.2,0.3,0.2c0.1,0.1,0.2,0.1,0.3,0.1s0.1,0,0.2,0c0.1,0,0.2-0.1,0.3-0.2
		c0.1-0.1,0.1-0.2,0.2-0.3l0.1-0.2c0.1-0.1,0.1-0.3,0.2-0.4c0-0.2,0-0.4,0-0.5c0-0.2,0-0.5-0.1-0.7c0-0.1-0.1-0.2-0.1-0.3
		C141.3,144.1,141.2,144.1,141.1,144L141.1,144z"/>
	<path class="st0" d="M145.7,140.4c0.1,0.1,0.3,0.2,0.4,0.3l0.2,0.1c0.7,0.4,1.4,0.8,2,1.3l0.9,0.5c0.3,0.1,0.6,0.3,0.9,0.5
		c0.1,0.1,0.5,0.3,1.3,0.7s1.1,0.6,1.2,0.6h0.1v-0.1c0-0.1,0-0.2,0-0.4c0-0.2,0-0.4,0-0.6v-0.1c0,0,0-0.1,0-0.2c0-0.1,0-0.2,0-0.2
		s0-0.2,0-0.3c0-0.1,0-0.2,0-0.2c0-0.1,0-0.2,0-0.4c0-0.2,0-0.3,0-0.5c0-0.4,0-0.8,0-1.1c0-0.5,0-0.1,0.1-0.1h0.2h0.3h0.4h0.8h0.6
		c0.1,0,0.2,0,0.3,0.1c0,0,0,0.4,0,1.2v1.8c0,0.1,0,0.2,0,0.3c0,0.2,0,0.3,0,0.3c0,0.1,0,0.2,0,0.3c0,0.2,0,0.5,0,0.9v0.5
		c0,0.1,0,0.3,0,0.5c0,0.2,0,0.4,0,0.5v0.3c0,0.3,0,0.7,0,1v1.2c0,0.3-0.1,0.4-0.2,0.4c-0.1,0-0.3-0.1-0.4-0.1
		c-0.1,0-0.2-0.1-0.2-0.1l-0.8-0.4c-0.4-0.2-0.8-0.4-1.2-0.6l-0.3-0.1c-0.1-0.1-0.2-0.1-0.3-0.2c-0.6-0.2-1.1-0.4-1.6-0.7l-0.7-0.3
		l-0.3-0.1c-0.2-0.1-0.3-0.1-0.5-0.1h-0.1l0,0v0.1v0.1c0,0.1,0,0.1,0,0.2c0,0.2,0,0.4,0,0.6c0,0.1,0,0.2,0,0.4c0,0.1,0,0.3,0,0.4
		v0.1c0,0,0,0.1,0,0.2c0,0.1,0,0.1,0,0.1v0.1c0,0.1,0,0.1,0,0.2s0,0.1,0,0.2v0.1h-3.4c0-0.1,0-0.2,0-0.3c0-0.2,0-0.5,0-0.9v-1.7
		c0-0.5,0-0.8,0-0.9c0-0.2,0-0.5,0-0.9v-0.8c0-0.3,0-0.6,0-1s0-0.9,0-1.4v-0.6c0,0,0-0.1,0-0.2s0-0.2,0-0.2v-0.1c0-0.1,0-0.1,0-0.2
		c0-0.1,0.1-0.2,0.2-0.2C145.5,140.2,145.7,140.3,145.7,140.4z"/>
	<path class="st0" d="M160.5,140.7c0.1,0.1,0.1,0.1,0.2,0.1l0.1,0.1l0.1,0.1l0.2,0.1h0.1c0.1,0,0.3,0.1,0.4,0.2l0.1,0.1l0.1,0.1
		l0.3,0.3l0.3,0.3c0.2,0.2,0.4,0.4,0.5,0.7l0.1,0.3c0.1,0.3,0.2,0.6,0.3,0.9v0.1c0.1,0.3,0.1,0.6,0.1,0.9c0,0.1,0,0.2,0,0.3v0.1
		c0,0.1-0.1,0.3-0.1,0.4c-0.1,0.3-0.1,0.4-0.1,0.5v0.1v0.1c0,0.1,0,0.1-0.1,0.2l-0.1,0.2c-0.1,0.2-0.1,0.3-0.2,0.5l-0.1,0.1
		l-0.1,0.1c0,0.1-0.1,0.1-0.1,0.2c-0.1,0-0.2,0.1-0.3,0.4c-0.1,0.1-0.2,0.2-0.3,0.3c-0.1,0.1-0.2,0.2-0.3,0.2l0,0l0,0
		c0,0.1-0.1,0.1-0.2,0.2l-0.3,0.2c-0.1,0.1-0.2,0.2-0.4,0.2l0,0l0,0h-0.1h-0.1c-0.2,0.1-0.4,0.2-0.6,0.2h-0.5h-0.1
		c-0.1,0-0.2,0-0.4-0.1l-0.4-0.1h-0.2c-0.1,0-0.3-0.1-0.4-0.2c-0.2-0.1-0.3-0.2-0.4-0.3c-0.1-0.1-0.2-0.2-0.3-0.3l-0.3-0.3
		c-0.1-0.1-0.2-0.3-0.2-0.4l-0.2-0.4l-0.2-0.5c-0.1-0.2-0.2-0.4-0.2-0.5v-0.1v-0.1c0-0.1,0-0.2-0.1-0.3c0-0.1,0-0.2-0.1-0.3
		c0-0.1,0-0.2,0-0.4c0-0.2,0-0.2,0-0.2c0-0.2,0-0.4,0-0.7c0-0.8,0.2-1.6,0.5-2.4c0-0.1,0.1-0.1,0.1-0.2l0.1-0.2
		c0-0.1,0.1-0.2,0.2-0.3s0.2-0.2,0.3-0.3c0.3-0.3,0.6-0.5,1-0.6c0.4-0.2,0.9-0.2,1.4-0.2h0.1C159.8,140.4,160.2,140.5,160.5,140.7z
		 M159.8,144c-0.1,0-0.2,0-0.2,0h-0.2c-0.1,0.1-0.2,0.1-0.3,0.2c-0.4,0.4-0.7,1-0.7,1.6c0,0.1,0,0.1,0,0.2c0,0.2,0.1,0.4,0.3,0.6
		c0.1,0.1,0.1,0.2,0.3,0.2c0.1,0.1,0.2,0.1,0.3,0.1c0.1,0,0.1,0,0.2,0c0.1,0,0.2-0.1,0.3-0.2c0.1-0.1,0.1-0.2,0.2-0.3l0.1-0.2
		c0.1-0.1,0.1-0.3,0.2-0.4c0-0.2,0-0.4,0-0.5c0-0.3,0-0.5-0.1-0.8c0-0.1-0.1-0.2-0.1-0.3C160,144.1,160,144,159.8,144L159.8,144z"/>
	<path class="st0" d="M168.4,140.7c0.3,0,0.6,0,0.9,0l0.3,0.1c0.1,0,0.3,0.1,0.4,0.2c0.1,0.1,0.3,0.1,0.4,0.2
		c0.2,0.3,0.4,0.7,0.4,1.1c0,0.1,0,0.2,0,0.3c0,0.2,0,0.4-0.1,0.6c-0.1,0.5-0.3,1-0.7,1.4c0,0.1-0.1,0.1-0.1,0.2
		c0,0.1-0.1,0.1-0.2,0.2c-0.1,0.1-0.1,0.1-0.1,0.2l-0.1,0.2l-0.1,0.1c0.1,0.2,0.3,0.4,0.5,0.6c0.2,0.2,0.4,0.4,0.6,0.6l0.5,0.4
		l0.3,0.2c0.5,0.5,0.9,0.9,1,1c0.4,0.3,0.7,0.6,0.9,0.8l0.2,0.2c0.1,0.1,0.2,0.2,0.2,0.2s-0.1,0.1-0.4,0.1h-0.4h-0.3h-0.2h-0.6
		c-0.5,0.1-1.1,0.1-1.6,0.1H170c-0.3-0.2-0.6-0.5-0.8-0.8l-0.1-0.1l-0.1-0.1l-0.2-0.2l-0.2-0.3l-0.3-0.2l-0.5-0.6
		c-0.1-0.1-0.2-0.2-0.3-0.3l-0.2-0.3c0-0.1-0.1-0.1-0.1-0.1s0,0.3,0,0.8s0,0.8,0,0.9v0.1l0,0c0,0,0,0.2,0,0.4c0,0.2,0,0.4,0,0.4
		h-0.7h-1h-1.2c-0.2,0-0.4,0-0.6,0c0,0-0.1-0.2-0.1-0.5v-0.3c0-0.1,0-0.2,0-0.4c0-0.1,0-0.7-0.1-1.7c-0.1-1.5,0-0.1,0-0.2
		c0-0.1,0-0.2,0-0.3s0-0.1,0-0.2v-0.1c0-0.1,0-0.1,0-0.2s0-0.4-0.1-0.8c0-0.3,0-0.5-0.1-0.8c0,0,0-0.2,0-0.5c0-0.3,0-0.5,0-0.7v-0.1
		c0-0.2,0-0.4,0-0.5c0-0.2,0-0.5,0-0.7c0-0.3,0-0.5,0-0.6c0-0.1,0.1-0.1,0.1-0.2c0.1,0,0.2-0.1,0.3-0.1L168.4,140.7L168.4,140.7z
		 M168.1,142.5h-0.2h-0.3c-0.2,0-0.3,0-0.3,0v0.1c0,0,0,0,0,0.1v0.1c0,0.2,0,0.4,0.1,0.6c0,0,0,0.1,0,0.3c0,0.1,0,0.2,0,0.3
		c0,0,0,0.2,0,0.4c0,0.1,0,0.2,0,0.3l0,0c0.1,0,0.3-0.2,0.5-0.6c0.2-0.3,0.4-0.7,0.4-1.1c0-0.1,0-0.2-0.1-0.3
		C168.1,142.5,168.1,142.5,168.1,142.5L168.1,142.5z"/>
	<path class="st0" d="M175.6,140.4h0.3c0.1,0,0.3,0,0.4,0h0.4c0.3,0,0.5,0,0.8,0.1c0.3,0.1,0.5,0.2,0.7,0.3l0.3,0.2l0.6,0.4
		c0.2,0.1,0.4,0.3,0.6,0.5c0.2,0.2,0.4,0.4,0.5,0.6l0.1,0.1c0.1,0.2,0.2,0.4,0.3,0.6c0,0.1,0.1,0.2,0.1,0.3c0.1,0.2,0.2,0.5,0.2,0.8
		c0,0.1,0,0.2,0,0.5c0,0.4,0,0.7,0,0.8c-0.1,0.3-0.1,0.5-0.2,0.8s-0.1,0.4-0.2,0.5c0,0.1-0.1,0.1-0.1,0.2s0,0.1-0.1,0.2
		c0,0.2-0.1,0.3-0.2,0.4c-0.1,0.1-0.3,0.4-0.6,0.8c-0.3,0.3-0.7,0.6-1.1,0.8c-0.5,0.2-1,0.3-1.5,0.4c-0.3,0-0.6,0.1-0.9,0.1h-0.2
		c-0.3,0-0.6-0.1-0.9-0.1c-0.2,0-0.5-0.1-0.7-0.2c-0.2-0.1-0.4-0.2-0.6-0.3l-0.1-0.1c-0.3-0.3-0.6-0.6-0.9-0.9l-0.3-0.4l-0.2-0.3
		c-0.3-0.6-0.5-1.2-0.7-1.8c0-0.2-0.1-0.3-0.1-0.5c0-0.1,0-0.3,0-0.4c0-0.1,0-0.2,0.1-0.3c0-0.2,0.1-0.4,0.2-0.7v-0.1v-0.1v-0.1
		c0-0.2,0.1-0.3,0.2-0.4c0.1-0.2,0.2-0.3,0.4-0.5c0.1-0.1,0.1-0.1,0.2-0.2l0.3-0.3l0.2-0.3c0.3-0.3,0.6-0.5,0.9-0.7l0.4-0.2
		C174.7,140.5,175.2,140.4,175.6,140.4z M176.3,143.5h-0.4h-0.1h-0.1c-0.1,0-0.3,0.1-0.4,0.2c-0.2,0.1-0.3,0.3-0.4,0.5
		c-0.1,0.2-0.2,0.4-0.2,0.7v0.2l0,0c0,0.2,0,0.4,0.1,0.7c0,0.3,0.2,0.6,0.4,0.8c0.1,0.1,0.3,0.2,0.4,0.2c0.1,0,0.2,0,0.4,0
		c0.2,0,0.4,0,0.6-0.1l0.2-0.1c0.1-0.1,0.2-0.2,0.3-0.3c0.1-0.1,0.1-0.1,0.2-0.2c0-0.1,0-0.1,0.1-0.2c0.1-0.2,0.2-0.4,0.2-0.6
		c0-0.1,0-0.2,0-0.3v-0.1c0-0.1,0-0.1,0-0.2s0-0.2-0.1-0.3c-0.1-0.3-0.1-0.4-0.2-0.4l-0.2-0.1c-0.1-0.1-0.2-0.1-0.3-0.2h-0.1h-0.1
		l0,0l0,0L176.3,143.5z"/>
	<path class="st0" d="M187.1,140.2h0.3h0.6l0.7,0.1c0.1,0,0.3,0.1,0.4,0.1c0.4,0.1,0.8,0.2,1.2,0.4c0.3,0.1,0.6,0.2,0.9,0.4
		c0.4,0.2,0.7,0.6,0.9,1c0.1,0.3,0.1,0.5,0.1,0.8c0,0.6-0.1,1.1-0.4,1.6v0.1l0,0c0,0.1-0.1,0.1-0.1,0.2c-0.1,0.2-0.3,0.3-0.4,0.5
		c-0.1,0.2-0.3,0.3-0.5,0.4c-0.1,0.1-0.3,0.1-0.4,0.2l-0.6,0.2c-0.1,0-0.2,0.1-0.3,0.1c-0.1,0.4-0.1,0.8-0.1,1.2s0,0.8,0,1.1
		c0,0.4,0,0.6,0,0.8c0,0.2,0,0.3-0.1,0.4h-0.7l-0.7-0.1c-0.2,0-0.3,0-0.5,0.1h-0.9h-0.2h-0.1c0,0-0.1,0-0.1-0.1v-0.1v-0.1
		c0,0,0-0.1,0-0.2c0-0.1,0-0.1,0-0.2s0-0.3,0-0.4v-0.1v-0.1c0,0,0-0.1,0-0.2s0-0.3,0-0.4v-1c0-0.1,0-0.3,0-0.6s0-0.5,0-0.6
		c0-0.2,0-0.3,0-0.5v-0.4c0-0.1,0-0.2,0-0.3c0-0.1,0-0.2,0-0.4c0-0.2,0-0.3,0-0.3c0-0.1,0-0.1,0-0.2c0-0.1,0-0.1,0-0.2
		c0,0,0-0.1,0-0.2s0-0.1,0-0.1v-0.4c0-0.4,0-0.8,0-1.1s0-0.7,0-1c0-0.1,0-0.2,0.1-0.3c0.1,0,0.1-0.1,0.2-0.1h0.2L187.1,140.2z
		 M189.2,142.7L189.2,142.7c-0.2,0-0.2,0-0.3,0c0,0.1-0.1,0.1-0.1,0.2s0,0.3,0,0.4c0,0.3,0,0.6,0.1,0.8c0,0,0,0,0.1,0h0.1h0.1h0.1
		c0.1,0,0.1,0,0.2-0.1h0.1c0.1,0,0.2-0.1,0.2-0.2c0.1-0.1,0.1-0.2,0.2-0.3c0-0.1,0.1-0.2,0.1-0.3s0-0.3-0.1-0.4
		C189.7,142.8,189.5,142.7,189.2,142.7L189.2,142.7z"/>
	<path class="st0" d="M196.5,140.4c0.5,0,0.9,0,1,0.1c0.1,0,0.1,0.1,0.2,0.1c0,0.1,0,0.1,0.1,0.2l0.1,0.2l0.1,0.2
		c0,0.1,0.1,0.2,0.1,0.2c0.1,0.3,0.2,0.7,0.3,1c0.1,0.3,0.2,0.6,0.2,0.7l0.1,0.6c0.1,0.4,0.1,0.6,0.1,0.7v0.3v0.2c0,0.1,0,0.1,0,0.2
		v0.2v0.2l0.1,0.3l0.1,0.4l0.1,0.4c0,0.1,0,0.1,0.1,0.2v0.2l0.1,0.5c0,0.2,0.1,0.3,0.1,0.4l0.1,0.3c0,0.2,0.1,0.5,0.2,0.7
		c0,0.1,0.1,0.3,0.2,0.4c0,0,0,0,0,0.1c0,0.1,0,0.1,0,0.2s-0.1,0.1-0.2,0.1h-1.8h-0.5c-0.1,0-0.2,0-0.3,0h-0.2c0,0,0-0.1-0.1-0.3
		c-0.1-0.2-0.1-0.3-0.1-0.4l-0.1-0.5c-0.5,0.1-1,0.1-1.6,0.1h0.1h-0.3h-0.4H194v0.1v0.1v0.1v0.1l0,0l0,0l0,0c0,0.1-0.1,0.2-0.1,0.2
		c-0.1,0.2-0.2,0.4-0.2,0.4c-0.1,0-0.2,0-0.3,0c-0.2,0-0.4,0-0.6,0h-0.2H192l-0.6-0.1H191c-0.2,0-0.3,0-0.3-0.1v-0.1
		c0-0.2,0.1-0.3,0.2-0.4c0.3-0.7,0.5-1.2,0.7-1.5c0.4-0.7,0.8-1.5,1.2-2.3V145l0,0l0.4-0.6c0.1-0.3,0.3-0.5,0.3-0.7l0.2-0.4l0.1-0.2
		c0-0.1,0.1-0.1,0.1-0.2v-0.1l0.1-0.1l0.1-0.1c0.2-0.4,0.4-0.8,0.7-1.2l0.3-0.5v-0.1v-0.1l0,0h0.1h0.6L196.5,140.4z M194.8,146.3
		h1.4l-0.1-0.3l0,0v-0.1v-0.1l-0.1-0.5l-0.1-0.4c0-0.1,0-0.2,0-0.2s0,0,0-0.1h-0.1c-0.1,0.1-0.1,0.2-0.2,0.4l-0.2,0.4l-0.1,0.2v0.1
		v0.1c-0.1,0.1-0.1,0.1-0.1,0.2l-0.1,0.2l-0.1,0.1v0.1L194.8,146.3z"/>
	<path class="st0" d="M199.8,140.2L199.8,140.2h0.5h0.1h0.4h0.5c0.2,0,0.4,0.1,0.7,0.1c0.3,0,0.6,0,0.9,0.1l0.4,0.1
		c0.3,0.1,0.7,0.2,1,0.3c0.2,0.1,0.3,0.2,0.4,0.3c0.2,0.3,0.4,0.6,0.5,0.9c0,0.2,0.1,0.4,0.1,0.6c0,0.4-0.1,0.8-0.2,1.2
		c-0.1,0.1-0.2,0.2-0.3,0.3l-0.2,0.2c0,0.1-0.1,0.1-0.1,0.2s-0.1,0.1-0.1,0.2c-0.1,0.1-0.2,0.2-0.2,0.2s0.1,0.2,0.4,0.4
		c0.1,0.1,0.2,0.2,0.4,0.3l0.2,0.2l0.2,0.2l0.1,0.1l0.1,0.1c0.2,0.2,0.3,0.4,0.5,0.6l0.4,0.3c0.1,0.1,0.1,0.1,0.2,0.1
		c0.4,0.3,0.7,0.6,1,0.9c0.5,0.5,0.8,0.8,0.9,0.9c0.1,0.1,0.2,0.2,0.2,0.2v0.1c0,0.1,0,0.1-0.1,0.2h-3.5l-0.3-0.4l-0.4-0.5l-0.4-0.4
		c-0.1-0.2-0.3-0.4-0.4-0.5l-0.4-0.4l-0.3-0.2l-0.1-0.1l-0.1-0.1v-0.1l0,0v0.1v0.1v0.1c0,0,0,0.3,0.1,0.7s0.1,0.7,0.1,1.1v0.1
		c0,0.3,0,0.5,0,0.6s0,0.1-0.1,0.1h-2.3h-0.1h-0.1h-0.1v-0.1v-0.1v-0.1c0-0.1,0-0.2,0-0.3c0-0.4,0-0.9-0.1-1.5c-0.1-0.9,0-0.1,0-0.3
		v-0.4c0-0.5,0-0.7,0-0.8c0-0.2,0-0.3,0-0.5c0-0.2,0-0.3,0-0.5c0-0.3,0-0.2,0-0.6c0-0.1,0-0.2,0-0.3v-0.3c0-0.4,0-0.6,0-0.6v-0.2
		c0,0,0-0.2-0.1-0.6v-0.4v-0.3c0-0.1,0-0.2,0-0.3v-0.1v-0.1v-0.1v-0.1c0-0.1,0-0.1,0-0.1c0-0.1,0-0.2,0-0.3c0-0.1,0-0.3,0.1-0.4
		l0.1-0.1L199.8,140.2z M202.5,142.5c-0.1,0-0.2-0.1-0.3-0.1h-0.1c0,0,0,0-0.1,0c0,0.1,0,0.2,0,0.4c0,0.2,0,0.3,0,0.5
		c0,0.3,0,0.4,0.1,0.4h0.3c0.1,0,0.2,0,0.2-0.1c0.1,0,0.2-0.1,0.2-0.1c0.1-0.1,0.1-0.2,0.2-0.3c0-0.1,0.1-0.2,0.1-0.3l0,0
		c0-0.1-0.1-0.1-0.1-0.2s-0.1-0.1-0.2-0.1L202.5,142.5z"/>
	<path class="st0" d="M208.8,140.6c0.2,0,0.4,0,0.6,0c0.1,0,0.3,0,0.4,0h0.1h0.1c0,0,0.1,0,0.1,0.1v0.1l0.2,0.3
		c0.1,0.2,0.2,0.3,0.2,0.4c0,0.1,0.1,0.2,0.1,0.3c0,0,0.1,0.1,0.1,0.2c0.1,0.2,0.2,0.5,0.4,0.7c0,0.1,0.1,0.1,0.1,0.2l0.1,0.1
		l0.1,0.1l0.2,0.3c0.1,0.2,0.1,0.3,0.2,0.4c0.4,0.6,0.8,1.4,1.4,2.6c0.6,1.2,0.9,1.8,1,1.9c0,0.1,0.1,0.2,0.1,0.3
		c0,0.2,0.1,0.3,0.2,0.4c0.1,0.2,0.2,0.4,0.2,0.6l0,0l0,0h-0.3H214h-0.3h-0.3h-0.4h-1.6h-0.2h-0.2H211c-0.1-0.2-0.2-0.4-0.2-0.6
		c0-0.3-0.1-0.5-0.2-0.7l-0.1-0.2h-0.2H210h-0.4h-1.4l0,0v0.1v0.1c-0.1,0.4-0.3,0.7-0.5,1.1c-0.1,0.1-0.1,0.2-0.2,0.2h-0.2
		c-0.1,0-0.1,0-0.2,0h-0.6c-0.1,0-0.3,0-0.4,0c-0.2,0-0.4,0-0.6,0h-0.2h-0.1h-0.3c-0.1,0-0.2,0-0.2-0.1l0,0v-0.1l0.1-0.3l0.1-0.2
		c0-0.1,0.1-0.2,0.1-0.4v-0.1l0.1-0.2l0.1-0.2l0.2-0.5c0-0.1,0.1-0.2,0.1-0.3l0.1-0.1l0,0l0,0v-0.1c0.1-0.1,0.1-0.3,0.2-0.4
		c0-0.1,0.1-0.2,0.1-0.3c0.1-0.1,0.1-0.3,0.1-0.4c0-0.1,0.1-0.3,0.1-0.3c0-0.1,0.1-0.1,0.1-0.2v-0.1v-0.1v-0.1l0.1-0.3l0.1-0.4
		c0-0.1,0-0.1,0.1-0.2l0.1-0.2c0.1-0.2,0.2-0.5,0.2-0.7v-0.1v-0.1V143c0-0.1,0.1-0.3,0.2-0.4l0.1-0.3c0-0.1,0.1-0.1,0.1-0.2V142
		v-0.1l0.1-0.4c0.1-0.3,0.2-0.5,0.3-0.8c0-0.1,0.1-0.2,0.3-0.2L208.8,140.6L208.8,140.6z M209.2,144.3c0-0.1-0.1-0.2-0.1-0.2l0,0
		C209.1,144.1,209.1,144.1,209.2,144.3l-0.2,0.2c0,0.1-0.1,0.3-0.1,0.4c-0.1,0.4-0.2,0.6-0.2,0.7v0.2v0.1v0.1l0,0v0.1
		c0.3,0.1,0.7,0.1,1,0.1h0.3c0.1,0,0.2,0,0.2,0l0,0c0-0.2-0.1-0.3-0.2-0.4c-0.1-0.1-0.1-0.3-0.2-0.4l-0.1-0.1l-0.1-0.2V145l-0.1-0.2
		v-0.1L209.2,144.3z"/>
	<path class="st0" d="M223.3,140.6c0.2,0,0.4,0,0.6,0c0.1,0,0.3,0,0.4,0h0.1h0.1c0,0,0.1,0,0.1,0.1v0.1l0.2,0.3
		c0.1,0.2,0.2,0.3,0.2,0.4c0,0.1,0.1,0.2,0.1,0.3c0,0,0.1,0.1,0.1,0.2c0.1,0.2,0.2,0.5,0.4,0.7c0,0.1,0.1,0.1,0.1,0.2l0.1,0.1
		l0.1,0.1l0.2,0.3c0.1,0.2,0.1,0.3,0.2,0.4c0.4,0.6,0.8,1.4,1.4,2.6c0.6,1.1,0.9,1.8,1,1.9c0,0.1,0.1,0.2,0.1,0.3
		c0,0.2,0.1,0.3,0.2,0.4c0.1,0.2,0.2,0.4,0.2,0.6l0,0l0,0h-0.3h-0.3h-0.3h-0.3h-0.4h-1.6h-0.2h-0.2h-0.1c-0.1-0.2-0.2-0.4-0.2-0.6
		c0-0.3-0.1-0.5-0.2-0.7L225,148h-0.2h-0.3h-0.4h-1.4l0,0v0.1v0.1c-0.1,0.4-0.3,0.7-0.5,1.1c-0.1,0.1-0.1,0.2-0.2,0.2h-0.2
		c-0.1,0-0.1,0-0.2,0h-0.8c-0.1,0-0.3,0-0.4,0c-0.2,0-0.4,0-0.6,0h-0.2h-0.1h-0.3c-0.1,0-0.2,0-0.2-0.1l0,0v-0.1l0.1-0.3l0.1-0.2
		c0-0.1,0.1-0.2,0.1-0.4v-0.1l0.1-0.2l0.1-0.2l0.2-0.5c0.1-0.1,0.1-0.1,0.2-0.2l0.1-0.1l0,0l0,0V147c0.1-0.1,0.1-0.3,0.2-0.4
		c0-0.1,0.1-0.2,0.1-0.3c0.1-0.1,0.1-0.3,0.1-0.4c0-0.1,0.1-0.3,0.1-0.3c0-0.1,0.1-0.1,0.1-0.2v-0.1v-0.1v-0.1l0.1-0.3l0.1-0.4
		c0-0.1,0-0.1,0.1-0.2l0.1-0.2c0.1-0.2,0.2-0.5,0.2-0.7v-0.1v-0.1v-0.1c0-0.1,0.1-0.3,0.2-0.4l0.1-0.3c0-0.1,0.1-0.1,0.1-0.2v-0.1
		V142l0.1-0.4c0.1-0.3,0.2-0.5,0.3-0.8c0-0.1,0.1-0.2,0.3-0.2H223.3L223.3,140.6z M223.7,144.3c0-0.1-0.1-0.2-0.1-0.2l0,0
		C223.6,144.1,223.6,144.1,223.7,144.3l-0.2,0.2c0,0.1-0.1,0.3-0.1,0.4c-0.1,0.4-0.2,0.6-0.2,0.7v0.2v0.1v0.1l0,0v0.1
		c0.3,0.1,0.7,0.1,1,0.1h0.3c0.1,0,0.2,0,0.2,0l0,0c0-0.2-0.1-0.3-0.2-0.4c-0.1-0.1-0.1-0.3-0.2-0.4l-0.1-0.1l-0.1-0.2V145l-0.1-0.2
		v-0.1L223.7,144.3z"/>
	<path class="st0" d="M15.3,155c0.1,0,0.1,0,0.2,0c0.1,0,0.2,0,0.2,0h2h0.1h0.1c0,0,0.1,0,0.1,0.1c0,0.2,0,0.4,0,0.6
		c0,0.4,0,0.8,0,1.1v0.4c0,0.1,0,0.3,0,0.4c0,0.1,0,0.1,0,0.2s0,0.3,0,0.7c0,0.7,0,1,0,1.1c0,0.3,0.1,0.7,0.2,1
		c0,0.2,0.1,0.4,0.3,0.5h0.1c0.2,0,0.3-0.1,0.4-0.2c0.1-0.1,0.2-0.2,0.2-0.4c0-0.3,0-0.6,0-0.9s0-0.5,0-0.8l0,0v-0.1v-0.1l0,0v-0.1
		c0,0,0-0.1,0-0.2s0-0.1,0-0.2v-0.1c0-0.1,0-0.1,0-0.2c0,0,0-0.1,0-0.2c0-0.1,0-0.2,0-0.2v-0.2c0-0.1,0-0.1,0-0.2c0,0,0-0.1,0-0.2
		c0-0.1,0-0.1,0-0.2l0,0c0-0.1,0-0.2,0-0.4c0-0.2,0-0.3,0-0.5c0-0.2,0-0.4,0-0.4c0-0.1,0-0.2,0-0.3v0l0,0c0,0,0.1-0.1,0.2-0.1h0.2
		c0.2,0,0.4,0,0.6,0h0.6h0.4c0.2,0,0.3,0,0.4,0.1c0.1,0.3,0.1,0.7,0.1,1v1.1c0,0.3,0,0.5,0,0.8c0,0.2,0,0.5,0,0.8c0,0.2,0,0.4,0,0.5
		c0,0.1,0,0.6,0,1.1c0,0.5,0,0.7,0,1.1c0,0.1,0,0.2,0,0.4c0,0.2,0,0.4,0,0.4c0,0.2,0,0.4-0.1,0.6c0,0.1,0,0.2-0.1,0.3
		c0,0.1,0,0.1-0.1,0.2l-0.1,0.1v0.1c-0.1,0.1-0.2,0.2-0.3,0.3c-0.3,0.3-0.6,0.4-1,0.5c-0.1,0-0.1,0-0.2,0.1
		c-0.3,0.1-0.5,0.1-0.8,0.1h-0.4c-0.2,0-0.3,0-0.5,0c-0.1,0-0.1,0-0.2,0l-0.2-0.1c-0.1-0.1-0.2-0.1-0.4-0.2c-0.1,0-0.2-0.1-0.3-0.2
		l-0.2-0.1c-0.2-0.1-0.3-0.3-0.4-0.4l-0.1-0.1l-0.1-0.1c-0.2-0.3-0.4-0.6-0.4-1c0-0.1,0-0.2-0.1-0.4c-0.1-0.5-0.1-1-0.2-1.5
		c0-0.4,0-0.7-0.1-1c-0.1-0.5-0.1-0.9-0.1-1.4c0-0.4,0-0.7-0.1-1.1c0-0.2,0-0.3,0-0.5c0-0.1,0-0.2,0-0.4c0-0.2,0-0.3,0-0.4
		c0-0.1,0-0.3,0-0.3L15.3,155z"/>
	<path class="st0" d="M22.3,154.9h0.5c0.1,0,0.1,0.1,0.2,0.1l0.2,0.2l0.1,0.1l0.2,0.1c0.5,0.4,1,0.8,1.4,1.3l0.5,0.5
		c0.2,0.1,0.3,0.3,0.4,0.5c0.1,0.1,0.1,0.2,0.2,0.3c0.1,0.1,0.1,0.2,0.2,0.2s0,0,0,0v-0.2c0-0.1,0-0.2,0-0.4c0-0.2,0-0.5,0-0.5v-0.5
		c0-0.1,0-0.2,0-0.3s0-0.2,0-0.2s0-0.3,0-0.4c0-0.1,0-0.3,0-0.5v-0.1V155h0.1h0.1h0.7h0.3H28h0.5c0.1,0,0.2,0,0.3,0.1
		c0,0,0,0.4,0,1.2v1.8c0,0.1,0,0.2,0,0.3c0,0.2,0,0.3,0,0.3c0,0.1,0,0.2,0,0.3c0,0.2,0,0.5,0,0.9v0.4c0,0.1,0,0.3,0,0.5
		c0,0.2,0,0.4,0,0.5v0.3c0,0.3,0,0.7,0,1v1.2c0,0.3-0.1,0.4-0.2,0.4c-0.1,0-0.3-0.1-0.4-0.1c-0.1,0-0.2-0.1-0.2-0.1l-0.3-0.3
		l-0.2-0.2l-0.2-0.1L27,163c-0.1-0.1-0.2-0.1-0.3-0.2c-0.1-0.1-0.2-0.1-0.2-0.2c-0.3-0.2-0.5-0.4-0.7-0.7l-0.3-0.3l-0.1-0.1
		c0-0.1-0.1-0.1-0.2-0.1l0,0v0.2c0,0.1,0,0.1,0,0.2s0,0.3,0,0.5c0,0.1,0,0.3,0,0.4c0,0.1,0,0.2,0,0.3c0,0.1,0,0.1,0,0.2
		c0,0.1,0,0.1,0,0.2c0,0,0,0.1,0,0.2s0,0.1,0,0.1v0.1c0,0,0,0.1,0,0.2s0,0.1,0,0.2c0,0,0,0,0,0.1h-2.7c-0.1,0-0.2,0-0.2,0
		c0-0.1,0-0.2,0-0.3c0-0.2,0-0.5,0-0.9v-1.7c0-0.5,0-0.8,0-0.9c0-0.2,0-0.5,0-0.9v-0.8c0-0.3,0-0.6,0-1s0-0.9,0-1.4v-0.6
		c0,0,0-0.1,0-0.2c0-0.1,0-0.2,0-0.2v-0.1l0,0v-0.1v-0.1C22.3,154.9,22.3,154.9,22.3,154.9z"/>
	<path class="st0" d="M29.8,162.2L29.8,162.2c0-0.2,0-1.2-0.1-2.9s-0.1-2.6-0.1-2.6c-0.1-0.3-0.1-0.5-0.1-0.8v-0.1v-0.1
		c0-0.1,0-0.1,0.1-0.2l0.1-0.1h1.1h0.6h0.5h0.4c0.1,0,0.1,0,0.1,0v0.1c0,0,0,0.1,0,0.3v0.1c0,0.3,0,0.7,0,1.4c0,0.4,0,0.7,0.1,1.1
		c0,0,0,0.3,0,0.7s0,0.6,0,0.7c0,0.3,0,0.9,0.1,1.9c0,1,0.1,1.6,0.1,1.8c0,0.1,0,0.2,0,0.3c0,0.2-0.1,0.3-0.1,0.3
		c-0.3,0.1-0.6,0.1-0.9,0.1h-0.1h-0.3h-0.2H31c-0.2,0-0.5,0-0.7,0h-0.1c0,0-0.1-0.1-0.1-0.4C29.9,163.7,29.9,163.1,29.8,162.2z"/>
	<path class="st0" d="M33.1,155.2l0.8-0.1h0.2h2.1h0.1c0.2,0,0.3,0.1,0.4,0.4c0,0.1,0,0.1,0,0.2l0.1,0.4l0.5,1.6
		c0.1,0.4,0.3,0.8,0.4,1.2l0.1,0.2l0,0l0.2,0.6c0,0.1,0.1,0.3,0.1,0.4l0.1,0.3l0.1-0.3l0,0l0.1-0.2l0,0l0.1-0.2l0.1-0.4l0.1-0.4l0,0
		c0-0.1,0-0.3,0.1-0.4v-0.1v-0.1v-0.1V158v-0.1v-0.1v-0.1l0,0c0-0.1,0.1-0.3,0.1-0.4l0.2-0.7l0.2-0.6V156v0v-0.1l0,0l0,0l0.1-0.4
		c0-0.2,0.1-0.3,0.1-0.4s0.1,0,0.1,0h0.2H40h0.3c0.1,0,0.2,0,0.3,0h1.1h0.2h0.1c0.1,0,0.3,0,0.4,0c0.2,0,0.2,0,0.2,0.1v0.1v0.1v0.1
		v0.1c0,0.1,0,0.1,0,0.2c0,0.1,0,0.2-0.1,0.3l0,0l0,0v0.1v0.1l0,0l0,0l-0.2,0.5c-0.1,0.3-0.2,0.5-0.2,0.6l-0.2,0.4l0,0
		c0,0.1,0,0.1,0,0.2v0.1l0,0l-0.2,0.5c-0.1,0.3-0.2,0.5-0.3,0.7c-0.1,0.3-0.2,0.6-0.3,0.9c-0.1,0.4-0.2,0.7-0.3,0.9l-0.2,0.6
		c-0.1,0.2-0.1,0.3-0.2,0.5l-0.1,0.4l-0.2,0.6c-0.1,0.2-0.2,0.4-0.3,0.6c-0.1,0.2-0.2,0.3-0.3,0.3h-1.4c-0.2,0-0.4,0-0.6,0h-0.4
		l-0.1-0.1c-0.3-0.4-0.5-0.8-0.7-1.2s-0.4-0.8-0.6-1.2l0,0l0,0c0-0.1-0.1-0.2-0.1-0.3c-0.2-0.3-0.4-0.7-0.5-1
		c-0.1-0.3-0.3-0.7-0.4-1c0-0.1,0-0.2-0.1-0.4l-0.1-0.2v-0.1v-0.1v-0.1v-0.1c0,0,0-0.1-0.1-0.1V158l0,0l-0.1-0.3l-0.2-0.4l-0.1-0.2
		l0,0c-0.2-0.3-0.3-0.7-0.4-1C33.4,156,33.2,155.6,33.1,155.2z"/>
	<path class="st0" d="M45.3,154.9h3.4l0,0l0,0v0.1c0,0,0,0.1,0,0.2c0,0.1,0,0.3,0,0.4v0.2l0,0v0.1c0,0,0,0,0,0.1v0.4
		c0,0.1,0,0.1,0,0.2v0.1v0.1c0,0.1,0,0.1,0,0.2c0,0.1-0.1,0.1-0.3,0.1c-0.2,0-0.4,0-0.9,0c-0.3,0-0.7,0-1,0h-0.1
		c-0.1,0-0.1,0-0.1,0.1c0,0.1,0,0.2,0,0.3s0,0.2,0,0.2c0,0.1,0,0.2,0.1,0.2s0.3,0,0.4,0h0.5c0.2,0,0.3,0,0.2,0h0.1h0.3
		c0.1,0,0.3,0,0.4,0.1c0,0,0,0,0,0.1l0,0c0,0,0,0,0,0.1l0,0v0.2v0.1c0,0.2,0,0.4,0,0.6c0,0.2,0,0.4,0,0.6c0,0.1,0,0.2,0,0.2v0.1
		c0,0-0.1,0.1-0.2,0.1h-0.7c0.1,0,0.1,0,0.1,0h-0.6h-0.1c0,0.1,0,0.1,0,0.2c0,0.5,0,0.8,0.1,0.9c0.1,0,0.2,0,0.2,0h1h0.6
		c0.1,0,0.1,0,0.2,0h0.6c0-0.3,0-0.4,0-0.5c0-0.1,0-0.3,0-0.5c0-0.2,0-0.2,0-0.2v-0.1v-0.1v-0.1c0,0,0-0.1,0-0.2c0-0.1,0-0.1,0-0.2
		s0-0.2,0-0.3s0-0.1,0-0.1c0-0.1,0-0.1,0-0.2v-0.1v-0.1v-0.1v-0.4c0-0.2,0-0.4,0-0.5s0-0.4,0-0.6v-0.5v-0.1v-0.1v-0.1
		c0,0,0-0.2,0-0.3s0-0.2,0-0.2v-0.1l0,0c0,0,0-0.1,0-0.2c0-0.1,0-0.2,0-0.2c0-0.1,0-0.1,0-0.2h0.8c0.5,0,1,0,1.4,0.1l0.7,0.1
		l0.6,0.2c0.2,0.1,0.4,0.1,0.6,0.2c0.2,0.1,0.4,0.2,0.6,0.3s0.3,0.3,0.5,0.4c0.1,0.2,0.2,0.4,0.3,0.6c0.1,0.2,0.1,0.5,0.1,0.8v0.1
		c0,0.1,0,0.2-0.1,0.2c0,0,0,0,0,0.1c0,0.3-0.2,0.6-0.4,0.9c-0.2,0.3-0.4,0.6-0.7,0.9c0,0.1,0,0.1,0,0.2s0,0.2,0.1,0.3l0.2,0.3
		c0.1,0.2,0.2,0.4,0.3,0.5l0.5,0.7c0.5,0.7,0.8,1.3,1.2,1.9l0.2,0.3c0,0-0.1,0.1-0.2,0.1H56c-0.2,0-0.4,0-0.6,0h-0.3h-1.4
		c-0.1,0-0.1,0-0.2,0h-0.1v-0.1c0-0.1,0-0.1-0.1-0.1l-0.4-0.8c-0.2-0.4-0.3-0.7-0.5-1s-0.3-0.5-0.4-0.6v1.8c0,0.1,0,0.1,0,0.2
		c0,0.1,0,0.1,0,0.2v0.1v0.1v0.1v0.1l0,0h-0.8l0,0h-1.2h-0.2h-0.2h-0.1H44c-0.1,0-0.1-0.2-0.1-0.4c0-0.5,0-0.9-0.1-1.4
		c0,0,0-0.1,0-0.3c0-0.2,0-0.3,0-0.5v-0.6c0-0.1,0-0.2,0-0.3s0-0.2,0-0.2l0,0c0-0.1,0-0.2,0-0.3c0-0.1,0-0.2,0-0.3
		c0-0.2,0-0.4,0-0.7c0-0.1,0-0.1,0-0.2s0-0.2,0-0.3c0-0.3-0.1-0.6-0.1-0.8c0-0.1,0-0.2,0-0.4c0-0.1,0-0.2,0-0.3
		c0-0.3-0.1-0.6-0.1-0.9c0-0.2,0-0.3,0-0.5l0,0c0,0,0,0,0-0.1c0-0.2,0-0.4,0.1-0.7h1.9H45.3z M52.2,157.2c-0.1-0.1-0.3-0.1-0.4-0.1
		h-0.1c0,0,0,0.1,0,0.2s0,0.1,0,0.3c0,0.1,0,0.2,0,0.4c0,0.2,0,0.4,0,0.6h0.1l0.3-0.1c0.3-0.1,0.5-0.3,0.5-0.6v-0.1v-0.1
		C52.4,157.5,52.3,157.3,52.2,157.2z"/>
	<path class="st0" d="M59.6,154.9H60h0.2h0.2h0.1l0,0v0.1c0,0.1,0,0.1,0,0.2l-0.1,0.2l-0.2,0.3c-0.3,0.5-0.4,0.8-0.5,0.9
		s-0.1,0.3-0.2,0.5c-0.1,0.3-0.1,0.6-0.1,0.9v0.2c0,0.1,0,0.3,0.1,0.4c0.1,0.2,0.2,0.4,0.3,0.5v0.1v0.1l0,0l0.1,0.1
		c0.1,0.1,0.2,0.2,0.3,0.3c0.1,0.1,0.2,0.2,0.3,0.2c0.1,0,0.1,0.1,0.2,0.2c0,0.1,0.1,0.1,0.1,0.2c0.1,0.1,0.2,0.3,0.2,0.4
		c0,0,0,0.1,0.1,0.2c0,0.1,0.1,0.2,0.1,0.3c0,0.1,0,0.2,0,0.2c0,0.3-0.1,0.6-0.3,0.9l-0.1,0.1l-0.1,0.1c-0.1,0.1-0.1,0.2-0.2,0.3
		c-0.1,0.1-0.1,0.2-0.2,0.3c-0.1,0.1-0.2,0.3-0.3,0.4c-0.1,0.1-0.2,0.2-0.3,0.3l-0.3,0.3h-2.2h-0.4c-0.1,0-0.2,0-0.3,0h-0.1h-0.2
		h-0.3c-0.1,0-0.2,0-0.3-0.1l0,0c0-0.1,0-0.2,0.1-0.2c0-0.1,0.1-0.1,0.1-0.2c0-0.2,0.1-0.3,0.2-0.4l0.3-0.3l0.2-0.3
		c0.2-0.2,0.3-0.4,0.5-0.7l0.1-0.2l0,0v-0.1v-0.1c0.1-0.1,0.1-0.2,0.1-0.3l0,0c0-0.2,0-0.3-0.1-0.5l-0.1-0.2l-0.1-0.1l-0.1-0.1
		l-0.1-0.1l-0.1-0.1l-0.3-0.3l-0.4-0.4c-0.3-0.3-0.4-0.6-0.5-0.9c0-0.1,0-0.3,0-0.4s0-0.2,0-0.3l0,0v-0.1v-0.1
		c0-0.2,0.1-0.4,0.2-0.7c0-0.1,0.1-0.2,0.1-0.3s0.1-0.2,0.1-0.4c0-0.1,0.1-0.3,0.2-0.4c0-0.1,0.1-0.2,0.1-0.3l0.1-0.1v-0.1l0.1-0.2
		c0-0.1,0-0.1,0.1-0.2c0-0.1,0.1-0.1,0.3-0.1c0.1,0,0.2,0,0.3,0h0.3h0.5h0.6c0.1,0,0.2,0,0.3,0h0.7L59.6,154.9z"/>
	<path class="st0" d="M62.2,162.2L62.2,162.2c0-0.2,0-1.2-0.1-2.9s-0.1-2.6-0.1-2.6c-0.1-0.3-0.1-0.5-0.1-0.8v-0.1v-0.1
		c0-0.1,0-0.1,0.1-0.2l0.1-0.1h1.1h0.6h0.5h0.4c0.1,0,0.1,0,0.1,0v0.1c0,0,0,0.1,0,0.3v0.1c0,0.3,0,0.7,0,1.4c0,0.4,0,0.7,0.1,1.1
		c0,0,0,0.3,0,0.7s0,0.6,0,0.7c0,0.3,0,0.9,0.1,1.9c0,1,0.1,1.6,0.1,1.8c0,0.1,0,0.2,0,0.3c0,0.2-0.1,0.3-0.1,0.3
		c-0.3,0.1-0.6,0.1-0.9,0.1h-0.1h-0.3h-0.2l0,0c-0.2,0-0.5,0-0.7,0h-0.2c0,0-0.1-0.1-0.1-0.4C62.2,163.7,62.2,163.1,62.2,162.2z"/>
	<path class="st0" d="M67.1,155l1,0.1c0.2,0,0.3,0.1,0.5,0.2c0.3,0.1,0.6,0.3,0.9,0.5h0.1l0.1,0.1c0.1,0.1,0.2,0.1,0.3,0.2l0.2,0.2
		c0.1,0.1,0.3,0.3,0.4,0.4c0.1,0.1,0.2,0.3,0.3,0.4c0.1,0.1,0.1,0.2,0.2,0.3l0.2,0.3c0,0.1,0.1,0.2,0.1,0.3l0.1,0.1
		c0.2,0.4,0.3,0.9,0.3,1.4v0.1v0.1c0,0.2-0.1,0.5-0.2,0.7c-0.1,0.2-0.1,0.4-0.3,0.5l-0.1,0.2c-0.1,0.1-0.1,0.3-0.2,0.4
		c-0.2,0.4-0.5,0.7-0.8,1l-0.4,0.3l-0.1,0.1l-0.1,0.1l0,0h-0.1l-0.1,0.1c-0.3,0.2-0.5,0.3-0.8,0.5c-0.2,0.1-0.5,0.2-0.8,0.2h-0.2
		c-0.1,0-0.3,0.1-0.4,0.1c-0.1,0-0.2,0-0.2,0h-0.3h-0.2h-0.2H66h-0.3h-0.1c0-0.1,0-0.2,0-0.3c0-0.1,0-0.2,0-0.4c0-0.2,0-0.3,0-0.4
		c0-0.1,0-0.4,0-0.5c0-0.1,0-0.1,0-0.2s0-0.1,0-0.2v-0.1v-0.2c0-0.1,0-0.2,0-0.3s0-0.1,0-0.2v-0.9c0-0.1,0-0.3,0-0.4
		c0-0.1,0-0.3,0-0.4v-0.7c0-0.2,0-0.4,0-0.6c0-0.1,0-0.1,0-0.2c0-0.1,0-0.1,0-0.2s0-0.2,0-0.4c0-0.2,0-0.4,0-0.4c0-0.1,0-0.1,0-0.2
		v-1.3v-0.1v-0.1c0-0.1,0-0.1,0-0.2v-0.1v-0.1v-0.1c0,0,0-0.1,0.1-0.1h0.1h0.1C66.3,154.8,66.7,154.9,67.1,155z M68,157.7
		c-0.1,0-0.1,0-0.2,0c0,0,0,0,0,0.1v0.1c0,0.1,0,0.1,0,0.2c0,0.4,0,0.6,0,0.6c0,0.1,0,0.2,0,0.3c0,0.1,0,0.1,0,0.2
		c0,0.1,0,0.1,0,0.3c0,0.2,0,0.2,0,0.2s0,0.2,0,0.4c0,0.2,0,0.2,0,0.2v0.1h0.1h0.2l0.1-0.1c0.3-0.1,0.5-0.3,0.6-0.6
		c0.2-0.2,0.2-0.5,0.3-0.8v-0.1c0-0.1,0-0.2-0.1-0.3c-0.1-0.2-0.2-0.3-0.4-0.5l-0.1-0.1l-0.1-0.1l-0.1-0.1h-0.1
		C68.1,157.8,68.1,157.8,68,157.7L68,157.7z"/>
	<path class="st0" d="M75.3,155.1c0.2,0,0.4,0,0.6,0c0.1,0,0.3,0,0.4,0h0.1h0.1c0,0,0.1,0,0.1,0.1l0.1,0.1l0.2,0.3
		c0.1,0.2,0.2,0.3,0.2,0.4s0.1,0.2,0.1,0.3c0,0,0.1,0.1,0.1,0.2c0.1,0.2,0.2,0.5,0.4,0.7c0,0.1,0.1,0.1,0.1,0.2l0.1,0.1l0.1,0.1
		l0.2,0.3c0.1,0.2,0.1,0.3,0.2,0.5c0.4,0.6,0.8,1.4,1.4,2.6s0.9,1.8,1,2c0,0.1,0.1,0.2,0.1,0.3c0,0.2,0.1,0.3,0.2,0.4
		c0.1,0.2,0.2,0.4,0.2,0.6l0,0l0,0H81h-0.3h-0.3h-0.3h-0.4H78h-0.2h-0.2h-0.1c-0.1-0.2-0.2-0.4-0.2-0.6c0-0.3-0.1-0.5-0.2-0.7
		l-0.1-0.2h-0.2h-0.3H76h-1.4l0,0v0.1v0.1c-0.1,0.4-0.3,0.7-0.5,1.1c-0.1,0.1-0.1,0.2-0.2,0.2h-0.2c-0.1,0-0.1,0-0.2,0H73
		c-0.1,0-0.3,0-0.4,0c-0.2,0-0.4,0-0.6,0h-0.2h-0.1h-0.3c-0.1,0-0.2,0-0.2-0.1l0,0V164l0.1-0.3l0.1-0.2c0-0.1,0.1-0.2,0.1-0.4v-0.2
		l0.1-0.2l0.1-0.2l0.2-0.5c0-0.1,0.1-0.2,0.1-0.3l0.1-0.1l0,0l0,0l0,0c0.1-0.1,0.1-0.3,0.2-0.5c0-0.1,0.1-0.2,0.1-0.3
		c0.1-0.1,0.1-0.3,0.1-0.4s0.1-0.3,0.1-0.3c0-0.1,0.1-0.1,0.1-0.2v-0.1v-0.1v-0.1l0.1-0.3l0.1-0.4c0-0.1,0-0.1,0.1-0.2l0.1-0.2
		c0.1-0.2,0.2-0.5,0.2-0.7v-0.1v-0.1v-0.1c0-0.1,0.1-0.3,0.2-0.5l0.1-0.3c0-0.1,0.1-0.1,0.1-0.2v-0.1v-0.1l0.1-0.4
		c0.1-0.3,0.2-0.5,0.3-0.8c0-0.1,0.1-0.2,0.3-0.2L75.3,155.1L75.3,155.1z M75.7,158.8c0-0.1-0.1-0.2-0.1-0.2l0,0
		C75.6,158.6,75.6,158.6,75.7,158.8l-0.2,0.2c0,0.1-0.1,0.3-0.1,0.4c-0.1,0.4-0.2,0.6-0.2,0.7v0.2v0.1v0.1l0,0v0.1
		c0.3,0.1,0.7,0.1,1,0.1h0.3c0.1,0,0.2,0,0.2,0l0,0c0-0.2-0.1-0.3-0.2-0.4c-0.1-0.1-0.1-0.3-0.2-0.5l-0.1-0.1l-0.1-0.2l-0.1-0.1
		l-0.1-0.2v-0.3L75.7,158.8z"/>
	<path class="st0" d="M84.2,154.8h1.4c0.4,0,0.8,0.1,1.2,0.1c0.4,0.1,0.8,0.2,1.1,0.3c0.1,0.1,0.2,0.1,0.4,0.1
		c0.8,0.4,1.5,0.8,2.1,1.4c0.1,0.1,0.2,0.3,0.3,0.4l0.2,0.3c0,0,0,0.1,0.1,0.3c0.1,0.2,0.1,0.4,0.1,0.5s0,0.2,0,0.3
		c0,0.3,0,0.5,0,0.5v0.2c0,0.1,0,0.1,0,0.2c0,0.1-0.1,0.2-0.1,0.3c0,0.2-0.1,0.3-0.1,0.5l0,0v0.1v0.1v0.1l-0.1,0.2
		c0,0.1,0,0.1-0.1,0.2c0,0.1,0,0.1-0.1,0.2l-0.1,0.2v0.1c-0.1,0.2-0.2,0.4-0.4,0.6c-0.1,0.1-0.1,0.2-0.2,0.3
		c-0.1,0.2-0.3,0.5-0.6,0.6L89,163l0,0l0,0l0,0h-0.1h-0.1l-0.2,0.1c-1,0.4-2,0.6-3,0.6h-0.1h-0.1h-0.1c-0.4,0-0.7,0-1.1,0.1h-0.4
		c-0.2,0-0.3,0-0.5,0l-0.9,0.1c-0.3,0-0.5,0-0.8-0.1v-0.1v-0.1v-0.1v-0.1v-0.1v-0.1V163c0-0.1,0-0.1,0-0.2c0-0.1,0-0.2,0-0.4
		c0-0.2,0-0.3,0-0.4v-1.3c0,0,0,0,0-0.1c0-0.1,0-0.1,0-0.3V160c0-0.2,0-0.4,0-0.5c0-0.1,0-0.1,0-0.1v-0.1c0,0,0,0,0-0.1v-0.1V159
		v-0.1v-0.1v-0.7c0,0,0,0,0-0.1c0,0,0-0.1,0-0.3c0-0.2,0-0.3,0-0.4s0-0.1,0-0.1v-0.1c0-0.1,0-0.1,0-0.2c0-0.1,0-0.1,0-0.2
		c0-0.1,0-0.2,0-0.3v-0.4c0-0.1,0-0.2,0-0.3c0-0.2,0-0.3,0-0.4c0-0.1,0-0.2,0-0.2c0-0.1,0-0.3,0-0.4v-0.1c0.3-0.1,0.6-0.2,0.9-0.2
		h0.2h0.1h0.3h0.2h0.2h0.2h0.8L84.2,154.8z M85.2,158.1v1c0,0.4,0,0.7,0,0.7c0,0.1,0,0.2,0,0.4v0.2c0,0.1,0.1,0.1,0.2,0.1h0.2h0.1
		l0,0c0.2,0,0.3-0.1,0.4-0.2l0.2-0.1l0.1-0.1l0.1-0.1c0,0,0.1-0.1,0.2-0.1c0.2-0.1,0.4-0.3,0.5-0.6c0-0.1,0.1-0.1,0.1-0.2V159v-0.1
		c0-0.2-0.1-0.4-0.3-0.5c-0.2-0.2-0.5-0.3-0.7-0.3S86,158,85.8,158C85.6,158,85.4,158,85.2,158.1L85.2,158.1z"/>
	<path class="st0" d="M91.2,154.9h0.2c0.6,0,0.9,0,1,0c0.2,0,0.3,0.1,0.5,0.1l0,0c0.1,0,0.3,0,0.4,0H94h0.5h0.6h0.4
		c0,0,0.1,0,0.1,0.1v0.1c0,0,0,0,0,0.1c0,0.1,0,0.1,0,0.1l0,0l0,0v0.1c0,0.1,0,0.2,0,0.3s0,0.2,0,0.3l0,0c0,0,0,0,0,0.1s0,0.1,0,0.1
		v0.1l0,0v0.1v0.1v0.1c0,0.1,0,0.2,0,0.3v0.1c0,0.1-0.1,0.1-0.2,0.1h-0.3c-0.2,0.1-0.4,0.1-0.6,0.1h-0.1h-0.5h-0.4l0,0v0.1
		c0,0.2,0,0.3,0,0.5v0.1v0.1c0,0,0,0,0,0.1v0.1c0.2,0,0.4,0,0.6,0c0.4,0,0.7,0,0.8,0h0.2c0.2,0,0.3,0,0.5,0.1c0.1,0,0.1,0.1,0.1,0.2
		v0.1c0,0.1,0,0.2,0,0.3v0.8c0,0.1,0,0.2,0,0.4c0,0,0,0,0,0.1v0.1v0.1c0,0.1,0,0.2,0,0.3l-0.1,0.1c-0.2,0.1-0.3,0.1-0.5,0.1
		c-0.4,0-0.7,0-1.1-0.1h-0.1c-0.1,0-0.1,0.1-0.1,0.2v0.1c0,0.4,0,0.6,0.1,0.6h0.2c0.1,0,0.2,0,0.3,0h1c0.1,0,0.1,0,0.2,0h0.1
		c0.1,0,0.2,0,0.2,0.1c0,0.3,0,0.6,0,0.9c0,0.3,0,0.5,0,0.6s0,0.1,0,0.2c0,0.1,0,0.2,0,0.2c0,0.1,0,0.2-0.1,0.3
		c0,0.1-0.1,0.1-0.2,0.1h-3.7h-0.2h-0.2h-0.1l0,0l0,0l0,0l0,0v-0.2v-0.1c-0.1-0.2-0.1-0.4-0.1-0.6c0-0.7,0-1,0-1.1V162
		c0-0.1,0-0.1,0-0.2c0-0.1,0-0.2,0-0.3c0-0.4,0-0.7-0.1-1.1c0-0.2,0-0.3,0-0.5c0-0.3,0-0.5,0-0.5c-0.2-1.9-0.3-3.1-0.4-3.7
		c0-0.2,0-0.4,0-0.6c0-0.1,0-0.1,0-0.2C91.2,155,91.2,154.9,91.2,154.9z"/>
	<path class="st0" d="M104.7,164.1c-0.1,0-0.2,0-0.3,0h-0.7h-0.4c-0.1,0-0.2,0-0.2,0c-0.1,0-0.2,0-0.3,0h-0.5c-0.1,0-0.3,0-0.4-0.1
		c-0.1-0.1-0.1-0.1-0.1-0.2c0-0.1,0-0.2,0-0.4c0-0.2,0-0.4,0-0.5s0-0.6,0-1.3c0-1.1,0-1.8-0.1-2.1c0-0.2,0-0.5,0-0.7
		c0-0.4,0-0.8-0.1-1.1c-0.1-0.3-0.1-0.9-0.1-1.8s0-1.1,0-0.6c0-0.3,0-0.4,0-0.5v-0.1c0-0.1,0.1-0.1,0.3-0.1h5.2c0,0.1,0,0.2,0,0.4
		v1.4c0,0.3,0,0.6,0,0.9c0,0.1,0,0.2,0,0.3h-2.5c-0.1,0-0.1,0.1-0.1,0.3c0,0.1,0,0.2,0,0.3c0,0.2,0.1,0.3,0.1,0.5
		c0,0.1,0.3,0.1,0.8,0.1h0.8h0.2h0.1c0.1,0,0.2,0,0.2,0.1l0.1,0.1v0.5c0,0.5,0,0.9,0,1.2c0,0.2,0,0.4-0.1,0.6
		c-0.1,0-0.1,0.1-0.2,0.1l0,0h-0.1c-0.3,0-0.7,0-1,0c-0.2,0-0.4,0-0.6,0.1c0,0.1,0,0.1,0,0.2c0,0,0,0.2,0,0.7s0,0.8,0,1.3
		S104.7,164.1,104.7,164.1z"/>
	<path class="st0" d="M109.7,154.9h3.1l0,0l0,0v0.1c0,0,0,0.1,0,0.2c0,0.1,0,0.3,0,0.4v0.2l0,0v0.1c0,0,0,0,0,0.1v0.4
		c0,0.1,0,0.1,0,0.2v0.1v0.1c0,0.1,0,0.1,0,0.2c0,0.1-0.1,0.1-0.2,0.1c-0.2,0-0.4,0-0.7,0c-0.3,0-0.7,0-1,0h-0.1
		c-0.1,0-0.1,0-0.1,0.1c0,0.1,0,0.2,0,0.3s0,0.2,0,0.2c0,0.1,0,0.2,0.1,0.2c0.1,0,0.3,0,0.4,0h0.5c0.4,0,0.7-0.1,0.9-0.1h0.1h0.3
		c0.1,0,0.3,0,0.4,0.1c0,0,0,0,0,0.1l0,0c0,0,0,0,0,0.1l0,0v0.3v0.1c0,0,0,0.1,0,0.2s0,0.2,0,0.2v1.5c0,0.1,0,0.2,0,0.2v0.1
		c0,0-0.1,0.1-0.2,0.1h-0.6h-0.8h-0.2h-0.3h-0.1H111c0,0.1,0,0.1,0,0.2c0,0.3,0,0.4,0.1,0.5c0.1,0,0.2,0,0.2,0h1h0.6
		c0.1,0,0.1,0,0.2,0h0.4h0.3c0.1,0,0.1,0.2,0.1,0.7c0,0.7,0,0.2,0,0.4c0,0.2,0,0.4,0,0.5c0,0.3,0,0.6,0,0.9l0,0h-5.8
		c-0.1,0-0.1-0.2-0.1-0.4c0-0.5,0-0.9-0.1-1.4c0,0,0-0.1,0-0.3c0-0.2,0-0.3,0-0.5v-0.6c0-0.1,0-0.2,0-0.3s0-0.2,0-0.2v0.1
		c0-0.1,0-0.2,0-0.3s0-0.2,0-0.3c0-0.2,0-0.4,0-0.7c0-0.1,0-0.1,0-0.2s0-0.2,0-0.3c0-0.3-0.1-0.6-0.1-0.8c0-0.1,0-0.2,0-0.4
		c0-0.2,0-0.2,0-0.3c0-0.3-0.1-0.6-0.1-0.9c0-0.2,0-0.3,0-0.5v-0.1l0,0c0,0,0,0,0-0.1c0-0.2,0-0.4,0.1-0.7L109.7,154.9L109.7,154.9z
		"/>
	<path class="st0" d="M117.5,154.8h1.4c0.4,0,0.8,0.1,1.2,0.1c0.4,0.1,0.8,0.2,1.1,0.3c0.1,0.1,0.2,0.1,0.4,0.1
		c0.8,0.4,1.5,0.8,2.1,1.4c0.1,0.1,0.2,0.3,0.3,0.4l0.2,0.3c0,0,0,0.1,0.1,0.3c0.1,0.2,0.1,0.4,0.1,0.5s0,0.2,0,0.3
		c0,0.3,0,0.5,0,0.5v0.2c0,0.1,0,0.1,0,0.2c0,0.1-0.1,0.2-0.1,0.3c0,0.2-0.1,0.3-0.1,0.5l0,0v0.1v0.1v0.1l-0.1,0.2
		c0,0.1,0,0.1-0.1,0.2c0,0.1,0,0.1-0.1,0.2l-0.1,0.2v0.1c-0.1,0.2-0.2,0.4-0.4,0.6c-0.1,0.1-0.1,0.2-0.2,0.3
		c-0.1,0.2-0.3,0.5-0.6,0.6l-0.2,0.2l0,0l0,0l0,0h-0.1h-0.1l-0.2,0.1c-1,0.4-2,0.6-3,0.6h-0.3h-0.1h-0.1c-0.4,0-0.7,0-1.1,0.1H117
		c-0.2,0-0.3,0-0.5,0l-0.9,0.1c-0.3,0-0.5,0-0.8-0.1v-0.1v-0.1v-0.1v-0.1v-0.1v-0.1V163c0-0.1,0-0.1,0-0.2c0-0.1,0-0.2,0-0.4
		c0-0.2,0-0.3,0-0.4v-1.3c0,0,0,0,0-0.1c0-0.1,0-0.1,0-0.3V160c0-0.2,0-0.4,0-0.5c0-0.1,0-0.1,0-0.1v-0.1c0,0,0,0,0-0.1v-0.1V159
		v-0.1v-0.1v-0.7c0,0,0,0,0-0.1c0,0,0-0.1,0-0.3c0-0.2,0-0.3,0-0.4s0-0.1,0-0.1v-0.1c0-0.1,0-0.1,0-0.2c0-0.1,0-0.1,0-0.2
		c0-0.1,0-0.2,0-0.3v-0.4c0-0.1,0-0.2,0-0.3c0-0.2,0-0.3,0-0.4c0-0.1,0-0.2,0-0.2c0-0.1,0-0.3,0-0.4v-0.1c0.3-0.1,0.6-0.2,0.9-0.2
		h0.2h0.1h0.3h0.2h0.2h0.2h0.8L117.5,154.8z M118.5,158.1v1c0,0.4,0,0.7,0,0.7c0,0.1,0,0.2,0,0.4v0.2c0,0.1,0.1,0.1,0.2,0.1h0.2h0.1
		l0,0c0.2,0,0.3-0.1,0.4-0.2l0.2-0.1l0.1-0.1l0.1-0.1c0,0,0.1-0.1,0.2-0.1c0.2-0.1,0.4-0.3,0.5-0.6c0-0.1,0.1-0.1,0.1-0.2V159v-0.1
		c0-0.2-0.1-0.4-0.3-0.5c-0.2-0.2-0.5-0.3-0.7-0.3s-0.3-0.1-0.5-0.1C118.9,158,118.7,158,118.5,158.1L118.5,158.1z"/>
	<path class="st0" d="M126.4,154.9h3.4l0,0l0,0v0.1c0,0,0,0.1,0,0.2c0,0.1,0,0.3,0,0.4v0.2l0,0v0.1c0,0,0,0,0,0.1v0.4
		c0,0.1,0,0.1,0,0.2v0.1v0.1c0,0.1,0,0.1,0,0.2c0,0.1-0.1,0.1-0.3,0.1c-0.2,0-0.4,0-0.9,0c-0.3,0-0.7,0-1,0h-0.1
		c-0.1,0-0.1,0-0.1,0.1c0,0.1,0,0.2,0,0.3s0,0.2,0,0.2c0,0.1,0,0.2,0.1,0.2c0.1,0,0.3,0,0.4,0h0.5c0.2,0,0.3,0,0.2,0h0.1h0.3
		c0.1,0,0.3,0,0.4,0.1c0,0,0,0,0,0.1l0,0c0,0,0,0,0,0.1l0,0v0.2v0.1c0,0.2,0,0.4,0,0.6c0,0.2,0,0.4,0,0.6c0,0.1,0,0.2,0,0.2v0.1
		c0,0-0.1,0.1-0.2,0.1h-0.6c0.1,0,0.1,0,0.1,0h-0.6H128c0,0.1,0,0.1,0,0.2c0,0.5,0,0.8,0.1,0.9c0.1,0,0.2,0,0.2,0h1h0.6
		c0.1,0,0.1,0,0.2,0h0.5c0-0.3,0-0.4,0-0.5c0-0.1,0-0.3,0-0.5c0-0.2,0-0.2,0-0.2v-0.1v-0.1v-0.1c0,0,0-0.1,0-0.2c0-0.1,0-0.1,0-0.2
		s0-0.2,0-0.3s0-0.1,0-0.1c0-0.1,0-0.1,0-0.2v-0.1v-0.1v-0.1v-0.4c0-0.2,0-0.4,0-0.5s0-0.4,0-0.6v-0.5v-0.1v-0.1v-0.1
		c0,0,0-0.2,0-0.3s0-0.2,0-0.2v-0.1l0,0c0,0,0-0.1,0-0.2c0-0.1,0-0.2,0-0.2c0-0.1,0-0.1,0-0.2h0.7c0.5,0,1,0,1.4,0.1l0.6,0.1
		l0.6,0.2c0.2,0.1,0.4,0.1,0.6,0.2c0.2,0.1,0.4,0.2,0.6,0.3c0.2,0.1,0.3,0.3,0.5,0.4c0.1,0.2,0.2,0.4,0.3,0.6
		c0.1,0.2,0.1,0.5,0.1,0.8v0.1c0,0.1,0,0.2-0.1,0.2c0,0,0,0,0,0.1c0,0.3-0.2,0.6-0.4,0.9c-0.2,0.3-0.4,0.6-0.7,0.9
		c0,0.1,0,0.1,0,0.2s0,0.2,0.1,0.3l0.2,0.3c0.1,0.2,0.2,0.4,0.3,0.5l0.5,0.7c0.5,0.7,0.8,1.3,1.2,1.9l0.2,0.3c0,0-0.1,0.1-0.2,0.1
		h-0.1c-0.2,0-0.4,0-0.6,0h-0.4h-1.4c-0.1,0-0.1,0-0.2,0h-0.1v-0.1c0-0.1,0-0.1-0.1-0.1l-0.4-0.8c-0.2-0.4-0.3-0.7-0.5-1
		c-0.1-0.3-0.3-0.5-0.4-0.6v1.8c0,0.1,0,0.1,0,0.2c0,0.1,0,0.1,0,0.2v0.1v0.1v0.1v0.1l0,0H132l0,0h-1.2h-0.2h-0.1h-0.1h-5.6
		c-0.1,0-0.1-0.2-0.1-0.4c0-0.5,0-0.9-0.1-1.4c0,0,0-0.1,0-0.3c0-0.2,0-0.3,0-0.5v-0.6c0-0.1,0-0.2,0-0.3s0-0.2,0-0.2l0,0
		c0-0.1,0-0.2,0-0.3c0-0.1,0-0.2,0-0.3c0-0.2,0-0.4,0-0.7c0-0.1,0-0.1,0-0.2s0-0.2,0-0.3c0-0.3-0.1-0.6-0.1-0.8c0-0.1,0-0.2,0-0.4
		c0-0.2,0-0.2,0-0.3c0-0.3-0.1-0.6-0.1-0.9c0-0.2,0-0.3,0-0.5l0,0c0,0,0,0,0-0.1c0-0.2,0-0.4,0.1-0.7H126.4L126.4,154.9z
		 M133.2,157.2c-0.1-0.1-0.3-0.1-0.4-0.1h-0.1c0,0,0,0.1,0,0.2s0,0.1,0,0.3c0,0.1,0,0.2,0,0.4c0,0.2,0,0.4,0,0.6h0.1l0.3-0.1
		c0.3-0.1,0.5-0.3,0.5-0.6v-0.1v-0.1C133.5,157.5,133.4,157.3,133.2,157.2L133.2,157.2z"/>
	<path class="st0" d="M139.8,155.1c0.2,0,0.4,0,0.6,0c0.1,0,0.3,0,0.4,0h0.1h0.1c0,0,0.1,0,0.1,0.1l0.1,0.1l0.2,0.3
		c0.1,0.2,0.2,0.3,0.2,0.4s0.1,0.2,0.1,0.3c0,0,0.1,0.1,0.1,0.2c0.1,0.2,0.2,0.5,0.4,0.7c0,0.1,0.1,0.1,0.1,0.2l0.1,0.1l0.1,0.1
		l0.2,0.3c0.1,0.2,0.1,0.3,0.2,0.5c0.4,0.6,0.8,1.4,1.4,2.6c0.6,1.1,0.9,1.8,1,2c0,0.1,0.1,0.2,0.1,0.3c0,0.2,0.1,0.3,0.2,0.4
		c0.1,0.2,0.2,0.4,0.2,0.6l0,0l0,0h-0.3h-0.3h-0.3h-0.3h-0.4h-1.7h-0.2h-0.2H142c-0.1-0.2-0.2-0.4-0.2-0.6c0-0.3-0.1-0.5-0.2-0.7
		l-0.1-0.2h-0.2H141h-0.5h-1.4l0,0v0.1v0.1c-0.1,0.4-0.3,0.7-0.5,1.1c-0.1,0.1-0.1,0.2-0.2,0.2h-0.2c-0.1,0-0.1,0-0.2,0h-0.6
		c-0.1,0-0.3,0-0.4,0c-0.2,0-0.4,0-0.6,0h-0.2h-0.1h-0.3c-0.1,0-0.2,0-0.2-0.1l0,0V164l0.1-0.3l0.1-0.2c0-0.1,0.1-0.2,0.1-0.4v-0.2
		l0.1-0.2l0.1-0.2l0.2-0.5c0-0.1,0.1-0.2,0.1-0.3l0.1-0.1l0,0l0,0l0,0c0.1-0.1,0.1-0.3,0.2-0.5c0-0.1,0.1-0.2,0.1-0.3
		c0.1-0.1,0.1-0.3,0.1-0.4s0.1-0.3,0.1-0.3c0-0.1,0.1-0.1,0.1-0.2v-0.1v-0.1v-0.1l0.1-0.3l0.1-0.4c0-0.1,0-0.1,0.1-0.2l0.1-0.2
		c0.1-0.2,0.2-0.5,0.2-0.7v-0.1v-0.1v-0.1c0-0.1,0.1-0.3,0.2-0.5l0.1-0.3c0-0.1,0.1-0.1,0.1-0.2v-0.1v-0.1l0.1-0.4
		c0.1-0.3,0.2-0.5,0.3-0.8c0-0.1,0.1-0.2,0.3-0.2L139.8,155.1L139.8,155.1z M140.3,158.8c0-0.1-0.1-0.2-0.1-0.2l0,0
		C140.2,158.6,140.2,158.6,140.3,158.8l-0.2,0.2c0,0.1-0.1,0.3-0.1,0.4c-0.1,0.4-0.2,0.6-0.2,0.7v0.2v0.1v0.1l0,0v0.1
		c0.3,0.1,0.7,0.1,1,0.1h0.3c0.1,0,0.2,0,0.2,0l0,0c0-0.2-0.1-0.3-0.2-0.4c-0.1-0.1-0.1-0.3-0.2-0.5l-0.1-0.1l-0.1-0.2l-0.1-0.1
		l-0.1-0.2v-0.3L140.3,158.8z"/>
	<path class="st0" d="M147.3,155h0.6c0.8,0,1.3,0,1.6,0c0.2,0,0.3,0.1,0.3,0.2l0,0v0.1c0,0,0,0.1,0,0.2s0,0.2,0,0.5c0,0.3,0,0.7,0,1
		c0,1.4,0,2.2,0,2.3v0.1c0,0,0,0.1,0,0.2c0,0.1,0,0.2,0,0.3v0.5c0,0.1,0,0.3,0,0.4c0,0.1,0,0.2,0,0.3c0,0.1,0,0.2,0,0.2v0.1h1.2
		c0.1,0,0.2,0,0.2,0.1c0,0.1,0,0.3,0,0.4c0,0.8,0,1.3,0,1.5c0,0.2-0.1,0.5-0.1,0.7c0,0.1-0.1,0.1-0.3,0.1c-0.1,0-0.1,0-0.2,0
		c-0.1,0-0.3,0-0.4,0c-0.4,0-0.7,0-0.9,0c-1,0-1.5,0-1.6,0c-0.2,0-0.5,0-0.7,0c-0.3,0-0.6,0-0.9-0.1c-0.1,0-0.1-0.1-0.1-0.3
		c0-0.2,0-0.2,0-0.4c0-1,0-1.7,0.1-2.2c0-0.6,0-1.3,0-2c0-0.1,0-0.2,0-0.3v-0.3v-0.4c0-0.1,0-0.2,0-0.3c0-0.2,0-0.6,0-1.4
		c0-0.2,0-0.5-0.1-0.8c0-0.1,0-0.2,0-0.3c0-0.2,0-0.3,0.1-0.4s0.2-0.1,0.4-0.1l0.4-0.1h0.2L147.3,155z"/>
	<path class="st0" d="M156.6,155.1L156.6,155.1h0.2h0.8c0.4,0,0.8,0.1,1.2,0.2c0.5,0.2,0.9,0.4,1.4,0.6l0.1,0.1l0.1,0.1
		c0.1,0.1,0.3,0.2,0.4,0.3l0.3,0.3l0.3,0.3l0.3,0.3c0.1,0.1,0.3,0.3,0.4,0.5l0.1,0.1l0.1,0.1c0.1,0.1,0.1,0.1,0.2,0.2
		c0,0.1,0.1,0.2,0.1,0.3c0.1,0.1,0.1,0.3,0.1,0.4c0,0.1,0,0.1,0,0.2s0,0.1,0,0.2c0,0.2,0,0.4,0,0.5c0,0.4-0.1,0.8-0.2,1.2
		c0,0.1-0.1,0.4-0.3,0.7c-0.1,0.2-0.2,0.4-0.3,0.6c0,0.1-0.1,0.1-0.1,0.2c-0.2,0.4-0.5,0.7-0.9,1l-0.2,0.1l-0.2,0.1
		c-0.1,0.1-0.1,0.1-0.2,0.1c-0.1,0-0.1,0-0.1,0.1c-0.1,0.1-0.2,0.1-0.3,0.1c-0.1,0.1-0.3,0.1-0.4,0.1h-0.2h-0.1c-0.1,0-0.2,0-0.4,0
		h-0.2h-0.2c-0.3,0.1-0.7,0.1-1,0.1c-0.2,0-0.5,0-0.7-0.1c-0.1-0.1-0.1-0.3-0.1-0.5c0-0.1,0-0.2,0-0.3v-0.1c0-0.1,0-0.1,0-0.3
		c0-0.1,0-0.2,0-0.3l-0.2-5.7c0-0.3,0-0.6,0-0.7V156v-0.4c0-0.2,0-0.3,0-0.3c0-0.1,0-0.1,0-0.2C156.5,155,156.5,155,156.6,155.1z
		 M159.1,157.9c0,0,0,0.1,0,0.2s0,0.3,0,0.7l0.1,0.6c0,0.2,0,0.5,0,1c0,0.2,0,0.4,0,0.6l0,0c0.1-0.1,0.2-0.1,0.3-0.2
		c0.2-0.2,0.4-0.4,0.5-0.7V160v-0.1c0.1-0.3,0.1-0.6,0.1-0.9c0-0.3-0.1-0.5-0.3-0.7C159.5,158,159.3,157.8,159.1,157.9
		C159.1,157.8,159.1,157.8,159.1,157.9L159.1,157.9z"/>
	<path class="st0" d="M167.3,154.9h0.3c0.1,0,0.3,0,0.4,0h0.4c0.3,0,0.5,0,0.8,0.1c0.3,0.1,0.5,0.2,0.7,0.3l0.3,0.2l0.6,0.4
		c0.2,0.1,0.4,0.3,0.6,0.5c0.2,0.2,0.4,0.4,0.5,0.6l0.1,0.1c0.1,0.2,0.2,0.4,0.3,0.6c0,0.1,0.1,0.2,0.1,0.3c0.1,0.2,0.2,0.5,0.2,0.8
		c0,0.1,0,0.2,0,0.5c0,0.4,0,0.7,0,0.8c-0.1,0.3-0.1,0.5-0.2,0.8c-0.1,0.3-0.1,0.4-0.2,0.5c0,0.1-0.1,0.1-0.1,0.2
		c0,0.1,0,0.1-0.1,0.2c0,0.2-0.1,0.3-0.2,0.4c-0.1,0.1-0.3,0.4-0.6,0.8c-0.3,0.3-0.7,0.6-1.1,0.8c-0.5,0.2-1,0.3-1.5,0.4
		c-0.3,0-0.6,0.1-0.9,0.1h-0.2c-0.3,0-0.6-0.1-0.9-0.1c-0.2,0-0.5-0.1-0.7-0.2c-0.2-0.1-0.4-0.2-0.6-0.3l-0.1-0.1
		c-0.3-0.3-0.6-0.6-0.9-0.9l-0.3-0.4l-0.2-0.3c-0.3-0.6-0.5-1.2-0.7-1.8c0-0.2-0.1-0.3-0.1-0.5c0-0.1,0-0.3,0-0.4s0-0.2,0.1-0.3
		c0-0.2,0.1-0.4,0.2-0.7v-0.3v-0.1v-0.1c0-0.2,0.1-0.3,0.2-0.4c0.1-0.2,0.2-0.3,0.4-0.5c0.1-0.1,0.1-0.1,0.2-0.2l0.3-0.3l0.2-0.3
		c0.3-0.3,0.6-0.5,0.9-0.7l0.4-0.2C166.3,155.1,166.8,155,167.3,154.9z M167.8,157.9h-0.4h-0.1h-0.1c-0.1,0-0.3,0.1-0.4,0.2
		c-0.2,0.1-0.3,0.3-0.4,0.5c-0.1,0.2-0.2,0.4-0.2,0.7v0.2l0,0c0,0.2,0,0.4,0.1,0.7c0,0.3,0.2,0.6,0.4,0.8c0.1,0.1,0.3,0.2,0.4,0.2
		s0.2,0,0.4,0c0.2,0,0.4,0,0.6-0.1l0.2-0.1c0.1-0.1,0.2-0.2,0.3-0.3c0.1-0.1,0.1-0.1,0.2-0.2c0-0.1,0-0.1,0.1-0.2
		c0.1-0.2,0.2-0.4,0.2-0.6c0-0.1,0-0.2,0-0.3v-0.1c0,0,0-0.1,0-0.2c0-0.1,0-0.2-0.1-0.3c-0.1-0.3-0.1-0.4-0.2-0.4l-0.2-0.1
		c-0.1-0.1-0.2-0.1-0.3-0.2h-0.1h-0.1l0,0l0,0L167.8,157.9z"/>
	<path class="st0" d="M184.8,154.9h3.2l0,0l0,0v0.1c0,0,0,0.1,0,0.2c0,0.1,0,0.3,0,0.4v0.2l0,0c0,0,0,0.1,0,0.4c0,0.2,0,0.3,0,0.3
		v0.4c0,0.1,0,0.1,0,0.2v0.1v0.1c0,0.1,0,0.1,0,0.2c0,0.1-0.1,0.1-0.3,0.1c-0.2,0-0.5,0-0.7,0c-0.3,0-0.7,0-1,0h-0.1
		c-0.1,0-0.1,0-0.1,0.1c0,0.1,0,0.2,0,0.3c0,0.1,0,0.2,0,0.2c0,0.1,0,0.2,0.1,0.2s0.3,0,0.4,0h0.5c0.4,0,0.7-0.1,0.9-0.1h0.1h0.3
		c0.1,0,0.3,0,0.4,0.1c0,0,0,0,0,0.1l0,0c0,0,0,0,0,0.1l0,0v0.2v0.1c0,0.2,0,0.3,0,0.5c0,0.2,0,0.4,0,0.5v0.3c0,0.1,0,0.2,0,0.2v0.1
		c0,0.1-0.1,0.1-0.2,0.1h-0.6H187h-0.2h-0.3h-0.1c0,0,0,0-0.1,0c0,0.1,0,0.1,0,0.2c0,0.3,0,0.4,0.1,0.5c0.1,0,0.2,0,0.2,0h1h0.6
		c0.1,0,0.1,0,0.2,0h0.4h0.3c0.1,0,0.1,0.3,0.1,0.7c0,0,0,0.2,0,0.4c0,0.2,0,0.4,0,0.5c0,0.3,0,0.6,0,0.9l0,0h-5.7
		c-0.1-0.1-0.1-0.2-0.1-0.4c0-0.5,0-0.9-0.1-1.4c0,0,0-0.1,0-0.3c0-0.2,0-0.3,0-0.5c0-0.2,0-0.4,0-0.6s0-0.2,0-0.3
		c0-0.1,0-0.2,0-0.2v0.1c0-0.1,0-0.2,0-0.3c0-0.1,0-0.2,0-0.3c0-0.2,0-0.4,0-0.7c0-0.1,0-0.1,0-0.2c0-0.1,0-0.2,0-0.3
		c0-0.3-0.1-0.6-0.1-0.8v-0.1c-0.4,0-0.8,0-1.2,0.1c-0.3,0-0.6,0.1-0.9,0.3c-0.1,0.1-0.2,0.2-0.3,0.3s-0.2,0.2-0.3,0.4
		c-0.1,0.1-0.1,0.2-0.2,0.3c-0.1,0.3-0.1,0.6-0.1,0.9c0,0.3,0,0.6,0.2,0.8c0.1,0.2,0.2,0.4,0.4,0.5h0.1h0.1h0.1h0.1
		c0.3,0,0.5,0,0.8,0h0.9c0,0,0,0,0,0.1v0.1v0.1v2.2c0,0,0,0.1,0,0.2s0,0.2,0,0.2s0,0.2-0.1,0.3h-0.7l-0.7-0.1l-0.6-0.1
		c-0.2,0-0.4-0.1-0.6-0.1l-0.5-0.2c-0.2-0.1-0.3-0.2-0.5-0.3c-0.1-0.1-0.2-0.2-0.3-0.3c-0.1-0.1-0.2-0.2-0.2-0.3c0,0,0-0.1-0.1-0.1
		l-0.1-0.1l-0.2-0.3l-0.2-0.3l-0.1-0.2c-0.1-0.3-0.2-0.7-0.3-1.1c0-0.3-0.1-0.6-0.1-0.9v0.1v-0.2c0-0.1,0-0.3,0-0.3
		c0-0.4,0-0.8,0.1-1.2c0-0.1,0-0.2,0.1-0.4c0,0,0-0.2,0.1-0.4l0.1-0.4c0,0,0.1-0.2,0.1-0.4l0.1-0.2c0.2-0.3,0.4-0.5,0.6-0.8
		c0.2-0.2,0.5-0.4,0.8-0.5l0.2-0.1c0.1,0,0.1-0.1,0.2-0.1h0.2c0.4-0.1,0.7-0.2,1.1-0.2c0.5-0.1,1.1-0.1,1.6-0.1h0.4l0,0h0.2h0.2h1.2
		L184.8,154.9z"/>
	<path class="st0" d="M193.8,155.1c0.2,0,0.4,0,0.6,0c0.1,0,0.3,0,0.4,0h0.1h0.1c0,0,0.1,0,0.1,0.1l0.1,0.1l0.2,0.3
		c0.1,0.2,0.2,0.3,0.2,0.4s0.1,0.2,0.1,0.3c0,0,0.1,0.1,0.1,0.2c0.1,0.2,0.2,0.5,0.4,0.7c0,0.1,0.1,0.1,0.1,0.2l0.1,0.1l0.1,0.1
		l0.2,0.3c0.1,0.2,0.1,0.3,0.2,0.5c0.4,0.6,0.8,1.4,1.4,2.6c0.6,1.1,0.9,1.8,1,2c0,0.1,0.1,0.2,0.1,0.3c0,0.2,0.1,0.3,0.2,0.4
		c0.1,0.2,0.2,0.4,0.2,0.6l0,0l0,0h-0.3h-0.3h-0.3h-0.3h-0.4h-1.6h-0.2h-0.2h-0.1c-0.1-0.2-0.2-0.4-0.2-0.6c0-0.3-0.1-0.5-0.2-0.7
		l-0.1-0.2h-0.2H195h-0.4h-1.4l0,0v0.1v0.1c-0.1,0.4-0.3,0.7-0.5,1.1c-0.1,0.1-0.1,0.2-0.2,0.2h-0.2c-0.1,0-0.1,0-0.2,0h-0.6
		c-0.1,0-0.3,0-0.4,0c-0.2,0-0.4,0-0.6,0h-0.2h-0.1H190c-0.1,0-0.2,0-0.2-0.1l0,0V164l0.1-0.3l0.1-0.2c0-0.1,0.1-0.2,0.1-0.4v-0.2
		l0.1-0.2l0.1-0.2l0.2-0.5c0-0.1,0.1-0.2,0.1-0.3l0.1-0.1l0,0l0,0l0,0c0.1-0.1,0.1-0.3,0.2-0.5c0-0.1,0.1-0.2,0.1-0.3
		c0.1-0.1,0.1-0.3,0.1-0.4s0.1-0.3,0.1-0.3c0-0.1,0.1-0.1,0.1-0.2v-0.1v-0.1v-0.1l0.1-0.3l0.1-0.4c0-0.1,0-0.1,0.1-0.2l0.1-0.2
		c0.1-0.2,0.2-0.5,0.2-0.7v-0.1v-0.1v-0.1c0-0.1,0.1-0.3,0.2-0.5l0.1-0.3c0-0.1,0.1-0.1,0.1-0.2v-0.1v-0.1l0.1-0.4
		c0.1-0.3,0.2-0.5,0.3-0.8c0-0.1,0.1-0.2,0.3-0.2L193.8,155.1L193.8,155.1z M194.3,158.8c0-0.1-0.1-0.2-0.1-0.2l0,0
		C194.2,158.6,194.2,158.6,194.3,158.8l-0.2,0.2c0,0.1-0.1,0.3-0.1,0.4c-0.1,0.4-0.2,0.6-0.2,0.7v0.2v0.1v0.1l0,0v0.1
		c0.3,0.1,0.7,0.1,1,0.1h0.3c0.1,0,0.2,0,0.2,0l0,0c0-0.2-0.1-0.3-0.2-0.4c-0.1-0.1-0.1-0.3-0.2-0.5l-0.1-0.1l-0.1-0.2l-0.1-0.1
		l-0.1-0.2v-0.3L194.3,158.8z"/>
	<path class="st0" d="M199.1,154.7L199.1,154.7h0.5h0.1h0.4h0.5c0.2,0,0.4,0.1,0.7,0.1s0.6,0,0.9,0.1l0.4,0.1c0.3,0.1,0.7,0.2,1,0.3
		c0.2,0.1,0.3,0.2,0.4,0.3c0.2,0.3,0.4,0.6,0.5,0.9c0,0.2,0.1,0.4,0.1,0.6c0,0.4-0.1,0.8-0.2,1.2c-0.1,0.1-0.2,0.2-0.3,0.3l-0.2,0.2
		c0,0.1-0.1,0.1-0.1,0.2c0,0.1-0.1,0.1-0.1,0.2c-0.1,0.1-0.2,0.2-0.2,0.2s0.1,0.2,0.4,0.4c0.1,0.1,0.2,0.2,0.4,0.3l0.2,0.2l0.2,0.2
		l0.1,0.1l0.1,0.1c0.2,0.2,0.3,0.4,0.5,0.5l0.4,0.3c0.1,0.1,0.1,0.1,0.2,0.1c0.4,0.3,0.7,0.6,1,0.9c0.5,0.5,0.8,0.8,0.9,0.9
		c0.1,0.1,0.2,0.2,0.2,0.2v0.1c0,0.1,0,0.1-0.1,0.2h-3.5l-0.3-0.4l-0.4-0.5l-0.4-0.4c-0.1-0.2-0.3-0.4-0.4-0.5l-0.4-0.4l-0.3-0.2
		l-0.1-0.1l-0.1-0.1v-0.1l0,0v0.1v0.1v0.1c0,0,0,0.3,0.1,0.7s0.1,0.7,0.1,1.1v0.1c0,0.3,0,0.5,0,0.6c0,0.1,0,0.1-0.1,0.1H200h-0.1
		h-0.1h-0.1v-0.1v0v-0.1c0-0.1,0-0.2,0-0.3c0-0.4,0-0.9-0.1-1.5c-0.1-0.9,0-0.1,0-0.3v-0.4c0-0.5,0-0.7,0-0.8c0-0.2,0-0.3,0-0.5
		c0-0.2,0-0.3,0-0.5c0-0.3,0-0.2,0-0.6c0-0.1,0-0.2,0-0.3v-0.3c0-0.4,0-0.6,0-0.6v-0.3c0,0,0-0.2-0.1-0.6v-0.4v-0.3
		c0-0.1,0-0.2,0-0.3v-0.1v-0.1v-0.1v-0.1c0-0.1,0-0.1,0-0.1c0-0.1,0-0.2,0-0.3s0-0.3,0.1-0.4l0.1-0.1L199.1,154.7z M201.9,157.1
		c-0.1,0-0.2-0.1-0.3-0.1h-0.1c0,0,0,0-0.1,0c0,0.1,0,0.2,0,0.4c0,0.2,0,0.3,0,0.5c0,0.3,0,0.4,0.1,0.4h0.3c0.1,0,0.2,0,0.2-0.1
		c0.1,0,0.2-0.1,0.2-0.1c0.1-0.1,0.1-0.2,0.2-0.3c0-0.1,0.1-0.2,0.1-0.3l0,0c0-0.1-0.1-0.1-0.1-0.2s-0.1-0.1-0.2-0.1L201.9,157.1z"
		/>
	<path class="st0" d="M208.1,155.1c0.2,0,0.4,0,0.6,0c0.1,0,0.3,0,0.4,0h0.1h0.1c0,0,0.1,0,0.1,0.1v0.1l0.2,0.3
		c0.1,0.2,0.2,0.3,0.2,0.4s0.1,0.2,0.1,0.3c0,0,0.1,0.1,0.1,0.2c0.1,0.2,0.2,0.5,0.4,0.7c0,0.1,0.1,0.1,0.1,0.2l0.1,0.1l0.1,0.1
		l0.2,0.3c0.1,0.2,0.1,0.3,0.2,0.5c0.4,0.6,0.8,1.4,1.4,2.6c0.6,1.1,0.9,1.8,1,2c0,0.1,0.1,0.2,0.1,0.3c0,0.2,0.1,0.3,0.2,0.4
		c0.1,0.2,0.2,0.4,0.2,0.6l0,0l0,0h-0.3h-0.3h-0.3h-0.3h-0.4h-1.6h-0.2h-0.2h-0.1c-0.1-0.2-0.2-0.4-0.2-0.6c0-0.3-0.1-0.5-0.2-0.7
		l-0.1-0.2h-0.2h-0.3h-0.4h-0.3h-0.4h-0.7l0,0v0.1v0.1c-0.1,0.4-0.3,0.7-0.5,1.1c-0.1,0.1-0.1,0.2-0.2,0.2h-0.2c-0.1,0-0.1,0-0.2,0
		h-0.6c-0.1,0-0.3,0-0.4,0c-0.2,0-0.4,0-0.6,0h-0.2h-0.1h-0.2h-0.1h-0.1l0,0c0-0.2,0-0.5,0.1-0.7c0-0.1,0.1-0.2,0.1-0.4v-0.2
		l0.1-0.2l0.1-0.2l0.2-0.5c0-0.1,0.1-0.2,0.1-0.3l0.1-0.1l0,0l0,0l0,0c0.1-0.1,0.1-0.3,0.2-0.5c0-0.1,0.1-0.2,0.1-0.3
		c0.1-0.1,0.1-0.3,0.1-0.4s0.1-0.3,0.1-0.3c0-0.1,0.1-0.1,0.1-0.2v-0.1v-0.1v-0.1l0.1-0.3l0.1-0.4c0-0.1,0-0.1,0.1-0.2l0.1-0.2
		c0.1-0.2,0.2-0.5,0.2-0.7v-0.1v-0.1v-0.1c0-0.1,0.1-0.3,0.2-0.5l0.1-0.3c0-0.1,0.1-0.1,0.1-0.2v-0.1v-0.1l0.1-0.4
		c0.1-0.3,0.2-0.5,0.3-0.8c0-0.1,0.1-0.2,0.3-0.2L208.1,155.1L208.1,155.1z M208.3,153.1h2c0.1,0,0.1,0,0.1,0l-0.1,0.3
		c-0.1,0.2-0.3,0.5-0.5,0.7c-0.2,0.3-0.4,0.5-0.4,0.6s-0.1,0.1-0.1,0.2h-0.1h-1.6c-0.1,0-0.2,0-0.2,0l0,0c0-0.1,0.1-0.2,0.1-0.3
		c0.1-0.1,0.1-0.2,0.2-0.3c0.1-0.2,0.3-0.4,0.4-0.6c0-0.1,0-0.1,0.1-0.2C208.2,153.2,208.2,153.1,208.3,153.1L208.3,153.1
		L208.3,153.1z M208.5,159c0-0.1-0.1-0.2-0.1-0.2l0,0c0,0-0.1,0.2-0.2,0.5c-0.1,0.3-0.2,0.6-0.2,0.7v0.2v0.1v0.1l0,0v0.1
		c0.3,0.1,0.7,0.1,1,0.1h0.3c0.1,0,0.2,0,0.2,0l0,0c0-0.1-0.1-0.3-0.1-0.4c-0.1-0.1-0.1-0.3-0.2-0.4c-0.1-0.1-0.1-0.2-0.2-0.3
		l-0.1-0.2l-0.1-0.1L208.5,159z"/>
</g>
</svg>
