<?xml version="1.0" encoding="utf-8"?>
<!-- Generator: Adobe Illustrator 21.0.0, SVG Export Plug-In . SVG Version: 6.00 Build 0)  -->
<svg version="1.1" id="Layer_1" xmlns="http://www.w3.org/2000/svg" xmlns:xlink="http://www.w3.org/1999/xlink" x="0px" y="0px"
	 viewBox="0 0 457.9 440.3" style="enable-background:new 0 0 457.9 440.3;" xml:space="preserve">
<style type="text/css">
	.st0{fill:none;stroke:#494949;stroke-width:1.95;stroke-miterlimit:10;}
	.st1{fill:#494949;}
	.st2{fill:none;stroke:#494949;stroke-width:2.47;stroke-miterlimit:10;}
	.st3{fill:none;stroke:#494949;stroke-width:1.71;stroke-miterlimit:10;}
	.st4{fill:none;stroke:#494949;stroke-width:1.83;stroke-miterlimit:10;}
</style>
<title>Texture_UFC_MASSA</title>
<g id="logo">
	<path class="st0" d="M34.8,37.5h-7.1c-0.1,0-0.3,0.1-0.3,0.3l0,0v44.5c0,0.1,0.1,0.3,0.3,0.3c0,0,0,0,0,0h56.1
		c0.1,0,0.3-0.1,0.3-0.3c0,0,0,0,0,0V63.1"/>
	<path class="st0" d="M84,43.6v-5.9c0-0.1-0.1-0.3-0.3-0.3l0,0h-7.1"/>
	<path class="st0" d="M34.8,37.5h-7.1c-0.1,0-0.3,0.1-0.3,0.3l0,0v44.5c0,0.1,0.1,0.3,0.3,0.3c0,0,0,0,0,0h56.1
		c0.1,0,0.3-0.1,0.3-0.3c0,0,0,0,0,0V63.1"/>
	<path class="st0" d="M84,43.6v-5.9c0-0.1-0.1-0.3-0.3-0.3l0,0h-7.1"/>
	<path class="st0" d="M76.6,37.5h7.1c0.1,0,0.3,0.1,0.3,0.3l0,0v44.5c0,0.1-0.1,0.3-0.3,0.3c0,0,0,0,0,0H27.7
		c-0.1,0-0.3-0.1-0.3-0.3c0,0,0,0,0,0V37.7c0-0.1,0.1-0.3,0.3-0.3l0,0h7.1"/>
	<path class="st0" d="M33.2,34.8h45.1c0.1,0,0.3,0.1,0.3,0.3v2.1c0,0.1-0.1,0.3-0.3,0.3H33.2c-0.1,0-0.3-0.1-0.3-0.3v-2.1
		C32.9,35,33,34.8,33.2,34.8z"/>
	<path class="st0" d="M77.3,25.6c0.5,3.1,0.5,6.2-0.3,9.2"/>
	<path class="st0" d="M33.6,34.8c-2.9-12,4.5-24.1,16.5-27c1.7-0.4,3.5-0.6,5.2-0.6c4.3,0,8.6,1.2,12.2,3.6"/>
	<path class="st0" d="M67.6,10.8h0.7c5.6,0,10.2,4.6,10.2,10.2c0,1.6-0.4,3.1-1.1,4.6"/>
	<path class="st0" d="M67.6,10.8l-2.9,2c-0.1,0.1-0.1,0.2-0.1,0.4l9.2,13.7C73.9,27,74,27,74.1,27l3.3-1.4"/>
	<path class="st0" d="M79.9,47.5v0.3c0,0.1-0.1,0.3-0.3,0.3c0,0,0,0,0,0H31.8c-0.1,0-0.3-0.1-0.3-0.3c0,0,0,0,0,0v-5.5
		c0-0.1,0.1-0.3,0.3-0.3l0,0h47.7c0.1,0,0.3,0.1,0.3,0.3l0,0v5.6"/>
	<path class="st0" d="M31.4,82.5h5.9c0.9,0,1.6,0.7,1.6,1.6v16.6c0,0.9-0.7,1.6-1.6,1.6h-5.9c-0.9,0-1.6-0.7-1.6-1.6V84.1
		C29.8,83.2,30.5,82.5,31.4,82.5z"/>
	<path class="st0" d="M74.2,82.5h5.9c0.9,0,1.6,0.7,1.6,1.6v16.6c0,0.9-0.7,1.6-1.6,1.6h-5.9c-0.9,0-1.6-0.7-1.6-1.6V84.1
		C72.6,83.2,73.3,82.5,74.2,82.5z"/>
	<path class="st0" d="M79.9,71.8v1c0,0.1-0.1,0.3-0.3,0.3c0,0,0,0,0,0H31.8c-0.1,0-0.3-0.1-0.3-0.3c0,0,0,0,0,0V58.2
		c0-0.1,0.1-0.3,0.3-0.3c0,0,0,0,0,0h47.7c0.2,0,0.3,0.1,0.3,0.3l0,0L79.9,71.8z"/>
	<path class="st0" d="M51.8,73.1V71c0-0.1,0.1-0.3,0.3-0.3c0,0,0,0,0,0h5.1c0.1,0,0.3-0.1,0.3-0.3c0,0,0,0,0,0v-1.8
		c0-0.1,0.1-0.3,0.3-0.3c0,0,0,0,0,0h5.5c0.1,0,0.3-0.1,0.3-0.3c0,0,0,0,0,0v-1.8c0-0.1,0.1-0.3,0.3-0.3c0,0,0,0,0,0H69
		c0.1,0,0.3-0.1,0.3-0.3c0,0,0,0,0,0V64c0-0.1,0.1-0.3,0.3-0.3c0,0,0,0,0,0h5.6c0,0,0.1,0,0.1,0c0.1,0,0.1-0.1,0.1-0.2v-0.3"/>
	<path class="st0" d="M75.4,63.2v-1.8c0-0.1,0.1-0.3,0.3-0.3c0,0,0,0,0,0h4.2"/>
	<path class="st0" d="M40.4,12.8c-0.8,3.4-1.3,6.8-1.5,10.3c-0.2,3.9,0,7.8,0.7,11.7"/>
	<path class="st0" d="M48.3,8.3c0,0-1.3,2.6-1.9,12.6s0.4,14,0.4,14"/>
	<path class="st0" d="M70.1,21.9c0,0.4,0.1,0.8,0.1,1.2c0.2,3.9,0,7.8-0.6,11.7"/>
	<path class="st0" d="M60.6,7.7c0,0,1.5,3.2,2.2,13.1s-0.4,14-0.4,14"/>
	<line class="st0" x1="54.5" y1="7.2" x2="54.5" y2="34.8"/>
	<path class="st0" d="M175.9,110.9h7.1c1.9,0,3.4,1.5,3.4,3.4v11.2c0,0.2-0.2,0.4-0.4,0.4c0,0,0,0,0,0h-13.1c-0.2,0-0.4-0.2-0.4-0.4
		v-11.2C172.6,112.4,174.1,110.9,175.9,110.9z"/>
	<path class="st0" d="M177.5,126.6l-2.2,3.6c-0.1,0.2-0.4,0.3-0.6,0.1c-0.1,0-0.1-0.1-0.1-0.1l-1.9-3.6c-0.1-0.3,0.1-0.6,0.3-0.7
		c0.1,0,0.1,0,0.2,0h3.8c0.3,0,0.5,0.3,0.5,0.6C177.5,126.5,177.5,126.5,177.5,126.6z"/>
	<path class="st0" d="M182,126.6l-2.2,5.8c-0.1,0.2-0.4,0.3-0.6,0.1c-0.1,0-0.1-0.1-0.1-0.1l-2.2-5.8c-0.1-0.3,0.1-0.6,0.3-0.7
		c0.1,0,0.1,0,0.2,0h4.1c0.3,0,0.6,0.2,0.6,0.5C182,126.5,182,126.5,182,126.6z"/>
	<path class="st0" d="M186.2,126.6l-1.9,3.6c-0.1,0.2-0.4,0.3-0.6,0.1c-0.1,0-0.1-0.1-0.1-0.1l-2.2-3.6c-0.1-0.3,0.1-0.6,0.3-0.7
		c0.1,0,0.1,0,0.2,0h3.8c0.3,0,0.5,0.3,0.5,0.6C186.2,126.5,186.2,126.5,186.2,126.6z"/>
	<path class="st0" d="M165.1,103.1l5.1,3.5c0.2,0.2,0.2,0.4,0,0.6c0,0-0.1,0.1-0.2,0.1l-6.1,0.8c-0.3,0-0.6-0.2-0.6-0.5
		c0-0.1,0-0.1,0-0.2l1-4c0.1-0.3,0.4-0.5,0.7-0.4C165.1,103,165.1,103,165.1,103.1z"/>
	<path class="st0" d="M142.3,105.3c7.8,8,4.9,15.4,4.9,15.4H166c0,0-5.5-9.8-1.2-27.7"/>
	<path class="st0" d="M165.8,83.6l6.3,1.7c0.2,0.1,0.3,0.4,0.2,0.7c0,0.1-0.1,0.1-0.2,0.2l-6.1,3.1c-0.3,0.1-0.6,0-0.7-0.2
		c0-0.1-0.1-0.2-0.1-0.2l-0.2-4.5c0-0.4,0.3-0.7,0.6-0.7C165.7,83.6,165.8,83.6,165.8,83.6z"/>
	<path class="st0" d="M162,78l6-0.7c0.3,0,0.5,0.2,0.5,0.5c0,0.1,0,0.2,0,0.2l-3.1,4.8c-0.3,0.3-0.7,0.3-1,0.1c0,0-0.1-0.1-0.1-0.1
		l-2.8-3.9c-0.2-0.3-0.1-0.6,0.2-0.8C161.8,78.1,161.9,78,162,78z"/>
	<path class="st0" d="M158.3,74.2l5.6-2.4c0.3-0.1,0.6,0,0.7,0.3c0,0.1,0,0.2,0,0.2l-1.6,5.5c-0.2,0.3-0.6,0.5-0.9,0.3
		c0,0,0,0-0.1,0l-3.8-2.9c-0.3-0.2-0.3-0.6-0.1-0.8C158.2,74.3,158.2,74.3,158.3,74.2z"/>
	<path class="st0" d="M152.6,71.6l4.4-4.2c0.2-0.2,0.5-0.2,0.7,0c0.1,0.1,0.1,0.1,0.1,0.2l0.4,5.7c0,0.4-0.4,0.7-0.7,0.6
		c0,0-0.1,0-0.1,0l-4.5-1.5c-0.3-0.1-0.5-0.4-0.4-0.8C152.5,71.7,152.5,71.6,152.6,71.6z"/>
	<path class="st0" d="M166.1,90.4l5.7,2.4c0.2,0.1,0.3,0.4,0.1,0.6c0,0.1-0.1,0.1-0.1,0.1l-5.8,2c-0.3,0.1-0.6-0.1-0.7-0.4
		c0-0.1,0-0.1,0-0.2l0.2-4.1c0-0.3,0.3-0.5,0.6-0.5C166.1,90.4,166.1,90.4,166.1,90.4z"/>
	<path class="st0" d="M165.3,96.8l5.2,3.3c0.2,0.2,0.2,0.4,0,0.6c0,0.1-0.1,0.1-0.2,0.1l-6.1,1c-0.3,0-0.6-0.2-0.6-0.5
		c0-0.1,0-0.1,0-0.2l0.8-4c0-0.3,0.3-0.5,0.6-0.5C165.2,96.7,165.2,96.8,165.3,96.8z"/>
	<path class="st1" d="M165.3,95.4c2.1-7.9-0.3-17.1-7.4-21.8c-3.1-2.1-6.9-3-10.6-2.3c-3.6,0.7-6.4,3.1-8.8,5.7
		c-1.4,1.8-3,3.3-4.8,4.7c-3.3,2.4-7.4,3.7-11.5,3.6c-2.9-0.1-7.2-2.7-9.8-0.7c-1.5,1.2-2.8,2.6-3.9,4.2c-0.4,0.6-0.4,1.4-0.1,2.1
		c1,2.3,2.2,4.6,3.6,6.7c1,1.7,2.3,1.3,4,0.8c3.1-0.9,6.2-1.8,9.3-2.5c2.9-0.7,7-1.7,9.9-0.5c2.1,0.9,3.5,3.1,1.6,4.9
		s-4.5,2.4-6.8,3.1c-2.5,0.7-5.1,1.3-7.6,1.7c-1.2,0.2-3.3,0.1-4.3,1c-1.8,1.6-1.2,5.9,0.1,7.7c1.1,1.5,3.6,1.3,5.3,1.3
		c7.4-0.2,15.4-2.9,19.7-9.3l-1.3,0.3l0,0c1.1,0.6,2.1-1.1,1-1.7l0,0c-0.5-0.3-1-0.1-1.3,0.3c-3.8,5.7-11,8-17.6,8.3
		c-1.8,0.1-3.9,0.5-4.6-1.5c-0.3-0.9-0.8-3.4,0.2-4.1c0.5-0.2,1.1-0.2,1.6-0.2c4.1-0.6,21.6-3,18.3-10.3c-2.1-4.8-8.1-4.2-12.3-3.4
		c-3,0.6-5.9,1.3-8.9,2.2c-1.1,0.3-2.2,0.7-3.4,1c-0.3,0.1-0.7,0.2-1,0.3c-0.2,0,0.3,0.5,0-0.1c-0.9-2.2-2-4.4-3.4-6.4
		c-0.2-0.2-0.3-0.5-0.4-0.8c0.1,0.4-0.5,0.6,0.2,0.3c0.5-0.4,0.8-0.8,1.2-1.3c1-1.1,2-2.9,3.7-2.8s3.6,1,5.4,1.2
		c1.8,0.3,3.7,0.2,5.6-0.1c3.1-0.6,6.1-1.8,8.7-3.6c5.3-3.6,8.1-10.7,15.6-10.3c10.7,0.5,15.5,12.8,13.1,21.9c0,0.6,0.4,1,1,1
		C164.8,96.1,165.1,95.9,165.3,95.4L165.3,95.4z"/>
	<path class="st0" d="M120.2,98.3l-2,4.2c-0.1,0.2-0.4,0.3-0.7,0.2c-0.1,0-0.1-0.1-0.2-0.1l-2.5-3.7c-0.1-0.3,0-0.7,0.3-0.8
		c0.1,0,0.1,0,0.2-0.1l4.2-0.4c0.3,0,0.6,0.2,0.7,0.5C120.2,98.1,120.2,98.2,120.2,98.3z"/>
	<path class="st0" d="M125.5,97.3l-2,4.2c-0.1,0.2-0.4,0.3-0.7,0.2c-0.1,0-0.1-0.1-0.2-0.1l-2.5-3.7c-0.1-0.3,0-0.7,0.3-0.8
		c0.1,0,0.1,0,0.2-0.1l4.2-0.4c0.3,0,0.6,0.2,0.6,0.6C125.5,97.2,125.5,97.3,125.5,97.3z"/>
	<path class="st0" d="M130.7,96.5l-2,4.2c-0.1,0.2-0.4,0.3-0.7,0.2c-0.1,0-0.1-0.1-0.2-0.1l-2.5-3.7c-0.1-0.3,0-0.7,0.3-0.8
		c0.1,0,0.1,0,0.2-0.1l4.2-0.4c0.3,0,0.6,0.2,0.6,0.6C130.7,96.4,130.7,96.5,130.7,96.5z"/>
	<path class="st0" d="M135.8,95.7l-2,4.2c-0.1,0.2-0.4,0.3-0.7,0.2c-0.1,0-0.1-0.1-0.2-0.1l-2.5-3.7c-0.1-0.3,0-0.7,0.3-0.8
		c0.1,0,0.1,0,0.2-0.1l4.2-0.4c0.3,0,0.6,0.2,0.6,0.6C135.8,95.6,135.8,95.6,135.8,95.7z"/>
	<path class="st0" d="M154.5,104.1L154.5,104.1c2.9-0.6,5.7,1.8,6.1,5.4l1,10.8l-10.6,0.3l-1.1-8.9
		C149.6,108.1,151.6,104.7,154.5,104.1z"/>
	<line class="st0" x1="150" y1="109.6" x2="160.5" y2="107.9"/>
	<line class="st0" x1="150.2" y1="113.8" x2="161.4" y2="112"/>
	<line class="st0" x1="150.7" y1="118" x2="161.4" y2="116.2"/>
	<path class="st0" d="M150,85.3c0,0.1,0,0.2,0,0.3l-8.2,1.1c0-0.1,0-0.2,0-0.3c-0.3-2.7,1.2-5.1,3.5-5.3S149.6,82.7,150,85.3z"/>
	<path class="st1" d="M140.6,87.8l10.6-1.4c1.2-0.2,1.2-2.1,0-1.9l-10.6,1.4C139.4,86,139.4,88,140.6,87.8z"/>
	<rect x="116.6" y="20.3" class="st0" width="32.4" height="32.4"/>
	<line class="st0" x1="132.8" y1="20.3" x2="132.8" y2="52.7"/>
	<path class="st0" d="M132.8,36.5c0.7-3.9,4.2-6.6,8.1-6.4c8.1,0,8.1,6.4,8.1,6.4h-32.4"/>
	<path class="st0" d="M132.8,36.5c3.9,0.7,6.6,4.2,6.4,8.1c0,8.1-6.4,8.1-6.4,8.1V20.3"/>
	<path class="st0" d="M132.8,36.5c-0.7,3.9-4.2,6.6-8.1,6.4c-8.1,0-8.1-6.4-8.1-6.4H149"/>
	<path class="st0" d="M132.8,36.5c-3.9-0.7-6.6-4.2-6.4-8.1c0-8.1,6.4-8.1,6.4-8.1v32.4"/>
	<path class="st2" d="M26.7,210.7h17.4c0.9,0,1.6,0.7,1.6,1.6v5.3c0,0.9-0.7,1.6-1.6,1.6H26.7c-0.9,0-1.6-0.7-1.6-1.6v-5.3
		C25.1,211.4,25.8,210.7,26.7,210.7z"/>
	<path class="st1" d="M37.1,152.6c0.2,1.8,0.4,3.5,0.7,5.3c0.2,1.1,0.4,2.2,0.5,3.3c0-0.4,0-0.1,0,0.3c0.1,3.1,0.1,6.3,0.2,9.5
		l0.6,31.5l0.2,8.4l1.2-1.2H31l1.2,1.2l0.8-48.8c0-0.3,0-0.7,0-1c0,0,0,0.4,0-0.1s0.2-1.1,0.2-1.7c0.3-2.2,0.6-4.4,0.9-6.6
		c0.2-1.6-2.3-1.6-2.5,0c-0.4,3-1,5.5-1.2,8.8s-0.1,6.3-0.2,9.5l-0.6,31.5l-0.2,8.4c0,0.7,0.6,1.2,1.2,1.2h9.2
		c0.7,0,1.3-0.5,1.3-1.2c0,0,0,0,0,0L40.7,162c-0.2-3.1-0.6-6.3-1.2-9.4C39.4,151.1,36.9,151,37.1,152.6L37.1,152.6z"/>
	<path class="st1" d="M39.2,177.1c-1.2,0.1-2.4,0.1-3.6,0.1c-0.9,0-0.9,1.4,0,1.4c1.2,0,2.4,0,3.6-0.1
		C40.1,178.5,40.1,177,39.2,177.1z"/>
	<path class="st1" d="M31.6,190.7h3.8c0.4,0,0.7-0.3,0.7-0.7c0-0.4-0.3-0.7-0.7-0.7h-3.8c-0.4,0-0.7,0.3-0.7,0.7
		C30.8,190.4,31.2,190.7,31.6,190.7z"/>
	<path class="st1" d="M39.9,202H35c-0.4,0-0.7,0.3-0.7,0.7c0,0.4,0.3,0.7,0.7,0.7h4.8c0.4,0,0.7-0.3,0.7-0.7
		C40.6,202.3,40.3,202,39.9,202z"/>
	<path class="st1" d="M39.1,199.4h-2.3c-0.4,0-0.7,0.3-0.7,0.7c0,0.4,0.3,0.7,0.7,0.7h2.3c0.4,0,0.7-0.3,0.7-0.7
		C39.8,199.7,39.5,199.4,39.1,199.4z"/>
	<path class="st1" d="M31.9,208.6h4.4c0.4,0,0.7-0.3,0.7-0.7c0-0.4-0.3-0.7-0.7-0.7h-4.4c-0.4,0-0.7,0.3-0.7,0.7
		C31.1,208.3,31.5,208.6,31.9,208.6z"/>
	<path class="st1" d="M39.1,182.7h-4.3c-0.4,0-0.7,0.3-0.7,0.7c0,0.4,0.3,0.7,0.7,0.7h4.3c0.4,0,0.7-0.3,0.7-0.7
		C39.8,183,39.5,182.7,39.1,182.7z"/>
	<path class="st1" d="M32.4,171.7h3.5c0.4,0,0.7-0.3,0.7-0.7c0-0.4-0.3-0.7-0.7-0.7h-3.5c-0.4,0-0.7,0.3-0.7,0.7
		C31.7,171.4,32,171.7,32.4,171.7L32.4,171.7z"/>
	<path class="st2" d="M31.9,164.2c2.1,1.8,5.2,2,7.5,0.4"/>
	<path class="st1" d="M26.8,141.6c-3.1,1.7-5.7,4.2-7.4,7.3c-1.7,2.9-2.7,6.1-3,9.4c-0.2,2.3-0.2,4.6,0.2,6.9
		c0.2,1.7,0.3,4.8,1.8,5.8c0.5,0.3,1.1,0.2,1.5-0.2c0.9-0.9,0.7-2.6,0.8-3.8c0.2-2.1,0.6-4.1,1.2-6.1c1-3.6,2.8-9,7.2-9.3
		c1.6-0.1,1.6-2.6,0-2.5c-4.6,0.4-7.1,4.2-8.6,8.1c-0.8,2.3-1.4,4.6-1.8,7c-0.2,1-0.3,2-0.4,3c0,0.4-0.1,0.9-0.1,1.3
		c0,0.7-0.4,1,0.1,0.5l1.5-0.2c-0.1-0.1-0.3-2.5-0.4-2.9c-0.2-1.1-0.3-2.2-0.4-3.2c-0.1-1.9,0-3.9,0.3-5.8c0.5-2.8,1.6-5.5,3.2-7.9
		c1.5-2.2,3.5-4.1,5.9-5.4C29.5,143.1,28.3,140.9,26.8,141.6L26.8,141.6z"/>
	<path class="st1" d="M42.9,143.8c2.4,1.3,4.5,3.1,6.1,5.4c1.7,2.3,2.8,4.9,3.3,7.7c0.3,1.8,0.5,3.6,0.4,5.4c0,1.2-0.1,2.3-0.3,3.5
		c-0.1,0.4-0.4,3.2-0.5,3.2l1.5,0.2c0.5,0.5,0.1,0.2,0.1-0.5c0-0.4-0.1-0.7-0.1-1.1c-0.1-1-0.2-2-0.4-2.9c-0.4-2.5-1-4.9-1.8-7.3
		c-1.5-4-4-7.8-8.6-8.1c-1.6-0.1-1.6,2.3,0,2.5c4.4,0.4,6.2,5.8,7.2,9.3c0.5,1.9,0.9,3.9,1.1,5.9c0.2,1.2-0.1,3.1,0.8,4
		c0.4,0.4,1,0.5,1.5,0.2c1.5-1.1,1.5-4.1,1.8-5.8c0.3-2.2,0.4-4.4,0.2-6.5c-0.3-3.5-1.4-6.9-3.3-9.9c-1.8-3.1-4.5-5.6-7.7-7.3
		C42.8,141,41.5,143.1,42.9,143.8L42.9,143.8z"/>
	<path class="st1" d="M28.2,149.4c-1.2,1-2.1,2.3-2.4,3.8c-0.4,1.7-0.6,3.5-0.4,5.2c0.1,1.6,0.1,4.6,1.5,5.6
		c0.5,0.3,1.1,0.2,1.5-0.2c0.9-0.9,0.8-3.3,1.1-4.4c0.4-1.7,1.3-5.3,3.5-5.5c1.6-0.2,1.6-2.7,0-2.5c-2.5,0.3-3.9,2.2-4.9,4.4
		c-0.5,1.3-0.9,2.6-1.2,3.9c-0.1,0.6-0.2,1.1-0.3,1.7c-0.1,0.2-0.1,0.5-0.1,0.7c0,0.6-0.4,0.5,0.2-0.1l1.5-0.2
		c0.2,0.1-0.3-2.9-0.3-3.1c-0.1-0.7-0.1-1.3-0.1-2c0-1.1,0.1-2.2,0.5-3.3c0.2-0.6,0.5-1.1,0.8-1.6c0.1-0.1,0.7-0.6,0.3-0.4
		C30.8,150.6,29.5,148.5,28.2,149.4L28.2,149.4z"/>
	<path class="st1" d="M42,151.5c-0.4-0.3,0.2,0.2,0.3,0.4c0.3,0.5,0.6,1.1,0.8,1.6c0.3,1.1,0.5,2.2,0.5,3.3c0,0.7,0,1.3-0.1,2
		c0,0.1-0.5,3.2-0.3,3.1l1.5,0.2c0.5,0.6,0.2,0.4,0.1-0.4c-0.1-0.6-0.2-1.1-0.3-1.7c-0.3-1.4-0.7-2.8-1.3-4.2
		c-1-2.2-2.4-4.1-4.9-4.4c-1.6-0.2-1.6,2.3,0,2.5c2.2,0.3,3.1,3.8,3.6,5.6c0.3,1.2,0.2,3.5,1.1,4.4c0.4,0.4,1,0.5,1.5,0.2
		c1.3-0.9,1.3-3.7,1.5-5.2c0.2-1.9,0.1-3.7-0.3-5.6c-0.3-1.5-1.2-2.9-2.4-3.8C41.9,148.5,40.7,150.6,42,151.5L42,151.5z"/>
	<path class="st1" d="M46.9,137.9c-0.4,0.1,0.9,0,1.3,0.1c1.3,0.2,2.5,0.7,3.6,1.4c1.9,1.4,3.5,3.2,4.6,5.2c0.9,1.5,1.6,3.2,2.2,4.9
		c0.3,1,0.6,1.9,0.9,2.9c0.1,0.3,0.8,2.5,0.8,2.6l1.4-0.6c0.7,0.2,0.2,0.1,0-0.4c-0.2-0.4-0.5-0.8-0.8-1.2c-0.6-0.8-1.2-1.7-1.8-2.5
		c-1.4-1.9-3-3.7-4.7-5.3c-3-2.7-7.1-5.2-11.2-3.5c-1.4,0.6-0.8,3,0.7,2.4c4.3-1.7,8.2,2,10.9,5c1.4,1.6,2.7,3.2,3.8,5
		c0.7,1,1.2,2.5,2.4,2.9c0.5,0.1,1.1-0.1,1.4-0.6c0.8-1.6-0.5-4.4-1-6c-0.6-2-1.4-4-2.4-5.9c-1.3-2.6-3.2-5-5.6-6.7
		c-2.1-1.6-4.7-2.4-7.3-2.1C44.7,135.8,45.3,138.2,46.9,137.9L46.9,137.9z"/>
	<path class="st1" d="M25.4,135.6c-2.7-0.3-5.5,0.4-7.7,2c-2.4,1.7-4.3,4-5.7,6.6c-1,1.8-1.8,3.7-2.4,5.7c-0.5,1.7-2,4.6-1.1,6.3
		c0.3,0.5,0.9,0.7,1.4,0.6c1.2-0.4,1.8-1.9,2.4-2.9c1.2-1.8,2.4-3.4,3.8-5c2.7-2.9,6.6-6.7,10.9-5c1.5,0.6,2.1-1.8,0.7-2.4
		c-4.1-1.7-8.2,0.7-11.2,3.5c-1.7,1.6-3.2,3.3-4.5,5.1c-0.6,0.8-1.2,1.7-1.8,2.5c-0.3,0.4-0.6,0.8-0.8,1.3s-0.8,0.8-0.1,0.5l1.4,0.6
		c0-0.1,0.7-2.2,0.8-2.5c0.3-1,0.6-1.9,0.9-2.9c0.6-1.7,1.3-3.3,2.2-4.8c1.2-2.1,2.9-4,4.9-5.3c1.1-0.7,2.4-1.2,3.8-1.4
		c0.4,0,0.8,0,1.2,0c0.3,0,0.6,0.1,0.2,0C26.3,138.2,27,135.9,25.4,135.6L25.4,135.6z"/>
	<path class="st1" d="M26.2,125.9c-10,0.6-17.6,8.6-19.6,18.2c-0.2,0.6,0.1,1.4,0.8,1.6c0.6,0.2,1.2,0,1.5-0.6
		c3.1-4.4,10.7-6.6,16.2-7c1.6-0.1,1.6-2.6,0-2.5c-6.4,0.6-14.4,2.6-18.4,8.2l2.3,1c1.7-8.5,8.3-15.8,17.2-16.4
		c1.6-0.1,1.6-2.6,0-2.5V125.9z"/>
	<path class="st1" d="M44.3,128.4c8.9,0.6,15.5,7.9,17.2,16.4l2.3-1c-3.1-5.9-11.3-7.9-17.2-8.4c-1.6-0.1-1.6,2.3,0,2.5
		c5.1,0.4,12.4,2.1,15,7.1c0.7,1.3,2.5,0.4,2.3-1c-1.9-9.6-9.6-17.5-19.6-18.2C42.7,125.8,42.7,128.2,44.3,128.4L44.3,128.4z"/>
	<path class="st1" d="M26.2,125.9c-10,0.6-17.6,8.6-19.6,18.2c-0.2,0.6,0.1,1.4,0.8,1.6c0.6,0.2,1.2,0,1.5-0.6
		c3.1-4.4,10.7-6.6,16.2-7c1.6-0.1,1.6-2.6,0-2.5c-6.4,0.6-14.4,2.6-18.4,8.2l2.3,1c1.7-8.5,8.3-15.8,17.2-16.4
		c1.6-0.1,1.6-2.6,0-2.5V125.9z"/>
	<path class="st1" d="M44.3,128.4c8.9,0.6,15.5,7.9,17.2,16.4l2.3-1c-3.1-5.9-11.3-7.9-17.2-8.4c-1.6-0.1-1.6,2.3,0,2.5
		c5.1,0.4,12.4,2.1,15,7.1c0.7,1.3,2.5,0.4,2.3-1c-1.9-9.6-9.6-17.5-19.6-18.2C42.7,125.8,42.7,128.2,44.3,128.4L44.3,128.4z"/>
	<path class="st1" d="M36.8,120.3c-10-5.9-22.1-2.5-29.5,6c-0.9,1,0.3,2.8,1.5,1.9c4.8-3.4,12.2-1.7,17.1,0.1
		c1.5,0.6,2.1-1.8,0.7-2.4c-5.6-2.1-13.7-3.7-19,0.1l1.5,1.9c6.6-7.6,17.4-10.9,26.5-5.6c0.6,0.3,1.4,0,1.6-0.6
		C37.5,121.4,37.3,120.7,36.8,120.3L36.8,120.3z"/>
	<path class="st1" d="M44.6,128.3c4.9-1.8,12.2-3.6,16.9-0.1c1,0.7,2.4-0.7,1.7-1.7c-2.2-2.9-5-5.3-8.2-7
		c-6.3-3.4-13.3-2.8-19.4,0.8l1.8,1.4c0.5-3.3,3.1-5.9,5.9-7.5c0.6-0.4,0.7-1.2,0.3-1.7c-0.3-0.5-1-0.7-1.5-0.4
		c-3.3,1.9-6.4,5.1-7,9c-0.2,0.7,0.2,1.3,0.9,1.5c0.3,0.1,0.6,0,0.9-0.1c5.7-3.4,12-3.7,17.8-0.3c2.5,1.5,4.6,3.4,6.4,5.6l1.7-1.7
		c-5.2-3.9-13.4-2.2-18.8-0.1C42.5,126.6,43.1,129,44.6,128.3L44.6,128.3z"/>
	<path class="st1" d="M37.3,121.4c-0.7-4.7-3.6-8.9-7.9-11c-1.3-0.6-2.5,1.3-1.2,2c2.5,1.2,4.5,3.2,5.7,5.7c0.4,0.8,0.7,1.6,0.9,2.5
		c0,0.2,0.3,1.4,0.2,0.8C35.2,122.8,37.5,122.8,37.3,121.4L37.3,121.4z"/>
	<path class="st0" d="M193.7,22.4h78.9c0.9,0,1.6,0.7,1.6,1.6v8c0,0.9-0.7,1.6-1.6,1.6h-78.9c-0.9,0-1.6-0.7-1.6-1.6v-8
		C192.1,23.1,192.8,22.4,193.7,22.4z"/>
	<path class="st0" d="M193.4,75.6v-5.7c0-0.2,0.2-0.4,0.4-0.4h78.5c0.2,0,0.4,0.2,0.4,0.4v5.7"/>
	<path class="st0" d="M198.8,63.6h68.8c0.8,0,1.5,0.7,1.5,1.5v3.1c0,0.8-0.7,1.5-1.5,1.5h-68.8c-0.8,0-1.5-0.7-1.5-1.5V65
		C197.3,64.2,197.9,63.6,198.8,63.6z"/>
	<path class="st0" d="M201.3,33.6h2.2c0.6,0,1,0.5,1,1v27.9c0,0.6-0.5,1-1,1h-2.2c-0.6,0-1-0.5-1-1V34.6
		C200.3,34,200.7,33.6,201.3,33.6z"/>
	<path class="st0" d="M262.8,33.6h2.2c0.6,0,1,0.5,1,1v27.9c0,0.6-0.5,1-1,1h-2.2c-0.6,0-1-0.5-1-1V34.6
		C261.8,34,262.2,33.6,262.8,33.6z"/>
	<path class="st1" d="M225.2,58.5h15.9c0.5-0.1,0.9-0.7,0.8-1.2c-0.1-0.4-0.4-0.7-0.8-0.8h-15.9c-0.5,0.1-0.9,0.7-0.8,1.2
		C224.5,58.1,224.8,58.4,225.2,58.5z"/>
	<path class="st1" d="M234.1,63.5V48.1c-0.1-0.5-0.7-0.9-1.2-0.8c-0.4,0.1-0.7,0.4-0.8,0.8v15.4c0.1,0.5,0.7,0.9,1.2,0.8
		C233.8,64.2,234,63.9,234.1,63.5z"/>
	<path class="st1" d="M234.9,63.5v-6c-0.1-0.5-0.7-0.9-1.2-0.8c-0.4,0.1-0.7,0.4-0.8,0.8v6c0.1,0.5,0.7,0.9,1.2,0.8
		C234.5,64.2,234.8,63.9,234.9,63.5z"/>
	<path class="st1" d="M233.4,63.5v-6c-0.1-0.5-0.7-0.9-1.2-0.8c-0.4,0.1-0.7,0.4-0.8,0.8v6c0.1,0.5,0.7,0.9,1.2,0.8
		C233,64.2,233.3,63.9,233.4,63.5z"/>
	<path class="st0" d="M212.5,33.6h2.2c0.6,0,1,0.5,1,1v27.9c0,0.6-0.5,1-1,1h-2.2c-0.6,0-1-0.5-1-1V34.6
		C211.4,34,211.9,33.6,212.5,33.6z"/>
	<path class="st0" d="M251.7,33.6h2.2c0.6,0,1,0.5,1,1v27.9c0,0.6-0.5,1-1,1h-2.2c-0.6,0-1-0.5-1-1V34.6
		C250.6,34,251.1,33.6,251.7,33.6z"/>
	<path class="st0" d="M343.4,70.6h-32.1c-0.2,0-0.3,0.1-0.3,0.3c0,0,0,0,0,0V84c0,0.2,0.2,0.3,0.3,0.3c0,0,0,0,0,0h32.4"/>
	<path class="st0" d="M311.4,84.3h32.1c0.2,0,0.3-0.1,0.3-0.3c0,0,0,0,0,0V70.8c0-0.2-0.2-0.3-0.3-0.3c0,0,0,0,0,0H311"/>
	<path class="st1" d="M357.8,38.4c-0.1-1.7-0.8-3.2-2-4.3l0.1,1.2c0.9-1.2,1.2-2.8,1-4.3c-0.2-1-1-1.9-1.1-2.8
		c-0.3-1.3-0.1-2.4-0.8-3.6c-0.7-1.1-1.8-2-3.1-2.4l0.7,0.9c0.1-2.9-2-5.3-4.8-5.8c-1.4-0.3-2.7-0.9-3.8-1.9c-1-1.2-2.4-1.9-4-2
		c-0.7,0.1-1.4,0.2-2.2,0.2c-0.5-0.1-1.3-0.9-1.8-1.2c-1.8-0.8-3-0.1-4.7-0.1s-2.9-0.6-4.6,0c-1.5,0.5-2.9,0-4.5,0.4
		c-0.7,0.2-1.3,0.8-1.9,1s-0.4,0.1-1.2,0.2c-1.6,0.1-3.1,0.7-4.3,1.9c-0.9,1-2,1.4-3,2.3c-0.5,0.5-0.8,1.3-1.2,1.8
		c-0.5,0.4-1.1,0.8-1.7,1.2c-1.3,1-1.5,2.1-2.1,3.4s-1.7,2.3-2.1,3.9c-0.1,0.6-0.2,1.2-0.4,1.7c-0.4,0.7-0.8,1.5-1,2.3
		c-0.2,0.8,0,1.6-0.1,2.4c-0.2,1-0.3,2-0.3,3c0.1,1,0.7,1.8,0.8,2.7c0,0.9,0,1.8,0.1,2.7c0.3,1.6,0,3.2,0.6,4.8
		c0.4,0.7,0.8,1.4,1.4,2l0.2-0.3l0,0.7c0.2,0.5,0.2,1.1,0.4,1.6c0.7,1.6,2.1,2.7,3.7,3.2l-0.7-0.9c0,3.2,2.5,5.8,5.7,5.8
		c0.7,0,1.4-0.1,2.1-0.4l-1.1-0.4c1.7,2.7,5.2,3.6,8,2c0.4-0.2,0.7-0.5,1-0.8h-1.4c1.9,1.8,4.7,2.1,6.9,0.9l-1.3-0.2
		c1.4,1.2,3.2,1.8,5,1.6c1.9-0.2,3.7,0.4,5.5-0.4c0.8-0.3,1.3-1.1,2.1-1.4s1.6-0.2,2.4-0.5c1.6-0.7,2.7-2.1,3.1-3.8l-1.2,0.7
		c2.1,0.5,4.3-0.3,5.7-1.9c0.7-0.9,0.7-2,1.2-2.9s1.3-1.4,1.8-2.3c0.2-0.5,0.4-1,0.5-1.6c0.3-1.1,0.2-0.5,0.7-1.4
		c0.6-0.8,1.1-1.8,1.3-2.8c0.2-1.2-0.3-2.1-0.4-3.2C357.4,40.3,357.6,39.4,357.8,38.4c0.1-1.2-1.8-1.2-1.9,0
		c-0.1,0.9-0.8,1.7-0.8,2.6c0,0.5,0.5,1,0.6,1.5c0.7,2.4-1.1,3.1-1.9,4.8c-0.5,1.1,0.1,1.8-0.9,3c-0.4,0.4-1,0.6-1.3,1.2
		c-0.4,0.8-0.2,1.6-0.7,2.4c-0.9,1.3-2.4,1.9-3.9,1.6c-0.5-0.1-1,0.2-1.2,0.7c-0.4,1.7-1.9,2.8-3.6,2.9c-1.2,0.1-0.9,0-1.8,0.8
		c-0.7,0.7-1.7,1.1-2.7,1.1c-0.6,0-1.4-0.5-1.9-0.5c-1.9,0.1-3,1-4.8-0.6c-0.3-0.3-0.8-0.4-1.2-0.2c-1.5,0.8-3.3,0.5-4.5-0.6
		c-0.4-0.4-1-0.4-1.4,0c-1.5,1.5-4,1.4-5.4-0.1c-0.2-0.2-0.4-0.4-0.5-0.6c-0.2-0.4-0.7-0.6-1.1-0.4c-2.5,0.9-5.4-0.7-5.3-3.6
		c0-0.4-0.3-0.8-0.7-0.9c-1.2-0.3-2.2-1.3-2.6-2.5c-0.1-0.4,0-0.9-0.2-1.3c-0.5-1-1.5-1.5-1.9-2.7s0.3-2.1,0-3.2
		c-0.3-0.4-0.5-0.9-0.5-1.5c-0.2-0.7-0.1-1.4,0.2-2c0-0.2,0-0.4,0-0.6c-0.1-0.8-0.9-1.6-1-2.6s0.5-1.4,0.5-2.1
		c-0.1-0.8-0.1-1.5,0-2.3c0.2-0.9,0.9-1.3,1.1-2c0.5-1.3,0-2.4,1-3.7c0.3-0.4,0.8-0.6,1-1c0.2-0.7,0.4-1.3,0.5-2
		c0.7-1.4,2-1.4,2.9-2.2c0.3-0.3,0.5-1.2,0.6-1.4c0.5-0.7,1.1-1.3,1.9-1.6c1.2-0.6,1.2-1.5,2.4-2.3s2.4-0.2,3.5-0.5
		c0.5-0.1,0.9-0.7,1.2-0.9c0.8-0.5,1.7-0.7,2.6-0.5c1.5,0.2,1.3,0.5,2.5-0.2c0.9-0.5,2-0.7,3-0.3c0.5,0.2,1,0.3,1.5,0.4
		c0.8-0.2,1.6-0.4,2.4-0.7c1.2,0.1,2.4,0.7,3.1,1.6c0.2,0.3,0.6,0.4,1,0.3c2.3-1,3.7-0.1,5.2,1.6c0.8,0.9,1.4,0.7,2.6,1.3
		c2.2,1.1,5.1,1.2,5,4.5c0,0.4,0.3,0.8,0.7,0.9c1.1,0.4,2,1.3,2.4,2.4c0.3,0.9-0.1,1.5,0,2.3c0.2,0.5,0.4,0.9,0.7,1.3
		c0.8,1.3,0.8,3-0.1,4.2c-0.2,0.4-0.2,0.9,0.1,1.2c0.8,0.8,1.4,1.8,1.4,3C355.9,39.6,357.9,39.7,357.8,38.4z"/>
	<path class="st0" d="M322.8,60.9c0,0,0.9,7.5-1.1,9.7"/>
	<path class="st0" d="M335.2,61.6c0,0-1.4,7.3,0.6,8.9"/>
	<path class="st1" d="M327.2,70.4c-0.5-1.6-0.8-3.5,0.1-5c0.7-1.1-1-2-1.7-1c-1,2-1.1,4.4-0.3,6.5C325.7,72,327.6,71.5,327.2,70.4
		L327.2,70.4z"/>
	<path class="st1" d="M330.9,63.1c0.1,1.1,0.4,2.6-0.1,3.6s1.1,2.1,1.7,1c0.5-1.5,0.7-3.1,0.4-4.6C332.7,61.9,330.7,61.9,330.9,63.1
		L330.9,63.1z"/>
	<path class="st1" d="M313.7,50.9c1.5-0.1,2.9-0.7,4-1.7h-1.4c1.9,1.8,4.7,2.1,6.9,0.9L322,50c1.1,1,2.5,1.6,4,1.6
		c1.3,0.1,1.2-1.8,0-1.9c-1,0-1.9-0.4-2.6-1.1c-0.3-0.3-0.8-0.4-1.2-0.2c-1.5,0.8-3.3,0.5-4.5-0.6c-0.4-0.4-1-0.4-1.4,0
		c-0.7,0.7-1.7,1.1-2.7,1.1C312.4,49.1,312.4,51,313.7,50.9L313.7,50.9z"/>
	<path class="st1" d="M337.6,26c-1.5,0.1-2.9,0.7-4,1.7h1.4c-1.9-1.8-4.7-2.1-6.9-0.9l1.2,0.2c-1.1-1-2.5-1.6-4-1.6
		c-1.3-0.1-1.2,1.8,0,2c1,0,1.9,0.4,2.6,1.1c0.3,0.3,0.8,0.4,1.2,0.2c1.5-0.8,3.3-0.5,4.5,0.6c0.4,0.4,1,0.4,1.4,0
		c0.7-0.7,1.6-1.1,2.6-1.1C338.8,27.9,338.8,25.9,337.6,26z"/>
	<path class="st1" d="M336.6,38c1.9,1.8,4.7,2.2,6.9,0.9l-1.2-0.2c1.1,1,2.5,1.6,4,1.6c1.3,0.1,1.3-1.9,0-2c-1,0-1.9-0.4-2.6-1.1
		c-0.3-0.3-0.8-0.4-1.2-0.2c-1.5,0.8-3.3,0.6-4.5-0.6C337,35.8,335.6,37.2,336.6,38L336.6,38z"/>
	<path class="st1" d="M313.9,35.6c1.8,1.8,4.7,2.2,6.9,0.9c1.1-0.6,0.1-2.3-1-1.7c-1.5,0.8-3.3,0.6-4.5-0.6
		C314.3,33.3,312.9,34.7,313.9,35.6L313.9,35.6z"/>
	<path class="st1" d="M336.6,50.4c1.7,1.6,4.2,2,6.3,0.8c1.1-0.6,0.1-2.3-1-1.7c-1.3,0.7-2.9,0.5-3.9-0.5
		C337,48.2,335.6,49.6,336.6,50.4L336.6,50.4z"/>
	<path class="st0" d="M271.9,94v108.2c0,0.1,0,0.2-0.1,0.3l-8.8,8.7c-0.1,0.1-0.2,0.1-0.3,0.1h-47.3c-0.1,0-0.2,0-0.3-0.1l-9.3-9.3
		c-0.1-0.1-0.1-0.2-0.1-0.3V94c0-0.3,0.2-0.5,0.5-0.5l0,0h65.4C271.7,93.5,271.9,93.7,271.9,94z"/>
	<line class="st0" x1="221.6" y1="130.5" x2="221.6" y2="152.3"/>
	<line class="st0" x1="233.2" y1="130.5" x2="233.2" y2="152.3"/>
	<line class="st0" x1="244.8" y1="130.5" x2="244.8" y2="152.3"/>
	<line class="st0" x1="256.4" y1="130.5" x2="256.4" y2="152.3"/>
	<path class="st1" d="M205.6,125.2h3.3c0.9,0,4.1,0.5,4.9,0c0.4-0.3-0.3-0.7-0.3-0.2c0,0.3,0.8,1.3,0.9,1.6c0.7,1.5,1.5,2.9,2.5,4.3
		c0.8,0.8,1.6,0.6,2.8,0.6h37.1c1.2,0.1,2.4,0.1,3.6,0c1-0.3,1.3-1.2,1.7-2c0.3-0.4,2.9-4.2,2.7-4.6c0.2,0.4-1.4,0.1,0.1,0.3
		c0.9,0.1,1.7,0.1,2.6,0h4.5c0.5-0.1,0.9-0.7,0.8-1.2c-0.1-0.4-0.4-0.7-0.8-0.8h-3.5c-1.3,0-3.2-0.3-4.4,0c-0.8,0.2-1,0.6-1.4,1.3
		c-1,1.5-1.9,3-2.7,4.6c-0.1,0.2-0.2,0.3-0.3,0.5c0.1,1.3-1.3-2.3,0.6-0.2c0,0-0.2,0-0.3,0c-0.7-0.1-1.3-0.1-2,0h-37.3
		c-0.7,0-1.4,0-2.2,0c-1.6,0.2,0.1-0.2-0.1,0.3c0.2-0.5-2.1-3.7-2.5-4.3c-0.5-0.9-0.9-2.1-2-2.4c-1.4-0.2-2.8-0.2-4.2,0h-4.2
		c-0.5,0.1-0.9,0.7-0.8,1.2C204.9,124.8,205.2,125.1,205.6,125.2L205.6,125.2z"/>
	<polyline class="st0" points="205.5,130.8 213.9,139.5 262.9,139.5 271.9,130.5 	"/>
	<path class="st1" d="M205.6,146.9h3.4c0.5,0,4.5,0.4,4.8,0c-0.3,0.4-0.8-1.1-0.4,0.1c0.3,0.6,0.6,1.2,1,1.8c0.7,1.1,1.4,3,2.3,4
		c0.8,0.8,1.9,0.5,2.9,0.5h37.2c1.1,0.1,2.2,0.1,3.3,0c1.1-0.3,1.4-1.5,1.9-2.4c0.2-0.3,2.7-4.1,2.5-4.4c0.1,0.1-0.8,0.2-0.7,0.4
		c0.3,0,0.7,0,1,0h6.9c0.5-0.1,0.9-0.7,0.8-1.2c-0.1-0.4-0.4-0.7-0.8-0.8c-2.5,0-5.5-0.5-7.9,0c-1.9,0.4-3.1,4.1-4,5.6
		c-0.2,0.4-0.5,0.7-0.6,1.1l0.8-0.4H260c0,0-0.1,0-0.1,0c-0.2-0.2-1.6,0-1.9,0h-39.5c-1.8,0,0,0.1-0.2,0.4c0.2-0.3-2-3.5-2.3-4
		c-0.6-1-1-2.5-2.2-2.8c-1.3-0.2-2.6-0.2-3.9,0h-4.4c-0.5,0.1-0.9,0.7-0.8,1.2C204.9,146.6,205.2,146.8,205.6,146.9L205.6,146.9z"/>
	<line class="st0" x1="221.4" y1="173" x2="221.4" y2="194.8"/>
	<line class="st0" x1="233" y1="173" x2="233" y2="194.8"/>
	<line class="st0" x1="244.6" y1="173" x2="244.6" y2="194.8"/>
	<line class="st0" x1="256.2" y1="173" x2="256.2" y2="194.8"/>
	<path class="st1" d="M205.6,167.7h3.4c0.5,0,4.5,0.4,4.8,0c-0.3,0.4-0.8-1.1-0.4,0.1c0.3,0.6,0.6,1.2,1,1.8c0.7,1.1,1.4,3,2.3,4
		c0.8,0.8,1.9,0.5,2.9,0.5h37.2c1.1,0.1,2.2,0.1,3.3,0c1.1-0.3,1.4-1.5,1.9-2.4c0.2-0.3,2.7-4.1,2.5-4.4c0.1,0.1-0.8,0.2-0.7,0.4
		c0.3,0,0.7,0,1,0h6.9c0.5-0.1,0.9-0.7,0.8-1.2c-0.1-0.4-0.4-0.7-0.8-0.8c-2.5,0-5.5-0.5-7.9,0c-1.9,0.4-3.1,4.1-4,5.6
		c-0.2,0.4-0.5,0.7-0.6,1.1l0.8-0.4H260c0,0-0.1,0-0.1,0c-0.2-0.2-1.6,0-1.9,0h-39.5c-1.8,0,0,0.1-0.2,0.4c0.2-0.3-2-3.5-2.3-4
		c-0.6-1-1-2.5-2.2-2.8c-1.3-0.2-2.6-0.2-3.9,0h-4.4c-0.5,0.1-0.9,0.7-0.8,1.2C204.9,167.3,205.2,167.6,205.6,167.7L205.6,167.7z"/>
	<polyline class="st0" points="205.5,173.5 213.8,182 262.8,182 271.9,172.9 	"/>
	<path class="st1" d="M205.6,189.5h3.4c0.6,0,4.3,0.4,4.6,0h0c0.4,0,0.2-0.1-0.7-0.4c-1.3-0.4,0.3,0.5,0.3,0.5
		c0.3,0.6,0.6,1.2,1,1.8c0.7,1.2,1.3,2.9,2.3,3.9s1.8,0.6,3,0.6h36.9c1.2,0.1,2.4,0.1,3.6,0c1-0.3,1.2-1.1,1.7-2
		c0.3-0.4,2.9-4.2,2.7-4.6c0.1,0.3-1.4,0.2,0.1,0.3c0.9,0,1.7,0,2.6,0h4.4c0.5-0.1,0.9-0.7,0.8-1.2c-0.1-0.4-0.4-0.7-0.8-0.8h-3.5
		c-1.4-0.2-2.9-0.2-4.4,0c-1.9,0.4-3.1,4.3-4,5.8c-0.1,0.1-0.4,0.5-0.4,0.7c0.1,1.3-1.3-2.3,0.6-0.2c0,0-0.2,0-0.3,0
		c-0.3-0.2-1.6,0-2,0h-37c-0.8,0-1.6-0.1-2.4,0c-1.9,0.1,0.2-0.1-0.1,0.4c0.2-0.3-2.1-3.6-2.3-4c-0.6-1-1-2.5-2.2-2.8
		c-1.3-0.2-2.6-0.2-3.9,0h-4.3c-0.5,0.1-0.9,0.7-0.8,1.2C204.9,189.1,205.2,189.4,205.6,189.5L205.6,189.5z"/>
	<path class="st0" d="M87.1,173.2h2.8c0.7,0,1.3,0.6,1.3,1.3V215c0,0.7-0.6,1.3-1.3,1.3h-2.8c-0.7,0-1.3-0.6-1.3-1.3v-40.5
		C85.8,173.8,86.4,173.2,87.1,173.2z"/>
	<path class="st0" d="M112.3,207h2.8c0.7,0,1.3,0.6,1.3,1.3v6.7c0,0.7-0.6,1.3-1.3,1.3h-2.8c-0.7,0-1.3-0.6-1.3-1.3v-6.7
		C111,207.6,111.6,207,112.3,207z"/>
	<path class="st0" d="M131.7,178h9.2c0.9,0,1.6,0.7,1.6,1.6v4.8c0,0.9-0.7,1.6-1.6,1.6h-9.2c-0.9,0-1.6-0.7-1.6-1.6v-4.8
		C130.2,178.7,130.9,178,131.7,178z"/>
	<path class="st0" d="M139,207h2.8c0.7,0,1.3,0.6,1.3,1.3v6.7c0,0.7-0.6,1.3-1.3,1.3H139c-0.7,0-1.3-0.6-1.3-1.3v-6.7
		C137.6,207.6,138.2,207,139,207z"/>
	<path class="st0" d="M108.5,173.2h38c0.9,0,1.6,0.7,1.6,1.6v30.7c0,0.9-0.7,1.6-1.6,1.6h-38c-0.9,0-1.6-0.7-1.6-1.6v-30.7
		C106.9,173.9,107.6,173.2,108.5,173.2z"/>
	<path class="st0" d="M147.6,173.2H77.1c-0.3,0-0.5-0.2-0.5-0.5c0-0.1,0.1-0.3,0.2-0.4l44.9-32.8c0.2-0.1,0.4-0.1,0.6,0l25.5,24.8
		c0.1,0.1,0.1,0.2,0.1,0.3v8C148,173,147.8,173.2,147.6,173.2z"/>
	<path class="st0" d="M106.9,182.3c-1.3,0-1.3-0.9-2.5-0.9s-1.3,0.9-2.5,0.9s-1.3-0.9-2.5-0.9s-1.3,0.9-2.5,0.9
		c-0.6-0.1-1.2-0.3-1.7-0.6c0,0-0.2,0.1,0.1-0.1l11.6-8.4"/>
	<path class="st0" d="M451.2,35.7v32.7c0,0.3-0.2,0.5-0.5,0.5l0,0h-28v-4c0-0.3-0.2-0.5-0.5-0.5l0,0h-45.4V35.7
		c0-0.3,0.2-0.5,0.5-0.5l0,0h73.4C451,35.2,451.2,35.4,451.2,35.7C451.2,35.7,451.2,35.7,451.2,35.7z"/>
	<line class="st0" x1="422" y1="35.2" x2="422" y2="5.2"/>
	<circle class="st0" cx="422" cy="3.1" r="2.1"/>
	<path class="st0" d="M425.4,15.9l-3.2-0.2c-0.1,0-0.3-0.1-0.3-0.3v-4.5c0-0.1,0.1-0.3,0.3-0.3l3.2-0.2c0.2,0,0.3,0.1,0.3,0.3
		c0,0,0,0,0,0v4.9C425.7,15.7,425.6,15.9,425.4,15.9L425.4,15.9z"/>
	<path class="st0" d="M443.7,35.2v-6.4c0-0.3,0.2-0.5,0.5-0.5l0,0h12.2c0.3,0,0.5,0.2,0.5,0.5c0,0,0,0,0,0v39.5
		c0,0.3-0.2,0.5-0.5,0.5l0,0H451"/>
	<line class="st0" x1="451.2" y1="38.9" x2="456.9" y2="38.9"/>
	<line class="st0" x1="451.2" y1="46.8" x2="456.9" y2="46.8"/>
	<line class="st0" x1="451.2" y1="54.7" x2="456.9" y2="54.7"/>
	<line class="st0" x1="451.2" y1="62.6" x2="456.9" y2="62.6"/>
	<path class="st0" d="M195.1,283.7h5.6c0.4,0,0.7,0.3,0.7,0.7v5.4h-36.6v-5.4c0-0.4,0.3-0.7,0.7-0.7h5.6c0.4,0,0.7-0.3,0.7-0.7v-4.4
		c0-0.4-0.3-0.7-0.7-0.7h-1.7c-0.4,0-0.7-0.3-0.7-0.7v-49.5c0-0.4,0.3-0.7,0.7-0.7h27.4c0.4,0,0.7,0.3,0.7,0.7v49.5
		c0,0.4-0.3,0.7-0.7,0.7h-1.7c-0.4,0-0.7,0.3-0.7,0.7v4.4C194.5,283.4,194.8,283.7,195.1,283.7z"/>
	<polyline class="st0" points="382.2,251.3 382.2,251.2 382.2,138.9 382.2,138.5 	"/>
	<path class="st0" d="M346.7,135h-21.6c-0.2,0-0.4,0.2-0.4,0.4v116"/>
	<path class="st0" d="M404.2,112.9v25.2c0,0.2-0.2,0.4-0.4,0.4h-21.7v-3.1c0-0.2-0.2-0.4-0.4-0.4h-35v-22.1c0-0.2,0.2-0.4,0.4-0.4
		h56.7C404,112.6,404.2,112.7,404.2,112.9z"/>
	<path class="st0" d="M382.2,251.2V138.9c0-0.2,0.2-0.4,0.4-0.4c0,0,0,0,0,0h71.4c0.2,0,0.4,0.2,0.4,0.4v112.4"/>
	<path class="st0" d="M401.2,134.6l-0.2,3.6c0,0.2-0.2,0.3-0.4,0.3H395c-0.2,0-0.3-0.1-0.4-0.3l-0.2-3.6c0-0.2,0.2-0.3,0.3-0.3
		c0,0,0,0,0,0h6.1C401,134.3,401.2,134.4,401.2,134.6C401.2,134.6,401.2,134.6,401.2,134.6z"/>
	<path class="st0" d="M444.9,134.6l-0.2,3.6c0,0.2-0.2,0.3-0.4,0.3h-5.6c-0.2,0-0.3-0.1-0.4-0.3l-0.2-3.6c0-0.2,0.2-0.3,0.3-0.3
		c0,0,0,0,0,0h6.1C444.7,134.3,444.9,134.4,444.9,134.6z"/>
	<path class="st0" d="M338.5,131.2l-0.2,3.6c0,0.2-0.2,0.3-0.4,0.3h-5.6c-0.2,0-0.3-0.1-0.4-0.3l-0.2-3.6c0-0.2,0.2-0.3,0.3-0.3
		c0,0,0,0,0,0h6.1C338.3,130.9,338.4,131,338.5,131.2C338.5,131.2,338.5,131.2,338.5,131.2z"/>
	<path class="st0" d="M375.2,131.2l-0.2,3.6c0,0.2-0.2,0.3-0.4,0.3H369c-0.2,0-0.3-0.1-0.4-0.3l-0.2-3.6c0-0.2,0.2-0.3,0.3-0.3
		c0,0,0,0,0,0h6.1C375,130.9,375.2,131,375.2,131.2C375.2,131.2,375.2,131.2,375.2,131.2z"/>
	<path class="st0" d="M407.3,251.2v-99.7c0-0.2,0.2-0.4,0.4-0.4h46c0.2,0,0.4,0.2,0.4,0.4v99.7"/>
	<path class="st0" d="M408.9,151.1h43.6c0.9,0,1.6,0.7,1.6,1.6v65.7c0,0.9-0.7,1.6-1.6,1.6h-43.6c-0.9,0-1.6-0.7-1.6-1.6v-65.7
		C407.3,151.8,408,151.1,408.9,151.1z"/>
	<path class="st0" d="M421.3,251.2v-31c0-0.2,0.2-0.4,0.4-0.4h2.4c0.2,0,0.4,0.2,0.4,0.4v31"/>
	<path class="st0" d="M451.1,251.2v-31c0-0.2,0.2-0.4,0.4-0.4h2.4c0.2,0,0.4,0.2,0.4,0.4v31"/>
	<path class="st0" d="M408.9,151.1h43.6c0.9,0,1.6,0.7,1.6,1.6v14.1c0,0.9-0.7,1.6-1.6,1.6h-43.6c-0.9,0-1.6-0.7-1.6-1.6v-14.1
		C407.3,151.8,408,151.1,408.9,151.1z"/>
	<path class="st0" d="M408.9,168.3h43.6c0.9,0,1.6,0.7,1.6,1.6V184c0,0.9-0.7,1.6-1.6,1.6h-43.6c-0.9,0-1.6-0.7-1.6-1.6v-14.1
		C407.3,169,408,168.3,408.9,168.3z"/>
	<path class="st0" d="M408.9,185.5h43.6c0.9,0,1.6,0.7,1.6,1.6v14.1c0,0.9-0.7,1.6-1.6,1.6h-43.6c-0.9,0-1.6-0.7-1.6-1.6v-14.1
		C407.3,186.2,408,185.5,408.9,185.5z"/>
	<path class="st0" d="M408.9,202.7h43.6c0.9,0,1.6,0.7,1.6,1.6v14.1c0,0.9-0.7,1.6-1.6,1.6h-43.6c-0.9,0-1.6-0.7-1.6-1.6v-14.1
		C407.3,203.4,408,202.7,408.9,202.7z"/>
	<path class="st0" d="M408.9,151.1h12.5c0.9,0,1.6,0.7,1.6,1.6v65.7c0,0.9-0.7,1.6-1.6,1.6h-12.5c-0.9,0-1.6-0.7-1.6-1.6v-65.7
		C407.3,151.8,408,151.1,408.9,151.1z"/>
	<path class="st0" d="M424.5,151.1h12.5c0.9,0,1.6,0.7,1.6,1.6v65.7c0,0.9-0.7,1.6-1.6,1.6h-12.5c-0.9,0-1.6-0.7-1.6-1.6v-65.7
		C422.9,151.8,423.6,151.1,424.5,151.1z"/>
	<path class="st0" d="M440,151.1h12.5c0.9,0,1.6,0.7,1.6,1.6v65.7c0,0.9-0.7,1.6-1.6,1.6H440c-0.9,0-1.6-0.7-1.6-1.6v-65.7
		C438.5,151.8,439.2,151.1,440,151.1z"/>
	<path class="st0" d="M398.4,112.5v-4.9c0-0.2,0.2-0.4,0.4-0.4h9.4c0.2,0,0.4,0.2,0.4,0.4V138c0,0.2-0.2,0.4-0.4,0.4H404"/>
	<line class="st0" x1="404.2" y1="115.4" x2="408.6" y2="115.4"/>
	<line class="st0" x1="404.2" y1="121.5" x2="408.6" y2="121.5"/>
	<line class="st0" x1="404.2" y1="127.6" x2="408.6" y2="127.6"/>
	<line class="st0" x1="404.2" y1="133.7" x2="408.6" y2="133.7"/>
	<path class="st0" d="M361.8,156.7h13c0.9,0,1.6,0.7,1.6,1.6v64.1c0,0.9-0.7,1.6-1.6,1.6h-13c-0.9,0-1.6-0.7-1.6-1.6v-64.1
		C360.2,157.4,360.9,156.7,361.8,156.7z"/>
	<path class="st0" d="M361.8,217.3h3.5c0.9,0,1.6,0.7,1.6,1.6v3.5c0,0.9-0.7,1.6-1.6,1.6h-3.5c-0.9,0-1.6-0.7-1.6-1.6v-3.5
		C360.2,218,360.9,217.3,361.8,217.3z"/>
	<path class="st0" d="M371.3,217.3h3.5c0.9,0,1.6,0.7,1.6,1.6v3.5c0,0.9-0.7,1.6-1.6,1.6h-3.5c-0.9,0-1.6-0.7-1.6-1.6v-3.5
		C369.8,218,370.5,217.3,371.3,217.3z"/>
	<path class="st0" d="M361.8,156.7h3.5c0.9,0,1.6,0.7,1.6,1.6v3.5c0,0.9-0.7,1.6-1.6,1.6h-3.5c-0.9,0-1.6-0.7-1.6-1.6v-3.5
		C360.2,157.4,360.9,156.7,361.8,156.7z"/>
	<path class="st0" d="M371.3,156.7h3.5c0.9,0,1.6,0.7,1.6,1.6v3.5c0,0.9-0.7,1.6-1.6,1.6h-3.5c-0.9,0-1.6-0.7-1.6-1.6v-3.5
		C369.8,157.4,370.5,156.7,371.3,156.7z"/>
	<path class="st0" d="M361.8,187h3.5c0.9,0,1.6,0.7,1.6,1.6v3.5c0,0.9-0.7,1.6-1.6,1.6h-3.5c-0.9,0-1.6-0.7-1.6-1.6v-3.5
		C360.2,187.7,360.9,187,361.8,187z"/>
	<path class="st0" d="M371.3,187h3.5c0.9,0,1.6,0.7,1.6,1.6v3.5c0,0.9-0.7,1.6-1.6,1.6h-3.5c-0.9,0-1.6-0.7-1.6-1.6v-3.5
		C369.8,187.7,370.5,187,371.3,187z"/>
	<path class="st3" d="M301.6,243c-1.1-0.9-2.4-1.5-3.9-1.8c-1.9-0.4-3.8,0.1-5.3,1.3c-1.6,1.3-2.8,3.1-3.3,5.1
		c-0.8,2.9-0.2,6,1.6,8.5c1.4,2.1,3.9,3.3,6.4,3.1c1.6-0.1,3.1-0.8,4.3-1.9c1-1,1.8-2.1,2.4-3.4l0.1-0.1l4.2,2.6
		c-0.4,0.7-0.7,1.3-1.1,2c-1.2,2-3,3.6-5.2,4.7c-4.1,1.9-8.9,1.3-12.4-1.4c-1.8-1.4-3.2-3.2-4.2-5.2c0-0.1-0.1-0.2-0.2-0.3
		c0,0.3-0.1,0.7-0.1,1c-0.2,3.5-2.9,6.4-6.3,6.9c-2.1,0.3-4.3-0.3-6-1.6l-0.3-0.2l0.6,1.6h-5.4c-0.2,0-0.3-0.1-0.3-0.2
		c-0.5-1.3-1-2.6-1.5-3.9l-3.3,4.1l-3.2-4.1l-0.8,2c-0.3,0.6-0.5,1.3-0.7,1.9c0,0.1-0.2,0.2-0.3,0.2h-6.4c-0.2,0-0.3-0.1-0.3-0.3
		c-0.3-1.9-0.6-3.8-0.9-5.7c-0.2-1.5-0.5-3-0.7-4.6c-0.2-1.1-0.3-2.1-0.5-3.3l-5,13.8l-4.9-13.7l0,0l-2.1,13.7h-5.3
		c0.1-0.5,0.2-1.1,0.3-1.6l1.3-7.2c0.4-2.1,0.8-4.2,1.1-6.3s0.7-4,1-6c0.4-2.1,0.8-4.3,1.1-6.4c0-0.1,0.1-0.2,0.2-0.2h2.4
		c0.1,0,0.2,0.1,0.3,0.2l3.4,11c0.3,1.1,0.7,2.2,1,3.4c0.1-0.4,0.2-0.7,0.3-1.1c1.4-4.4,2.8-8.9,4.2-13.3c0-0.1,0.1-0.2,0.2-0.2h2.7
		l3.6,20.3l7.8-20l7.4,19l0,0v-19h4.8v0.4c0,6.6,0,13.2,0,19.8c-0.1,0.9,0.3,1.8,1,2.4c1.2,0.9,2.9,0.8,3.9-0.4
		c0.3-0.3,0.5-0.7,0.5-1.2c0-0.2,0.1-0.5,0.1-0.7c0-6.7,0-13.3,0-19.9c0-0.1,0-0.2,0-0.3h4.8v8.3h0.1l0.1-0.2c1-2.4,2.7-4.4,4.8-5.9
		c1.7-1.2,3.6-1.9,5.6-2c2.6-0.2,5.3,0.4,7.5,1.8c0.4,0.2,0.7,0.5,1.1,0.8L301.6,243z M262.4,246.8c-0.2,0.5-0.3,0.9-0.5,1.3
		c-0.6,1.6-1.2,3.3-1.9,4.9c-0.1,0.1-0.1,0.3,0,0.5c0.5,0.8,0.9,1.5,1.4,2.3l0.9,1.5l0.1-0.1c0.8-1.2,1.5-2.5,2.3-3.7
		c0-0.1,0-0.2,0-0.3c-0.6-1.6-1.3-3.2-1.9-4.8C262.7,247.7,262.6,247.3,262.4,246.8L262.4,246.8z"/>
	<polyline class="st0" points="103.5,333.3 93.7,333.3 38.9,333.3 39,319.8 	"/>
	<path class="st0" d="M118.2,281.8l-5.3,6.5c-10.6-15.5-28.1-24.7-46.9-24.7c-20.5,0-36.1,8.4-46,24.7l-5.7-6.5
		c9-15.3,28.7-26.8,51.7-26.8C89.4,255.1,109.5,266.1,118.2,281.8z"/>
	<polyline class="st0" points="103.5,277.7 103.5,333.3 93.7,333.3 93.7,270.8 	"/>
	<polyline class="st0" points="29.2,276.9 29.2,333.3 38.9,333.3 	"/>
	<line class="st0" x1="39" y1="319.8" x2="39" y2="269.8"/>
	<path class="st0" d="M47.5,276.9h39.3c0.9,0,1.6,0.7,1.6,1.6v53.3c0,0.9-0.7,1.6-1.6,1.6H47.5c-0.9,0-1.6-0.7-1.6-1.6v-53.3
		C45.9,277.6,46.6,276.9,47.5,276.9z"/>
	<line class="st0" x1="66.6" y1="276.9" x2="66.6" y2="333.3"/>
	<path class="st0" d="M36.1,262v-11.4c0-0.3,0.2-0.5,0.4-0.5H96c0.3,0,0.5,0.3,0.4,0.5V262"/>
	<line class="st0" x1="39" y1="269.8" x2="91.9" y2="269.8"/>
	<path class="st0" d="M256,385.3h72.6c0.2,0,0.4,0.2,0.4,0.4v0v9.1c0,0.2-0.2,0.4-0.4,0.4h0H256V385.3z"/>
	<path class="st0" d="M326.2,314.9v70.3H256v-9.8h-4v-70.7h64C321.6,304.7,326.2,309.3,326.2,314.9z"/>
	<path class="st0" d="M252,304.7l73.4,25.9c0.1,0,0.2,0.2,0.1,0.3c0,0.1-0.1,0.1-0.1,0.1l-44,13.9"/>
	<path class="st0" d="M256,385.2l69.5-14.1c0.1,0,0.2-0.1,0.2-0.2c0-0.1-0.1-0.1-0.2-0.2L281.2,345L252,334.4v18.2l29.3-7.6"/>
	<path class="st1" d="M185,316.2v9.5c0.1,0.5,0.7,0.9,1.2,0.8c0.4-0.1,0.7-0.4,0.8-0.8v-9.5c-0.1-0.5-0.7-0.9-1.2-0.8
		C185.4,315.6,185.1,315.9,185,316.2z"/>
	<path class="st1" d="M177.6,316.4v9.3c0.1,0.5,0.7,0.9,1.2,0.8c0.4-0.1,0.7-0.4,0.8-0.8v-9.3c-0.1-0.5-0.7-0.9-1.2-0.8
		C178,315.8,177.7,316.1,177.6,316.4z"/>
	<path class="st1" d="M202.2,316.2v9.5c0.1,0.5,0.7,0.9,1.2,0.8c0.4-0.1,0.7-0.4,0.8-0.8v-9.5c-0.1-0.5-0.7-0.9-1.2-0.8
		C202.5,315.6,202.3,315.9,202.2,316.2z"/>
	<path class="st1" d="M209.6,316.4v9.3c0.1,0.5,0.7,0.9,1.2,0.8c0.4-0.1,0.7-0.4,0.8-0.8v-9.3c-0.1-0.5-0.7-0.9-1.2-0.8
		C209.9,315.8,209.6,316.1,209.6,316.4z"/>
	<path class="st1" d="M228.4,395.5h-67c-0.5,0.1-0.9,0.7-0.8,1.2c0.1,0.4,0.4,0.7,0.8,0.8h67c0.5-0.1,0.9-0.7,0.8-1.2
		C229,395.9,228.7,395.6,228.4,395.5z"/>
	<path class="st1" d="M228.4,400.6h-67c-0.5,0.1-0.9,0.7-0.8,1.2c0.1,0.4,0.4,0.7,0.8,0.8h67c0.5-0.1,0.9-0.7,0.8-1.2
		C229,401,228.7,400.7,228.4,400.6z"/>
	<path class="st1" d="M231.4,329.9l-63.5,0.1h-9c-0.5,0.1-0.9,0.7-0.8,1.2c0.1,0.4,0.4,0.7,0.8,0.8l63.5-0.1h9
		c0.5-0.1,0.9-0.7,0.8-1.2C232,330.2,231.7,329.9,231.4,329.9z"/>
	<path class="st1" d="M171,348h-6.4c-0.5,0.1-0.9,0.7-0.8,1.2c0.1,0.4,0.4,0.7,0.8,0.8h6.4c0.5-0.1,0.9-0.7,0.8-1.2
		C171.6,348.3,171.3,348,171,348L171,348z"/>
	<path class="st1" d="M225.1,348h-7c-0.5,0.1-0.9,0.7-0.8,1.2c0.1,0.4,0.4,0.7,0.8,0.8h7c0.5-0.1,0.9-0.7,0.8-1.2
		C225.8,348.3,225.5,348,225.1,348z"/>
	<path class="st1" d="M196.4,348h-3.6c-0.5,0.1-0.9,0.7-0.8,1.2c0.1,0.4,0.4,0.7,0.8,0.8h3.6c0.5-0.1,0.9-0.7,0.8-1.2
		C197,348.3,196.8,348,196.4,348z"/>
	<path class="st0" d="M171,348.9c0-5,4.4-8.8,9.9-8.8h2c5.4,0,9.9,3.8,9.9,8.8"/>
	<path class="st0" d="M196.4,348.9c0-5,4.4-8.8,9.9-8.8h2c5.4,0,9.9,3.8,9.9,8.8"/>
	<path class="st0" d="M178,348.9h8.2c2.2,0,3.9,1.8,3.9,3.9l0,0v43.6l0,0h-16.1l0,0v-43.6C174.1,350.7,175.9,348.9,178,348.9
		L178,348.9z"/>
	<path class="st0" d="M215.6,396.5h-16.1v-40.2c0-4.1,3.3-7.3,7.3-7.3h1.4c4.1,0,7.3,3.3,7.3,7.3L215.6,396.5z"/>
	<rect x="182.3" y="407.2" class="st0" width="25.4" height="6.6"/>
	<rect x="164.5" y="407.2" class="st0" width="12.7" height="6.6"/>
	<rect x="212.4" y="407.2" class="st0" width="12.6" height="6.6"/>
	<path class="st0" d="M225.4,336h-60.9c-0.1,0-0.2,0-0.3-0.1l-10.3-9.5c-0.2-0.1-0.2-0.4,0-0.6c0.1-0.1,0.2-0.1,0.3-0.1H236
		c0.2,0,0.4,0.1,0.4,0.3c0,0.1,0,0.3-0.1,0.3l-10.5,9.5C225.7,336,225.6,336,225.4,336z"/>
	<path class="st0" d="M225,419.7h-69c-0.3,0-0.5,0.2-0.5,0.5c0,0.1,0.1,0.3,0.2,0.3l9,8.2H225"/>
	<path class="st0" d="M164.8,325.7l-1-11.5c-0.1-0.2,0.2-0.4,0.5-0.4l14.9-3.7h30.7l15.6,3.7c0.3,0,0.5,0.2,0.5,0.4l-1,11.5"/>
	<path class="st0" d="M224.6,325.7l0.5-6.3c0-0.2-0.2-0.4-0.5-0.4l-15.1-2.8h-29.9l-14.5,2.8c-0.3,0-0.5,0.2-0.5,0.4l0.6,6.3"/>
	<polyline class="st0" points="164.5,419.7 164.5,336 225,336 225,428.7 224.6,428.7 	"/>
	<path class="st1" d="M125.6,407.7H8.8c-0.5,0.1-0.9,0.5-0.8,1c0,0.4,0.4,0.8,0.8,0.8h116.8c0.5-0.1,0.9-0.5,0.8-1
		C126.4,408.1,126.1,407.7,125.6,407.7z"/>
	<path class="st1" d="M129.3,385.2H6.3c-0.5,0.1-0.9,0.5-0.8,1c0,0.4,0.4,0.8,0.8,0.8h123c0.5-0.1,0.9-0.5,0.8-1
		C130.1,385.6,129.7,385.3,129.3,385.2z"/>
	<path class="st1" d="M86.8,391.6H48.8c-0.5,0.1-0.9,0.5-0.8,1c0,0.4,0.4,0.8,0.8,0.8h37.9c0.5-0.1,0.9-0.5,0.8-1
		C87.5,392,87.2,391.6,86.8,391.6L86.8,391.6z"/>
	<path class="st1" d="M34.4,391.6H16.6c-0.5,0.1-0.9,0.5-0.8,1c0,0.4,0.4,0.8,0.8,0.8h17.8c0.5-0.1,0.9-0.5,0.8-1
		C35.1,392,34.8,391.6,34.4,391.6L34.4,391.6z"/>
	<path class="st1" d="M119,391.6h-17.8c-0.5,0.1-0.9,0.5-0.8,1c0,0.4,0.4,0.8,0.8,0.8H119c0.5-0.1,0.9-0.5,0.8-1
		C119.8,392,119.5,391.6,119,391.6z"/>
	<path class="st1" d="M29.4,381.6h-7.9c-0.5,0-0.9,0.4-0.9,0.9s0.4,0.9,0.9,0.9l0,0h7.9c0.5-0.1,0.9-0.5,0.8-1
		C30.2,382.1,29.9,381.7,29.4,381.6L29.4,381.6z"/>
	<path class="st1" d="M114.1,381.6h-7.9c-0.5,0.1-0.9,0.5-0.8,1c0,0.4,0.4,0.8,0.8,0.8h7.9c0.5-0.1,0.9-0.5,0.8-1
		C114.8,382,114.5,381.7,114.1,381.6z"/>
	<path class="st1" d="M38.6,419.1l-2.7-2c-0.3-0.2-0.6-0.2-0.9,0l-1.1,0.8c-0.4,0.2-0.7,0.4-1,0.7c-0.2,0.2-0.9,0.4-0.1,0.4
		c0.8,0-0.5-0.7-0.9-0.9l-1.3-1c-0.3-0.2-0.6-0.2-0.9,0l-1.1,0.9c-0.4,0.2-0.7,0.4-1,0.7c-0.2,0.3-0.9,0.4-0.1,0.4s-0.5-0.7-0.9-0.9
		l-1.3-1c-0.3-0.2-0.6-0.2-0.9,0l-1.1,0.8c-0.4,0.2-0.7,0.4-1,0.7c-0.2,0.2-0.9,0.4-0.1,0.4s-0.5-0.7-0.9-0.9l-1.3-1
		c-0.3-0.2-0.6-0.2-0.9,0l-1.1,0.8c-0.4,0.2-0.7,0.4-1,0.7c-0.2,0.2-0.9,0.4-0.1,0.4s-0.5-0.7-0.9-0.9l-1.3-1
		c-0.3-0.2-0.6-0.2-0.9,0l-1,0.9c-0.4,0.2-0.7,0.4-1,0.7c-0.2,0.2-0.9,0.4-0.1,0.4s-0.5-0.7-0.9-0.9l-1.3-1c-1-0.7-1.9,0.9-0.9,1.6
		l2.7,2c0.3,0.2,0.6,0.2,0.9,0l1.1-0.8c0.4-0.2,0.7-0.4,1-0.7c0.2-0.3,0.9-0.4,0.1-0.4s0.5,0.7,0.9,0.9l1.3,1c0.3,0.2,0.6,0.2,0.9,0
		l1.1-0.8c0.4-0.2,0.7-0.4,1-0.7c0.2-0.2,0.9-0.4,0.1-0.4s0.5,0.7,0.9,0.9l1.3,1c0.3,0.2,0.6,0.2,0.9,0l1.1-0.8
		c0.4-0.2,0.7-0.4,1-0.7c0.2-0.3,0.9-0.4,0.1-0.4s0.5,0.7,0.9,0.9l1.3,1c0.3,0.2,0.6,0.2,0.9,0l1.1-0.8c0.4-0.2,0.7-0.4,1-0.7
		c0.2-0.3,0.9-0.4,0.1-0.4s0.5,0.7,0.9,0.9l1.3,1c0.3,0.2,0.6,0.2,0.9,0l1.1-0.8c0.4-0.2,0.7-0.4,1-0.7c0.2-0.2,0.9-0.4,0.1-0.4
		s0.5,0.7,0.9,0.9l1.3,1c0.9,0.7,1.9-0.9,0.9-1.6L38.6,419.1z"/>
	<path class="st1" d="M126.1,419.1l-2.7-2c-0.3-0.2-0.6-0.2-0.9,0l-1.1,0.8c-0.4,0.2-0.7,0.4-1,0.7c-0.2,0.2-0.9,0.4-0.1,0.4
		s-0.5-0.7-0.9-0.9l-1.3-1c-0.3-0.2-0.6-0.2-0.9,0L116,418c-0.4,0.2-0.7,0.4-1,0.7c-0.2,0.3-0.9,0.4-0.1,0.4s-0.5-0.7-0.9-0.9
		l-1.3-1c-0.3-0.2-0.6-0.2-0.9,0l-1.1,0.8c-0.4,0.2-0.7,0.4-1,0.7c-0.2,0.2-0.9,0.4-0.1,0.4s-0.5-0.7-0.9-0.9l-1.3-1
		c-0.3-0.2-0.6-0.2-0.9,0l-1.1,0.8c-0.4,0.2-0.7,0.4-1,0.7c-0.2,0.2-0.9,0.4-0.1,0.4s-0.5-0.7-0.9-0.9l-1.3-1
		c-0.3-0.2-0.6-0.2-0.9,0l-1.1,0.8c-0.4,0.2-0.7,0.4-1,0.7c-0.2,0.2-0.9,0.4-0.1,0.4s-0.5-0.7-0.9-0.9l-1.3-1
		c-0.9-0.7-1.9,0.9-0.9,1.6l2.7,2c0.3,0.2,0.6,0.2,0.9,0l1.1-0.8c0.4-0.2,0.7-0.4,1-0.7c0.2-0.3,0.9-0.4,0.1-0.4s0.5,0.7,0.9,0.9
		l1.3,1c0.3,0.2,0.6,0.2,0.9,0l1.1-0.8c0.4-0.2,0.7-0.4,1-0.7c0.2-0.2,0.9-0.4,0.1-0.4s0.5,0.7,0.9,0.9l1.3,1c0.3,0.2,0.6,0.2,0.9,0
		l1.1-0.8c0.4-0.2,0.7-0.4,1-0.7c0.2-0.3,0.9-0.4,0.1-0.4s0.5,0.7,0.9,0.9l1.3,1c0.3,0.2,0.6,0.2,0.9,0l1.1-0.8
		c0.4-0.2,0.7-0.4,1-0.7c0.2-0.3,0.9-0.4,0.1-0.4s0.5,0.7,0.9,0.9l1.3,1c0.3,0.2,0.6,0.2,0.9,0l1.1-0.8c0.4-0.2,0.7-0.4,1-0.7
		c0.2-0.2,0.9-0.4,0.1-0.4s0.5,0.7,0.9,0.9l1.3,1C126.2,421.4,127.1,419.8,126.1,419.1L126.1,419.1z"/>
	<path class="st4" d="M38.1,408.6v30.2c0,0.3-0.2,0.5-0.5,0.5h0H9.4c-0.3,0-0.5-0.2-0.5-0.5l0,0v-30.2"/>
	<path class="st4" d="M125.6,408.6v30.2c0,0.3-0.2,0.5-0.5,0.5l0,0H96.9c-0.3,0-0.5-0.2-0.5-0.5l0,0v-30.2"/>
	<path class="st4" d="M38.1,436.8c0-8,6.2-14.4,13.8-14.4h30.6c7.6,0,13.8,6.5,13.8,14.4"/>
	<line class="st4" x1="11.3" y1="398.5" x2="11.3" y2="386.2"/>
	<line class="st4" x1="124.3" y1="386.2" x2="124.3" y2="398.5"/>
	<path class="st4" d="M11.3,386.2v-6.8c0-0.3,0.2-0.5,0.5-0.5c0,0,0,0,0,0h27.2c0.3,0,0.5,0.2,0.5,0.5l0,0v6.8"/>
	<path class="st1" d="M68.7,369.2v-10.5c-0.1-0.5-0.5-0.9-1-0.8c-0.4,0-0.8,0.4-0.8,0.8v10.5c0.1,0.5,0.5,0.9,1,0.8
		C68.3,370,68.7,369.6,68.7,369.2z"/>
	<path class="st1" d="M71.6,375.1c4.5,1.5,7.5,5.7,7.6,10.4c0.1,0.5,0.5,0.9,1,0.8c0.4,0,0.8-0.4,0.8-0.8c-0.1-5.5-3.7-10.4-9-12.2
		C70.9,372.9,70.4,374.7,71.6,375.1L71.6,375.1z"/>
	<path class="st1" d="M56.4,385.5c0.1-4.7,3.2-8.9,7.6-10.4c1.1-0.4,0.6-2.2-0.5-1.8c-5.3,1.8-8.9,6.6-9,12.2c0.1,0.5,0.5,0.9,1,0.8
		C56,386.3,56.3,385.9,56.4,385.5L56.4,385.5z"/>
	<path class="st1" d="M81,386.2c0.2-3,2.5-6.2,5.7-6.2c3.3,0,5.6,3.1,5.7,6.2c0.1,1.2,1.9,1.2,1.8,0c-0.2-4-3.3-8-7.6-8
		s-7.4,3.9-7.6,8C79.1,387.3,81,387.3,81,386.2L81,386.2z"/>
	<path class="st1" d="M43.1,386.2c0.2-3,2.5-6.2,5.7-6.2s5.6,3.1,5.7,6.2c0.1,1.2,1.9,1.2,1.8,0c-0.2-4-3.3-8-7.6-8s-7.4,3.9-7.6,8
		C41.2,387.3,43,387.3,43.1,386.2z"/>
	<ellipse class="st4" cx="67.8" cy="373.5" rx="4.1" ry="4.3"/>
	<path class="st4" d="M96,386.2v-6.8c0-0.3,0.2-0.5,0.5-0.5l0,0h27.2c0.3,0,0.5,0.2,0.5,0.5l0,0v6.8"/>
	<path class="st1" d="M20.9,378.9c0.4-4.4,8.7-4.4,9.1,0c0.1,1.2,1.9,1.2,1.8,0c-0.6-6.8-12.2-6.8-12.8,0
		C19,380,20.8,380,20.9,378.9z"/>
	<path class="st1" d="M105.6,378.9c0.4-4.4,8.7-4.4,9.1,0c0.1,1.2,1.9,1.2,1.8,0c-0.6-6.8-12.2-6.8-12.8,0
		C103.6,380,105.5,380,105.6,378.9L105.6,378.9z"/>
	<path class="st4" d="M9.5,408.6l-8.4-9.1c-0.2-0.2-0.2-0.6,0-0.8c0.1-0.1,0.2-0.1,0.3-0.2h131.6c0.3,0,0.5,0.3,0.5,0.6
		c0,0.1-0.1,0.2-0.2,0.3l-8.6,9.1"/>
	<line class="st4" x1="96" y1="386.2" x2="96" y2="398.5"/>
	<line class="st4" x1="39.6" y1="398.5" x2="39.6" y2="386.2"/>
	<path class="st1" d="M26.4,373.8v-7.5c-0.1-0.5-0.5-0.9-1-0.8c-0.4,0-0.8,0.4-0.8,0.8v7.5c0.1,0.5,0.5,0.9,1,0.8
		C26,374.5,26.4,374.2,26.4,373.8z"/>
	<path class="st1" d="M25.5,374.7L25.5,374.7c0.1,1.2,1.9,1.2,1.8,0c0-1-0.8-1.8-1.8-1.8c-1,0-1.8,0.8-1.8,1.8
		C23.6,375.9,25.4,375.9,25.5,374.7L25.5,374.7z"/>
	<path class="st1" d="M110.1,374.7L110.1,374.7c0.1,1.2,1.9,1.2,1.8,0c0-1-0.8-1.8-1.8-1.8c-1,0-1.8,0.8-1.8,1.8c0,0,0,0,0,0
		C108.2,375.9,110,375.9,110.1,374.7L110.1,374.7z"/>
	<path class="st1" d="M111,373.8v-7.5c-0.1-0.5-0.5-0.9-1-0.8c-0.4,0-0.8,0.4-0.8,0.8v7.5c0.1,0.5,0.5,0.9,1,0.8
		C110.7,374.5,111,374.2,111,373.8z"/>
</g>
</svg>
