<?xml version="1.0" encoding="utf-8"?>
<!-- Generator: Adobe Illustrator 21.0.0, SVG Export Plug-In . SVG Version: 6.00 Build 0)  -->
<svg version="1.1" id="Layer_1" xmlns="http://www.w3.org/2000/svg" xmlns:xlink="http://www.w3.org/1999/xlink" x="0px" y="0px"
	 viewBox="0 0 689.3 665.6" style="enable-background:new 0 0 689.3 665.6;" xml:space="preserve">
<style type="text/css">
	.st0{fill:#DD4440;}
</style>
<title>Texture_UFC_MASSA</title>
<g id="logo">
	<g>
		<g>
			<path class="st0" d="M120,123.5H37c-1,0-1.8-0.8-1.8-1.8V55.8c0-1,0.8-1.8,1.8-1.8h10.6v2.9H38v63.8h81V93.3h2.9v28.4
				C121.8,122.7,121,123.5,120,123.5z"/>
		</g>
		<g>
			<path class="st0" d="M121.8,64.5H119v-7.7h-9.6V54H120c1,0,1.8,0.8,1.8,1.8V64.5z"/>
		</g>
		<g>
			<path class="st0" d="M120,123.5H37c-1,0-1.8-0.8-1.8-1.8V55.8c0-1,0.8-1.8,1.8-1.8h10.6v2.9H38v63.8h81V93.3h2.9v28.4
				C121.8,122.7,121,123.5,120,123.5z"/>
		</g>
		<g>
			<path class="st0" d="M121.8,64.5H119v-7.7h-9.6V54H120c1,0,1.8,0.8,1.8,1.8V64.5z"/>
		</g>
		<g>
			<path class="st0" d="M120,123.5H37c-1,0-1.8-0.8-1.8-1.8V55.8c0-1,0.8-1.8,1.8-1.8h10.6v2.9H38v63.8h81V56.8h-9.6V54H120
				c1,0,1.8,0.8,1.8,1.8v65.9C121.8,122.7,121,123.5,120,123.5z"/>
		</g>
		<g>
			<path class="st0" d="M111.9,56.8H45.2c-1,0-1.8-0.8-1.8-1.8v-3.1c0-1,0.8-1.8,1.8-1.8h66.7c1,0,1.8,0.8,1.8,1.8V55
				C113.7,56,112.9,56.8,111.9,56.8z M46.2,54h64.6v-1H46.2V54z"/>
		</g>
		<g>
			<path class="st0" d="M111.5,51.9l-2.8-0.7c1-4.2,1.2-8.7,0.4-13.1l2.8-0.5C112.8,42.4,112.6,47.4,111.5,51.9z"/>
		</g>
		<g>
			<path class="st0" d="M44.4,51.8c-2.2-9-0.7-18.3,4.1-26.1s12.4-13.4,21.4-15.5c2.6-0.6,5.3-0.9,8-0.9c6.7,0,13.2,1.9,18.8,5.5
				l-1.6,2.4C90,13.9,84,12.1,77.9,12.1c-2.5,0-5,0.3-7.4,0.9c-8.2,2-15.2,7-19.6,14.2s-5.7,15.7-3.7,23.9L44.4,51.8z"/>
		</g>
		<g>
			<path class="st0" d="M111.8,38.6l-2.6-1.3c0.9-1.8,1.4-3.9,1.4-6.1c0-7.5-6.1-13.7-13.7-13.7h-1v-2.9h1c9.1,0,16.5,7.4,16.5,16.5
				C113.5,33.8,112.9,36.4,111.8,38.6z"/>
		</g>
		<g>
			<path class="st0" d="M105.6,41.4c-0.1,0-0.2,0-0.3,0c-0.5-0.1-1-0.4-1.2-0.8L90.4,20.4C90.2,20,90,19.5,90.1,19s0.4-1,0.8-1.2
				l4.3-3l1.6,2.4l-3.4,2.4L106,38.2l4-1.8l1.2,2.6l-4.8,2.1C106.1,41.3,105.9,41.4,105.6,41.4z M105.2,38.6L105.2,38.6L105.2,38.6z
				"/>
		</g>
		<g>
			<path class="st0" d="M113.8,72.5H43.2c-1,0-1.8-0.8-1.8-1.8v-8.2c0-1,0.8-1.8,1.8-1.8h70.7c1,0,1.8,0.8,1.8,1.8v8.2h-0.1
				C115.6,71.7,114.8,72.5,113.8,72.5z M112.8,70.3L112.8,70.3L112.8,70.3C112.9,70.3,112.8,70.3,112.8,70.3z M44.2,69.7h68.6v-6.1
				H44.2V69.7z"/>
		</g>
		<g>
			<path class="st0" d="M51.9,152.7H41.7c-1.7,0-3-1.3-3-3v-26.2c0.2-1.6,1.5-2.9,3-2.9h10.2c1.7,0,3,1.3,3,3v26
				C54.9,151.4,53.6,152.7,51.9,152.7z M41.5,123.8v25.9c0,0.1,0.1,0.2,0.2,0.2h10.2c0.1,0,0.2-0.1,0.2-0.2v-26
				c0-0.1-0.1-0.2-0.2-0.2H41.7C41.7,123.6,41.6,123.6,41.5,123.8z"/>
		</g>
		<g>
			<path class="st0" d="M115.3,152.7h-10.2c-1.7,0-3-1.3-3-3v-26c0-1.7,1.3-3,3-3h10.2c1.7,0,3,1.3,3,3v26
				C118.3,151.4,117,152.7,115.3,152.7z M105.1,123.5c-0.1,0-0.2,0.1-0.2,0.2v26c0,0.1,0.1,0.2,0.2,0.2h10.2c0.1,0,0.2-0.1,0.2-0.2
				v-26c0-0.1-0.1-0.2-0.2-0.2H105.1z"/>
		</g>
		<g>
			<path class="st0" d="M113.8,109.5H43.2c-1,0-1.8-0.8-1.8-1.8V86.1c0-1,0.8-1.8,1.8-1.8h70.6c1,0,1.8,0.8,1.8,1.8v21.6
				C115.6,108.7,114.8,109.5,113.8,109.5z M44.2,106.7h68.5V87.1H44.2V106.7z"/>
		</g>
		<g>
			<path class="st0" d="M74.1,108.2h-2.9v-3.1c0-1,0.8-1.8,1.8-1.8h6.6v-1.7c0-1,0.8-1.8,1.8-1.8h7.2v-1.7c0-1,0.8-1.8,1.8-1.8h6.8
				v-1.7c0-1,0.8-1.8,1.8-1.8h8.5v0.7h1.6v0.4c0,0.7-0.4,1.1-0.6,1.3l-0.4,0.4H100v1.7c0,1-0.8,1.8-1.8,1.8h-6.8v1.7
				c0,1-0.8,1.8-1.8,1.8h-7.2v1.7c0,1-0.8,1.8-1.8,1.8H74L74.1,108.2L74.1,108.2z M106.4,93.5h0.5l-0.3-0.3
				C106.5,93.2,106.5,93.3,106.4,93.5z"/>
		</g>
		<g>
			<path class="st0" d="M109,93.4h-2.9v-2.7c0-1,0.8-1.8,1.8-1.8h6.2v2.9H109V93.4z"/>
		</g>
		<g>
			<path class="st0" d="M53.2,51.6c-1-5.7-1.3-11.4-1-17.5c0.3-5.4,1.1-10.7,2.2-15.6l2.8,0.7c-1.1,4.7-1.9,9.8-2.2,15
				c-0.3,5.9,0,11.4,1,16.9L53.2,51.6z"/>
		</g>
		<g>
			<path class="st0" d="M63.9,52c-0.1-0.2-1.8-6.2-0.8-21.2c1-14.8,3-19,3-19.1l2.6,1.3l-1.3-0.6l1.3,0.6c0.1,0-1.7,4-2.7,18
				c-1,14.5,0.6,20.1,0.6,20.2L63.9,52z"/>
		</g>
		<g>
			<path class="st0" d="M100.3,51.6l-2.8-0.5c1-5.5,1.3-11,1-16.9c0-0.3,0-0.6,0-0.9c0-0.3-0.1-0.7-0.1-1h2.9c0,0.3,0,0.5,0,0.8
				s0.1,0.7,0.1,1C101.7,40.2,101.3,45.9,100.3,51.6z"/>
		</g>
		<g>
			<path class="st0" d="M89.5,51.9l-2.8-0.8c0-0.1,1.6-5.8,0.6-20.2c-0.9-14.1-3-18.8-3.1-18.9l2.6-1.3c0.1,0.2,2.4,5.1,3.3,19.9
				C91.2,45.7,89.6,51.7,89.5,51.9z"/>
		</g>
		<g>
			<rect x="75.3" y="10.7" class="st0" width="2.9" height="40.8"/>
		</g>
	</g>
	<g>
		<path class="st0" d="M279.1,187.6h-18.9c-1.3,0-2.2-1-2.2-2.2V171c-0.1-2.2,0.8-4.2,2.3-5.8c1.6-1.6,3.7-2.5,6-2.5h6.6
			c4.7,0,8.4,3.7,8.4,8.3v14.4C281.3,186.7,280.4,187.6,279.1,187.6z M260.8,184.8h17.6V171c0-3-2.5-5.5-5.6-5.5h-6.6
			c-1.5,0-2.9,0.6-4,1.7c-1,1-1.5,2.4-1.5,3.8L260.8,184.8z"/>
	</g>
	<g>
		<path class="st0" d="M262.8,194.2c-0.4,0-0.8-0.1-1.1-0.3l-0.1-0.1c-0.3-0.2-0.5-0.5-0.6-0.7l-3-5.4c-0.3-1.2,0.4-2.5,1.5-2.7h0.3
			h5.9c0.7,0,1.3,0.3,1.7,0.8l0,0l0.1,0.1c0.2,0.2,0.3,0.5,0.3,0.7v0.1c0.2,0.5,0.1,1.1-0.2,1.6l-3.1,5.1
			C264.2,193.9,263.5,194.2,262.8,194.2z M261.3,187.7l1.6,2.9l1.8-2.9H261.3z"/>
	</g>
	<g>
		<path class="st0" d="M269.4,197.5c-0.4,0-0.8-0.1-1.1-0.3l-0.1-0.1c-0.4-0.3-0.6-0.6-0.6-0.9l-3.3-8.6c-0.3-1.2,0.4-2.5,1.5-2.7
			h0.3h6.4c1.3,0,2.2,1,2.2,2.2v0.5l-3.5,9c-0.3,0.5-0.8,0.8-1.3,0.9C269.8,197.5,269.6,197.5,269.4,197.5z M267.3,187.7l2.1,5.5
			l2.1-5.5H267.3z"/>
	</g>
	<g>
		<path class="st0" d="M276.1,194.2c-0.4,0-0.8-0.1-1.1-0.3l-0.2-0.1c-0.3-0.2-0.5-0.4-0.6-0.7l-3.3-5.2l-0.1-0.2
			c-0.3-1.2,0.4-2.5,1.5-2.7h0.3h5.9c1.2,0,2.2,1,2.2,2.2v0.6l-3,5.6C277.5,193.9,276.8,194.2,276.1,194.2z M274.3,187.7l1.8,2.9
			l1.5-2.9H274.3z"/>
	</g>
	<g>
		<path class="st0" d="M246.7,161.2L246.7,161.2c-1.2,0-2.1-0.8-2.4-1.8v-0.3v-0.6l1.4-5.9c0.3-1.2,1.5-1.9,2.7-1.7l0.4,0.1l0.4,0.2
			l7.7,5.3c0.5,0.5,0.7,1.1,0.6,1.7c-0.1,0.5-0.3,1-0.8,1.3c-0.1,0.1-0.2,0.2-0.3,0.2l-0.2,0.2L246.7,161.2z M248.3,154.1l-1,4.2
			l6-0.8L248.3,154.1z"/>
	</g>
	<g>
		<path class="st0" d="M252.2,180h-32.4l0.8-2c0.2-0.4,3.8-10.2-7-21.3l2.1-2c9.3,9.5,8.9,18.5,8.1,22.4h23.7c-2-5-6-18.6-1-39.9
			l2.8,0.7c-6.1,25.7,1.6,39.8,1.7,40L252.2,180z"/>
	</g>
	<g>
		<path class="st0" d="M249.2,133.5c-0.2,0-0.4,0-0.6-0.1c-0.5-0.1-1-0.5-1.3-0.9c-0.4-0.5-0.4-1-0.4-1.2l-0.2-6.6
			c0-1.4,1.1-2.5,2.4-2.5h0.6l9.5,2.6l0.2,0.1c0.5,0.3,0.8,0.8,0.9,1.4s0,1.2-0.3,1.6l-0.1,0.1c-0.2,0.3-0.5,0.5-0.8,0.6l-9,4.5
			C249.9,133.5,249.5,133.5,249.2,133.5z M249.8,131.3l-1.4,0.2L249.8,131.3L249.8,131.3z M249.7,125.3l0.2,5l6.4-3.3L249.7,125.3z"
			/>
	</g>
	<g>
		<path class="st0" d="M248.1,124.3c-0.6,0-1.2-0.2-1.6-0.7l-0.4-0.4l-4.2-5.9c-0.5-1-0.2-2.2,0.7-2.9c0.4-0.4,0.9-0.4,1.1-0.4l9-1
			c1.2,0,2.2,1,2.2,2.1v0.7l-5,7.7C249.4,124,248.8,124.3,248.1,124.3z M245,116.7l3.1,4.3l3.3-5.1L245,116.7z M243.8,116.4v0.4l0,0
			V116.4L243.8,116.4z M243.8,115.4v0.9l0,0V115.4z"/>
	</g>
	<g>
		<path class="st0" d="M244.3,117.2c-0.3,0-0.5,0-0.8-0.1c-0.1,0-0.1,0-0.2-0.1h-0.1l-6-4.6c-1-0.8-1.2-2.2-0.5-3.2l0.1-0.2l0.5-0.5
			l8.8-3.7c1.1-0.3,2.1,0.3,2.6,1.3l0.2,0.3v0.8l-2.4,8.4C246.2,116.7,245.3,117.2,244.3,117.2z M239.7,110.7l4.3,3.3l1.7-5.8
			L239.7,110.7z M239,110.1L239,110.1C239,110.2,239,110.1,239,110.1z"/>
	</g>
	<g>
		<path class="st0" d="M237.4,110.9c-0.1,0-0.2,0-0.3,0h-0.3l-6.9-2.1c-0.6-0.2-1.1-0.6-1.4-1.1c-0.2-0.4-0.3-0.8-0.2-1.2
			c-0.1-0.4,0-1,0.5-1.5l0,0l6.6-6.2c0.8-0.8,2.2-0.8,3.1,0.1c0.2,0.1,0.2,0.3,0.3,0.4l0.3,0.3l0.6,9c0,0.7-0.3,1.4-0.8,1.8
			C238.5,110.7,237.9,110.9,237.4,110.9z M231.6,106.2l5.2,1.6l-0.4-6.1L231.6,106.2z M230.8,106.9L230.8,106.9L230.8,106.9
			L230.8,106.9z M229.8,105.9L229.8,105.9L229.8,105.9z M237.4,100.7L237.4,100.7L237.4,100.7z"/>
	</g>
	<g>
		<path class="st0" d="M249.5,142.9c-0.4,0-0.8-0.1-1.2-0.3c-0.5-0.3-0.9-0.8-1-1.4v-0.5l0.2-6.1c0-0.6,0.3-1.2,0.8-1.6
			c0.5-0.4,1.1-0.6,1.6-0.5h0.3l8.9,3.8c0.5,0.3,0.8,0.8,0.9,1.3c0.1,0.6,0,1.1-0.3,1.6l-0.2,0.2l-0.4,0.4l-9,3
			C249.9,142.8,249.7,142.9,249.5,142.9z M250.3,135.5l-0.1,4.2l5.5-1.9L250.3,135.5z M250.3,134.5L250.3,134.5L250.3,134.5z"/>
	</g>
	<g>
		<path class="st0" d="M246.9,152.2c-0.5,0-1-0.2-1.4-0.5c-0.5-0.4-0.8-1-0.8-1.7v-0.6l1.2-6c0.3-1.2,1.5-2,2.7-1.7l0.4,0.1l0.3,0.2
			l7.9,5.1c0.5,0.5,0.7,1.1,0.6,1.7c-0.1,0.5-0.3,1-0.7,1.3l-0.5,0.5l-9.4,1.6C247.2,152.1,247.1,152.2,246.9,152.2z M248.6,144.9
			l-0.8,4.2l5.9-1L248.6,144.9z"/>
	</g>
	<g>
		<path class="st0" d="M248.6,141.2c3.2-11.9-0.6-25.7-11.3-32.6c-4.8-3.2-10.7-4.2-16.4-2.9c-5.3,1.4-9.3,5.3-12.8,9.3
			c-2,2.5-4.4,4.7-7,6.4c-4.9,3.3-10.6,5-16.5,4.8c-4.6-0.3-11-4.3-14.9-0.4c-1.9,1.8-3.6,3.7-5.2,5.7c-0.9,1.2-0.3,2.3,0.3,3.4
			c1.8,3.3,3.4,6.7,5.3,9.9c1.6,2.6,4.9,0.9,7.3,0.2c4.7-1.4,9.3-2.8,14.1-3.7c3.9-0.8,9.5-2,13.2,0c2.3,1.3,4.3,4,2.3,6.4
			c-2.2,2.5-6.1,3.7-9.2,4.7c-3.7,1.1-7.4,2-11.2,2.7c-2.3,0.4-5,0.4-6.9,1.2c-3.7,1.4-2.8,7.6-1.7,10.4c1.1,3,3.4,3.3,6.2,3.4
			c9.1,0.4,19.2-2.2,26.3-7.9c2-1.7,3.8-3.6,5.2-5.8l-2,0.5l0,0c1.6,0.8,3.1-1.7,1.4-2.5l0,0c-0.7-0.4-1.6-0.2-2,0.5
			c-5.4,8.2-15.8,11.7-25.3,12.2c-1.7,0.1-5.8,0.6-6.9-0.6s-1.3-4.2-1.1-5.8s0.4-1.8,1.8-2c6.2-0.8,12.4-2.2,18.4-4.2
			c4.3-1.5,12.3-4.8,10.3-10.8c-2.7-7.8-12.6-6.6-18.9-5.5c-4.6,0.9-9.1,2.1-13.6,3.4c-1.5,0.4-3.1,0.9-4.6,1.3
			c-0.3,0-0.5,0.1-0.8,0.2c-0.5,0.3,0,0,0.2,0.3c-0.2-0.4-0.4-0.8-0.6-1.2c-1.6-3-3-6.5-5-9.4c-0.1-0.1-0.2-0.5-0.3-0.5
			s-0.4,0.5,0,0.5c0.8-0.1,2.6-2.8,3.2-3.5c1.4-1.7,2.3-3.1,4.7-2.6c2.9,0.5,5.7,1.6,8.7,1.9c2.9,0.3,5.8,0.1,8.6-0.6
			c4.4-1.1,8.6-3,12.2-5.7c6.7-4.9,10.5-13.9,19.8-14.7c12.5-1.1,21.7,10.6,22.7,22.1c0.3,3.4,0,6.9-0.9,10.3
			c-0.2,0.8,0.2,1.6,1,1.8C247.5,142.4,248.3,141.9,248.6,141.2L248.6,141.2z"/>
	</g>
	<g>
		<path class="st0" d="M178.3,153.3c-0.3,0-0.6-0.1-0.8-0.2c-0.4-0.1-0.7-0.4-0.9-0.6l-0.2-0.2l-3.8-5.7c-0.5-1.2,0-2.5,1.1-3
			l0.4-0.2c0.1,0,0.3-0.1,0.5-0.1l6.1-0.6c1.1-0.2,2.1,0.5,2.5,1.6c0.2,0.4,0.2,0.8,0.2,0.9v0.3l-3.1,6.4c-0.3,0.6-0.7,1-1.3,1.1
			C178.7,153.3,178.5,153.3,178.3,153.3z M175.7,146.2l2.4,3.6l2-4L175.7,146.2z M181.9,145.4h-1.4H181.9z"/>
	</g>
	<g>
		<path class="st0" d="M186.1,151.9c-0.3,0-0.6-0.1-0.8-0.2c-0.4-0.1-0.7-0.4-0.9-0.6l-0.2-0.2l-3.8-5.7c-0.5-1.2,0-2.5,1.1-3
			l0.4-0.2c0.1,0,0.3-0.1,0.5-0.1l6.1-0.6c0.6-0.1,1.3,0.1,1.8,0.5c0.3,0.3,0.6,0.7,0.7,1.1c0.2,0.4,0.2,0.8,0.2,0.9v0.3l-3.1,6.4
			c-0.3,0.6-0.8,1-1.3,1.1C186.5,151.9,186.3,151.9,186.1,151.9z M183.5,144.8l2.4,3.6l2-4L183.5,144.8z M189.7,144h-1.4H189.7z"/>
	</g>
	<g>
		<path class="st0" d="M193.8,150.7c-0.3,0-0.6-0.1-0.8-0.2c-0.4-0.1-0.7-0.4-0.9-0.6l-0.2-0.2l-3.8-5.7c-0.5-1.2,0-2.5,1.1-3
			l0.4-0.2c0.1,0,0.3-0.1,0.5-0.1l6.1-0.6c0.6-0.1,1.3,0.1,1.8,0.5c0.3,0.3,0.6,0.7,0.7,1.1c0.2,0.4,0.2,0.8,0.2,0.9v0.3l-3.1,6.4
			C195.3,150.3,194.6,150.7,193.8,150.7z M191.2,143.6l2.4,3.6l2-4L191.2,143.6z M197.4,142.8H196H197.4z"/>
	</g>
	<g>
		<path class="st0" d="M201.4,149.4c-0.3,0-0.6-0.1-0.8-0.2c-0.4-0.1-0.7-0.4-0.9-0.6l-0.2-0.2l-3.8-5.7c-0.5-1.2,0-2.5,1.1-3
			l0.4-0.2c0.1,0,0.3-0.1,0.5-0.1l6.1-0.6c0.6-0.1,1.3,0.1,1.8,0.5c0.3,0.3,0.6,0.7,0.7,1.1c0.2,0.4,0.2,0.8,0.2,0.9v0.3l-3.1,6.4
			c-0.3,0.6-0.8,1-1.3,1.1C201.8,149.4,201.6,149.4,201.4,149.4z M198.8,142.3l2.4,3.6l2-4L198.8,142.3z M205,141.5h-1.4H205z"/>
	</g>
	<g>
		<path class="st0" d="M226.1,179.9l-1.8-14.5c-0.6-6,3-11.7,7.9-12.8l0,0c2.3-0.5,4.5,0,6.5,1.4c2.3,1.7,3.9,4.5,4.3,7.8l1.6,17.6
			L226.1,179.9z M232.9,155.4c-3.5,0.7-6.1,5.2-5.7,9.7l1.4,11.9l12.9-0.3l-1.4-14.5c-0.3-2.4-1.4-4.6-3.1-5.8
			C235.8,155.4,234.4,155.1,232.9,155.4z"/>
	</g>
	<g>
		
			<rect x="225.8" y="159.5" transform="matrix(0.9864 -0.1645 0.1645 0.9864 -23.2927 40.6362)" class="st0" width="15.8" height="2.9"/>
	</g>
	<g>
		
			<rect x="226.2" y="165.6" transform="matrix(0.9861 -0.1662 0.1662 0.9861 -24.501 41.3138)" class="st0" width="16.8" height="2.9"/>
	</g>
	<g>
		
			<rect x="226.9" y="171.8" transform="matrix(0.9869 -0.1614 0.1614 0.9869 -24.8821 40.1924)" class="st0" width="16.1" height="2.9"/>
	</g>
	<g>
		<path class="st0" d="M212.4,129.8v-1.5c0-0.1-0.1-0.3-0.1-0.4c-0.3-2.5,0.3-4.9,1.8-6.8c1.2-1.5,2.8-2.5,4.6-2.7
			c4.1-0.5,8.1,3,8.7,7.5v0.2v1.7L212.4,129.8z M219.4,121.3c-0.2,0-0.3,0-0.5,0c-1.3,0.2-2.2,1-2.7,1.6c-0.8,1-1.2,2.3-1.2,3.6
			l9.2-1.2C223.6,123,221.6,121.3,219.4,121.3z"/>
	</g>
	<g>
		<path class="st0" d="M212.1,129.9l15.6-2c1.8-0.2,1.8-3.1,0-2.9l-15.6,2C210.3,127.3,210.3,130.1,212.1,129.9z"/>
	</g>
	<g>
		<path class="st0" d="M225.9,79.4h-50.8V28.7h50.8V79.4z M178,76.6h45v-45h-45V76.6z"/>
	</g>
	<g>
		<rect x="199.2" y="30.1" class="st0" width="2.9" height="47.9"/>
	</g>
	<g>
		<path class="st0" d="M226,55.4h-49.4v-2.9h22.9c0.8-2.8,3.8-9.5,13.1-9.5c13.3,0,13.4,10.8,13.4,10.9V55.4z M202.5,52.6H223
			c-0.5-2.4-2.6-6.6-10.4-6.6C205.9,45.9,203.4,50.1,202.5,52.6z"/>
	</g>
	<g>
		<path class="st0" d="M200.6,79.4h-1.4V30.1h2.9v22.8c2.8,0.8,9.5,3.8,9.5,13.1C211.5,79.3,200.7,79.4,200.6,79.4z M202,55.9v20.5
			c2.4-0.5,6.6-2.6,6.6-10.4C208.7,59.3,204.5,56.8,202,55.9z"/>
	</g>
	<g>
		<path class="st0" d="M188.6,64.9c-13.3,0-13.4-10.8-13.4-10.9v-1.4h49.3v2.9h-22.8C200.9,58.3,197.9,64.9,188.6,64.9z M178.2,55.4
			c0.5,2.4,2.6,6.6,10.4,6.6c6.7,0,9.2-4.2,10.1-6.6H178.2z"/>
	</g>
	<g>
		<path class="st0" d="M202,78h-2.9V55.1c-2.8-0.8-9.5-3.8-9.5-13.1c0-13.3,10.8-13.4,10.9-13.4h1.4V78H202z M199.2,31.6
			c-2.4,0.5-6.6,2.6-6.6,10.4c0,6.7,4.2,9.2,6.6,10.1V31.6z"/>
	</g>
	<g>
		<path class="st0" d="M70,326.2H42.8c-1.9,0-3.4-1.5-3.4-3.4v-9.6c0.2-1.9,1.6-3.2,3.4-3.2H70c1.9,0,3.4,1.5,3.4,3.4v9.4
			C73.4,324.7,71.9,326.2,70,326.2z M43,322.6h26.7v-8.9H43V322.6z M43,313.5L43,313.5L43,313.5L43,313.5z"/>
	</g>
	<g>
		<path class="st0" d="M58.9,225.8c0.3,2.6,0.6,5.3,1,7.9c0.2,1.6,0.5,3.2,0.7,4.8c0-0.5,0-0.3,0,0.3c-0.1,4.6,0.2,9.2,0.2,13.8
			l0.8,47l0.2,12.3l1.8-1.8H50l1.8,1.8l0.6-32.1l0.7-40c0-0.5,0-1,0-1.5c0-0.3-0.1,0.8,0,0c0.1-0.9,0.3-1.8,0.4-2.7
			c0.5-3.3,0.9-6.5,1.3-9.8c0.3-2.3-3.3-2.3-3.7,0c-0.2,1.5-0.4,3-0.6,4.5c-0.1,0.5,0,0,0,0l-0.2,0.8l-0.4,2.8
			c-0.3,1.6-0.5,3.3-0.6,4.9c-0.2,4.6-0.2,9.3-0.2,14l-0.7,46.8l-0.2,12.3c0,1,0.8,1.8,1.8,1.8h13.6c1,0,1.8-0.8,1.8-1.8L65,279.4
			l-0.7-39.9c-0.1-1.4-0.2-2.9-0.4-4.3c-0.3-1.8-0.6-3.7-0.8-5.5c0,0.3,0.1,0.4,0-0.1l-0.2-1.4l-0.3-2.4
			C62.4,223.4,58.7,223.4,58.9,225.8L58.9,225.8z"/>
	</g>
	<g>
		<path class="st0" d="M62,262c-1.8,0.2-3.5,0.2-5.3,0.1c-1.4,0-1.4,2.1,0,2.1c1.8,0.1,3.5,0,5.3-0.1C63.4,264,63.4,261.9,62,262z"
			/>
	</g>
	<g>
		<path class="st0" d="M50.8,282.1h5.6c0.6,0,1.1-0.5,1.1-1.1s-0.5-1.1-1.1-1.1h-5.6c-0.6,0-1.1,0.5-1.1,1.1S50.2,282.1,50.8,282.1z
			"/>
	</g>
	<g>
		<path class="st0" d="M63,298.8h-7.1c-0.6,0-1.1,0.5-1.1,1.1s0.5,1.1,1.1,1.1H63c0.6,0,1.1-0.5,1.1-1.1S63.6,298.8,63,298.8z"/>
	</g>
	<g>
		<path class="st0" d="M61.9,295h-3.4c-0.6,0-1.1,0.5-1.1,1.1s0.5,1.1,1.1,1.1h3.4c0.6,0,1.1-0.5,1.1-1.1S62.5,295,61.9,295z"/>
	</g>
	<g>
		<path class="st0" d="M51.2,308.7h6.6c0.6,0,1.1-0.5,1.1-1.1s-0.5-1.1-1.1-1.1h-6.6c-0.6,0-1.1,0.5-1.1,1.1S50.6,308.7,51.2,308.7z
			"/>
	</g>
	<g>
		<path class="st0" d="M61.9,270.3h-6.4c-0.6,0-1.1,0.5-1.1,1.1s0.5,1.1,1.1,1.1h6.4c0.6,0,1.1-0.5,1.1-1.1S62.5,270.3,61.9,270.3z"
			/>
	</g>
	<g>
		<path class="st0" d="M52.1,254h5.1c0.6,0,1.1-0.5,1.1-1.1s-0.5-1.1-1.1-1.1l0,0h-5.1c-0.6,0-1.1,0.5-1.1,1.1S51.5,254,52.1,254
			L52.1,254z"/>
	</g>
	<g>
		<path class="st0" d="M57.2,247.1c-2.6,0-5.1-0.9-7.1-2.7l2.4-2.8c2.5,2.2,6.1,2.4,8.8,0.5l2.1,3C61.6,246.4,59.4,247.1,57.2,247.1
			z"/>
	</g>
	<g>
		<path class="st0" d="M43.7,209.5c-4.4,2.2-8.2,6.3-10.7,10.4c-2.6,4.2-4.2,9-4.7,13.9c-0.4,3.3-0.3,6.5,0.1,9.8
			c0.2,1.7,0.5,3.3,0.8,5s0.4,3.5,1.9,4.5c0.7,0.4,1.6,0.3,2.2-0.3c1.4-1.4,1-4.6,1.3-6.5c0.4-3.1,1-6.1,1.9-9.1
			c1.4-5,4.2-12.4,10.3-12.8c2.3-0.2,2.3-3.8,0-3.7c-6.9,0.5-10.7,6.6-12.9,12.5c-2,5.8-3.1,11.9-3.5,18l0.5-1.3l-0.3,0.3l2.2-0.3
			l-0.3-0.2l0.8,1.1c-2.6-10.1-2.7-21.2,3.4-30.1c2.2-3.4,5.2-6.1,8.7-8C47.7,211.7,45.8,208.5,43.7,209.5L43.7,209.5z"/>
	</g>
	<g>
		<path class="st0" d="M67.6,212.7c3.6,1.9,6.8,4.6,9.1,8c6.3,8.8,6.4,19.9,3.8,30.1l0.8-1.1l-0.3,0.2l2.2,0.3l-0.3-0.3l0.5,1.3
			c-0.3-6.1-1.5-12.2-3.5-18c-2.2-5.9-6-12-12.9-12.5c-2.3-0.2-2.3,3.5,0,3.7c6.2,0.4,8.9,7.8,10.3,12.9c0.8,2.9,1.4,5.9,1.8,8.9
			c0.3,1.9-0.1,5.3,1.3,6.7c0.6,0.6,1.5,0.7,2.2,0.3c1.5-1,1.6-2.8,1.9-4.5s0.6-3.3,0.8-4.9c0.4-3.2,0.4-6.5,0-9.7
			c-0.6-5-2.3-9.9-5-14.2c-2.7-4.1-6.6-8.2-11.1-10.4C67.3,208.5,65.5,211.7,67.6,212.7L67.6,212.7z"/>
	</g>
	<g>
		<path class="st0" d="M45.8,221c-1.7,1.4-2.9,3.3-3.5,5.4c-0.7,2.4-0.9,4.9-0.7,7.3c0.2,2.4,0.2,7.4,2.3,8.9
			c0.7,0.4,1.6,0.3,2.2-0.3c0.8-0.8,0.7-2,0.9-3c0.2-1.5,0.6-3,1-4.5c0.7-2.3,2-6.9,4.9-7.2c2.3-0.2,2.3-3.9,0-3.7
			c-7.2,0.7-9.3,11.1-9.8,17l0.5-1.3l-0.1,0.1l2.2-0.3l-0.2-0.1l0.8,1.1c-1.1-4.3-2-9.2-0.5-13.5c0.3-0.8,0.7-1.6,1.2-2.3
			c0.2-0.3,1.1-1,0.5-0.6C49.6,222.9,47.8,219.7,45.8,221L45.8,221z"/>
	</g>
	<g>
		<path class="st0" d="M66.2,224.1c-0.6-0.4,0.2,0.3,0.5,0.5c0.5,0.7,0.9,1.5,1.2,2.3c1.5,4.3,0.6,9.2-0.5,13.5l0.8-1.1l-0.2,0.1
			l2.2,0.3l-0.1-0.1l0.5,1.3c-0.5-5.9-2.7-16.3-9.9-17c-2.3-0.2-2.3,3.4,0,3.7c2.9,0.3,4.3,5,5,7.2c0.4,1.4,0.8,2.8,1,4.3
			c0.2,1.1,0.1,2.4,0.9,3.2c0.6,0.6,1.5,0.7,2.2,0.3c2.1-1.5,2.2-6.5,2.3-8.9c0.2-2.5,0-5-0.7-7.4c-0.5-2.1-1.7-4-3.5-5.4
			C66.1,219.6,64.3,222.8,66.2,224.1L66.2,224.1z"/>
	</g>
	<g>
		<path class="st0" d="M73.4,204c-0.5,0.1-0.2,0,0.2,0c0.6,0,1.1,0,1.7,0.1c1.9,0.4,3.7,1.1,5.3,2.1c2.8,2,5.1,4.5,6.7,7.5
			c1.3,2.2,2.4,4.5,3.2,6.9c0.5,1.4,1,2.9,1.4,4.3c0.3,0.9,1.5,3.8,1.3,4.7l1.3-1.3l-0.2,0.1l1.4,0.2c0.6,0.4-0.1-0.4-0.4-0.8
			c-0.3-0.5-0.7-1.1-1-1.6c-0.8-1.3-1.7-2.5-2.6-3.7c-2.1-2.8-4.4-5.5-7-7.9c-4.7-4.3-10.7-7.7-17.1-5c-2.2,0.9-0.3,4.1,1.8,3.2
			c6.5-2.7,13.1,4.5,16.8,8.8c2,2.3,3.8,4.8,5.5,7.4c0.5,1,1.1,1.9,1.9,2.6c1,0.6,2.3,0.4,2.9-0.6c0.1-0.2,0.2-0.4,0.3-0.6
			c0.5-1.7-0.7-4.4-1.2-6.1c-0.6-2.1-1.3-4.2-2.1-6.3c-1.2-3.2-2.8-6.2-4.8-8.9c-2.5-3.6-5.9-6.3-10-7.9c-2-0.7-4.1-1-6.2-0.7
			C70.1,200.9,71.1,204.4,73.4,204L73.4,204z"/>
	</g>
	<g>
		<path class="st0" d="M40.7,204.1c2.4,0.5,3.4-3.1,1-3.5l0,0c-5.9-1-11.9,2.6-15.6,6.8c-4.9,5.5-7.6,12.7-9.3,19.7
			c-0.4,1.4-1.1,3.4,0.4,4.5c1.3,0.9,2.5,0,3.2-1.1c1.6-2.3,3-4.7,4.8-6.9c3.8-4.9,11.3-14,18.5-10.9c2.1,0.9,4-2.2,1.8-3.2
			c-6.3-2.7-12.4,0.7-17.1,5c-2.5,2.4-4.8,4.9-6.8,7.7c-0.9,1.2-1.8,2.5-2.7,3.8c-0.4,0.5-0.7,1.1-1,1.6c-0.2,0.4-1.1,1.3-0.5,0.9
			l1.4-0.2l-0.2-0.1l1.3,1.3c-0.2-0.8,0.9-3.4,1.2-4.2c0.5-1.6,1-3.1,1.5-4.6c0.9-2.4,2-4.7,3.3-6.9c1.7-3,4.2-5.6,7.1-7.6
			c1.7-1,3.5-1.7,5.5-2c0.6-0.1,1.2-0.1,1.9-0.1"/>
		<path class="st0" d="M40.7,209"/>
	</g>
	<g>
		<path class="st0" d="M42.8,186.3c-9.4,0.5-18.1,5.5-23.2,13.5c-2.8,4-4.7,8.6-5.8,13.4c-0.2,1,0.4,2,1.4,2.2
			c0.8,0.2,1.5-0.1,2-0.8c0.2-0.2-0.3,0.3,0.1-0.2s0.6-0.7,1-1c1.2-1.2,2.6-2.3,4-3.3c5.6-3.7,12.2-5.4,18.9-5.9
			c2.3-0.2,2.3-3.9,0-3.7c-9.5,0.8-21.3,3.9-27.2,12.2l3.4,1.4c2.5-12.5,12.3-23.4,25.4-24.2C45.2,189.8,45.2,186.2,42.8,186.3
			L42.8,186.3z"/>
	</g>
	<g>
		<path class="st0" d="M69.6,190c13.1,0.8,22.9,11.7,25.4,24.2l3.3-1.4c-1.4-2.3-3.3-4.3-5.6-5.9c-5.7-4.2-12.9-5.9-19.8-6.5
			c-2.3-0.2-2.3,3.5,0,3.7c7.5,0.6,18.4,3.2,22.3,10.6c1,1.9,3.7,0.5,3.3-1.4c-1.1-4.8-3-9.3-5.8-13.4c-5.1-8-13.7-13-23.2-13.5
			C67.3,186.2,67.3,189.8,69.6,190L69.6,190z"/>
	</g>
	<g>
		<path class="st0" d="M42.8,186.3c-9.4,0.5-18.1,5.5-23.2,13.5c-2.8,4-4.7,8.6-5.8,13.4c-0.2,1,0.4,2,1.4,2.2
			c0.8,0.2,1.5-0.1,2-0.8c0.2-0.2-0.3,0.3,0.1-0.2s0.6-0.7,1-1c1.2-1.2,2.6-2.3,4-3.3c5.6-3.7,12.2-5.4,18.9-5.9
			c2.3-0.2,2.3-3.9,0-3.7c-9.5,0.8-21.3,3.9-27.2,12.2l3.4,1.4c2.5-12.5,12.3-23.4,25.4-24.2C45.2,189.8,45.2,186.2,42.8,186.3
			L42.8,186.3z"/>
	</g>
	<g>
		<path class="st0" d="M69.6,190c13.1,0.8,22.9,11.7,25.4,24.2l3.3-1.4c-1.4-2.3-3.3-4.3-5.6-5.9c-5.7-4.2-12.9-5.9-19.8-6.5
			c-2.3-0.2-2.3,3.5,0,3.7c7.5,0.6,18.4,3.2,22.3,10.6c1,1.9,3.7,0.5,3.3-1.4c-1.1-4.8-3-9.3-5.8-13.4c-5.1-8-13.7-13-23.2-13.5
			C67.3,186.2,67.3,189.8,69.6,190L69.6,190z"/>
	</g>
	<g>
		<path class="st0" d="M58.5,178c-9.2-5.6-20.6-6-30.2-1.2c-5.1,2.4-9.7,5.8-13.5,10c-1.3,1.5,0.4,4.2,2.2,2.9
			c7-5.1,18-2.6,25.3,0.2c2.2,0.8,3.2-2.7,1-3.5c-6.6-2.5-13.6-3.9-20.6-2.6c-2.7,0.4-5.2,1.3-7.5,2.8l2.2,2.9
			c3.2-3.6,7.1-6.5,11.3-8.7c9.1-4.8,19.1-4.8,28,0.4C58.7,182.4,60.6,179.2,58.5,178L58.5,178z"/>
	</g>
	<g>
		<path class="st0" d="M70,189.9c7.2-2.7,18.2-5.3,25-0.1c1.4,1.1,3.6-1.1,2.5-2.5c-3.2-4.2-7.2-7.7-11.9-10.2
			c-9.4-5.1-19.8-4.4-28.9,1.1l2.7,2.1c0.8-4.8,4.6-8.8,8.7-11.1c2-1.2,0.2-4.3-1.8-3.2c-4.8,2.7-9.5,7.6-10.4,13.3
			c-0.2,1,0.4,2,1.4,2.2c0.5,0.1,0.9,0,1.3-0.2c8.3-5,17.6-5.5,26.1-0.6c2.6,1.6,5.1,3.5,7.2,5.6c0.7,0.7,1.3,1.4,2,2.2
			c0.2,0.2,0.3,0.5,0.6,0.7c-0.3-0.2-0.2-0.2,0,0l2.5-2.5c-2.2-1.5-4.7-2.4-7.3-2.8c-6.9-1.3-14,0.1-20.5,2.6
			C66.9,187.2,67.8,190.8,70,189.9L70,189.9z"/>
	</g>
	<g>
		<path class="st0" d="M59.3,179.6c-1-7-5.3-13.1-11.7-16.2c-2-1-3.7,2-1.7,3c3.7,1.8,6.6,4.7,8.4,8.4c0.5,1.1,1,2.3,1.3,3.6
			c0.1,0.3,0.4,2.2,0.3,1.3C56.2,181.8,59.6,181.8,59.3,179.6L59.3,179.6z"/>
	</g>
	<g>
		<path class="st0" d="M408.2,51.2H289.9c-1.7,0-3-1.3-3-3V34.7c0-1.6,1.4-2.9,3-2.9h118.3c1.7,0,3,1.3,3,3v13.4
			C411.2,49.9,409.9,51.2,408.2,51.2z M289.9,34.6c-0.1,0-0.2,0.1-0.2,0.1v13.5c0,0.1,0.1,0.2,0.2,0.2h118.3c0.1,0,0.2-0.1,0.2-0.2
			V34.8c0-0.1-0.1-0.2-0.2-0.2H289.9z"/>
	</g>
	<g>
		<path class="st0" d="M408.7,111.9h-2.9v-7.6H291.6v7.6h-2.9v-8.5c0-1.2,1-1.9,1.9-1.9h116.1c1.1,0,1.9,0.9,1.9,1.9v8.5H408.7z"/>
	</g>
	<g>
		<path class="st0" d="M400.5,104.4h-103c-1.7,0-3-1.3-3-3v-5.8c0-1.7,1.3-3,3-3h103c1.7,0,3,1.3,3,3v5.8
			C403.5,103.1,402.2,104.4,400.5,104.4z M297.5,95.4c-0.1,0-0.2,0.1-0.2,0.2v5.8c0,0.1,0.1,0.2,0.2,0.2h103c0.1,0,0.2-0.1,0.2-0.2
			v-5.8c0-0.1-0.1-0.2-0.2-0.2H297.5z"/>
	</g>
	<g>
		<path class="st0" d="M305.1,95.5h-3.2c-1.7,0-3-1.3-3-3V51c0.2-1.6,1.5-2.8,3-2.8h3.2c1.7,0,3,1.3,3,3v41.2
			C308.1,94.2,306.8,95.5,305.1,95.5z M301.7,51.3v41.2c0,0.1,0.1,0.2,0.2,0.2h3.2c0.1,0,0.2-0.1,0.2-0.2V51.3
			c0-0.1-0.1-0.2-0.2-0.2h-3.2C301.8,51.1,301.8,51.3,301.7,51.3z"/>
	</g>
	<g>
		<path class="st0" d="M396.1,95.5h-3.2c-1.7,0-3-1.3-3-3V51.2c0-1.6,1.4-2.9,3-2.9h3.2c1.7,0,3,1.3,3,3v41.2
			C399.1,94.2,397.8,95.5,396.1,95.5z M392.9,51.1c-0.1,0-0.2,0.1-0.2,0.1v41.3c0,0.1,0.1,0.2,0.2,0.2h3.2c0.1,0,0.2-0.1,0.2-0.2
			V51.3c0-0.1-0.1-0.2-0.2-0.2H392.9z"/>
	</g>
	<g>
		<path class="st0" d="M337.2,86.6h23.5c0.8,0,1.4-0.6,1.4-1.4s-0.6-1.4-1.4-1.4h-23.5c-0.8,0-1.4,0.6-1.4,1.4
			C335.8,85.9,336.4,86.6,337.2,86.6z"/>
	</g>
	<g>
		<path class="st0" d="M350.4,94V71.2c0-0.8-0.6-1.4-1.4-1.4s-1.4,0.6-1.4,1.4l0,0V94c0,0.8,0.6,1.4,1.4,1.4S350.4,94.8,350.4,94z"
			/>
	</g>
	<g>
		<path class="st0" d="M351.5,94v-8.9c0-0.8-0.6-1.4-1.4-1.4s-1.4,0.6-1.4,1.4l0,0V94c0,0.8,0.6,1.4,1.4,1.4S351.5,94.8,351.5,94z"
			/>
	</g>
	<g>
		<path class="st0" d="M349.3,94v-8.9c0-0.8-0.6-1.4-1.4-1.4s-1.4,0.6-1.4,1.4l0,0V94c0,0.8,0.6,1.4,1.4,1.4S349.3,94.8,349.3,94z"
			/>
	</g>
	<g>
		<path class="st0" d="M321.6,95.5h-3.2c-1.7,0-3-1.3-3-3V51c0.2-1.6,1.5-2.8,3-2.8h3.2c1.7,0,3,1.3,3,3v41.2
			C324.6,94.2,323.3,95.5,321.6,95.5z M318.2,51.3v41.2c0,0.1,0.1,0.2,0.2,0.2h3.2c0.1,0,0.2-0.1,0.2-0.2V51.3
			c0-0.1-0.1-0.2-0.2-0.2h-3.2C318.3,51.1,318.3,51.3,318.2,51.3z"/>
	</g>
	<g>
		<path class="st0" d="M379.6,95.5h-3.2c-1.7,0-3-1.3-3-3V51.2c0-1.6,1.4-2.9,3-2.9h3.2c1.7,0,3,1.3,3,3v41.2
			C382.6,94.2,381.3,95.5,379.6,95.5z M376.4,51.1c-0.1,0-0.2,0.1-0.2,0.1v41.3c0,0.1,0.1,0.2,0.2,0.2h3.2c0.1,0,0.2-0.1,0.2-0.2
			V51.3c0-0.1-0.1-0.2-0.2-0.2H376.4z"/>
	</g>
	<g>
		<path class="st0" d="M512.5,126.1h-47.9c-1.1,0-1.9-0.8-1.9-1.8v-19.7l0.1-0.2c0.3-0.9,1-1.4,1.9-1.4h47.5v2.9h-46.6v17.4h47
			L512.5,126.1L512.5,126.1z"/>
	</g>
	<g>
		<path class="st0" d="M512.2,126.1h-47.5v-2.9h46.6v-17.4h-47V103h47.9c1.1,0,1.9,0.8,1.9,1.8v19.7l-0.1,0.2
			C513.8,125.6,513.1,126.1,512.2,126.1z"/>
	</g>
	<g>
		<path class="st0" d="M533.4,56.8c-0.1-2.5-1.2-4.8-3-6.4l0.2,1.8c2.3-3.3,1.9-7.8-0.9-10.7l0.4,1.4c0.9-4.3-1.5-8.6-5.6-10
			l1.1,1.4c0.1-3-1.4-5.9-4-7.5c-1.5-0.9-2.9-0.8-4.4-1.3c-0.5-0.2-1.2-0.8-1.8-1.1c-0.8-0.3-1.7-0.5-2.5-0.6l1.2,0.7
			c-2.2-4.5-7.1-5.9-11.5-4l1.8,0.2c-2.6-3.3-7.3-4.2-11-2.1h1.5c-1.6-0.9-3.4-1.3-5.2-1.1c-1.5,0.1-2.6,1.1-4,1.4
			c-0.7,0.1-1.9-0.4-2.7-0.4c-0.6,0-1.3,0.1-1.9,0.2c-1.7,0.4-3.2,1.3-4.3,2.5l1.4-0.4c-3.4-0.8-6.9,0.4-9,3.2
			c-0.9,1.1-2.2,1.4-3.3,2.3c-1.3,1.1-2.3,2.6-2.8,4.3l1-1c-3.6,1-6.2,4.2-6.4,7.9l0.7-1.2c-1.8,1.2-3.1,3.1-3.6,5.2
			c0,0.9-0.2,1.8-0.4,2.6c-0.6,0.9-1.1,1.8-1.5,2.8c-0.3,1-0.4,2.1-0.4,3.2c0.1,1,0,2-0.3,2.9c-0.2,1.2-0.2,2.4,0.1,3.6
			c0.3,1.2,1,2.1,1,3.3c-0.1,1.2-0.1,2.4,0,3.7c0.4,0.9,0.5,1.9,0.5,3c-0.3,2.3,0.3,4.6,1.7,6.5c0.2,0.3,1.4,1.1,1.1,0.8
			c0.1-0.5,0.1-0.3,0.1,0.4v0.4c0.2,1.2,0.6,2.4,1.2,3.4c1.2,1.8,2.9,3,4.9,3.6l-1.1-1.4c0,4.7,3.7,8.5,8.4,8.5c1,0,2.1-0.2,3.1-0.5
			l-1.6-0.7c2.4,4,7.7,5.4,11.7,3c0.6-0.3,1.1-0.7,1.6-1.2h-2c2.7,2.6,6.9,3.2,10.2,1.3l-1.8-0.2c2.6,2.4,6.5,3.1,9.7,1.5h-1.5
			c1.8,0.8,3.8,1.1,5.7,0.7c2-0.5,3.3-2.2,5-2.6s3.3-0.6,4.9-1.8c1.4-1.2,2.5-2.8,2.9-4.6l-1.8,1c4.6,1,9.2-1.9,10.2-6.5
			c0.1-0.5,0.2-1.1,0.2-1.6l-0.7,1.2c2.7-1.7,4.2-4.6,4.1-7.8l-0.7,1.2c3.7-2.6,4.8-7.7,2.4-11.5v1.4
			C532.8,59.9,533.3,58.4,533.4,56.8c0.1-1.8-2.8-1.8-2.9,0c0,1.1-0.4,2.2-0.9,3.1c-0.3,0.4-0.3,1,0,1.4c0.9,1.4,1.1,3,0.7,4.6
			c-0.4,1.4-1.4,2-2.2,3.1c-0.4,0.5-0.6,1.1-0.5,1.7c0,1.4-0.6,2.8-1.6,3.8c-0.5,0.6-1.3,0.8-1.7,1.6c-0.4,0.9-0.2,2-0.7,2.9
			c-1.2,2.2-3.7,3.4-6.2,2.9c-0.8-0.2-1.5,0.3-1.8,1c-0.5,2.1-2.2,3.8-4.4,4.2c-0.8,0.2-1.9-0.2-2.7,0.2s-1,1.2-1.7,1.6
			c-0.9,0.7-2.1,1.1-3.3,1.1c-1.1,0-2-0.7-3.1-0.7s-2,0.7-3.1,0.7c-1.4,0-2.8-0.6-3.9-1.6c-0.5-0.4-1.2-0.5-1.8-0.2
			c-2.2,1.2-4.9,0.9-6.7-0.9c-0.6-0.5-1.4-0.5-2,0c-2.2,2.2-5.8,2.1-7.9-0.1c-0.3-0.3-0.6-0.7-0.8-1.1c-0.3-0.6-1-0.8-1.6-0.7
			c-3.8,1.4-7.9-1-7.8-5.3c0-0.6-0.4-1.2-1.1-1.4c-1.5-0.4-2.8-1.5-3.5-2.9c-0.5-1.1-0.3-2.4-0.9-3.4c-0.4-0.6-1.1-1-1.5-1.5
			c-0.6-0.8-1-1.7-1.1-2.7c-0.1-1.1,0.4-2,0.4-3c0-0.8-0.6-1.4-0.8-2.1c-0.5-1.7,0.6-3.2,0.1-4.7c-0.2-0.7-0.9-1.3-1.1-2
			c-0.5-1.6-0.1-2.7,0.2-4.2c0.3-1.3-0.3-2.5,0-3.9c0.3-1.5,1.8-2.4,2-3.8s-0.1-2.7,0.8-4.2c0.7-1.2,1.8-1.6,2.3-2.9
			c0.6-1.8,0.8-3.3,2.5-4.4c1-0.7,2.1-0.6,2.7-1.7c0.9-1.8,1.5-3,3.5-3.8c1.5-0.6,1.5-1.3,2.6-2.4c1.2-1.3,3-1.9,4.7-1.7
			c1.9,0.2,1.9-0.5,3.5-1.4c1-0.6,2.2-0.8,3.4-0.7c0.9,0.1,1.8,0.7,2.6,0.6s1.2-0.7,1.9-1c1.2-0.6,2.6-0.7,4-0.3
			c0.7,0.2,1.4,0.8,2.1,0.8s1.4-0.6,2.1-0.8c2.3-0.6,4.7,0.3,6.1,2.2c0.5,0.5,1.2,0.6,1.8,0.2c2.4-1.1,5.3-0.4,6.9,1.8
			c0.4,0.6,0.6,1.3,1.2,1.7c0.9,0.6,2.2,0.4,3.1,1c0.5,0.4,1.1,0.7,1.8,0.8c1,0.1,1.9,0.3,2.8,0.7c1.8,1.1,2.9,3,2.8,5.1
			c0,0.6,0.4,1.2,1.1,1.4c1.3,0.5,2.4,1.4,3.1,2.7c0.8,1.5,0.2,2.8,0.5,4.4c0.2,1.2,1.4,1.9,1.7,3.1c0.5,1.7,0.2,3.6-0.9,5
			c-0.3,0.6-0.2,1.3,0.2,1.8c1.3,1.1,2.1,2.7,2.1,4.4C530.6,58.7,533.4,58.7,533.4,56.8z"/>
	</g>
	<g>
		<path class="st0" d="M481,105.4l-2.1-2c1.9-2,1.8-9.1,1.3-13.1l2.9-0.3C483.2,91.1,484.3,101.8,481,105.4z"/>
	</g>
	<g>
		<path class="st0" d="M499.9,105.5c-3.5-2.8-1.8-12.7-1.4-14.6l2.8,0.5c-0.9,4.8-1,10.7,0.4,11.8L499.9,105.5z"/>
	</g>
	<g>
		<path class="st0" d="M488.1,104.1c-0.8-2.3-1.2-5.2,0.1-7.4c1-1.6-1.5-3-2.5-1.4c-1.7,2.8-1.5,6.6-0.4,9.6
			C486,106.6,488.7,105.9,488.1,104.1z"/>
	</g>
	<g>
		<path class="st0" d="M493.5,93.3c0.2,1.6,0.6,3.9-0.1,5.3c-0.8,1.7,1.7,3.1,2.5,1.4c1-2,0.8-4.6,0.5-6.8
			C496.2,91.5,493.3,91.5,493.5,93.3L493.5,93.3z"/>
	</g>
	<g>
		<path class="st0" d="M468.1,75.3c2.2-0.1,4.4-1,6-2.5h-2c2.7,2.6,6.9,3.2,10.2,1.3l-1.8-0.2c1.6,1.5,3.7,2.3,5.9,2.4
			c1.9,0.1,1.9-2.8,0-2.9c-1.4,0-2.8-0.6-3.9-1.6c-0.5-0.4-1.2-0.5-1.8-0.2c-2.2,1.2-4.9,0.9-6.7-0.9c-0.6-0.5-1.4-0.5-2,0
			c-1.1,1-2.5,1.6-3.9,1.7C466.3,72.6,466.3,75.5,468.1,75.3L468.1,75.3z"/>
	</g>
	<g>
		<path class="st0" d="M503.5,38.5c-2.2,0.1-4.4,1-6,2.5h2c-2.7-2.6-6.9-3.2-10.2-1.3l1.8,0.2c-1.6-1.5-3.7-2.3-5.9-2.4
			c-1.9-0.1-1.9,2.8,0,2.9c1.5,0,2.9,0.6,3.9,1.6c0.5,0.4,1.2,0.5,1.8,0.2c2.2-1.2,4.9-0.9,6.7,0.9c0.6,0.5,1.4,0.5,2,0
			c1.1-1,2.5-1.6,3.9-1.7C505.3,41.3,505.3,38.4,503.5,38.5L503.5,38.5z"/>
	</g>
	<g>
		<path class="st0" d="M501.9,56.3c2.7,2.6,6.9,3.2,10.2,1.3l-1.7-0.2c1.6,1.5,3.7,2.3,5.9,2.4c1.8,0.1,1.8-2.8,0-2.9
			c-1.5,0-2.8-0.6-3.9-1.6c-0.5-0.4-1.2-0.5-1.7-0.2c-2.2,1.2-4.9,0.9-6.7-0.9C502.6,53,500.5,55,501.9,56.3L501.9,56.3z"/>
	</g>
	<g>
		<path class="st0" d="M468.4,52.6c2.7,2.7,6.9,3.2,10.2,1.3c1.6-0.9,0.2-3.4-1.5-2.5c-2.2,1.2-4.9,0.9-6.7-0.9
			C469.1,49.3,467,51.4,468.4,52.6L468.4,52.6z"/>
	</g>
	<g>
		<path class="st0" d="M501.9,74.6c2.5,2.4,6.3,2.9,9.3,1.2c1.6-0.9,0.2-3.4-1.5-2.5c-1.9,1.1-4.3,0.8-5.8-0.8
			C502.6,71.3,500.6,73.4,501.9,74.6L501.9,74.6z"/>
	</g>
	<g>
		<g>
			<path class="st0" d="M392.9,316.9h-69.6c-0.7,0-1.3-0.3-1.8-0.8l-13.7-14c-0.5-0.5-0.7-1.1-0.7-1.8V139.1c0-1.4,1.1-2.6,2.5-2.6
				h96.2c0.7,0,1.4,0.3,1.9,0.8c0.5,0.5,0.7,1.1,0.6,1.8v162.1c0,0.7-0.3,1.3-0.8,1.8l-12.8,13.1
				C394.2,316.7,393.5,316.9,392.9,316.9z M323.8,313.2h68.5l12.2-12.4V140.2h-93.8v159.7L323.8,313.2z M404.9,300.5
				C404.9,300.5,404.9,300.5,404.9,300.5L404.9,300.5z M310.4,299.6L310.4,299.6C310.4,299.6,310.4,299.6,310.4,299.6z M404.6,139.1
				h1.5l-1.5-0.2C404.6,139,404.6,139,404.6,139.1z"/>
		</g>
		<g>
			<rect x="330.9" y="180.5" class="st0" width="3.7" height="39.2"/>
		</g>
		<g>
			<rect x="348" y="180.5" class="st0" width="3.7" height="39.2"/>
		</g>
		<g>
			<rect x="365" y="180.5" class="st0" width="3.7" height="39.2"/>
		</g>
		<g>
			<rect x="382.1" y="180.5" class="st0" width="3.7" height="39.2"/>
		</g>
		<g>
			<path class="st0" d="M308.9,182.4h85.5c3.9,0,7.9,0.1,11.9,0h0.2c2.4,0,2.4-3.7,0-3.7h-85.5c-3.9,0-7.9-0.1-11.9,0h-0.2
				C306.5,178.7,306.5,182.4,308.9,182.4z"/>
		</g>
		<g>
			<path class="st0" d="M308.9,195h85.5c3.9,0,7.9,0.1,11.9,0h0.2c2.4,0,2.4-3.7,0-3.7h-85.5c-3.9,0-7.9-0.1-11.9,0h-0.2
				C306.5,191.3,306.5,195,308.9,195z"/>
		</g>
		<g>
			<path class="st0" d="M308.9,221.3h85.5c3.9,0,7.9,0.1,11.9,0h0.2c2.4,0,2.4-3.7,0-3.7h-85.5c-3.9,0-7.9-0.1-11.9,0h-0.2
				C306.5,217.6,306.5,221.3,308.9,221.3z"/>
		</g>
		<g>
			<rect x="330.9" y="240.6" class="st0" width="3.7" height="39.2"/>
		</g>
		<g>
			<rect x="348" y="240.6" class="st0" width="3.7" height="39.2"/>
		</g>
		<g>
			<rect x="365" y="240.6" class="st0" width="3.7" height="39.2"/>
		</g>
		<g>
			<rect x="382.1" y="240.6" class="st0" width="3.7" height="39.2"/>
		</g>
		<g>
			<path class="st0" d="M308.9,242.4h85.5c3.9,0,7.9,0.1,11.9,0h0.2c2.4,0,2.4-3.7,0-3.7h-85.5c-3.9,0-7.9-0.1-11.9,0h-0.2
				C306.5,238.8,306.5,242.4,308.9,242.4z"/>
		</g>
		<g>
			<path class="st0" d="M308.9,255.1h85.5c3.9,0,7.9,0.1,11.9,0h0.2c2.4,0,2.4-3.7,0-3.7h-85.5c-3.9,0-7.9-0.1-11.9,0h-0.2
				C306.5,251.4,306.5,255.1,308.9,255.1z"/>
		</g>
		<g>
			<path class="st0" d="M308.9,281.4h85.5c3.9,0,7.9,0.1,11.9,0h0.2c2.4,0,2.4-3.7,0-3.7h-85.5c-3.9,0-7.9-0.1-11.9,0h-0.2
				C306.5,277.7,306.5,281.4,308.9,281.4z"/>
		</g>
	</g>
	<g>
		<path class="st0" d="M137.6,321.5h-5c-1.7,0-3-1.3-3-3v-60.7c0-1.7,1.3-3,3-3h5c1.7,0,3,1.3,3,3v60.7
			C140.6,320.2,139.3,321.5,137.6,321.5z M132.6,257.6c-0.1,0-0.2,0.1-0.2,0.2v60.7c0,0.1,0.1,0.2,0.2,0.2h5c0.1,0,0.2-0.1,0.2-0.2
			v-60.7c0-0.1-0.1-0.2-0.2-0.2H132.6z"/>
	</g>
	<g>
		<path class="st0" d="M174.8,321.7h-5c-1.7,0-3-1.3-3-3v-10.8c0-1.7,1.3-3,3-3h5c1.7,0,3,1.3,3,3v10.8
			C177.8,320.4,176.5,321.7,174.8,321.7z M169.8,307.7c-0.1,0-0.2,0.1-0.2,0.2v10.8c0,0.1,0.1,0.2,0.2,0.2h5c0.1,0,0.2-0.1,0.2-0.2
			v-10.8c0-0.1-0.1-0.2-0.2-0.2H169.8z"/>
	</g>
	<g>
		<path class="st0" d="M213.3,276.5h-15.1c-1.7,0-3-1.3-3-3v-8.6c0-1.7,1.3-3,3-3h15.1c1.7,0,3,1.3,3,3v8.6
			C216.3,275.2,215,276.5,213.3,276.5z M198.2,264.7c-0.1,0-0.2,0.1-0.2,0.2v8.6c0,0.1,0.1,0.2,0.2,0.2h15.1c0.1,0,0.2-0.1,0.2-0.2
			v-8.6c0-0.1-0.1-0.2-0.2-0.2H198.2z"/>
	</g>
	<g>
		<path class="st0" d="M214.1,321.7h-4.9c-1.7,0-3-1.3-3-3v-11c0.2-1.6,1.5-2.9,3-2.9h4.9c1.7,0,3,1.3,3,3v10.8
			C217.1,320.4,215.8,321.7,214.1,321.7z M209,308v10.7c0,0.1,0.1,0.2,0.2,0.2h4.9c0.1,0,0.2-0.1,0.2-0.2v-10.8
			c0-0.1-0.1-0.2-0.2-0.2h-4.9C209.2,307.8,209.1,307.8,209,308z"/>
	</g>
	<g>
		<path class="st0" d="M221.5,307.8h-57.7c-1.7,0-3-1.3-3-3v-47c0-1.7,1.3-3,3-3h57.7c1.7,0,3,1.3,3,3v47
			C224.5,306.5,223.2,307.8,221.5,307.8z M163.8,257.6c-0.1,0-0.2,0.1-0.2,0.2v47c0,0.1,0.1,0.2,0.2,0.2h57.7c0.1,0,0.2-0.1,0.2-0.2
			v-47c0-0.1-0.1-0.2-0.2-0.2H163.8z"/>
	</g>
	<g>
		<path class="st0" d="M222.3,257.6H118.2c-1.2,0-2.1-0.9-2.1-2.1c0-0.4,0.1-1,0.7-1.6l0.2-0.1l66.5-48.5c0.9-0.6,2-0.5,2.8,0.2
			l37.7,36.7c0.4,0.4,0.6,1,0.6,1.5v12.1C224.2,256.9,223.3,257.6,222.3,257.6z M120.4,254.8h101.2V244l-37-36.1L120.4,254.8z
			 M184.2,207.5L184.2,207.5L184.2,207.5z"/>
	</g>
	<g>
		<path class="st0" d="M162.2,271.1c-1.4,0-2.2-0.6-2.8-1c-0.4-0.3-0.5-0.4-0.9-0.4s-0.6,0.1-1,0.4c-0.5,0.4-1.3,1-2.7,1
			s-2.2-0.6-2.7-1c-0.4-0.3-0.6-0.4-1-0.4s-0.6,0.1-1,0.4c-0.5,0.4-1.3,1-2.7,1h-0.2c-1-0.1-1.9-0.4-2.7-0.8
			c-0.4-0.1-0.7-0.3-0.8-0.5l-0.9-1l1.8-1.8l0.2,0.1l16.6-12l1.7,2.3l-13.4,9.6c0.4-0.1,0.9-0.2,1.4-0.2c1.4,0,2.2,0.6,2.7,1
			c0.4,0.3,0.6,0.4,1,0.4s0.6-0.1,1-0.4c0.5-0.4,1.3-1,2.7-1s2.1,0.6,2.7,1c0.4,0.3,0.6,0.4,1,0.4L162.2,271.1L162.2,271.1z"/>
	</g>
	<g>
		<path class="st0" d="M670.8,103.1h-42.9v-6.7h-67.8V52.7c0-1.2,0.9-2.1,2.1-2.1H671h0.2c1.1,0.3,1.8,1.1,1.8,2.1V101
			C672.9,102.2,672,103.1,670.8,103.1z M630.7,100.3H670V53.4H562.9v40.1h65.7c1.2,0,2.1,0.9,2.1,2.1V100.3z"/>
	</g>
	<g>
		<rect x="627" y="7.7" class="st0" width="2.9" height="44.4"/>
	</g>
	<g>
		<path class="st0" d="M628.4,9.1c-2.5,0-4.5-2-4.5-4.5s2-4.5,4.5-4.5s4.5,2,4.5,4.5S630.9,9.1,628.4,9.1z M628.4,2.9
			c-0.9,0-1.7,0.7-1.7,1.7s0.7,1.7,1.7,1.7c0.9,0,1.7-0.7,1.7-1.7S629.3,2.9,628.4,2.9z"/>
	</g>
	<g>
		<path class="st0" d="M633.4,24.9L633.4,24.9l-4.8-0.3l0,0c-0.9,0-1.7-0.8-1.7-1.8v-6.7c0-1,0.8-1.8,1.8-1.8l4.6-0.3l0,0
			c1.1,0,1.9,0.8,1.9,1.8v7.3C635.2,24.1,634.4,24.9,633.4,24.9z M629.7,21.8l2.6,0.2v-5.1l-2.6,0.2V21.8z M628.7,21.8L628.7,21.8
			C628.8,21.8,628.8,21.8,628.7,21.8z M628.9,17.1L628.9,17.1C628.8,17.1,628.9,17.1,628.9,17.1z"/>
	</g>
	<g>
		<path class="st0" d="M679.3,103.2h-8v-2.9h7.3V43.4H662v8.7h-2.9v-9.4c0-1.2,0.9-2.1,2.1-2.1h18.1c1.2,0,2.1,0.9,2.1,2.1v58.4
			C681.4,102.3,680.5,103.2,679.3,103.2z"/>
	</g>
	<g>
		<rect x="671.5" y="56.1" class="st0" width="8.5" height="2.9"/>
	</g>
	<g>
		<rect x="671.5" y="67.8" class="st0" width="8.5" height="2.9"/>
	</g>
	<g>
		<rect x="671.5" y="79.5" class="st0" width="8.5" height="2.9"/>
	</g>
	<g>
		<rect x="671.5" y="91.3" class="st0" width="8.5" height="2.9"/>
	</g>
	<g>
		<path class="st0" d="M303.5,430.1h-57.1v-9.4c0-1.4,1-2.4,2.4-2.4h7.9v-5.6h-2.1c-1.4,0-2.4-1-2.4-2.4V337c0-1.4,1-2.4,2.4-2.4
			h40.6c1.4,0,2.4,1,2.4,2.4v73.2c0,1.4-1,2.4-2.4,2.4h-2.1v5.6h7.9c1.4,0,2.4,1,2.4,2.4v9.5H303.5z M249.3,427.3h51.3v-6.1h-7.9
			c-0.7,0-1.4-0.4-1.9-0.9c-0.4-0.5-0.6-1.1-0.5-1.6v-6.4c0-1.4,1-2.4,2.4-2.4h2.1v-72.3h-39.7v72.3h2.1c1.4,0,2.4,1,2.4,2.4v6.5
			c0,1.4-1,2.4-2.4,2.4h-7.9L249.3,427.3L249.3,427.3z"/>
	</g>
	<g>
		<polygon class="st0" points="568,371.8 568,204.9 570.8,204.9 570.8,371.7 		"/>
	</g>
	<g>
		<path class="st0" d="M485.9,371.7H483V200.2c0-1.1,0.9-1.9,1.9-1.9h32v2.9h-31.1L485.9,371.7L485.9,371.7z"/>
	</g>
	<g>
		<path class="st0" d="M601.5,206.2h-33.4v-5.1h-52.5V167c0-1.1,0.9-1.9,1.9-1.9h83.7c0.5-0.1,1.1,0.1,1.5,0.4
			c0.5,0.4,0.8,0.9,0.8,1.5v37.3C603.4,205.4,602.6,206.2,601.5,206.2z M570.9,203.4h29.6V168h-82.1v30.3H569c1.1,0,1.9,0.9,1.9,1.9
			V203.4z"/>
	</g>
	<g>
		<path class="st0" d="M677.4,371.7h-2.9V206.3H570.8v165.4H568V205.4c0-1.1,0.9-1.9,1.9-1.9h105.6c1.1,0,1.9,0.9,1.9,1.9V371.7z"/>
	</g>
	<g>
		<path class="st0" d="M596.8,206.2h-8.3c-1.1,0-1.9-0.8-1.9-1.8l-0.3-5.2c0-1.2,0.8-2,1.9-2h9c0.9,0,1.5,0.8,1.8,1.5l0.1,0.3
			l-0.3,5.6C598.7,205.4,597.9,206.2,596.8,206.2z M595.9,204.3v0.1V204.3z M589.4,204.2v0.1C589.4,204.3,589.4,204.3,589.4,204.2z
			 M589.4,203.4h6.5l0.2-3.3h-6.9L589.4,203.4z"/>
	</g>
	<g>
		<path class="st0" d="M661.4,206.2h-8.3c-1.1,0-1.9-0.8-1.9-1.8l-0.3-5.2c0-1.2,0.8-2,1.9-2h9c1,0,1.8,0.9,1.8,1.9v0.1l-0.3,5.3
			C663.3,205.4,662.5,206.2,661.4,206.2z M660.5,204.3v0.1V204.3z M654,204.2v0.1C654,204.3,654,204.3,654,204.2z M654,203.4h6.5
			l0.2-3.3h-6.9L654,203.4z"/>
	</g>
	<g>
		<path class="st0" d="M503.9,201.2h-8.3c-1,0-1.9-0.8-1.9-1.8l-0.4-5.4c0-1.1,0.9-1.9,1.9-1.9h9c1.1,0,2,0.9,2,1.9v0.1l-0.4,5.3
			C505.8,200.5,505,201.2,503.9,201.2z M496.5,198.4h6.6l0.3-3.3h-7.1L496.5,198.4z"/>
	</g>
	<g>
		<path class="st0" d="M558.4,201.2H550c-1.1,0-1.9-0.8-1.9-1.8l-0.3-5.2c0-1.2,0.8-2,1.9-2h9c0.8,0,1.6,0.6,1.9,1.5l0.1,0.3
			l-0.3,5.6C560.3,200.4,559.5,201.2,558.4,201.2z M557.5,199.3v0.1V199.3z M550.9,199.2v0.1C550.9,199.3,550.9,199.3,550.9,199.2z
			 M550.9,198.4h6.6l0.2-3.3h-7L550.9,198.4z"/>
	</g>
	<g>
		<path class="st0" d="M677.1,371.6h-2.9V225H608v146.6h-2.9V224.1c0-1.1,0.9-1.9,1.9-1.9h68.1c1.1,0,1.9,0.9,1.9,1.9L677.1,371.6
			L677.1,371.6z"/>
	</g>
	<g>
		<path class="st0" d="M674.3,326.9h-66.1c-1.7,0-3-1.3-3-3v-98.7c0-1.7,1.3-3,3-3h66.1c1.7,0,3,1.3,3,3v98.7
			C677.3,325.6,676,326.9,674.3,326.9z M608.2,225c-0.1,0-0.2,0.1-0.2,0.2v98.7c0,0.1,0.1,0.2,0.2,0.2h66.1c0.1,0,0.2-0.1,0.2-0.2
			v-98.7c0-0.1-0.1-0.2-0.2-0.2H608.2z"/>
	</g>
	<g>
		<path class="st0" d="M633.3,371.7h-2.9v-44.9h-1.6v44.9H626v-45.8c0-1.1,0.9-1.9,1.9-1.9h3.5c1.1,0,1.9,0.9,1.9,1.9L633.3,371.7
			L633.3,371.7z"/>
	</g>
	<g>
		<path class="st0" d="M677.4,371.7h-2.9v-44.9h-1.7v44.9H670v-45.8c0-1.1,0.9-1.9,1.9-1.9h3.6c1.1,0,1.9,0.9,1.9,1.9V371.7z"/>
	</g>
	<g>
		<path class="st0" d="M674.3,250.5h-66.1c-1.7,0-3-1.3-3-3v-22.3c0-1.7,1.3-3,3-3h66.1c1.7,0,3,1.3,3,3v22.3
			C677.3,249.2,676,250.5,674.3,250.5z M608.2,225c-0.1,0-0.2,0.1-0.2,0.2v22.3c0,0.1,0.1,0.2,0.2,0.2h66.1c0.1,0,0.2-0.1,0.2-0.2
			v-22.3c0-0.1-0.1-0.2-0.2-0.2H608.2z"/>
	</g>
	<g>
		<path class="st0" d="M674.3,275.9h-66.1c-1.7,0-3-1.3-3-3v-22.3c0-1.7,1.3-3,3-3h66.1c1.7,0,3,1.3,3,3v22.3
			C677.3,274.6,676,275.9,674.3,275.9z M608.2,250.4c-0.1,0-0.2,0.1-0.2,0.2v22.3c0,0.1,0.1,0.2,0.2,0.2h66.1c0.1,0,0.2-0.1,0.2-0.2
			v-22.3c0-0.1-0.1-0.2-0.2-0.2H608.2z"/>
	</g>
	<g>
		<path class="st0" d="M674.3,301.4h-66.1c-1.7,0-3-1.3-3-3V276c0-1.7,1.3-2.9,3-2.9h66.1c1.7,0,3,1.3,3,3v22.3
			C677.3,300.1,676,301.4,674.3,301.4z M608.2,275.9c-0.1,0-0.2,0-0.2,0v22.4c0,0.1,0.1,0.2,0.2,0.2h66.1c0.1,0,0.2-0.1,0.2-0.2V276
			c0-0.1-0.1-0.2-0.2-0.2h-66.1V275.9z"/>
	</g>
	<g>
		<path class="st0" d="M674.3,326.8h-66.1c-1.7,0-3-1.3-3-3v-22.3c0-1.7,1.3-3,3-3h66.1c1.7,0,3,1.3,3,3v22.3
			C677.3,325.5,676,326.8,674.3,326.8z M608.2,301.3c-0.1,0-0.2,0.1-0.2,0.2v22.3c0,0.1,0.1,0.2,0.2,0.2h66.1c0.1,0,0.2-0.1,0.2-0.2
			v-22.3c0-0.1-0.1-0.2-0.2-0.2H608.2z"/>
	</g>
	<g>
		<path class="st0" d="M628.1,326.9h-19.9c-1.7,0-3-1.3-3-3v-98.7c0-1.7,1.3-3,3-3h19.9c1.7,0,3,1.3,3,3v98.7
			C631.1,325.6,629.8,326.9,628.1,326.9z M608.2,225c-0.1,0-0.2,0.1-0.2,0.2v98.7c0,0.1,0.1,0.2,0.2,0.2h19.9c0.1,0,0.2-0.1,0.2-0.2
			v-98.7c0-0.1-0.1-0.2-0.2-0.2H608.2z"/>
	</g>
	<g>
		<path class="st0" d="M651.1,326.9h-19.9c-1.7,0-3-1.3-3-3V225c0.2-1.6,1.5-2.9,3-2.9h19.9c1.7,0,3,1.3,3,3v98.7
			C654.1,325.6,652.8,326.9,651.1,326.9z M631,225.3v98.6c0,0.1,0.1,0.2,0.2,0.2h19.9c0.1,0,0.2-0.1,0.2-0.2v-98.7
			c0-0.1-0.1-0.2-0.2-0.2h-19.9C631.2,225.1,631.1,225.1,631,225.3z"/>
	</g>
	<g>
		<path class="st0" d="M674.2,326.9h-19.9c-1.7,0-3-1.3-3-3v-98.7c0-1.7,1.3-3,3-3h19.9c1.7,0,3,1.3,3,3v98.7
			C677.2,325.6,675.9,326.9,674.2,326.9z M654.3,225c-0.1,0-0.2,0.1-0.2,0.2v98.7c0,0.1,0.1,0.2,0.2,0.2h19.9c0.1,0,0.2-0.1,0.2-0.2
			v-98.7c0-0.1-0.1-0.2-0.2-0.2H654.3z"/>
	</g>
	<g>
		<path class="st0" d="M608,206.2h-6.2v-2.9h5.3v-43.1H595v6.3h-2.9v-7.2c0-1.1,0.9-1.9,1.9-1.9h14c1.1,0,1.9,0.9,1.9,1.9v45
			C609.9,205.4,609.1,206.2,608,206.2z"/>
	</g>
	<g>
		<rect x="602" y="169.2" class="st0" width="6.5" height="2.9"/>
	</g>
	<g>
		<rect x="602" y="178.3" class="st0" width="6.5" height="2.9"/>
	</g>
	<g>
		<rect x="602" y="187.3" class="st0" width="6.5" height="2.9"/>
	</g>
	<g>
		<rect x="602" y="196.3" class="st0" width="6.5" height="2.9"/>
	</g>
	<g>
		<path class="st0" d="M559.3,332.8h-20.8c-1.7,0-3-1.3-3-3v-96.6c0.2-1.6,1.5-2.9,3-2.9h20.8c1.7,0,3,1.3,3,3v96.4
			C562.3,331.5,561,332.8,559.3,332.8z M538.3,233.5v96.3c0,0.1,0.1,0.2,0.2,0.2h20.8c0.1,0,0.2-0.1,0.2-0.2v-96.4
			c0-0.1-0.1-0.2-0.2-0.2h-20.8C538.5,233.3,538.4,233.3,538.3,233.5z"/>
	</g>
	<g>
		<path class="st0" d="M545.1,332.7h-6.6c-1.7,0-3-1.3-3-3v-6.8c0.2-1.6,1.5-2.9,3-2.9h6.6c1.7,0,3,1.3,3,3v6.6
			C548.1,331.4,546.8,332.7,545.1,332.7z M538.3,323.2v6.5c0,0.1,0.1,0.2,0.2,0.2h6.6c0.1,0,0.2-0.1,0.2-0.2v-6.6
			c0-0.1-0.1-0.2-0.2-0.2h-6.6C538.5,323,538.4,323,538.3,323.2z"/>
	</g>
	<g>
		<path class="st0" d="M559.2,332.7h-6.6c-1.7,0-3-1.3-3-3v-6.8c0.2-1.6,1.5-2.9,3-2.9h6.6c1.7,0,3,1.3,3,3v6.6
			C562.2,331.4,560.9,332.7,559.2,332.7z M552.4,323.2v6.5c0,0.1,0.1,0.2,0.2,0.2h6.6c0.1,0,0.2-0.1,0.2-0.2v-6.6
			c0-0.1-0.1-0.2-0.2-0.2h-6.6C552.6,323,552.5,323,552.4,323.2z"/>
	</g>
	<g>
		<path class="st0" d="M545.1,243h-6.6c-1.7,0-3-1.3-3-3v-6.8c0.2-1.6,1.5-2.9,3-2.9h6.6c1.7,0,3,1.3,3,3v6.6
			C548.1,241.7,546.8,243,545.1,243z M538.3,233.5v6.5c0,0.1,0.1,0.2,0.2,0.2h6.6c0.1,0,0.2-0.1,0.2-0.2v-6.6c0-0.1-0.1-0.2-0.2-0.2
			h-6.6C538.5,233.3,538.4,233.3,538.3,233.5z"/>
	</g>
	<g>
		<path class="st0" d="M559.2,243h-6.6c-1.7,0-3-1.3-3-3v-6.8c0.2-1.6,1.5-2.9,3-2.9h6.6c1.7,0,3,1.3,3,3v6.6
			C562.2,241.7,560.9,243,559.2,243z M552.4,233.5v6.5c0,0.1,0.1,0.2,0.2,0.2h6.6c0.1,0,0.2-0.1,0.2-0.2v-6.6c0-0.1-0.1-0.2-0.2-0.2
			h-6.6C552.6,233.3,552.5,233.3,552.4,233.5z"/>
	</g>
	<g>
		<path class="st0" d="M545.1,287.9h-6.6c-1.7,0-3-1.3-3-3v-6.8c0.2-1.6,1.5-2.9,3-2.9h6.6c1.7,0,3,1.3,3,3v6.6
			C548.1,286.6,546.8,287.9,545.1,287.9z M538.3,278.4v6.5c0,0.1,0.1,0.2,0.2,0.2h6.6c0.1,0,0.2-0.1,0.2-0.2v-6.6
			c0-0.1-0.1-0.2-0.2-0.2h-6.6C538.5,278.2,538.4,278.2,538.3,278.4z"/>
	</g>
	<g>
		<path class="st0" d="M559.2,287.9h-6.6c-1.7,0-3-1.3-3-3v-6.8c0.2-1.6,1.5-2.9,3-2.9h6.6c1.7,0,3,1.3,3,3v6.6
			C562.2,286.6,560.9,287.9,559.2,287.9z M552.4,278.4v6.5c0,0.1,0.1,0.2,0.2,0.2h6.6c0.1,0,0.2-0.1,0.2-0.2v-6.6
			c0-0.1-0.1-0.2-0.2-0.2h-6.6C552.6,278.2,552.5,278.2,552.4,278.4z"/>
	</g>
	<g>
		<path class="st0" d="M354.5,406.3l-6.8-18.9l-2.5,16.4h-10.3l0.2-1.4c0.1-0.4,0.1-0.9,0.2-1.3s0.1-0.7,0.2-1.1l1.9-10.7
			c0.3-1.6,0.6-3.1,0.9-4.7s0.6-3.1,0.9-4.7c0.2-1.4,0.5-2.9,0.7-4.4s0.5-2.9,0.7-4.4c0.3-1.5,0.5-2.9,0.8-4.4
			c0.3-1.7,0.6-3.4,0.9-5.1c0.1-0.7,0.6-1.4,1.7-1.4h3.6c0.8,0,1.5,0.6,1.6,1.3l5.1,16.2c0.1,0.3,0.2,0.7,0.3,1.1
			c0.6-2.1,1.3-4.1,1.9-6.2c1.2-3.7,2.3-7.5,3.5-11.1c0.2-0.7,0.8-1.2,1.5-1.2h5.1l4.7,26.4l11-28.5l9.7,24.9v-22.7h9.6v31.1
			c-0.1,1,0.3,2,1.1,2.7c0.5,0.4,1.2,0.6,2,0.5c0.7-0.1,1.4-0.4,1.9-1c0.3-0.3,0.5-0.7,0.5-1.1v-0.2c0-0.1,0-0.4,0-0.6v-31.3h9.6
			v8.8c1.4-2,3.2-3.8,5.2-5.2c2.6-1.8,5.7-2.9,8.9-3.1c4.1-0.3,8.4,0.7,11.8,2.8c0.4,0.2,0.6,0.4,0.9,0.7c0.3,0.2,0.5,0.4,0.8,0.6
			l1,0.7l-5,8.2l-1.1-1c-1.4-1.2-3.2-2-5-2.3c-2.5-0.5-4.9,0.1-6.9,1.7c-2.2,1.8-3.7,4.1-4.4,6.8c-1,4-0.2,8.1,2.2,11.5
			c1.9,2.8,5,4.2,8.4,4c2.1-0.1,4-0.9,5.5-2.4c1.4-1.3,2.5-2.8,3.2-4.5v-0.1v-1.9l9.1,5.6l-0.5,1c-0.5,1-1,2.1-1.7,3
			c-1.9,3.2-4.7,5.7-8.2,7.3c-6.4,3-13.9,2.1-19.7-2.2c-1.9-1.6-3.6-3.4-4.9-5.4c-1.2,4.8-5.1,8.4-10.1,9.2
			c-2.3,0.4-4.7,0.1-6.8-0.9l0.2,0.5H390c-0.7,0-1.3-0.4-1.6-1l-0.1-0.1c-0.5-1.2-1-2.5-1.5-3.8l-4.5,5.7l-4.4-5.6l-0.4,1
			c-0.2,0.5-0.4,0.9-0.5,1.4c-0.2,0.5-0.3,0.9-0.5,1.3c-0.2,0.8-1,1.3-1.7,1.3h-9.4c-1,0-1.6-0.6-1.7-1.6c-0.4-2.7-0.8-5.5-1.3-8.3
			c-0.2-1.2-0.3-2.3-0.5-3.4s-0.4-2.3-0.5-3.4l0,0L354.5,406.3z M414.4,388.2l2.2,2.2c0.1,0.1,0.3,0.3,0.5,0.7
			c1.4,2.8,3.4,5.3,5.9,7.3c5,3.8,11.5,4.5,17.1,1.9c3-1.4,5.5-3.6,7.2-6.4c0.4-0.6,0.7-1.2,1-1.8l-4-2.5c-0.8,1.6-1.9,3.1-3.3,4.3
			c-1.9,1.9-4.4,3-7.1,3.1c-4.2,0.3-8.3-1.6-10.6-5.1c-2.8-3.9-3.8-8.9-2.6-13.5c0.8-3.2,2.6-6.1,5.2-8.2s5.8-2.9,9-2.2
			c1.8,0.3,3.6,0.9,5.1,2l2.3-3.7c-0.2-0.2-0.5-0.3-0.7-0.5c-3-1.8-6.7-2.7-10.3-2.4c-2.8,0.2-5.5,1.1-7.7,2.7
			c-2.9,2-5.2,4.9-6.6,8.2v1h-2.6v-12.2h-4.6v28.7c0,0.4,0,0.8-0.1,1.3c-0.1,0.8-0.5,1.5-1,2.2c-0.9,1.1-2.2,1.8-3.6,1.9
			c-1.4,0.2-2.8-0.3-3.9-1.1c-1.4-1.2-2.1-2.9-2-4.7V363h-4.6v33.5l-12.3-31.3l-12,30.9l-5.9-33.2h-2.2c-1.1,3.5-2.2,7.1-3.3,10.6
			c-0.9,2.8-1.8,5.6-2.7,8.5c-0.1,0.4-0.2,0.8-0.4,1.3l-1.4,4.3l-1.1-3.9c-0.5-1.7-1-3.4-1.5-5l-4.9-15.7h-2.3
			c-0.3,1.4-0.5,2.9-0.8,4.4s-0.5,2.9-0.8,4.4c-0.2,1.4-0.5,2.9-0.7,4.4c-0.3,1.5-0.5,3-0.8,4.4c-0.3,1.6-0.6,3.1-0.9,4.7
			s-0.6,3.1-0.9,4.7l-1.9,10.6c0,0.3-0.1,0.6-0.1,0.9h5.2l3.7-24.2l7.8,21.7l7.7-21.6l1,5.5c0.3,1.4,0.5,2.8,0.7,4.2
			c0.1,1.1,0.3,2.2,0.5,3.3c0.2,1.1,0.4,2.3,0.5,3.4c0.5,2.5,0.8,5.1,1.2,7.7h8.1c0.1-0.3,0.3-0.6,0.4-1c0.2-0.5,0.4-1,0.6-1.5l2-5
			l5.2,6.6l5.3-6.5l1.5,3.7c0.5,1.2,1,2.4,1.4,3.6h5.6l-1.8-4.7l4,3c2.3,1.8,5.1,2.6,7.8,2.2c4.6-0.7,8-4.4,8.3-9
			c0-0.2,0-0.5,0.1-0.8c0-0.2,0-0.4,0-0.6v-3.3H414.4z M382.4,395.6l-2.5-4.2c-0.6-1.1-1.3-2.3-1.9-3.3c-0.5-0.6-0.6-1.4-0.2-2
			c0.7-1.8,1.5-3.7,2.2-5.6l0.6-1.6c0.2-0.6,0.4-1.2,0.7-2l1.2-2.9l1.2,3.2c0.3,0.7,0.5,1.4,0.6,2.1c0.4,1.1,0.9,2.2,1.3,3.3
			c0.5,1.2,0.9,2.3,1.4,3.5c0.2,0.5,0.2,1,0,1.6c-0.7,1.3-1.5,2.4-2.2,3.6c-0.4,0.7-0.8,1.3-1.2,2L382.4,395.6z M380.2,386.9
			c0.6,1,1.3,2.2,1.9,3.3l0.2,0.3c0.1-0.2,0.2-0.3,0.3-0.5c0.6-1,1.3-2,1.9-3.1c-0.4-1.1-0.9-2.2-1.3-3.3c-0.3-0.8-0.6-1.5-0.9-2.3
			l0,0C381.6,383.2,380.9,385.1,380.2,386.9z M380.1,387.1C380.1,387.1,380.1,387.2,380.1,387.1
			C380.1,387.2,380.1,387.1,380.1,387.1z"/>
	</g>
	<g>
		<polygon class="st0" points="162,509.8 65.2,509.8 65.2,488.4 68,488.4 68,507 162,507 		"/>
	</g>
	<g>
		<path class="st0" d="M38.7,444.1l-10.4-11.7l0.5-0.9c14.4-24.5,44.9-40.3,77.7-40.3c34.1,0,64.9,15.8,78.5,40.3l0.5,0.9l-9.7,11.7
			l-1.1-1.6c-15.4-22.5-40.9-35.9-68.1-35.9c-29.7,0-52.2,12-66.9,35.8L38.7,444.1z M106.6,403.8c27.6,0,53.4,13.3,69.4,35.6
			l6.1-7.3c-13.3-23.1-42.8-38-75.5-38c-31.4,0-60.6,14.9-74.7,38l6.4,7.3C53.5,415.7,76.5,403.8,106.6,403.8z"/>
	</g>
	<g>
		<polygon class="st0" points="163.4,509.8 146.2,509.8 146.2,415.9 149,415.9 149,507 160.6,507 160.6,426.1 163.4,426.1 		"/>
	</g>
	<g>
		<polygon class="st0" points="66.6,509.8 50.7,509.8 50.7,424.9 53.5,424.9 53.5,507 66.6,507 		"/>
	</g>
	<g>
		<rect x="65.2" y="414.5" class="st0" width="2.9" height="73.9"/>
	</g>
	<g>
		<path class="st0" d="M138.2,509.8H78.5c-1.7,0-3-1.3-3-3v-80.3c0-1.7,1.3-3,3-3h59.7c1.7,0,3,1.3,3,3v80.3
			C141.2,508.5,139.9,509.8,138.2,509.8z M78.5,426.3c-0.1,0-0.2,0.1-0.2,0.2v80.3c0,0.1,0.1,0.2,0.2,0.2h59.7
			c0.1,0,0.2-0.1,0.2-0.2v-80.3c0-0.1-0.1-0.2-0.2-0.2H78.5z"/>
	</g>
	<g>
		<rect x="106" y="424.9" class="st0" width="2.9" height="83.5"/>
	</g>
	<g>
		<path class="st0" d="M153,403h-2.9v-16.4H63.8V403H61v-17c0-1.1,0.7-1.9,1.7-2.2H63h88c0.6,0,1.2,0.3,1.6,0.8
			c0.4,0.5,0.5,1,0.4,1.6V403z"/>
	</g>
	<g>
		<rect x="66.6" y="413.1" class="st0" width="78.3" height="2.9"/>
	</g>
	<g>
		<path class="st0" d="M253.4,472.7v14c0,0.8,0.6,1.4,1.4,1.4s1.4-0.6,1.4-1.4v-14c0-0.8-0.6-1.4-1.4-1.4S253.4,471.9,253.4,472.7z"
			/>
	</g>
	<g>
		<path class="st0" d="M242.5,473v13.7c0,0.8,0.6,1.4,1.4,1.4s1.4-0.6,1.4-1.4V473c0-0.8-0.6-1.4-1.4-1.4S242.5,472.2,242.5,473z"/>
	</g>
	<g>
		<path class="st0" d="M278.8,472.7v14c0,0.8,0.6,1.4,1.4,1.4s1.4-0.6,1.4-1.4v-14c0-0.8-0.6-1.4-1.4-1.4S278.8,471.9,278.8,472.7z"
			/>
	</g>
	<g>
		<path class="st0" d="M289.6,473v13.7c0,0.8,0.6,1.4,1.4,1.4s1.4-0.6,1.4-1.4V473c0-0.8-0.6-1.4-1.4-1.4S289.6,472.2,289.6,473z"/>
	</g>
	<g>
		<path class="st0" d="M317.5,590h-99.1c-0.8,0-1.4,0.6-1.4,1.4s0.6,1.4,1.4,1.4l0,0h99.2c0.8,0,1.4-0.6,1.4-1.4
			S318.4,590,317.5,590L317.5,590z"/>
	</g>
	<g>
		<path class="st0" d="M317.5,597.6h-99.1c-0.8,0-1.4,0.6-1.4,1.4s0.6,1.4,1.4,1.4l0,0h99.2c0.8,0,1.4-0.6,1.4-1.4
			S318.4,597.6,317.5,597.6L317.5,597.6z"/>
	</g>
	<g>
		<path class="st0" d="M322,492.9h-36.2l-57.7,0.1h-13.4c-0.8,0-1.4,0.6-1.4,1.4s0.6,1.4,1.4,1.4l0,0h36.2l57.7-0.1H322
			c0.8,0,1.4-0.6,1.4-1.4S322.8,492.9,322,492.9L322,492.9z"/>
	</g>
	<g>
		<path class="st0" d="M232.7,519.6h-9.5c-0.8,0-1.4,0.6-1.4,1.4s0.6,1.4,1.4,1.4l0,0h9.5c0.8,0,1.4-0.6,1.4-1.4
			S233.5,519.6,232.7,519.6z"/>
	</g>
	<g>
		<path class="st0" d="M312.7,519.6h-10.4c-0.8,0-1.4,0.6-1.4,1.4s0.6,1.4,1.4,1.4h10.4c0.8,0,1.4-0.6,1.4-1.4
			S313.5,519.6,312.7,519.6z"/>
	</g>
	<g>
		<path class="st0" d="M270.2,519.6h-5.4c-0.8,0-1.4,0.6-1.4,1.4s0.6,1.4,1.4,1.4h5.4c0.8,0,1.4-0.6,1.4-1.4S271,519.6,270.2,519.6z
			"/>
	</g>
	<g>
		<path class="st0" d="M266.3,521.1h-2.9c0-6.5-5.8-11.6-13.2-11.6h-3c-7.4,0-13.2,5.1-13.2,11.6h-2.9c0-8.1,7-14.4,16-14.4h3
			C259.3,506.7,266.3,513,266.3,521.1z"/>
	</g>
	<g>
		<path class="st0" d="M303.8,521.1H301c0-6.5-5.8-11.6-13.2-11.6h-3c-7.4,0-13.2,5.1-13.2,11.6h-2.9c0-8.1,7-14.4,16-14.4h3
			C296.8,506.7,303.8,513,303.8,521.1z"/>
	</g>
	<g>
		<path class="st0" d="M262.5,592.9h-26.8V533c0.1-7.5,6-13.3,13.4-13.3c7.4,0,13.3,6,13.3,13.3v59.9H262.5z M238.6,590.1h21V533
			c0-5.8-4.7-10.5-10.5-10.5s-10.5,4.6-10.6,10.5v57.1H238.6z"/>
	</g>
	<g>
		<path class="st0" d="M300,592.9h-26.8V532c0-6.8,5.5-12.3,12.3-12.3h2.1c6.8,0,12.3,5.5,12.3,12.3v60.9H300z M276.1,590.1h21V532
			c0-5.2-4.2-9.5-9.5-9.5h-2.1c-5.2,0-9.5,4.2-9.5,9.5v58.1H276.1z"/>
	</g>
	<g>
		<path class="st0" d="M288.3,618.4H248v-12.6h40.4v12.6H288.3z M250.8,615.6h34.6v-6.8h-34.6L250.8,615.6L250.8,615.6z"/>
	</g>
	<g>
		<path class="st0" d="M243.3,618.4h-21.7v-12.6h21.7V618.4z M224.5,615.6h15.9v-6.8h-15.9V615.6z"/>
	</g>
	<g>
		<path class="st0" d="M313.9,618.4h-21.5v-12.6h21.5V618.4z M295.3,615.6H311v-6.8h-15.7V615.6z"/>
	</g>
	<g>
		<path class="st0" d="M313.2,503.4h-90.1c-0.8,0-1.3-0.5-1.4-0.6l-15.3-14.1c-0.4-0.4-0.6-0.9-0.6-1.5c0-0.5,0.2-1.1,0.6-1.4
			c0.4-0.4,1-0.6,1.5-0.6h120.9c1.1,0,2,0.9,2,1.9c0,0.5-0.2,0.9-0.3,1.1l-0.1,0.2l-0.2,0.2l-15.6,14.1
			C314.5,503,314,503.4,313.2,503.4z M223.7,500.7L223.7,500.7L223.7,500.7z M223.5,500.6h89.3l13.7-12.4H210L223.5,500.6z"/>
	</g>
	<g>
		<path class="st0" d="M312.6,640.5h-89.8L209.1,628c-0.4-0.4-0.7-1-0.7-1.6c0-1.2,0.9-2.1,2.1-2.1h102v2.9h-100l11.5,10.4h88.6
			V640.5z"/>
	</g>
	<g>
		<path class="st0" d="M313.8,486.8l-2.9-0.3l1.4-16.2l-22.4-5.2H245l-21.5,5.2l1.4,16.2l-2.9,0.3l-1.5-16.9c-0.1-0.5,0-1,0.3-1.4
			c0.4-0.5,1-0.8,1.6-0.9l22.3-5.4h45.6l23,5.4c0.7,0,1.3,0.4,1.6,0.9c0.3,0.4,0.4,0.9,0.3,1.4L313.8,486.8z"/>
	</g>
	<g>
		<path class="st0" d="M313.3,486.8l-2.9-0.2l0.7-8.5l-21.7-4h-43.9l-20.8,4l0.7,8.5l-2.9,0.2l-0.8-9.2c-0.1-0.5,0-1,0.3-1.4
			c0.4-0.5,1-0.8,1.6-0.9l21.7-4.1h44.3h0.1l22.3,4.1c0.7,0,1.3,0.4,1.6,0.9c0.3,0.4,0.4,0.9,0.3,1.4L313.3,486.8z"/>
	</g>
	<g>
		<polygon class="st0" points="314,640.5 311.9,640.5 311.9,639.1 311.2,639.1 311.2,503.4 224.5,503.4 224.5,625.8 221.7,625.8 
			221.7,500.6 314,500.6 		"/>
	</g>
	<g>
		<path class="st0" d="M185.9,602.3H20.2c-2.2,0-4.6-0.2-6.8,0h-0.3c-0.7,0.1-1.3,0.7-1.2,1.5c0.1,0.7,0.6,1.2,1.2,1.2h165.7
			c2.2,0,4.6,0.2,6.8,0h0.3c0.7-0.1,1.3-0.7,1.2-1.5C187.1,602.9,186.5,602.4,185.9,602.3z"/>
	</g>
	<g>
		<path class="st0" d="M191.3,569.2H16.8c-2.3,0-4.8-0.2-7.1,0H9.3c-0.7,0.1-1.3,0.7-1.2,1.5c0.1,0.7,0.6,1.2,1.2,1.2h174.5
			c2.3,0,4.8,0.2,7.1,0h0.3c0.7-0.1,1.3-0.7,1.2-1.5C192.5,569.7,191.9,569.2,191.3,569.2L191.3,569.2z"/>
	</g>
	<g>
		<path class="st0" d="M128.4,578.5H72.3c-0.7,0.1-1.3,0.7-1.2,1.5c0.1,0.7,0.6,1.2,1.2,1.2h56.2c0.7-0.1,1.3-0.7,1.2-1.5
			C129.6,579.1,129.1,578.6,128.4,578.5z"/>
	</g>
	<g>
		<path class="st0" d="M50.9,578.5H24.6c-0.7,0.1-1.3,0.7-1.2,1.5c0.1,0.7,0.6,1.2,1.2,1.2h26.3c0.7-0.1,1.3-0.7,1.2-1.5
			C52.1,579.1,51.5,578.6,50.9,578.5z"/>
	</g>
	<g>
		<path class="st0" d="M176.1,578.5h-26.3c-0.7,0.1-1.3,0.7-1.2,1.5c0.1,0.7,0.6,1.2,1.2,1.2h26.3c0.7-0.1,1.3-0.7,1.2-1.5
			C177.2,579.1,176.7,578.6,176.1,578.5L176.1,578.5z"/>
	</g>
	<g>
		<path class="st0" d="M43.5,563.8H31.8c-0.7,0.1-1.3,0.7-1.2,1.5c0.1,0.7,0.6,1.2,1.2,1.2h11.7c0.7-0.1,1.3-0.7,1.2-1.5
			C44.7,564.4,44.2,563.9,43.5,563.8z"/>
	</g>
	<g>
		<path class="st0" d="M168.7,563.8H157c-0.7,0.1-1.3,0.7-1.2,1.5c0.1,0.7,0.6,1.2,1.2,1.2h11.7c0.7-0.1,1.3-0.7,1.2-1.5
			C169.9,564.4,169.4,563.9,168.7,563.8z"/>
	</g>
	<g>
		<path class="st0" d="M57.1,619.3l-3.9-2.9c-0.4-0.3-0.9-0.3-1.4,0l-3.9,2.9h1.4l-3.9-2.9c-0.4-0.3-0.9-0.3-1.4,0l-3.9,2.9h1.4
			l-3.9-2.9c-0.4-0.3-0.9-0.3-1.4,0l-3.9,2.9h1.3l-3.9-2.9c-0.4-0.3-0.9-0.3-1.4,0l-3.9,2.9h1.4l-3.9-2.9c-0.4-0.3-0.9-0.3-1.4,0
			l-3.9,2.9H18l-3.9-2.9c-1.4-1-2.8,1.3-1.4,2.3l3.9,2.9c0.4,0.3,0.9,0.3,1.4,0l3.9-2.9h-1.3l3.9,2.9c0.4,0.3,0.9,0.3,1.4,0l3.9-2.9
			h-1.4l3.9,2.9c0.4,0.3,0.9,0.3,1.4,0l4-2.9H36l3.9,2.9c0.4,0.3,0.9,0.3,1.4,0l3.9-2.9h-1.4l3.9,2.9c0.4,0.3,0.9,0.3,1.4,0l3.9-2.9
			h-1.4l3.9,2.9C57.1,622.6,58.4,620.3,57.1,619.3L57.1,619.3z"/>
	</g>
	<g>
		<path class="st0" d="M186.6,619.3l-3.9-2.9c-0.4-0.3-0.9-0.3-1.4,0l-3.9,2.9h1.4l-3.9-2.9c-0.4-0.3-0.9-0.3-1.4,0l-4,2.9h1.4
			l-3.9-2.9c-0.4-0.3-0.9-0.3-1.4,0l-3.9,2.9h1.4l-3.9-2.9c-0.4-0.3-0.9-0.3-1.4,0l-3.9,2.9h1.4l-3.9-2.9c-0.4-0.3-0.9-0.3-1.4,0
			l-3.9,2.9h1.4l-3.9-2.9c-1.4-1-2.8,1.3-1.4,2.3l3.9,2.9c0.4,0.3,0.9,0.3,1.4,0l3.9-2.9H150l3.9,2.9c0.4,0.3,0.9,0.3,1.4,0l3.9-2.9
			h-1.4l3.9,2.9c0.4,0.3,0.9,0.3,1.4,0l3.9-2.9h-1.3l3.9,2.9c0.4,0.3,0.9,0.3,1.4,0l3.9-2.9h-1.4l3.9,2.9c0.4,0.3,0.9,0.3,1.4,0
			l3.9-2.9h-1.4l3.9,2.9C186.6,622.6,188,620.3,186.6,619.3L186.6,619.3z"/>
	</g>
	<g>
		<path class="st0" d="M55.6,650.6H13.9c-1.1,0-2.2-1-2.2-2.2v-44.7h2.7v44.1H55v-44.1h2.7v44.7C57.8,649.5,56.7,650.6,55.6,650.6z"
			/>
	</g>
	<g>
		<path class="st0" d="M185.1,650.6h-41.7c-1.1,0-2.2-1-2.2-2.2v-44.7h2.7v44.1h40.6v-44.1h2.7v44.7
			C187.3,649.5,186.2,650.6,185.1,650.6z"/>
	</g>
	<g>
		<path class="st0" d="M57.8,645.4H55c0-12.5,9.8-22.8,21.8-22.8h45.3c12,0,21.8,10.2,21.8,22.7h-2.7c0-11-8.5-19.9-19-19.9H76.8
			C66.3,625.4,57.8,634.3,57.8,645.4z"/>
	</g>
	<g>
		<rect x="15.4" y="570.5" class="st0" width="2.7" height="18.3"/>
	</g>
	<g>
		<rect x="182.4" y="570.5" class="st0" width="2.7" height="18.3"/>
	</g>
	<g>
		<path class="st0" d="M60.1,570.5h-2.7v-9.4H18.2v9.4h-2.7v-10c0-1.1,1-2.2,2.2-2.2H58c1.1,0,2.2,1,2.2,2.2v10H60.1z"/>
	</g>
	<g>
		<path class="st0" d="M101.7,545.4V530c-0.1-0.7-0.7-1.3-1.5-1.2c-0.7,0.1-1.2,0.6-1.2,1.2v15.5c0.1,0.7,0.7,1.3,1.5,1.2
			C101.1,546.7,101.6,546.1,101.7,545.4L101.7,545.4z"/>
	</g>
	<g>
		<path class="st0" d="M105.9,554.2c6.6,2.2,11.2,8.4,11.3,15.4c0.1,0.7,0.7,1.3,1.5,1.2c0.7-0.1,1.2-0.6,1.2-1.2
			c-0.2-8.2-5.5-15.4-13.3-18C104.9,551,104.2,553.6,105.9,554.2L105.9,554.2z"/>
	</g>
	<g>
		<path class="st0" d="M83.4,569.6c0.2-7,4.7-13.1,11.3-15.4c1.6-0.6,0.9-3.2-0.7-2.6c-7.8,2.6-13.1,9.8-13.3,18
			c0.1,0.7,0.7,1.3,1.5,1.2C82.8,570.8,83.4,570.2,83.4,569.6L83.4,569.6z"/>
	</g>
	<g>
		<path class="st0" d="M119.9,570.5c0.2-4.5,3.7-9.1,8.5-9.1c4.8,0,8.3,4.6,8.5,9.1c0.1,1.7,2.8,1.8,2.7,0
			c-0.2-6-4.9-11.8-11.2-11.8s-11,5.8-11.2,11.8C117.1,572.3,119.8,572.3,119.9,570.5z"/>
	</g>
	<g>
		<path class="st0" d="M63.8,570.5c0.2-4.5,3.7-9.1,8.5-9.1s8.3,4.6,8.5,9.1c0.1,1.7,2.8,1.8,2.7,0c-0.2-6-4.9-11.8-11.2-11.8
			s-11,5.8-11.2,11.8C61,572.3,63.7,572.3,63.8,570.5z"/>
	</g>
	<g>
		<path class="st0" d="M100.3,559.4c-4.1,0-7.4-3.4-7.4-7.7s3.3-7.7,7.4-7.7s7.4,3.4,7.4,7.7S104.4,559.4,100.3,559.4z M100.3,546.8
			c-2.6,0-4.6,2.2-4.6,4.9s2.1,4.9,4.6,4.9s4.6-2.2,4.6-4.9S102.9,546.8,100.3,546.8z"/>
	</g>
	<g>
		<path class="st0" d="M185.2,570.5h-2.7v-9.4h-39.1v9.4h-2.7v-10c0-1.1,1-2.2,2.2-2.2H183c1.1,0,2.2,1,2.2,2.2V570.5z"/>
	</g>
	<g>
		<path class="st0" d="M31,559.7c0.4-6.5,13-6.5,13.5,0c0.1,1.7,2.8,1.7,2.7,0c-0.7-10-18.2-10-18.9,0
			C28.2,561.5,30.9,561.4,31,559.7z"/>
	</g>
	<g>
		<path class="st0" d="M156.2,559.7c0.4-6.5,13-6.5,13.5,0c0.1,1.7,2.8,1.7,2.7,0c-0.7-10-18.2-10-18.9,0
			C153.3,561.5,156.1,561.4,156.2,559.7L156.2,559.7z"/>
	</g>
	<g>
		<path class="st0" d="M185.7,604.7l-2-1.9l11.9-12.6H3.5L15,602.8l-2,1.8L0.6,591.1c-0.4-0.4-0.6-0.9-0.6-1.5s0.2-1.1,0.6-1.5
			s0.9-0.6,1.5-0.6h194.7c1.2,0,2.2,1,2.2,2.3c0,0.5-0.2,1.1-0.6,1.5L185.7,604.7z M196.4,589.4L196.4,589.4L196.4,589.4z
			 M2.6,589.2L2.6,589.2C2.6,589.3,2.6,589.3,2.6,589.2z"/>
	</g>
	<g>
		<rect x="140.6" y="570.5" class="st0" width="2.7" height="18.3"/>
	</g>
	<g>
		<rect x="57.3" y="570.5" class="st0" width="2.7" height="18.3"/>
	</g>
	<g>
		<path class="st0" d="M39.1,552.2V541c-0.1-0.7-0.7-1.3-1.5-1.2c-0.7,0.1-1.2,0.6-1.2,1.2v11.2c0.1,0.7,0.7,1.3,1.5,1.2
			C38.5,553.4,39,552.8,39.1,552.2z"/>
	</g>
	<g>
		<path class="st0" d="M37.7,553.5C37.7,553.8,37.7,553.4,37.7,553.5S37.8,553.4,37.7,553.5L37.7,553.5L37.7,553.5
			C37.6,553.5,37.6,553.5,37.7,553.5S37.8,553.5,37.7,553.5C37.6,553.5,37.7,553.5,37.7,553.5C37.6,553.5,37.6,553.5,37.7,553.5
			C37.8,553.6,37.8,553.6,37.7,553.5C37.7,553.6,37.6,553.3,37.7,553.5C37.7,553.3,37.7,553.8,37.7,553.5c0,0.7,0.6,1.3,1.4,1.4
			c0.7,0,1.3-0.6,1.3-1.4c0-1.5-1.2-2.7-2.7-2.7S35,552,35,553.5l0,0c-0.1,0.7,0.5,1.4,1.2,1.5s1.4-0.5,1.5-1.2
			C37.7,553.7,37.7,553.6,37.7,553.5L37.7,553.5z"/>
	</g>
	<g>
		<path class="st0" d="M162.9,553.5C162.9,553.8,162.9,553.4,162.9,553.5S163,553.4,162.9,553.5L162.9,553.5L162.9,553.5
			C162.8,553.5,162.8,553.5,162.9,553.5S163,553.5,162.9,553.5C162.8,553.5,162.9,553.5,162.9,553.5
			C162.8,553.5,162.8,553.5,162.9,553.5C163,553.6,163,553.6,162.9,553.5C162.8,553.6,162.8,553.3,162.9,553.5
			C162.9,553.3,162.9,553.8,162.9,553.5c0,0.7,0.6,1.3,1.4,1.4c0.7,0,1.4-0.6,1.4-1.4c0-1.5-1.2-2.7-2.7-2.7s-2.7,1.2-2.7,2.7
			c0.1,0.7,0.7,1.3,1.5,1.2C162.3,554.7,162.8,554.2,162.9,553.5L162.9,553.5z"/>
	</g>
	<g>
		<path class="st0" d="M164.3,552.2V541c-0.1-0.7-0.7-1.3-1.5-1.2c-0.7,0.1-1.2,0.6-1.2,1.2v11.2c0.1,0.7,0.7,1.3,1.5,1.2
			C163.7,553.4,164.2,552.8,164.3,552.2z"/>
	</g>
	<g>
		<path class="st0" d="M667.5,533.3H526.2c-1.9,0-3.4-1.5-3.4-3.4v-9.3c0-1.9,1.5-3.4,3.4-3.4h141.3c1.9,0,3.4,1.5,3.4,3.4v9.3
			C670.9,531.8,669.4,533.3,667.5,533.3z M526.4,529.7h140.9v-8.9H526.4V529.7z"/>
	</g>
	<g>
		<path class="st0" d="M626.2,518.7c-0.9,0-1.7-0.3-2.4-1L564.1,458c-0.6-0.6-1-1.5-1-2.4s0.3-1.7,1-2.4l59.7-59.7
			c1.3-1.3,3.4-1.3,4.8,0l59.7,59.7c1.3,1.3,1.3,3.4,0,4.8l-59.7,59.7C627.9,518.3,627.1,518.7,626.2,518.7z M566.9,455.6l59.3,59.3
			l59.3-59.3l-59.3-59.3L566.9,455.6z"/>
	</g>
	<g>
		<path class="st0" d="M611.5,518.7c-0.9,0-1.7-0.3-2.4-1L549.4,458c-0.6-0.6-1-1.5-1-2.4s0.3-1.7,1-2.4l59.7-59.7
			c1.3-1.3,3.4-1.3,4.8,0l59.7,59.7c0.6,0.6,1,1.5,1,2.4s-0.3,1.7-1,2.4l-59.7,59.7C613.2,518.3,612.4,518.7,611.5,518.7z
			 M552.2,455.6l59.3,59.3l59.3-59.3l-59.3-59.3L552.2,455.6z"/>
	</g>
	<g>
		<path class="st0" d="M596.9,518.8c-0.9,0-1.7-0.3-2.4-1L534.7,458c-1.3-1.3-1.3-3.4,0-4.8l59.8-59.8c1.4-1.2,3.3-1.2,4.7,0
			l0.1,0.1l59.7,59.7c1.3,1.3,1.3,3.4,0,4.8l-59.7,59.8C598.6,518.4,597.8,518.8,596.9,518.8z M537.5,455.6l59.4,59.4l59.3-59.4
			l-59.4-59.4L537.5,455.6z"/>
	</g>
	<g>
		<path class="st0" d="M582.2,518.7c-0.9,0-1.7-0.3-2.4-1L520.1,458c-0.6-0.6-1-1.5-1-2.4s0.3-1.7,1-2.4l59.7-59.7
			c1.3-1.3,3.4-1.3,4.8,0l59.7,59.7c1.3,1.3,1.3,3.4,0,4.8l-59.7,59.7C583.9,518.3,583.1,518.7,582.2,518.7z M522.9,455.6l59.3,59.3
			l59.3-59.3l-59.3-59.3L522.9,455.6z"/>
	</g>
	<g>
		<path class="st0" d="M567.5,518.7c-0.9,0-1.7-0.3-2.4-1L505.4,458c-0.6-0.6-1-1.5-1-2.4s0.3-1.7,1-2.4l59.7-59.7
			c1.3-1.3,3.4-1.3,4.8,0l59.7,59.7c0.6,0.6,1,1.5,1,2.4s-0.3,1.7-1,2.4l-59.7,59.7C569.2,518.3,568.4,518.7,567.5,518.7z
			 M508.2,455.6l59.3,59.3l59.3-59.3l-59.3-59.3L508.2,455.6z"/>
	</g>
	<g>
		<path class="st0" d="M533.3,665.8H495c-1.9,0-3.4-1.5-3.4-3.4v-39.7c0.2-1.8,1.6-3.2,3.4-3.2h38.3c1.9,0,3.4,1.5,3.4,3.4v39.5
			C536.7,664.3,535.2,665.8,533.3,665.8z M495.2,662.2h38V623h-38V662.2z M495.2,623L495.2,623L495.2,623L495.2,623z"/>
	</g>
	<g>
		<path class="st0" d="M523.7,656.9h-19.1c-1.9,0-3.4-1.5-3.4-3.4v-21.8c0-1.9,1.5-3.4,3.4-3.4h19.1c1.9,0,3.4,1.5,3.4,3.4v21.8
			C527.1,655.4,525.6,656.9,523.7,656.9z M504.8,653.3h18.8v-21.5h-18.8V653.3z"/>
	</g>
	<g>
		<path class="st0" d="M539.3,623.2h-50.1c-1.9,0-3.4-1.5-3.4-3.4v-3c0-1.9,1.5-3.4,3.4-3.4h50.1c1.9,0,3.4,1.5,3.4,3.4v3
			C542.7,621.7,541.2,623.2,539.3,623.2z M489.4,619.6h49.8V617h-49.8L489.4,619.6L489.4,619.6z"/>
	</g>
	<g>
		<path class="st0" d="M525,616.9h-20.4c-1.5,0-2.7-1.2-2.7-2.7v-11.1h3.5v10.2h18.7v-10l0,0l0,0V603c0,0.1,0,0.2,0,0.3l3.1-1.6
			c0.1,0.3,0.4,0.7,0.4,1.3v11.2C527.7,615.7,526.5,616.9,525,616.9z"/>
	</g>
	<g>
		<path class="st0" d="M514.8,587.1c-4.4,0-8.1-4.2-8.1-9.4s3.6-9.4,8.1-9.4s8.1,4.2,8.1,9.4S519.2,587.1,514.8,587.1z M514.8,571.9
			c-2.5,0-4.5,2.6-4.5,5.8s2,5.8,4.5,5.8s4.5-2.6,4.5-5.8S517.3,571.9,514.8,571.9z"/>
	</g>
	<g>
		<path class="st0" d="M514.8,609.6c-11.1,0-13.7-6.5-14.3-9.4H499c-1.5,0-2.7-1.2-2.7-2.7v-5.9c0-0.8,0.3-1.5,0.9-2
			s1.4-0.7,2.2-0.5c6.9,1,10.5-6.3,10.6-6.4l3.2,1.6c-0.2,0.4-4.5,9-13.3,8.4v4h1.3c1.3,0,2.4,0.9,2.6,2.2v0.1
			c0.3,2.1,1.9,7.1,11,7.1L514.8,609.6L514.8,609.6z M498.8,592.5C498.9,592.6,498.9,592.6,498.8,592.5
			C498.9,592.6,498.9,592.5,498.8,592.5z"/>
	</g>
	<g>
		<path class="st0" d="M514.1,609.6V606c9.1,0,10.7-4.9,11-7.1v-0.1c0.3-1.3,1.3-2.2,2.6-2.2h1.3v-4c-8.8,0.5-13.1-8-13.3-8.4
			l3.2-1.6c0.2,0.3,3.8,7.3,10.7,6.3c0.7-0.1,1.5,0.1,2.1,0.6s0.9,1.2,0.9,2v5.9c0,1.5-1.2,2.7-2.7,2.7h-1.5
			C527.8,603.1,525.2,609.6,514.1,609.6z M530.1,592.5L530.1,592.5L530.1,592.5z"/>
	</g>
	<g>
		<path class="st0" d="M668.7,641.8H567.6c-1.9,0-3.4-1.5-3.4-3.4v-12.6c0-1.9,1.5-3.4,3.4-3.4h101.1c1.9,0,3.4,1.5,3.4,3.4v12.6
			C672.1,640.3,670.6,641.8,668.7,641.8z M567.8,638.2h100.7V626H567.8V638.2z"/>
	</g>
	<g>
		<path class="st0" d="M595.5,585c0.8,0,1.4,0.6,1.4,1.4v17.3c0.1,3-0.1,6.1-0.6,9.1c-0.3,1.6-1,3.2-2.1,4.5s-2.5,2.3-4,2.9
			c-2.1,0.8-4.3,1.2-6.6,1.1c-2.5,0.1-5.1-0.3-7.5-1.2c-1.6-0.7-2.9-1.7-4-3.1c-0.9-1.2-1.6-2.5-1.9-4c-0.5-3-0.8-6-0.7-9v-17.6
			c0-0.8,0.6-1.4,1.4-1.4h4.2c0.8,0,1.4,0.6,1.4,1.4v17.9c-0.1,2,0,4,0.3,6c0.3,1.4,1,2.6,2.1,3.5c1.3,1,2.9,1.4,4.6,1.3
			c1.6,0.1,3.2-0.3,4.4-1.3c1-0.8,1.6-1.9,1.8-3.1c0.2-2,0.3-4,0.3-6v-18.4c0-0.8,0.6-1.4,1.4-1.4L595.5,585 M595.5,581.4h-4.2
			c-2.7,0-4.9,2.2-4.9,4.9l0,0v18.3c0,1.8,0,3.7-0.3,5.5c0,0.4-0.3,0.8-0.6,1c-0.7,0.4-1.4,0.5-2.2,0.4c-0.8,0.1-1.7-0.1-2.4-0.6
			c-0.5-0.4-0.8-0.9-0.8-1.5c-0.2-1.7-0.2-3.5-0.2-5.3v-18c0-2.7-2.2-4.9-4.9-4.9l0,0h-4.2c-2.7,0-4.9,2.2-4.9,4.9l0,0V604
			c-0.1,3.3,0.2,6.6,0.8,9.8c0.5,2,1.4,3.8,2.6,5.4c1.4,1.8,3.2,3.2,5.3,4.1c2.8,1.1,5.9,1.6,8.9,1.5c2.7,0.1,5.5-0.4,8-1.4
			c2.1-0.9,3.9-2.2,5.4-3.9c1.4-1.7,2.4-3.8,2.8-6c0.5-3.2,0.7-6.5,0.6-9.8v-17.4C600.4,583.6,598.2,581.4,595.5,581.4L595.5,581.4
			L595.5,581.4z"/>
	</g>
	<g>
		<path class="st0" d="M630.4,585c0.8,0,1.4,0.6,1.4,1.4v3.3c0,0.7-0.6,1.4-1.4,1.3h-13.8c-0.8,0-1.4,0.6-1.4,1.4v5.7
			c0,0.8,0.6,1.4,1.4,1.4h11.6c0.8,0,1.4,0.6,1.4,1.4v3.3c0,0.8-0.6,1.4-1.4,1.4h-11.6c-0.8,0-1.4,0.6-1.4,1.4v12.4
			c0,0.8-0.6,1.4-1.4,1.4h-4.2c-0.8,0-1.4-0.6-1.4-1.4v-32.9c0-0.8,0.6-1.4,1.4-1.4L630.4,585 M630.4,581.4h-20.7
			c-2.7,0-4.9,2.2-4.9,4.9l0,0v32.9c0,2.7,2.2,4.9,4.9,4.9l0,0h4.2c2.7,0,4.9-2.2,4.9-4.9l0,0V609h9.4c2.7,0,4.9-2.2,4.9-4.9l0,0
			v-3.3c0-2.7-2.2-4.9-4.9-4.9l0,0h-9.4v-1.4h11.6c2.7,0,4.9-2.2,4.9-4.9l0,0v-3.3C635.3,583.6,633.1,581.4,630.4,581.4L630.4,581.4
			L630.4,581.4z"/>
	</g>
	<g>
		<path class="st0" d="M656.5,584.3c3.8-0.1,7.5,1.2,10.2,3.9c1.4,1.5,2.4,3.2,3.1,5.1c0.2,0.7-0.1,1.5-0.9,1.8h-0.1l-4.2,1
			c-0.1,0-0.2,0-0.3,0c-0.6,0-1.1-0.4-1.3-0.9c-0.4-1.2-1.2-2.3-2.2-3.2c-1.3-1.1-3-1.6-4.7-1.6c-2.4-0.1-4.7,1-6.2,2.8
			c-1.6,1.9-2.4,5-2.4,9.2c0,4.5,0.8,7.7,2.3,9.6c1.5,1.9,3.7,2.9,6.1,2.9c1.8,0,3.5-0.6,4.8-1.8c1.2-1.2,2.1-2.7,2.5-4.4
			c0.2-0.6,0.7-1,1.3-1c0.1,0,0.3,0,0.4,0.1l4.1,1.3c0.7,0.2,1.1,1,0.9,1.7c-0.8,2.9-2.5,5.4-4.7,7.3c-2.6,2-5.8,3-9.1,2.8
			c-4.3,0.1-8.4-1.7-11.2-4.8c-2.9-3.2-4.4-7.7-4.4-13.3c0-5.9,1.5-10.5,4.4-13.8C647.8,585.9,652,584.1,656.5,584.3 M656.4,580.8
			c-5.4-0.2-10.6,2.1-14.2,6.1c-3.5,3.9-5.3,9.4-5.3,16.2c0,6.5,1.8,11.7,5.3,15.6c3.5,3.9,8.6,6.1,13.8,6c4.1,0.1,8-1.1,11.3-3.6
			c2.8-2.3,4.9-5.5,5.9-9c0.8-2.6-0.6-5.3-3.1-6.2l-4.1-1.3c-2.6-0.8-5.3,0.5-6.2,3.1v0.1c-0.3,1-0.8,2-1.5,2.8
			c-0.6,0.6-1.5,0.9-2.4,0.9c-1.3,0.1-2.6-0.5-3.3-1.6c-0.6-0.7-1.5-2.6-1.5-7.4c0-3.3,0.5-5.8,1.6-7c0.8-1.1,2.1-1.6,3.5-1.6
			c0.9,0,1.8,0.2,2.4,0.8c0.5,0.4,0.9,1,1.1,1.7c0.7,1.9,2.5,3.2,4.6,3.3c0.4,0,0.8,0,1.2-0.1l4.2-1c2.6-0.6,4.2-3.3,3.6-5.9
			c0-0.1-0.1-0.3-0.1-0.4c-0.8-2.4-2.1-4.7-3.9-6.5C665.7,582.4,661.2,580.6,656.4,580.8L656.4,580.8z"/>
	</g>
	<g>
		<path class="st0" d="M482.2,555.6h-5.5c-1.2,0-2.2-1-2.2-2.2l2.1-129.4h5.7l2.1,129.6l-0.1,0.3
			C484.1,554.9,483.2,555.6,482.2,555.6z M477.7,552.4h3.6l-1.8-109.1L477.7,552.4z"/>
	</g>
	<g>
		<path class="st0" d="M443.1,419.1c-0.4-0.8-0.3-1.9,0.4-2.5c1.7-1.7,17.1-16.8,36-1.6l0.4,0.3l-1.9,2.5l-0.4-0.3
			c-16.7-13.4-30.2-0.3-31.8,1.3c0.2-0.2,0.4-0.6,0.2-1.1L443.1,419.1z"/>
	</g>
	<g>
		<path class="st0" d="M476.7,426.1c0-0.1-1.9-5.8-7.8-8.5c-5.2-2.3-12-1.6-20.3,2.2l-1.3-2.9c9.1-4.2,16.8-4.9,22.9-2.2
			c7.2,3.3,9.4,10.2,9.4,10.4L476.7,426.1z"/>
	</g>
	<g>
		<path class="st0" d="M515.6,419.1l-2.8-1.4c-0.2,0.5,0,0.9,0.2,1.1c-2.6-2.5-16.5-14.4-32.7-1.4l-0.3,0.2
			c-0.7,0.4-1.7,0.3-2.4-0.2l1.2-1.8l-0.5-0.7c18.2-14.7,33.9-1.3,36.9,1.6C515.9,417.2,516,418.3,515.6,419.1z M479,414.7
			c-0.1,0-0.3,0-0.4,0.1l0.3,0.7l0.5-0.7C479.3,414.7,479.2,414.7,479,414.7z"/>
	</g>
	<g>
		<path class="st0" d="M482.3,426l-3.1-0.9c0.1-0.3,2.2-7.2,9.3-10.4c6.1-2.8,13.8-2.1,22.9,2.1l-1.3,2.9c-8.2-3.8-15-4.5-20.2-2.2
			C484.1,420.2,482.3,426,482.3,426z"/>
	</g>
	<g>
		<path class="st0" d="M522.9,426.9h-11.1c-1.8,0-3.2-1.4-3.2-3.2v-3.8c0-1.8,1.4-3.2,3.2-3.2h11.1c1.8,0,3.2,1.4,3.2,3.2v3.8
			C526.1,425.5,524.7,426.9,522.9,426.9z M511.8,419.9L511.8,419.9v3.8h11.1v-3.8H511.8z"/>
	</g>
	<g>
		<path class="st0" d="M447.5,426.9h-11.1c-1.8,0-3.2-1.4-3.2-3.2v-4c0.2-1.7,1.6-3,3.2-3h11.1c1.8,0,3.2,1.4,3.2,3.2v3.8
			C450.7,425.5,449.3,426.9,447.5,426.9z M436.4,420v3.7h11.1v-3.8L436.4,420C436.4,419.9,436.4,420,436.4,420z"/>
	</g>
	<g>
		<g>
			<path class="st0" d="M348.1,609.3v-17.8l108.6,0.1c1.1,0,2.1,0.9,2.1,2.1v13.4c0,1.1-0.9,2.1-2.1,2.1L348.1,609.3z M351.1,594.5
				v11.9l104.8-0.2v-11.6L351.1,594.5z"/>
		</g>
		<g>
			<path class="st0" d="M454.7,594.4H348.1V580h-5.9V472.6h96c9.1,0,16.5,7.4,16.5,16.6V594.4z M351.1,591.5h100.7V489.2
				c0-7.5-6.1-13.6-13.6-13.6h-93V577h5.9L351.1,591.5L351.1,591.5z"/>
		</g>
		<g id="Triangulos_1_">
			<g>
				<g>
					<path class="st0" d="M440.7,587.6l-26.5-26.5l26.5-26.5V587.6z M418.1,561.1l19.8,19.8v-39.7L418.1,561.1z"/>
				</g>
				<g>
					<path class="st0" d="M379.7,590.6l-26.5-26.5l26.5-26.5V590.6z M357.1,564.1L377,584v-39.7L357.1,564.1z"/>
				</g>
				<g>
					<path class="st0" d="M391.1,543.1l-16.6-16.6l16.6-16.6V543.1z M378,526.6l10.7,10.7v-21.5L378,526.6z"/>
				</g>
				<g>
					<path class="st0" d="M362.9,542.9l-13.7-13.7l13.7-13.7V542.9z M352.7,529.2l7.8,7.8v-15.7L352.7,529.2z"/>
				</g>
				<g>
					<path class="st0" d="M376.6,514.6l-10.9-10.9l10.9-10.9V514.6z M369.1,503.7l5.1,5.1v-10.1L369.1,503.7z"/>
				</g>
				<g>
					<path class="st0" d="M401.3,512.5l-8.7-8.8l8.7-8.7V512.5z M395.5,503.7l3.7,3.7V500L395.5,503.7z"/>
				</g>
				<g>
					<path class="st0" d="M362.2,495.1l-8.7-8.7l8.7-8.8V495.1z M356.4,486.4l3.7,3.7v-7.5L356.4,486.4z"/>
				</g>
				<g>
					<path class="st0" d="M357.4,513.8l-8.7-8.7l8.7-8.8V513.8z M351.6,505.1l3.7,3.7v-7.5L351.6,505.1z"/>
				</g>
				<g>
					<path class="st0" d="M413.7,501.4l-8.8-8.8l8.8-8.7V501.4z M407.9,492.6l3.8,3.8v-7.5L407.9,492.6z"/>
				</g>
				<g>
					<path class="st0" d="M430.7,495.7l-8.7-8.8l8.7-8.7V495.7z M424.9,486.9l3.7,3.7v-7.5L424.9,486.9z"/>
				</g>
				<g>
					<path class="st0" d="M433.1,540.1l-8.7-8.7l8.7-8.8V540.1z M427.3,531.4l3.7,3.7v-7.5L427.3,531.4z"/>
				</g>
				<g>
					<path class="st0" d="M388.2,495.7l-8.8-8.8l8.8-8.7V495.7z M382.4,486.9l3.8,3.8v-7.5L382.4,486.9z"/>
				</g>
				<g>
					<path class="st0" d="M438.8,523.9l-14-14l14-14V523.9z M428.2,510l8.1,8.1v-16.3L428.2,510z"/>
				</g>
				<g>
					<path class="st0" d="M419.5,545.8l-16.6-16.6l16.6-16.6V545.8z M406.3,529.2l10.7,10.7v-21.5L406.3,529.2z"/>
				</g>
				<g>
					<path class="st0" d="M404.5,580.8L386.8,560l17.8-20.9L404.5,580.8L404.5,580.8z M390.4,560l11.4,13.4v-26.7L390.4,560z"/>
				</g>
			</g>
		</g>
		<g>
			<path class="st0" d="M349.6,607.8"/>
		</g>
	</g>
</g>
</svg>
