<?xml version="1.0" encoding="utf-8"?>
<!-- Generator: Adobe Illustrator 21.0.0, SVG Export Plug-In . SVG Version: 6.00 Build 0)  -->
<svg version="1.1" id="Layer_1" xmlns="http://www.w3.org/2000/svg" xmlns:xlink="http://www.w3.org/1999/xlink" x="0px" y="0px"
	 viewBox="0 0 1012.5 838.5" style="enable-background:new 0 0 1012.5 838.5;" xml:space="preserve">
<style type="text/css">
	.st0{fill:#494949;}
	.st1{fill:none;stroke:#494949;stroke-width:8.55;stroke-miterlimit:10;}
</style>
<title>Pictograma_Reitoria</title>
<g id="Reitoria">
	<path class="st0" d="M753.2,552.9v31.2c0,5.5,8.5,5.5,8.5,0v-31.2C761.7,547.4,753.2,547.4,753.2,552.9z"/>
	<circle class="st0" cx="757.4" cy="552.9" r="12.8"/>
	<path class="st0" d="M282.9,552.9v31.2c0,5.5,8.5,5.5,8.5,0v-31.2C291.5,547.4,282.9,547.4,282.9,552.9z"/>
	<circle class="st0" cx="287.2" cy="552.9" r="12.8"/>
	<path class="st0" d="M974.6,562.1v31.2c0,5.5,8.6,5.5,8.6,0v-31.2C983.2,556.6,974.6,556.6,974.6,562.1z"/>
	<circle class="st0" cx="978.9" cy="562.1" r="12.8"/>
	<path class="st0" d="M810.7,831.9V462.4c0-5,0.1-10,0-15c0-0.2,0-0.4,0-0.6c0-5.5-8.5-5.5-8.5,0v369.4c0,5-0.1,10,0,15
		c0,0.2,0,0.4,0,0.6C802.1,837.3,810.7,837.3,810.7,831.9L810.7,831.9z"/>
	<path class="st0" d="M855.3,359.1H261c-8,0-16.1-0.1-24.1,0h-1c-5.5,0-5.5,8.5,0,8.5h594.3c8,0,16.1,0.1,24.1,0h1
		C860.8,367.6,860.8,359.1,855.3,359.1L855.3,359.1z"/>
	<path class="st0" d="M354.9,418.3H235.9c-5.5,0-5.5,8.5,0,8.5h119.1C360.4,426.8,360.4,418.3,354.9,418.3z"/>
	<path class="st0" d="M354.9,442.3h-40.3l-63.9,0.1h-14.7c-5.5,0-5.5,8.6,0,8.5h40.3l63.9-0.1h14.7
		C360.4,450.9,360.4,442.3,354.9,442.3L354.9,442.3z"/>
	<path class="st0" d="M343.7,344.9H235.9c-5.5,0-5.5,8.5,0,8.5h107.9C349.2,353.4,349.3,344.9,343.7,344.9z"/>
	<path class="st0" d="M700.3,294.7H362.1c-4.6,0-9.2-0.1-13.7,0h-0.6c-5.5,0-5.5,8.5,0,8.5H686c4.6,0,9.2,0.1,13.7,0h0.6
		C705.8,303.3,705.8,294.7,700.3,294.7L700.3,294.7z"/>
	<path class="st0" d="M578.4,312.9H469.6c-5.5,0-5.5,8.5,0,8.5h108.8C583.9,321.4,583.9,312.9,578.4,312.9z"/>
	<path class="st0" d="M428.2,312.9h-51c-5.5,0-5.5,8.5,0,8.5h51C433.7,321.4,433.7,312.9,428.2,312.9z"/>
	<path class="st0" d="M670.8,312.9h-51c-5.5,0-5.5,8.5,0,8.5h51C676.3,321.4,676.3,312.9,670.8,312.9z"/>
	<path class="st0" d="M414,284.4h-22.7c-5.5,0-5.5,8.5,0,8.5H414C419.5,293,419.5,284.4,414,284.4L414,284.4z"/>
	<path class="st0" d="M656.6,284.4h-22.7c-5.5,0-5.5,8.5,0,8.5h22.7C662.1,293,662.1,284.4,656.6,284.4z"/>
	<path class="st0" d="M441,392.1l-7.6-5.7c-1.3-0.8-3-0.8-4.3,0l-7.6,5.7h4.4l-7.6-5.7c-1.3-0.8-3-0.8-4.3,0l-7.6,5.7h4.3l-7.6-5.7
		c-1.3-0.8-3-0.8-4.3,0l-7.6,5.7h4.3l-7.6-5.7c-1.3-0.8-3-0.8-4.3,0l-7.6,5.7h4.3l-7.6-5.7c-1.3-0.8-3-0.8-4.3,0l-7.6,5.7h4.3
		l-7.6-5.7c-1.9-1.4-4.8-0.3-5.9,1.5c-1.3,2.2-0.3,4.5,1.5,5.8l7.6,5.7c1.3,0.8,3,0.8,4.3,0l7.6-5.7h-4.3l7.6,5.7
		c1.3,0.8,3,0.8,4.3,0l7.6-5.7h-4.3l7.6,5.7c1.3,0.8,3,0.8,4.3,0l7.6-5.7h-4.3l7.6,5.7c1.3,0.8,3,0.8,4.3,0l7.6-5.7h-4.3l7.6,5.7
		c1.3,0.8,3,0.8,4.3,0l7.6-5.7h-4.3l7.6,5.7c1.8,1.4,4.8,0.3,5.8-1.5C443.8,395.8,442.9,393.5,441,392.1L441,392.1z"/>
	<path class="st0" d="M692,392.1l-7.6-5.7c-1.3-0.8-3-0.8-4.3,0l-7.6,5.7h4.3l-7.6-5.7c-1.3-0.8-3-0.8-4.3,0l-7.6,5.7h4.3l-7.7-5.7
		c-1.3-0.8-3-0.8-4.3,0l-7.6,5.7h4.3l-7.6-5.7c-1.3-0.8-3-0.8-4.3,0l-7.6,5.7h4.3l-7.6-5.7c-1.3-0.8-3-0.8-4.3,0l-7.6,5.7h4.3
		l-7.6-5.7c-1.9-1.4-4.8-0.3-5.8,1.5c-1.3,2.2-0.3,4.5,1.5,5.8l7.6,5.7c1.3,0.8,3,0.8,4.3,0l7.6-5.7H619l7.6,5.7
		c1.3,0.8,3,0.8,4.3,0l7.6-5.7h-4.3l7.6,5.7c1.3,0.8,3,0.8,4.3,0l7.6-5.7h-4.3l7.6,5.7c1.3,0.8,3,0.8,4.3,0l7.6-5.7h-4.3l7.6,5.7
		c1.3,0.8,3,0.8,4.3,0l7.6-5.7h-4.3l7.6,5.7c1.8,1.4,4.8,0.3,5.8-1.5C694.8,395.8,693.9,393.5,692,392.1L692,392.1z"/>
	<path class="st0" d="M811.9,344.9H700.8c-5.5,0-5.5,8.5,0,8.5h111.1C817.4,353.4,817.4,344.9,811.9,344.9z"/>
	<path class="st0" d="M986.5,593.3v209.2c0,9.6-0.4,19.3,0,29c0,0.1,0,0.3,0,0.4c0,5.5,8.6,5.5,8.6,0V622.7c0-9.6,0.4-19.3,0-29
		c0-0.1,0-0.3,0-0.4C995.1,587.8,986.5,587.8,986.5,593.3L986.5,593.3z"/>
	<path class="st0" d="M953.5,666.7v165.7c0,5.5,8.6,5.5,8.6,0V666.7C962,661.2,953.5,661.2,953.5,666.7z"/>
	<path class="st0" d="M816.2,417.5v-68.3c0-5.5-8.5-5.5-8.5,0v68.3C807.6,423,816.2,423,816.2,417.5L816.2,417.5z"/>
	<path class="st0" d="M841.8,417.5v-54c0-5.5-8.5-5.5-8.5,0v54C833.3,423,841.8,423,841.8,417.5z"/>
	<path class="st0" d="M739.3,417.5v-54.1c0-5.5-8.5-5.5-8.5,0v54.1C730.8,423,739.3,423,739.3,417.5z"/>
	<path class="st0" d="M713.7,417.5v-54.1c0-5.5-8.5-5.5-8.5,0v54.1C705.2,423,713.7,423,713.7,417.5z"/>
	<path class="st0" d="M765,417.5v-54.1c0-5.5-8.5-5.5-8.5,0v54.1C756.4,423,765,423,765,417.5z"/>
	<path class="st0" d="M790.6,417.5v-54.1c0-5.5-8.5-5.5-8.5,0v54.1C782,423,790.6,423,790.6,417.5z"/>
	<path class="st0" d="M287.9,422.6v-59.3c0-5.5-8.5-5.5-8.5,0v59.2C279.4,428.1,287.9,428.1,287.9,422.6L287.9,422.6z"/>
	<path class="st0" d="M262.3,422.6v-59.3c0-5.5-8.6-5.5-8.6,0v59.2C253.7,428.1,262.3,428.1,262.3,422.6L262.3,422.6z"/>
	<path class="st0" d="M313.5,422.6v-59.3c0-5.5-8.5-5.5-8.5,0v59.2C305,428.1,313.5,428.1,313.5,422.6L313.5,422.6z"/>
	<path class="st0" d="M339.1,422.6v-59.3c0-5.5-8.5-5.5-8.5,0v59.2C330.6,428.1,339.1,428.1,339.1,422.6L339.1,422.6z"/>
	<path class="st0" d="M104.6,24.2v30.8c0,5.5,8.6,5.5,8.6,0V24.2C113.1,18.7,104.6,18.7,104.6,24.2z"/>
	<path class="st0" d="M80.7,24.8V55c0,5.5,8.6,5.5,8.6,0V24.8C89.3,19.3,80.7,19.3,80.7,24.8z"/>
	<path class="st0" d="M160.5,24.2v30.8c0,5.5,8.5,5.5,8.5,0V24.2C169,18.7,160.5,18.7,160.5,24.2L160.5,24.2z"/>
	<path class="st0" d="M184.3,24.8V55c0,5.5,8.5,5.5,8.5,0V24.8C192.9,19.3,184.3,19.3,184.3,24.8z"/>
	<path class="st0" d="M1003.1,589H830.6c-7.9,0-15.9-0.3-23.8,0h-0.3c-5.5,0-5.5,8.5,0,8.5h172.5c7.9,0,15.9,0.3,23.8,0h0.3
		C1008.6,597.5,1008.6,589,1003.1,589z"/>
	<path class="st0" d="M990.8,633H829.1c-7.4,0-15-0.3-22.4,0h-0.3c-5.5,0-5.5,8.5,0,8.5h161.7c7.4,0,15,0.3,22.4,0h0.3
		C996.3,641.5,996.3,633,990.8,633L990.8,633z"/>
	<path class="st0" d="M957.7,662.5H806.4c-5.5,0-5.5,8.5,0,8.5h151.4C963.2,671,963.3,662.5,957.7,662.5z"/>
	<path class="st1" d="M438.9,363.3v86.6c0,0.9-0.7,1.6-1.6,1.6h-80.8c-0.9,0-1.6-0.7-1.6-1.6v-86.6"/>
	<path class="st1" d="M689.8,363.3v86.6c0,0.9-0.7,1.6-1.6,1.6h-80.8c-0.9,0-1.6-0.7-1.6-1.6v-86.6"/>
	<path class="st1" d="M438.9,444.1c0-22.8,17.7-41.4,39.6-41.4h87.9c21.9,0,39.6,18.5,39.6,41.4"/>
	<path class="st0" d="M373.5,552.4V451.5c0-5.5-8.5-5.5-8.5,0v100.9C364.9,557.9,373.5,557.9,373.5,552.4z"/>
	<path class="st0" d="M396,552.4V451.5c0-5.5-8.5-5.5-8.5,0v100.9C387.4,557.9,396,557.9,396,552.4z"/>
	<path class="st0" d="M648.8,451.8v100.6c0,5.5,8.5,5.5,8.5,0V451.8C657.4,446.3,648.8,446.3,648.8,451.8z"/>
	<path class="st0" d="M671.3,451.8v100.6c0,5.5,8.5,5.5,8.5,0V451.8C679.8,446.3,671.3,446.3,671.3,451.8z"/>
	<path class="st0" d="M364.9,634.7v172.8c0,8-0.3,16,0,24c0,0.1,0,0.2,0,0.3c0,5.5,8.5,5.5,8.5,0V659c0-8,0.3-16,0-24
		c0-0.1,0-0.2,0-0.3C373.5,629.2,364.9,629.2,364.9,634.7z"/>
	<path class="st0" d="M387.4,634.7v172.8c0,8-0.3,16,0,24c0,0.1,0,0.2,0,0.3c0,5.5,8.5,5.5,8.5,0V659c0-8,0.3-16,0-24
		c0-0.1,0-0.2,0-0.3C396,629.2,387.4,629.2,387.4,634.7z"/>
	<path class="st0" d="M648.8,635.3v167.3c0,9.5-0.3,19.1,0,28.7c0,0.2,0,0.3,0,0.4c0,5.5,8.5,5.5,8.5,0V635.3
		C657.4,629.8,648.8,629.8,648.8,635.3z"/>
	<path class="st0" d="M679.8,831.7V635.3c0-5.5-8.5-5.5-8.5,0v167.3c0,9.5-0.3,19.1,0,28.7c0,0.2,0,0.3,0,0.4
		C671.3,837.2,679.8,837.2,679.8,831.7z"/>
	<path class="st1" d="M359.2,552.4h326.4c0.9,0,1.6,0.7,1.6,1.6v79.2c0,0.9-0.7,1.6-1.6,1.6H359.2c-0.9,0-1.6-0.7-1.6-1.6V554
		C357.6,553.1,358.3,552.4,359.2,552.4z"/>
	<path class="st1" d="M642.1,552.4V592c0,0.9-0.7,1.6-1.6,1.6H404.3c-0.9,0-1.6-0.7-1.6-1.6v-39.6"/>
	<path class="st0" d="M440,552.4v41.2c0,5.5,8.5,5.5,8.5,0v-41.2C448.5,546.9,440,546.9,440,552.4z"/>
	<path class="st0" d="M462.3,552.4v41.2c0,5.5,8.5,5.5,8.5,0v-41.2C470.9,546.9,462.3,546.9,462.3,552.4z"/>
	<path class="st0" d="M484.6,552.4v41.2c0,5.5,8.5,5.5,8.5,0v-41.2C493.2,546.9,484.6,546.9,484.6,552.4z"/>
	<path class="st0" d="M506.9,552.4v41.2c0,5.5,8.5,5.5,8.5,0v-41.2C515.5,546.9,506.9,546.9,506.9,552.4z"/>
	<path class="st0" d="M529.3,552.4v41.2c0,5.5,8.5,5.5,8.5,0v-41.2C537.8,546.9,529.3,546.9,529.3,552.4z"/>
	<path class="st0" d="M551.6,552.4v41.2c0,5.5,8.5,5.5,8.5,0v-41.2C560.1,546.9,551.6,546.9,551.6,552.4z"/>
	<path class="st0" d="M573.9,552.4v41.2c0,5.5,8.5,5.5,8.5,0v-41.2C582.5,546.9,573.9,546.9,573.9,552.4z"/>
	<path class="st0" d="M596.2,552.4v41.2c0,5.5,8.5,5.5,8.5,0v-41.2C604.8,546.9,596.2,546.9,596.2,552.4z"/>
	<path class="st0" d="M829.4,593.2v44c0,5.5,8.5,5.5,8.5,0v-44C837.9,587.7,829.4,587.7,829.4,593.2z"/>
	<path class="st0" d="M855.5,593.2v44c0,5.5,8.5,5.5,8.5,0v-44C864.1,587.7,855.5,587.7,855.5,593.2z"/>
	<path class="st0" d="M881.7,593.2v44c0,5.5,8.5,5.5,8.5,0v-44C890.3,587.7,881.7,587.7,881.7,593.2z"/>
	<path class="st0" d="M907.9,593.2v44c0,5.5,8.5,5.5,8.5,0v-44C916.4,587.7,907.9,587.7,907.9,593.2z"/>
	<path class="st0" d="M934,593.2v44c0,5.5,8.6,5.5,8.6,0v-44C942.6,587.7,934,587.7,934,593.2z"/>
	<path class="st0" d="M960.2,593.2v44c0,5.5,8.6,5.5,8.6,0v-44C968.7,587.7,960.2,587.7,960.2,593.2z"/>
	<path class="st1" d="M689.8,417.5h155.8c0.9,0.1,1.5,0.9,1.4,1.8c0,0.3-0.2,0.7-0.4,0.9l-23.4,26.1c-0.2,0.3-0.6,0.5-1,0.5H689.8"
		/>
	<path class="st1" d="M568.1,444.4h-91.8c-0.4,0-0.7-0.2-1-0.4l-9.5-10.8c-0.6-0.7-0.6-1.7,0.1-2.3c0.2-0.2,0.6-0.4,0.9-0.4H578
		c0.9,0.1,1.5,0.9,1.4,1.8c0,0.3-0.2,0.6-0.4,0.9l-9.9,10.8C568.8,444.2,568.5,444.4,568.1,444.4z"/>
	<rect x="487.7" y="444.4" class="st1" width="69.4" height="108"/>
	<path class="st1" d="M275.6,659.6l11.7,14.7c0.3,0.3,0.7,0.6,1.1,0.6h80.8v-18.9h-92.5C275.3,655.9,274.6,658.3,275.6,659.6z"/>
	<rect x="478.7" y="674.8" class="st1" width="87.3" height="157"/>
	<line class="st1" x1="362.1" y1="334.5" x2="362.1" y2="299"/>
	<line class="st1" x1="685.9" y1="299" x2="685.9" y2="334.5"/>
	<path class="st1" d="M362.1,299v-19.4c0-0.9,0.7-1.6,1.6-1.6h78c0.9,0,1.6,0.7,1.6,1.6V299"/>
	<path class="st0" d="M528.3,250.4v-30c0-5.5-8.5-5.5-8.5,0v30C519.7,255.9,528.3,255.9,528.3,250.4z"/>
	<path class="st0" d="M534.3,269c12.2,4.1,20.5,15.4,20.7,28.2c0.1,5.5,8.6,5.5,8.5,0c-0.2-16.8-11.2-31-27-36.5
		C531.3,258.9,529.1,267.2,534.3,269L534.3,269z"/>
	<path class="st0" d="M493,297.2c0.2-12.8,8.5-24.1,20.7-28.2c5.2-1.8,3-10-2.3-8.2c-15.7,5.4-26.8,19.6-27,36.5
		C484.4,302.7,492.9,302.7,493,297.2L493,297.2z"/>
	<path class="st0" d="M563.6,299c0.2-7.9,6.5-16,14.8-16s14.7,8.2,14.8,16c0.1,5.5,8.7,5.5,8.5,0c-0.2-12.5-10.3-24.6-23.4-24.6
		S555.3,286.5,555,299C554.9,304.5,563.5,304.5,563.6,299z"/>
	<path class="st0" d="M454.8,299c0.2-7.9,6.5-16,14.8-16s14.7,8.2,14.8,16c0.1,5.5,8.7,5.5,8.5,0c-0.2-12.5-10.3-24.6-23.4-24.6
		s-23.1,12.1-23.4,24.6C446.2,304.5,454.7,304.5,454.8,299z"/>
	<ellipse class="st1" cx="524" cy="262.6" rx="11.7" ry="12.2"/>
	<path class="st1" d="M604.7,299v-19.4c0-0.9,0.7-1.6,1.6-1.6h78c0.9,0,1.6,0.7,1.6,1.6V299"/>
	<path class="st0" d="M391.3,278.1c0.2-5.2,7-7.9,11.4-7.9s11.2,2.6,11.4,7.9c0.2,5.5,8.8,5.5,8.5,0c-0.4-10.1-10.6-16.4-19.9-16.4
		s-19.6,6.3-19.9,16.4C382.6,283.6,391.2,283.6,391.3,278.1L391.3,278.1z"/>
	<path class="st0" d="M633.9,278.1c0.2-5.2,7-7.9,11.4-7.9s11.2,2.6,11.4,7.9c0.2,5.5,8.8,5.5,8.5,0c-0.4-10.1-10.6-16.4-19.9-16.4
		s-19.6,6.3-19.9,16.4C625.2,283.6,633.7,283.6,633.9,278.1z"/>
	<path class="st1" d="M356.8,363.3l-24.1-26.2c-0.6-0.6-0.6-1.6,0.1-2.2c0.3-0.2,0.6-0.4,0.9-0.4h377.4c0.9,0.1,1.5,0.8,1.4,1.7
		c0,0.4-0.2,0.7-0.4,1l-24.7,26.2"/>
	<line class="st1" x1="391.7" y1="478.3" x2="391.7" y2="469.7"/>
	<line class="st1" x1="311.8" y1="483.9" x2="311.8" y2="584.1"/>
	<path class="st1" d="M369.2,470v13.9h-67.4c-0.4,0-0.7-0.2-1-0.4l-9.6-10.8c-0.6-0.7-0.6-1.7,0.1-2.3c0.2-0.2,0.6-0.4,0.9-0.4
		H369.2z"/>
	<path class="st0" d="M246.7,280.8h-191c-8.8,0-17.7-0.3-26.5,0h-0.4c-5.5,0-5.5,8.5,0,8.5h191c8.8,0,17.7,0.3,26.5,0h0.4
		C252.2,289.4,252.2,280.8,246.7,280.8L246.7,280.8z"/>
	<path class="st0" d="M246.7,297.4h-191c-8.8,0-17.7-0.3-26.5,0h-0.4c-5.5,0-5.5,8.5,0,8.5h191c8.8,0,17.7,0.3,26.5,0h0.4
		C252.2,305.9,252.2,297.4,246.7,297.4L246.7,297.4z"/>
	<path class="st0" d="M256.4,67.3h-23.4l-56.4,0.1l-68,0.1l-59,0.1c-9.5,0-19.1-0.3-28.6,0h-0.4c-5.5,0-5.5,8.6,0,8.6h23.4l56.4-0.1
		l68-0.1l59-0.1c9.5,0,19.1,0.3,28.6,0h0.4C261.9,75.9,261.9,67.3,256.4,67.3L256.4,67.3z"/>
	<path class="st0" d="M235.9,372.5H50.6c-8.5,0-17.1-0.4-25.6,0h-0.4c-4.2,0-4.2,6.5,0,6.5h185.2c8.5,0,17.1,0.4,25.6,0h0.4
		C240,379.1,240,372.5,235.9,372.5L235.9,372.5z"/>
	<path class="st1" d="M94.2,662.6h4.6c13.2,0,23.9,10.7,23.9,23.9v145.3l0,0H70.3l0,0V686.5C70.3,673.3,81,662.6,94.2,662.6z"/>
	<path class="st1" d="M176.6,662.6h4.7c13.2,0,23.9,10.7,23.9,23.9l0,0v145.3l0,0h-52.4l0,0V686.5
		C152.8,673.3,163.5,662.7,176.6,662.6z"/>
	<path class="st0" d="M60.2,660H39.4c-5.5,0-5.5,8.5,0,8.5h20.8C65.7,668.6,65.7,660,60.2,660z"/>
	<path class="st0" d="M236.1,660h-22.8c-5.5,0-5.5,8.5,0,8.5h22.8C241.6,668.6,241.6,660,236.1,660L236.1,660z"/>
	<path class="st0" d="M142.7,660h-11.9c-5.5,0-5.5,8.5,0,8.5h11.9C148.2,668.6,148.2,660,142.7,660z"/>
	<path class="st1" d="M60.2,664.3c0-16.1,14.3-28.5,32-28.5h6.6c17.7,0,32,12.3,32,28.5"/>
	<path class="st1" d="M142.7,664.3c0-16.1,14.3-28.5,32-28.5h6.6c17.7,0,32,12.3,32,28.5"/>
	<path class="st0" d="M60.2,126.2H39.4c-5.5,0-5.5,8.5,0,8.5h20.9C65.7,134.7,65.7,126.2,60.2,126.2L60.2,126.2z"/>
	<path class="st0" d="M236.1,126.2h-22.8c-5.5,0-5.5,8.5,0,8.5h22.8C241.6,134.7,241.6,126.2,236.1,126.2z"/>
	<path class="st0" d="M142.7,126.2h-11.9c-5.5,0-5.5,8.5,0,8.5h11.9C148.2,134.7,148.2,126.2,142.7,126.2z"/>
	<path class="st1" d="M60.2,130.4c0-16.1,14.3-28.5,32-28.5h6.6c17.7,0,32,12.4,32,28.5"/>
	<path class="st1" d="M142.7,130.4c0-16.1,14.3-28.5,32-28.5h6.6c17.7,0,32,12.4,32,28.5"/>
	<path class="st1" d="M94.2,130.4h4.6c13.2,0,23.9,10.7,23.9,23.9v130.8l0,0H70.3l0,0V154.3C70.3,141.1,81,130.4,94.2,130.4
		L94.2,130.4L94.2,130.4z"/>
	<path class="st1" d="M205.2,285.1h-52.4V154.3c0-13.2,10.7-23.9,23.9-23.9c0,0,0,0,0,0h4.7c13.2,0,23.9,10.7,23.9,23.9V285.1z"/>
	<rect x="65" y="466.8" class="st1" width="57.4" height="147.9"/>
	<rect x="151.1" y="466.8" class="st1" width="57.4" height="147.9"/>
	<rect x="97" y="410.7" class="st1" width="82.5" height="21.3"/>
	<rect x="39.2" y="410.7" class="st1" width="41.4" height="21.3"/>
	<rect x="194.9" y="410.7" class="st1" width="41" height="21.3"/>
	<rect x="97" y="319.9" class="st1" width="82.5" height="21.3"/>
	<rect x="39.2" y="319.9" class="st1" width="41.4" height="21.3"/>
	<rect x="194.9" y="319.9" class="st1" width="41" height="21.3"/>
	<path class="st1" d="M237.2,88.5h-198c-0.4,0-0.7-0.1-1-0.4l-33.6-31c-0.5-0.5-0.5-1.3-0.1-1.8c0.3-0.3,0.7-0.4,1.1-0.4h265.7
		c0.7-0.1,1.3,0.4,1.4,1.1c0,0.4-0.1,0.8-0.4,1.1l-34.2,31C238,88.4,237.6,88.5,237.2,88.5z"/>
	<path class="st1" d="M235.8,360.5H11.6c-0.9,0-1.6,0.7-1.6,1.6c0,0.4,0.2,0.9,0.5,1.1l29.3,26.5h195.9"/>
	<line class="st1" x1="732.6" y1="483.9" x2="732.6" y2="584.1"/>
	<path class="st1" d="M675.6,483.9h67.1c0.4,0,0.7-0.2,1-0.4l9.6-10.8c0.6-0.7,0.6-1.7-0.1-2.3c-0.2-0.2-0.6-0.4-0.9-0.4h-76.7"/>
	<path class="st1" d="M40.1,54.9l-3.3-37.4c-0.2-0.7,0.6-1.3,1.6-1.3l48.5-12h99.7l50.6,12c1,0,1.7,0.6,1.6,1.3l-3.3,37.4"/>
	<path class="st1" d="M234.3,54.9l1.8-20.5c0.2-0.7-0.6-1.3-1.5-1.3l-49.3-9h-97l-47.3,9c-0.9,0-1.7,0.6-1.5,1.3l1.8,20.5"/>
	<line class="st1" x1="295.8" y1="675.1" x2="295.8" y2="831.9"/>
	<polyline class="st1" points="39.2,360.5 39.2,88.5 235.9,88.5 235.9,389.7 235.9,831.9 39.2,831.9 39.2,389.1 	"/>
	<line class="st1" x1="604.7" y1="299" x2="604.7" y2="334.5"/>
	<line class="st1" x1="443.3" y1="334.5" x2="443.3" y2="299"/>
	<path class="st0" d="M407,263.5v-21.6c0-5.5-8.5-5.5-8.5,0v21.6C398.4,269,407,269,407,263.5L407,263.5z"/>
	<path class="st0" d="M404.3,266.1c-0.1,0.6-0.1,0.8-0.1,0.4c0.1-0.3,0-0.3-0.1,0.1c-0.2,0.3-0.2,0.3,0,0l-0.4,0.5l-0.5,0.4
		c0.3-0.2,0.3-0.2-0.1,0c-0.3,0.2-0.4,0.2-0.1,0.1c0.3-0.1,0.2,0-0.5,0.1c-0.2,0-0.9-0.2-0.4,0c-0.6-0.3-0.7-0.3-0.4-0.2
		c0.3,0.2,0.2,0.1-0.1-0.1c-0.1-0.2-0.8-1-0.5-0.4l-0.2-0.5c0.1,0.5,0.1,0.4,0-0.3c0.1,2.4,2.1,4.2,4.5,4.1c2.2-0.1,4-1.9,4.1-4.1
		c0-3.8-3.1-6.9-6.9-6.9s-6.9,3.1-6.9,6.9c0,0,0,0,0,0c0,2.4,1.9,4.3,4.3,4.3C402.4,270.4,404.3,268.5,404.3,266.1L404.3,266.1z"/>
	<path class="st0" d="M646.9,266.1c-0.1,0.6-0.1,0.8-0.1,0.4c0.1-0.3,0-0.3-0.1,0.1c-0.2,0.3-0.2,0.3,0,0l-0.3,0.5l-0.5,0.4
		c0.3-0.2,0.3-0.2-0.1,0c-0.3,0.2-0.4,0.2-0.2,0.1c0.3-0.1,0.2,0-0.5,0.1c-0.2,0-0.9-0.2-0.3,0c-0.6-0.3-0.7-0.3-0.4-0.2
		s0.2,0.1-0.1-0.1c-0.1-0.2-0.8-1-0.5-0.4l-0.2-0.5c0.1,0.5,0.1,0.4,0-0.3c0.1,2.4,2.1,4.2,4.5,4.1c2.2-0.1,4-1.9,4.1-4.1
		c0-3.8-3.1-6.9-6.9-6.9c-3.8,0-6.9,3.1-6.9,6.9c0,2.4,1.9,4.3,4.3,4.3C645,270.4,646.9,268.5,646.9,266.1L646.9,266.1z"/>
	<path class="st0" d="M649.6,263.5v-21.6c0-5.5-8.5-5.5-8.5,0v21.6C641,269,649.6,269,649.6,263.5L649.6,263.5z"/>
	<path class="st1" d="M770.3,659.6l-11.8,14.7c-0.3,0.4-0.7,0.6-1.1,0.6h-81.8v-18.9h93.6C770.7,655.9,771.4,658.3,770.3,659.6z"/>
	<line class="st1" x1="750.2" y1="675.1" x2="750.2" y2="831.9"/>
	<path class="st1" d="M687.1,629h92.7c0.9,0,1.6-0.7,1.6-1.6v-41.8c0-0.9-0.7-1.6-1.6-1.6h-92.7"/>
	<path class="st1" d="M357.6,584.1h-92.7c-0.9,0-1.6,0.7-1.6,1.6v41.8c0,0.9,0.7,1.6,1.6,1.6h92.7"/>
	<path class="st1" d="M576.5,674.8H467.9c-0.5,0-0.9-0.2-1.1-0.6l-11.4-14.7c-1-1.3-0.3-3.7,1.1-3.7h131.7c1.5,0,2.2,2.3,1.1,3.7
		l-11.8,14.7C577.3,674.6,576.9,674.8,576.5,674.8z"/>
</g>
<g id="base">
	<path class="st0" d="M19.8,837.9h832.9c11.3,0,22.5,0.2,33.8,0h1.5c7.7,0,7.7-12,0-12H55c-11.3,0-22.5-0.2-33.8,0h-1.5
		C12.1,825.9,12.1,837.9,19.8,837.9z"/>
	<path class="st0" d="M940.9,838.5h65.8c7.7,0,7.7-12,0-12h-65.8C933.2,826.5,933.2,838.5,940.9,838.5z"/>
</g>
</svg>
