<?xml version="1.0" encoding="utf-8"?>
<!-- Generator: Adobe Illustrator 21.0.0, SVG Export Plug-In . SVG Version: 6.00 Build 0)  -->
<svg version="1.1" id="Layer_1" xmlns="http://www.w3.org/2000/svg" xmlns:xlink="http://www.w3.org/1999/xlink" x="0px" y="0px"
	 viewBox="0 0 1162.2 514.8" style="enable-background:new 0 0 1162.2 514.8;" xml:space="preserve">
<style type="text/css">
	.st0{fill:#494949;}
	.st1{fill:none;stroke:#494949;stroke-width:8.55;stroke-miterlimit:10;}
	.st2{fill:none;stroke:#494949;stroke-width:6;stroke-miterlimit:10;}
</style>
<title>Pictograma_Praça Prisco</title>
<g id="base">
	<path class="st0" d="M1156.4,502.7H58.1c-14.8,0-29.6-0.3-44.5,0c-0.6,0-1.3,0-1.9,0c-7.7,0-7.7,12,0,12H1110
		c14.8,0,29.7,0.3,44.5,0c0.7,0,1.3,0,1.9,0C1164.1,514.7,1164.1,502.7,1156.4,502.7z"/>
</g>
<g id="Praça_Prisco">
	<path class="st1" d="M50.3,479.1h338.4c0.9,0,1.6,0.7,1.6,1.6v26.1c0,0.9-0.7,1.6-1.6,1.6H50.3c-0.9,0-1.6-0.7-1.6-1.6v-26.1
		C48.7,479.8,49.4,479.1,50.3,479.1z"/>
	<path class="st1" d="M290,183.9l144.2,144.2c0.6,0.6,0.6,1.6,0,2.2L290,474.5c-0.6,0.6-1.6,0.6-2.2,0L143.6,330.3
		c-0.6-0.6-0.6-1.6,0-2.2l144.2-144.2C288.4,183.3,289.4,183.3,290,183.9z"/>
	<path class="st1" d="M255.3,183.9l144.2,144.2c0.6,0.6,0.6,1.6,0,2.2L255.3,474.5c-0.6,0.6-1.6,0.6-2.2,0L108.9,330.3
		c-0.6-0.6-0.6-1.6,0-2.2l144.2-144.2C253.7,183.3,254.7,183.3,255.3,183.9z"/>
	<path class="st1" d="M220.6,183.9l144.2,144.2c0.6,0.6,0.6,1.6,0,2.2L220.6,474.5c-0.6,0.6-1.6,0.6-2.2,0L74.1,330.3
		c-0.6-0.6-0.6-1.6,0-2.2l144.2-144.2C219,183.3,219.9,183.3,220.6,183.9z"/>
	<path class="st1" d="M185.9,183.9l144.2,144.2c0.6,0.6,0.6,1.6,0,2.2L185.9,474.5c-0.6,0.6-1.6,0.6-2.2,0L39.4,330.3
		c-0.6-0.6-0.6-1.6,0-2.2l144.2-144.2C184.3,183.3,185.2,183.3,185.9,183.9z"/>
	<path class="st1" d="M151.1,183.9l144.2,144.2c0.6,0.6,0.6,1.6,0,2.2L151.1,474.5c-0.6,0.6-1.6,0.6-2.2,0L4.7,330.3
		c-0.6-0.6-0.6-1.6,0-2.2l144.2-144.2C149.5,183.3,150.5,183.3,151.1,183.9z"/>
	<path class="st2" d="M419.9,436.3h67.2c0.9,0,1.6,0.7,1.6,1.6v69.2c0,0.9-0.7,1.6-1.6,1.6h-67.2c-0.9,0-1.6-0.7-1.6-1.6v-69.2
		C418.4,437,419.1,436.3,419.9,436.3z"/>
	<path class="st2" d="M436.2,451.3h34.7c0.9,0,1.6,0.7,1.6,1.6v39.3c0,0.9-0.7,1.6-1.6,1.6h-34.7c-0.9,0-1.6-0.7-1.6-1.6v-39.3
		C434.6,452,435.3,451.3,436.2,451.3z"/>
	<path class="st2" d="M409.9,426h87.2c0.9,0,1.6,0.7,1.6,1.6v7.2c0,0.9-0.7,1.6-1.6,1.6h-87.2c-0.9,0-1.6-0.7-1.6-1.6v-7.2
		C408.4,426.7,409.1,426,409.9,426z"/>
	<path class="st2" d="M473.2,404.5c0.2,0.3,0.3,0.6,0.3,0.9v19.1c0,0.9-0.7,1.6-1.6,1.6h-34.7c-0.9,0-1.6-0.7-1.6-1.6v-18.8"/>
	<ellipse class="st2" cx="454.6" cy="362.3" rx="10.6" ry="13"/>
	<path class="st2" d="M449.2,372.2c0,0-7.1,14.4-21.2,12.3c-0.9-0.1-1.6,0.5-1.8,1.3c0,0.1,0,0.2,0,0.2v9.9c0,0.9,0.7,1.6,1.6,1.6
		h3.7c0.8,0,1.4,0.6,1.5,1.3c0.5,3.8,3.6,14.7,21.6,14.7"/>
	<path class="st2" d="M458.9,372.2c0,0,7.1,14.4,21.2,12.3c0.9-0.1,1.6,0.5,1.8,1.3c0,0.1,0,0.2,0,0.2v9.9c0,0.9-0.7,1.6-1.6,1.6
		h-3.7c-0.8,0-1.4,0.6-1.5,1.3c-0.5,3.8-3.6,14.7-21.6,14.7"/>
	<path class="st1" d="M528.8,508.7H514c-0.9,0-1.6-0.7-1.6-1.6c0,0,0,0,0,0l5.5-343.5h6.9l5.5,343.5
		C530.4,508,529.7,508.7,528.8,508.7L528.8,508.7z"/>
	<path class="st1" d="M520,139l-1-0.8c-46.8-37.6-84.9-2.4-91.1,4c-0.5,0.5-0.6,1.2-0.2,1.8"/>
	<path class="st1" d="M436.8,144c66.2-30.3,81.2,19.7,81.2,19.7"/>
	<path class="st1" d="M518.8,138l0.2,0.2c0.6,0.5,1.4,0.5,2,0c46.8-37.6,86.9-2.4,93.4,4c0.5,0.5,0.6,1.2,0.3,1.8"/>
	<path class="st1" d="M605.6,144L605.6,144c-66.1-30.3-80.8,19.7-80.8,19.7"/>
	<path class="st1" d="M605.6,144h35.2c0.9,0,1.6,0.7,1.6,1.6v15.5c0,0.9-0.7,1.6-1.6,1.6h-35.2c-0.9,0-1.6-0.7-1.6-1.6v-15.5
		C604.1,144.7,604.8,144,605.6,144z"/>
	<path class="st1" d="M403.1,144h35.2c0.9,0,1.6,0.7,1.6,1.6v15.5c0,0.9-0.7,1.6-1.6,1.6h-35.2c-0.9,0-1.6-0.7-1.6-1.6v-15.5
		C401.6,144.7,402.3,144,403.1,144z"/>
	<path class="st1" d="M566.9,274.3H959c0.9,0,1.6,0.7,1.6,1.6v230.9c0,0.9-0.7,1.6-1.6,1.6H566.9c-0.9,0-1.6-0.7-1.6-1.6V275.9
		C565.3,275,566,274.3,566.9,274.3z"/>
	<path class="st1" d="M608.6,323.9H738c0.9,0,1.6,0.7,1.6,1.6v180.9c0,0.9-0.7,1.6-1.6,1.6H608.6c-0.9,0-1.6-0.7-1.6-1.6V325.5
		C607.1,324.6,607.8,323.9,608.6,323.9z"/>
	<path class="st1" d="M608.6,463.2H738c0.9,0,1.6,0.7,1.6,1.6v27.2c0,0.9-0.7,1.6-1.6,1.6H608.6c-0.9,0-1.6-0.7-1.6-1.6v-27.2
		C607.1,463.9,607.8,463.2,608.6,463.2z"/>
	<path class="st1" d="M787.9,463.2h129.3c0.9,0,1.6,0.7,1.6,1.6v27.2c0,0.9-0.7,1.6-1.6,1.6H787.9c-0.9,0-1.6-0.7-1.6-1.6v-27.2
		C786.4,463.9,787.1,463.2,787.9,463.2z"/>
	<path class="st1" d="M787.9,323.9h129.3c0.9,0,1.6,0.7,1.6,1.6v180.9c0,0.9-0.7,1.6-1.6,1.6H787.9c-0.9,0-1.6-0.7-1.6-1.6V325.5
		C786.4,324.6,787.1,323.9,787.9,323.9z"/>
	<path class="st1" d="M563.7,420.6h-12.4c-0.9,0-1.6-0.7-1.6-1.6v-93.5c0-0.9,0.7-1.6,1.6-1.6h12.4c0.9,0,1.6,0.7,1.6,1.6V419
		C565.3,419.9,564.6,420.6,563.7,420.6z"/>
	<path class="st2" d="M1002.6,351.8h8.4c0.9,0,1.6,0.7,1.6,1.6v153.4c0,0.9-0.7,1.6-1.6,1.6h-8.4c-0.9,0-1.6-0.7-1.6-1.6V353.4
		C1001.1,352.5,1001.8,351.8,1002.6,351.8z"/>
	<path class="st2" d="M979.1,275.6h55.4c0.9,0,1.6,0.7,1.6,1.6v73.1c0,0.9-0.7,1.6-1.6,1.6h-55.4c-0.9,0-1.6-0.7-1.6-1.6v-73.1
		C977.6,276.3,978.3,275.6,979.1,275.6z"/>
	<path class="st2" d="M991.1,290.4h31.4c0.9,0,1.6,0.7,1.6,1.6v43.5c0,0.9-0.7,1.6-1.6,1.6h-31.4c-0.9,0-1.6-0.7-1.6-1.6V292
		C989.6,291.1,990.3,290.4,991.1,290.4z"/>
	<path class="st2" d="M610,323.7h13.3c0.9,0,1.6,0.7,1.6,1.6v7.9c0,0.9-0.7,1.6-1.6,1.6H610c-0.9,0-1.6-0.7-1.6-1.6v-7.9
		C608.5,324.4,609.2,323.7,610,323.7z"/>
	<path class="st2" d="M626.4,323.7h13.3c0.9,0,1.6,0.7,1.6,1.6v7.9c0,0.9-0.7,1.6-1.6,1.6h-13.3c-0.9,0-1.6-0.7-1.6-1.6v-7.9
		C624.9,324.4,625.6,323.7,626.4,323.7z"/>
	<path class="st2" d="M642.8,323.7h13.3c0.9,0,1.6,0.7,1.6,1.6v7.9c0,0.9-0.7,1.6-1.6,1.6h-13.3c-0.9,0-1.6-0.7-1.6-1.6v-7.9
		C641.2,324.4,641.9,323.7,642.8,323.7z"/>
	<path class="st2" d="M659.2,323.7h13.3c0.9,0,1.6,0.7,1.6,1.6v7.9c0,0.9-0.7,1.6-1.6,1.6h-13.3c-0.9,0-1.6-0.7-1.6-1.6v-7.9
		C657.6,324.4,658.3,323.7,659.2,323.7z"/>
	<path class="st2" d="M675.6,323.7h13.3c0.9,0,1.6,0.7,1.6,1.6v7.9c0,0.9-0.7,1.6-1.6,1.6h-13.3c-0.9,0-1.6-0.7-1.6-1.6v-7.9
		C674,324.4,674.7,323.7,675.6,323.7z"/>
	<path class="st2" d="M692,323.7h13.3c0.9,0,1.6,0.7,1.6,1.6v7.9c0,0.9-0.7,1.6-1.6,1.6H692c-0.9,0-1.6-0.7-1.6-1.6v-7.9
		C690.4,324.4,691.1,323.7,692,323.7z"/>
	<path class="st2" d="M708.4,323.7h13.3c0.9,0,1.6,0.7,1.6,1.6v7.9c0,0.9-0.7,1.6-1.6,1.6h-13.3c-0.9,0-1.6-0.7-1.6-1.6v-7.9
		C706.8,324.4,707.5,323.7,708.4,323.7z"/>
	<path class="st2" d="M724.7,323.7H738c0.9,0,1.6,0.7,1.6,1.6v7.9c0,0.9-0.7,1.6-1.6,1.6h-13.3c-0.9,0-1.6-0.7-1.6-1.6v-7.9
		C723.2,324.4,723.9,323.7,724.7,323.7z"/>
	<path class="st2" d="M787.9,323.7h13.4c0.9,0,1.6,0.7,1.6,1.6v7.9c0,0.9-0.7,1.6-1.6,1.6h-13.4c-0.9,0-1.6-0.7-1.6-1.6v-7.9
		C786.4,324.4,787.1,323.7,787.9,323.7z"/>
	<path class="st2" d="M804.5,323.7h13.4c0.9,0,1.6,0.7,1.6,1.6v7.9c0,0.9-0.7,1.6-1.6,1.6h-13.4c-0.9,0-1.6-0.7-1.6-1.6v-7.9
		C802.9,324.4,803.6,323.7,804.5,323.7z"/>
	<path class="st2" d="M821,323.7h13.4c0.9,0,1.6,0.7,1.6,1.6v7.9c0,0.9-0.7,1.6-1.6,1.6H821c-0.9,0-1.6-0.7-1.6-1.6v-7.9
		C819.5,324.4,820.2,323.7,821,323.7z"/>
	<path class="st2" d="M837.6,323.7H851c0.9,0,1.6,0.7,1.6,1.6v7.9c0,0.9-0.7,1.6-1.6,1.6h-13.4c-0.9,0-1.6-0.7-1.6-1.6v-7.9
		C836,324.4,836.7,323.7,837.6,323.7z"/>
	<path class="st2" d="M854.2,323.7h13.4c0.9,0,1.6,0.7,1.6,1.6v7.9c0,0.9-0.7,1.6-1.6,1.6h-13.4c-0.9,0-1.6-0.7-1.6-1.6v-7.9
		C852.6,324.4,853.3,323.7,854.2,323.7z"/>
	<path class="st2" d="M870.7,323.7h13.4c0.9,0,1.6,0.7,1.6,1.6v7.9c0,0.9-0.7,1.6-1.6,1.6h-13.4c-0.9,0-1.6-0.7-1.6-1.6v-7.9
		C869.1,324.4,869.8,323.7,870.7,323.7z"/>
	<path class="st2" d="M887.3,323.7h13.4c0.9,0,1.6,0.7,1.6,1.6v7.9c0,0.9-0.7,1.6-1.6,1.6h-13.4c-0.9,0-1.6-0.7-1.6-1.6v-7.9
		C885.7,324.4,886.4,323.7,887.3,323.7z"/>
	<path class="st2" d="M903.8,323.7h13.4c0.9,0,1.6,0.7,1.6,1.6v7.9c0,0.9-0.7,1.6-1.6,1.6h-13.4c-0.9,0-1.6-0.7-1.6-1.6v-7.9
		C902.3,324.4,903,323.7,903.8,323.7z"/>
	<path class="st0" d="M589.1,327.2h333.5c4.5,0,9,0.1,13.5,0h0.6c5.5,0,5.5-8.5,0-8.5H603.2c-4.5,0-9-0.1-13.5,0h-0.6
		C583.6,318.6,583.6,327.2,589.1,327.2L589.1,327.2z"/>
	<path class="st1" d="M1031.3,490.1h115.2c0.9,0,1.6,0.7,1.6,1.6v14.7c0,0.9-0.7,1.6-1.6,1.6h-115.2c-0.9,0-1.6-0.7-1.6-1.6v-14.7
		C1029.7,490.8,1030.4,490.1,1031.3,490.1z"/>
	<path class="st0" d="M1063.2,445.5c0.9,0,1.6,0.7,1.6,1.6v0v19.7c0.1,3.4-0.1,6.9-0.6,10.3c-0.4,1.9-1.2,3.6-2.3,5.1
		c-1.2,1.5-2.8,2.6-4.6,3.3c-2.4,0.9-4.9,1.3-7.5,1.2c-3.7,0-6.5-0.4-8.5-1.3c-1.8-0.8-3.3-2-4.6-3.5c-1.1-1.3-1.8-2.8-2.2-4.5
		c-0.6-3.4-0.9-6.8-0.8-10.3v-20c0-0.9,0.7-1.6,1.6-1.6l0,0h4.7c0.9,0,1.6,0.7,1.6,1.6v0v20.4c-0.1,2.3,0,4.5,0.3,6.8
		c0.3,1.6,1.1,3,2.4,4c1.5,1.1,3.3,1.6,5.2,1.5c1.8,0.1,3.5-0.4,5-1.4c1.1-0.9,1.8-2.1,2-3.5c0.3-2.3,0.4-4.6,0.3-6.9v-20.9
		c0-0.9,0.7-1.6,1.6-1.6l0,0H1063.2 M1063.1,441.5h-4.7c-3.1,0-5.6,2.5-5.6,5.6v20.8c0.1,2.1,0,4.2-0.3,6.2
		c-0.1,0.4-0.3,0.8-0.7,1.1c-0.8,0.4-1.6,0.6-2.5,0.5c-0.9,0.1-1.9-0.2-2.7-0.6c-0.5-0.4-0.9-1-1-1.6c-0.2-2-0.3-4-0.2-6v-20.4
		c0-3.1-2.5-5.6-5.6-5.6h-4.7c-3.1,0-5.6,2.5-5.6,5.6v20c-0.1,3.7,0.2,7.5,0.9,11.1c0.5,2.2,1.6,4.3,3,6.1c1.6,2,3.7,3.6,6,4.6
		c2.5,1.2,5.8,1.7,10.1,1.7c3.1,0.1,6.2-0.4,9.1-1.5c2.4-1,4.4-2.5,6.1-4.4c1.6-2,2.7-4.3,3.2-6.8c0.6-3.7,0.8-7.4,0.7-11.1V447
		C1068.6,444,1066.1,441.5,1063.1,441.5L1063.1,441.5z"/>
	<path class="st0" d="M1102.9,445.5c0.9,0,1.6,0.7,1.6,1.6v0v3.7c0,0.9-0.7,1.6-1.6,1.6l0,0h-15.7c-0.9,0-1.6,0.7-1.6,1.6v0v6.5
		c0,0.9,0.7,1.6,1.6,1.6l0,0h13.1c0.9,0,1.6,0.7,1.6,1.6v0v3.7c0,0.9-0.7,1.6-1.6,1.6l0,0h-13.1c-0.9,0-1.6,0.7-1.6,1.6v0v14.1
		c0,0.9-0.7,1.6-1.6,1.6l0,0h-4.7c-0.9,0-1.6-0.7-1.6-1.6v0v-37.4c0-0.9,0.7-1.6,1.6-1.6l0,0H1102.9 M1102.9,441.5h-23.6
		c-3.1,0-5.6,2.5-5.6,5.6v37.4c0,3.1,2.5,5.6,5.6,5.6h4.8c3.1,0,5.6-2.5,5.6-5.6v-11.6h10.7c3.1,0,5.6-2.5,5.6-5.6v-3.7
		c0-3.1-2.5-5.6-5.6-5.6h-10.7v-1.6h13.3c3.1,0,5.6-2.5,5.6-5.6V447C1108.4,444,1106,441.5,1102.9,441.5L1102.9,441.5z"/>
	<path class="st0" d="M1132.4,444.8c4.3-0.2,8.5,1.4,11.6,4.4c1.6,1.6,2.8,3.6,3.5,5.8c0.3,0.8-0.2,1.7-1,2c0,0-0.1,0-0.1,0
		l-4.7,1.2c-0.1,0-0.2,0-0.4,0c-0.7,0-1.3-0.4-1.5-1.1c-0.5-1.4-1.3-2.6-2.5-3.6c-1.5-1.2-3.4-1.9-5.3-1.8c-2.7-0.1-5.3,1.1-7,3.2
		c-1.8,2.2-2.7,5.6-2.7,10.5c0,5.1,0.9,8.8,2.7,10.9c1.7,2.1,4.2,3.3,6.9,3.3c2,0,3.9-0.7,5.4-2.1c1.4-1.4,2.4-3.1,2.8-5
		c0.2-0.7,0.8-1.1,1.5-1.1c0.2,0,0.3,0,0.5,0.1l4.6,1.5c0.8,0.3,1.3,1.2,1,2c0,0,0,0,0,0c-0.9,3.3-2.8,6.2-5.4,8.3
		c-3,2.2-6.6,3.4-10.3,3.2c-4.9,0.1-9.5-1.9-12.8-5.5c-3.3-3.7-5-8.7-5-15.1c0-6.7,1.7-12,5-15.7c3.4-3.7,8.2-5.8,13.2-5.6
		 M1132.4,440.7c-6.1-0.2-12.1,2.3-16.2,6.9c-4,4.5-6,10.7-6,18.4c0,7.4,2,13.3,6,17.8c4,4.5,9.7,7,15.7,6.8
		c4.6,0.1,9.1-1.3,12.8-4.1c3.2-2.7,5.5-6.2,6.7-10.3c0.9-2.9-0.6-6-3.6-7l-4.6-1.5c-2.9-1-6,0.6-7,3.5c0,0.1,0,0.1,0,0.2
		c-0.3,1.2-0.9,2.3-1.7,3.2c-0.7,0.7-1.7,1-2.7,1c-1.5,0.1-2.9-0.6-3.8-1.8c-0.7-0.8-1.8-3-1.8-8.4c0-3.7,0.6-6.5,1.8-7.9
		c1-1.2,2.5-1.9,4-1.8c1-0.1,2,0.3,2.8,0.9c0.6,0.5,1,1.1,1.3,1.9c0.8,2.2,2.9,3.7,5.2,3.7c0.4,0,0.9-0.1,1.3-0.2l4.7-1.2
		c3-0.7,4.8-3.8,4.1-6.8c0-0.2-0.1-0.3-0.1-0.5c-0.9-2.8-2.4-5.3-4.5-7.4C1143,442.5,1137.8,440.5,1132.4,440.7L1132.4,440.7z"/>
	<path class="st1" d="M823.3,142h306.3c0.9,0,1.6,0.7,1.6,1.6v47.9c0,0.9-0.7,1.6-1.6,1.6H823.3c-0.9,0-1.6-0.7-1.6-1.6v-47.9
		C821.7,142.7,822.4,142,823.3,142z"/>
	<path class="st1" d="M1131.1,444.9V143.6l0,0c0-0.9-0.7-1.6-1.6-1.6l0,0h-49.4"/>
	<line class="st1" x1="1080.1" y1="445.5" x2="1080.1" y2="193"/>
	<path class="st1" d="M819.1,4.7L663.8,146.9c-0.3,0.3-0.5,0.7-0.5,1.2v124.7c0,0.9,0.7,1.6,1.5,1.6c0,0,0,0,0,0h155.3
		c0.9,0,1.5-0.7,1.5-1.6c0,0,0,0,0,0V5.8c0-0.8-0.7-1.5-1.5-1.6C819.8,4.3,819.4,4.4,819.1,4.7z"/>
</g>
</svg>
