<?xml version="1.0" encoding="utf-8"?>
<!-- Generator: Adobe Illustrator 21.0.0, SVG Export Plug-In . SVG Version: 6.00 Build 0)  -->
<svg version="1.1" id="Layer_1" xmlns="http://www.w3.org/2000/svg" xmlns:xlink="http://www.w3.org/1999/xlink" x="0px" y="0px"
	 viewBox="0 0 1156.4 632" style="enable-background:new 0 0 1156.4 632;" xml:space="preserve">
<style type="text/css">
	.st0{fill:#494949;}
	.st1{fill:none;stroke:#494949;stroke-width:8.55;stroke-miterlimit:10;}
	.st2{fill:none;stroke:#494949;stroke-width:5.55;stroke-miterlimit:10;}
	.st3{fill:none;stroke:#494949;stroke-width:7;stroke-miterlimit:10;}
	.st4{fill:none;stroke:#494949;stroke-width:5;stroke-miterlimit:10;}
</style>
<title>Pictograma_Seara</title>
<g>
	<g id="base">
		<path class="st0" d="M1150.6,619.9H171.1c-13.2,0-26.5-0.3-39.7,0c-0.6,0-1.2,0-1.7,0c-7.7,0-7.7,12,0,12h979.5
			c13.2,0,26.5,0.3,39.7,0c0.6,0,1.2,0,1.7,0C1158.3,631.9,1158.3,619.9,1150.6,619.9L1150.6,619.9z"/>
		<path class="st0" d="M83.3,619.9H6c-7.7,0-7.7,12,0,12h77.4C91.1,631.9,91.1,619.9,83.3,619.9z"/>
	</g>
	<g id="Seara">
		<path class="st0" d="M745.3,502.9v122.7c0,5.5,8.5,5.5,8.5,0V502.9C753.9,497.4,745.3,497.4,745.3,502.9z"/>
		<path class="st0" d="M810.8,502.9v122.7c0,5.5,8.5,5.5,8.5,0V502.9C819.4,497.4,810.8,497.4,810.8,502.9z"/>
		<path class="st0" d="M679.8,502.9v122.7c0,5.5,8.5,5.5,8.5,0V502.9C688.4,497.4,679.8,497.4,679.8,502.9z"/>
		<path class="st1" d="M48.3,240.6H5.8c-0.9,0-1.6,0.7-1.6,1.6V507c0,0.9,0.7,1.6,1.6,1.6h333.6c0.9,0,1.6-0.7,1.6-1.6V392.9"/>
		<path class="st1" d="M341,277.1v-35c0-0.9-0.7-1.6-1.6-1.6h-42.5"/>
		<path class="st1" d="M48.3,240.6H5.8c-0.9,0-1.6,0.7-1.6,1.6V507c0,0.9,0.7,1.6,1.6,1.6h333.6c0.9,0,1.6-0.7,1.6-1.6V392.9"/>
		<path class="st1" d="M341,277.1v-35c0-0.9-0.7-1.6-1.6-1.6h-42.5"/>
		<path class="st1" d="M48.3,240.6H5.8c-0.9,0-1.6,0.7-1.6,1.6V507c0,0.9,0.7,1.6,1.6,1.6h333.6c0.9,0,1.6-0.7,1.6-1.6V392.9"/>
		<path class="st1" d="M341,277.1v-35c0-0.9-0.7-1.6-1.6-1.6h-42.5"/>
		<path class="st1" d="M38.5,224.9h268.1c0.9,0,1.6,0.7,1.6,1.6V239c0,0.9-0.7,1.6-1.6,1.6H38.5c-0.9,0-1.6-0.7-1.6-1.6v-12.5
			C37,225.6,37.7,224.9,38.5,224.9z"/>
		<path class="st1" d="M301.2,170c3.3,18.2,2.7,36.9-1.6,54.9"/>
		<path class="st1" d="M41.3,224.9C24,153.5,68,81.6,139.4,64.4c10.2-2.5,20.6-3.7,31.1-3.7c25.7,0,50.8,7.4,72.3,21.4"/>
		<path class="st1" d="M242.8,82.1c1.3-0.1,2.7-0.1,4-0.1c33.6,0,60.8,27.3,60.8,60.9c0,9.4-2.2,18.7-6.4,27.1"/>
		<path class="st1" d="M242.8,82.1l-17.4,12.1c-0.7,0.5-0.9,1.4-0.4,2.1l54.9,81.5c0.4,0.6,1.2,0.9,1.9,0.6l19.4-8.4"/>
		<path class="st1" d="M316.2,300.4v1.8c0,0.9-0.7,1.6-1.6,1.6H289"/>
		<path class="st1" d="M285.5,303.8h-255c-0.9,0-1.6-0.7-1.6-1.6v-33.1c0-0.9,0.7-1.6,1.6-1.6h284.1c0.9,0,1.6,0.7,1.6,1.6V283"/>
		<path class="st1" d="M20.1,508.6h50.3c0.9,0,1.6,0.7,1.6,1.6V624c0,0.9-0.7,1.6-1.6,1.6H20.1c-0.9,0-1.6-0.7-1.6-1.6V510.1
			C18.5,509.3,19.2,508.6,20.1,508.6z"/>
		<path class="st1" d="M274.8,508.6h50.3c0.9,0,1.6,0.7,1.6,1.6V624c0,0.9-0.7,1.6-1.6,1.6h-50.3c-0.9,0-1.6-0.7-1.6-1.6V510.1
			C273.2,509.3,273.9,508.6,274.8,508.6z"/>
		<path class="st1" d="M316.2,444.8v6.2c0,0.9-0.7,1.6-1.6,1.6H30.5c-0.9,0-1.6-0.7-1.6-1.6v-87.1c0-0.9,0.7-1.6,1.6-1.6h251.7"/>
		<path class="st1" d="M149.4,452.6v-12.4c0-0.9,0.7-1.6,1.6-1.6h30.4c0.9,0,1.6-0.7,1.6-1.6v-10.9c0-0.9,0.7-1.6,1.6-1.6h32.9
			c0.9,0,1.6-0.7,1.6-1.6V412c0-0.9,0.7-1.6,1.6-1.6h31.2c0.9,0,1.6-0.7,1.6-1.6v-10.9c0-0.9,0.7-1.6,1.6-1.6c0,0,0,0,0.1,0H288
			c0.3,0,0.5-0.1,0.8-0.2c0.5-0.3,0.8-0.8,0.8-1.4v-1.6"/>
		<path class="st1" d="M813.3,142.1h16.3c7.6,0,13.8,6.2,13.8,13.8l0,0V188c0,0.9-0.7,1.6-1.6,1.6h-40.9c-0.9,0-1.6-0.7-1.6-1.6
			v-32.1C799.5,148.2,805.7,142.1,813.3,142.1L813.3,142.1z"/>
		<path class="st2" d="M815.3,191.9l-7,11.3c-0.4,0.7-1.3,0.9-1.9,0.5c-0.2-0.1-0.3-0.3-0.5-0.5l-6-11.3c-0.3-0.9,0.2-1.9,1.1-2.2
			c0.2-0.1,0.4-0.1,0.6-0.1h12.1c1,0,1.7,0.8,1.7,1.8C815.4,191.5,815.3,191.7,815.3,191.9z"/>
		<path class="st2" d="M829.6,191.9l-7,18.3c-0.4,0.7-1.3,0.9-1.9,0.5c-0.2-0.1-0.3-0.3-0.5-0.5l-7-18.3c-0.3-0.9,0.2-1.9,1.1-2.2
			c0.2-0.1,0.4-0.1,0.6-0.1H828c1,0,1.7,0.8,1.7,1.8C829.6,191.5,829.6,191.7,829.6,191.9z"/>
		<path class="st2" d="M842.8,191.9l-6,11.3c-0.4,0.7-1.3,0.9-1.9,0.5c-0.2-0.1-0.3-0.3-0.5-0.5l-7-11.3c-0.3-0.9,0.2-1.9,1.1-2.2
			c0.2-0.1,0.4-0.1,0.6-0.1h12.1c1,0,1.7,0.8,1.7,1.8C842.9,191.5,842.9,191.7,842.8,191.9z"/>
		<path class="st1" d="M799.5,173.3l-260.7,0.1c-35.8,0-71.2,7.9-103.7,23l-93.3,43.5c-0.6,0.2-0.9,0.8-0.9,1.4v35.8"/>
		<path class="st1" d="M843.5,173.3h222.9c37.7,0,68.2,29.6,68.2,66.2v187.8c0,0.9-0.7,1.6-1.6,1.6H440.8"/>
		<line class="st1" x1="431.6" y1="428.8" x2="430.7" y2="428.8"/>
		<line class="st1" x1="341" y1="427.3" x2="341" y2="392.9"/>
		<rect x="687.2" y="248.1" class="st1" width="111.3" height="111.3"/>
		<line class="st1" x1="742.8" y1="248.1" x2="742.8" y2="359.5"/>
		<path class="st1" d="M742.8,303.8c0,0,3.2-22,27.8-22c27.8,0,27.8,22,27.8,22H687.2"/>
		<path class="st1" d="M742.8,303.8c0,0,22,3.2,22,27.8c0,27.8-22,27.8-22,27.8V248.1"/>
		<path class="st1" d="M742.8,303.8c0,0-3.2,22-27.8,22c-27.8,0-27.8-22-27.8-22h111.3"/>
		<path class="st1" d="M742.8,303.8c0,0-22-3.3-22-27.8c0-27.8,22-27.8,22-27.8v111.3"/>
		<path class="st1" d="M431.6,428.8h-1c-0.9,0-1.6,0.7-1.6,1.6V624c0,0.9,0.7,1.6,1.6,1.6H481c0.9,0,1.6-0.7,1.6-1.6V430.4
			c0-0.9-0.7-1.6-1.6-1.6h-40.2"/>
		<path class="st1" d="M1068.5,625.6h-50.3c-0.9,0-1.6-0.7-1.6-1.6l0,0V430.4c0-0.9,0.7-1.6,1.6-1.6l0,0h50.3c0.9,0,1.6,0.7,1.6,1.6
			l0,0v142.8"/>
		<path class="st1" d="M482.6,467.3v-36.9c0-0.9,0.7-1.6,1.6-1.6h530.9c0.9,0,1.6,0.7,1.6,1.6v36.9c0,0.9-0.7,1.6-1.6,1.6h-531
			C483.3,468.9,482.6,468.2,482.6,467.3z"/>
		<path class="st1" d="M599.9,501.3v-30.9c0-0.9,0.7-1.6,1.6-1.6h296.3c0.9,0,1.6,0.7,1.6,1.6v30.9c0,0.9-0.7,1.6-1.6,1.6H601.5
			C600.6,502.9,599.9,502.2,599.9,501.3z"/>
		<path class="st1" d="M482.6,501.3v-30.9c0-0.9,0.7-1.6,1.6-1.6h530.9c0.9,0,1.6,0.7,1.6,1.6v30.9c0,0.9-0.7,1.6-1.6,1.6h-531
			C483.3,502.9,482.6,502.2,482.6,501.3z"/>
		<path class="st1" d="M599.9,624V470.4c0-0.9,0.7-1.6,1.6-1.6h296.3c0.9,0,1.6,0.7,1.6,1.6V624c0,0.9-0.7,1.6-1.6,1.6H601.5
			C600.6,625.6,599.9,624.9,599.9,624z"/>
		<path class="st1" d="M599.9,484.3v-13.9c0-0.9,0.7-1.6,1.6-1.6h296.3c0.9,0,1.6,0.7,1.6,1.6v13.9c0,0.9-0.7,1.6-1.6,1.6H601.5
			C600.6,485.9,599.9,485.2,599.9,484.3z"/>
		<path class="st1" d="M1064.9,626.4c-10.5,0.3-19.5-8.4-20.1-19.6c-0.4-6,1.8-11.9,6-16.2c-0.4-7.4,4.6-13.8,11.3-15
			c0.5-0.1,1-0.2,1.6-0.2c0.8,0,1.6,0,2.4,0.1c3.3-3.5,7.8-5.6,12.6-6h0.6c2.4-5,7.3-8.3,12.8-8.7c6.9-0.3,13.1,4,15.4,10.5
			c0.6-0.1,1.1-0.2,1.7-0.2c9.1-0.5,16.8,6.8,17.4,16.4c0,0.3,0,0.6,0,0.9c5.4,3.7,8.7,9.7,9,16.3c1.3,21.6-16.1,21.7-18.3,21.8"/>
		<path class="st1" d="M342.5,596.3h67.7c0.9,0,1.6,0.7,1.6,1.6V624c0,0.9-0.7,1.6-1.6,1.6h-67.7c-0.9,0-1.6-0.7-1.6-1.6v-26.1
			C341,597,341.7,596.3,342.5,596.3z"/>
		<path class="st3" d="M776,117.1l16.2,11c0.5,0.6,0.5,1.4,0,2c-0.2,0.2-0.3,0.3-0.5,0.3l-19.4,2.6c-1,0.1-1.8-0.6-1.9-1.6
			c0-0.2,0-0.4,0-0.6l3-12.8c0.2-0.9,1.2-1.5,2.1-1.3C775.7,116.9,775.9,117,776,117.1z"/>
		<path class="st1" d="M703.5,124.3c24.9,25.5,15.7,49,15.7,49h59.7c0,0-17.5-31.2-3.8-88.1"/>
		<path class="st3" d="M778.3,55.4l20,5.4c0.7,0.4,1,1.4,0.5,2.1c-0.1,0.2-0.3,0.4-0.5,0.5l-19.5,9.9c-0.9,0.4-1.9,0.1-2.4-0.7
			c-0.1-0.2-0.2-0.5-0.2-0.8l-0.5-14.3c0-1.1,0.9-2.1,2-2.1C778,55.3,778.1,55.3,778.3,55.4z"/>
		<path class="st3" d="M766.1,37.5l19.2-2.1c0.9-0.1,1.7,0.6,1.7,1.5c0,0.2,0,0.5-0.1,0.7l-9.8,15.3c-0.8,0.9-2.2,1-3.1,0.2
			c-0.1-0.1-0.2-0.2-0.3-0.3l-8.8-12.3c-0.6-0.8-0.4-2,0.4-2.6C765.6,37.6,765.8,37.5,766.1,37.5z"/>
		<path class="st3" d="M754.3,25.5l17.8-7.6c0.8-0.3,1.8,0.1,2.1,1c0.1,0.2,0.1,0.5,0.1,0.7l-4.9,17.5c-0.5,1.1-1.8,1.6-2.9,1.1
			c-0.1-0.1-0.3-0.1-0.4-0.2l-12-9.2c-0.8-0.6-1-1.8-0.4-2.6C753.8,25.8,754,25.6,754.3,25.5z"/>
		<path class="st3" d="M736.1,17.1l14.1-13.2c0.7-0.6,1.7-0.5,2.3,0.2c0.2,0.2,0.3,0.4,0.3,0.6l1.4,18.1c-0.1,1.2-1.2,2.1-2.4,2
			c-0.2,0-0.3,0-0.5-0.1l-14.5-4.6c-1-0.3-1.5-1.3-1.2-2.3C735.8,17.6,735.9,17.3,736.1,17.1z"/>
		<path class="st3" d="M779.2,77l18,7.7c0.6,0.4,0.8,1.3,0.4,2c-0.1,0.2-0.3,0.3-0.5,0.4l-18.5,6.3c-0.9,0.3-1.9-0.2-2.2-1.2
			c-0.1-0.2-0.1-0.4-0.1-0.6l0.5-13.1c0-1,0.8-1.7,1.8-1.7C778.8,76.9,779,76.9,779.2,77z"/>
		<path class="st3" d="M776.5,97.2l16.5,10.5c0.6,0.5,0.6,1.4,0.1,2c-0.1,0.2-0.3,0.3-0.5,0.4l-19.3,3.2c-1,0.1-1.8-0.5-2-1.5
			c0-0.2,0-0.4,0-0.6l2.7-12.9c0.2-0.9,1.1-1.5,2.1-1.4C776.2,97.1,776.3,97.1,776.5,97.2z"/>
		<path class="st0" d="M777.6,93.2c7.3-26.7-2.2-58.8-27.3-72.8c-11.2-6.2-25.4-8.4-37.5-3.6c-11.3,4.4-19.2,13.3-27,22.2
			c-1.8,2.2-3.8,4.2-5.9,6.1l-0.6,0.5c-0.1,0.1-0.9,0.7-0.5,0.4s-0.5,0.4-0.6,0.5l-1.2,0.9c-1.7,1.2-3.5,2.4-5.3,3.5
			c-10.3,6.2-22.2,9.9-34.3,8.8c-6.6-0.6-12.8-3.1-19.3-4.1c-2.8-0.4-5.5-0.5-8.2,0.9c-1.9,1.1-3.5,2.5-4.9,4.2
			c-2.1,2.3-4.1,4.7-6.2,7c-2.7,2.9-6.6,5.8-4.7,10.3c1,2.3,2.4,4.5,3.5,6.7l6.4,12c1.2,2.2,2.2,5,3.9,6.9c2.9,3.3,7.4,1.7,11.1,0.7
			c3.9-1.1,7.8-2.3,11.8-3.4c10.2-3,20.5-5.8,31.1-7.2c4.6-0.7,9.2-0.8,13.8-0.4c0.3,0,0.5,0,0.8,0.1c0.5,0.1,1,0.2,1.4,0.3
			c0.9,0.2,1.8,0.5,2.6,0.8c0.6,0.2-0.6-0.3,0,0c0.2,0.1,0.3,0.1,0.5,0.2c0.4,0.2,0.7,0.4,1.1,0.6s1,0.8,0.4,0.2
			c0.5,0.4,0.9,0.8,1.4,1.2c0.7,0.6,1.3,1.2,1.9,1.9c0.2,0.2,0.9,1.1,0.4,0.4c0.3,0.4,0.5,0.7,0.8,1.1s0.4,0.6,0.5,1
			c0.5,0.9-0.1-0.5,0.1,0.2c0.2,0.6,0.4,1.2,0.5,1.8c-0.2-1.2-0.1,0.3-0.1,0.9c0.1-1.3-0.1,0.3-0.3,0.8s0.4-0.8,0,0
			c-0.2,0.3-0.3,0.5-0.5,0.8s-0.3,0.5-0.5,0.8s0.3-0.3,0.3-0.3c-0.2,0.2-0.3,0.4-0.5,0.5c-0.5,0.5-0.9,0.9-1.4,1.4
			c-0.3,0.2-0.5,0.5-0.8,0.7s0.2-0.2,0.2-0.2l-0.7,0.5c-1.4,0.9-2.8,1.8-4.3,2.6c-3.2,1.7-6.6,3.1-10.1,4.2
			c-7.8,2.6-15.7,4.6-23.7,6.1c-3.2,0.6-6.5,1.2-9.8,1.7l-3.5,0.5l-1.4,0.2c-1.3,0.2,0.6-0.1-0.1,0c-10.7,1.4-10.1,14.9-7.7,22.8
			c1.2,3.7,3,7.3,6.9,8.6c2.6,0.7,5.4,1.1,8.1,1.1c19.9,0.9,41.8-4.8,57.5-17.4c4.4-3.6,8.3-7.9,11.3-12.6l-5.8,1.5l0,0
			c4.9,2.5,9.2-4.9,4.3-7.4l0,0c-2-1.1-4.6-0.5-5.8,1.5c-12.2,18.8-37.4,25.8-58.3,25.9c-1.8,0-3.6,0-5.4-0.2l-1-0.1
			c-1.1-0.1,0.8,0.2-0.2,0c-0.6-0.1-1.2-0.2-1.7-0.3c-0.7-0.2-1.4-0.6-0.3,0c-0.2-0.1-0.6-0.5-0.2-0.1c0.2,0.2,0.3,0,0.2,0.2
			c0.2,0.3,0.2,0.3,0-0.1l-0.2-0.3c-0.2-0.4-0.5-0.9-0.7-1.3c0.3,0.6-0.2-0.6-0.3-0.8c-1.1-3.2-1.5-6.7-1.2-10
			c0.1-0.6,0.2-1.1,0.4-1.7c0.2-0.7-0.2,0.2,0.3-0.6c0.3-0.6-0.1-0.3,0.3-0.4c-0.2,0-0.5,0.3-0.5,0.2s-0.5,0.1,0,0l0.5-0.1l2.3-0.3
			l3.7-0.5c7.8-1.2,15.6-2.7,23.2-4.7c8.5-2.2,17.4-4.8,25-9.3c6.2-3.7,12.1-9.5,10.6-17.3c-1.6-8.4-10.3-14.4-18.3-15.6
			c-11.4-1.7-23.3,0.9-34.4,3.6c-9.6,2.3-19,5.5-28.6,8c-0.7,0.2-1.3,0.3-2,0.5c-0.3,0.1-0.6,0.1-0.8,0.2c-1.1,0.3,1.6,0-0.2-0.1
			l2.2,0.6c1.2,0.6,0.6,1,0.5,0.5c-0.1-0.3-0.3-0.6-0.4-0.8l-1.5-2.8l-4.4-8.3l-4.5-8.3l-1.5-2.7c-0.2-0.4-0.6-1.7-0.4-0.8v2.3
			l-0.6,0.6l0.8-0.9l1.5-1.5c0.9-0.9,1.8-1.9,2.7-2.9c1.5-1.7,3-3.4,4.5-5.1c0.8-1,1.7-1.9,2.7-2.8c-0.7,0.6,0.4-0.3,0.8-0.4
			c0.5-0.1,1.1-0.2,1.6-0.1c0.4,0,0.8,0,1.1,0.2c0.8,0.1,1.5,0.3,2.3,0.5c2.3,0.5,4.6,1.1,7,1.7c5.2,1.4,10.7,2.2,16.1,2.3
			c15.3-0.1,30.2-6.6,42.1-15.9c9.2-7.2,15-17.9,25.1-24.3c14.1-9,32.3-5.4,44.4,5.4c15.9,14.2,21,37.3,15.5,57.5
			C767.9,96.2,776.1,98.5,777.6,93.2L777.6,93.2z"/>
		<path class="st2" d="M633.3,101.8l-6.4,13.2c-0.4,0.8-1.3,1.1-2.1,0.7c-0.2-0.1-0.4-0.3-0.5-0.4l-7.9-11.7c-0.4-1,0-2.1,0.9-2.6
			c0.2-0.1,0.4-0.1,0.6-0.2l13.3-1.4c1.1-0.1,2,0.7,2.1,1.7C633.4,101.4,633.4,101.6,633.3,101.8z"/>
		<path class="st2" d="M650,98.9l-6.4,13.2c-0.4,0.8-1.3,1.1-2.1,0.7c-0.2-0.1-0.4-0.3-0.5-0.4l-7.9-11.7c-0.4-1,0-2.1,0.9-2.6
			c0.2-0.1,0.4-0.1,0.6-0.2l13.3-1.4c1.1-0.1,2,0.7,2.1,1.7C650,98.5,650,98.7,650,98.9z"/>
		<path class="st2" d="M666.6,96.4l-6.4,13.2c-0.4,0.8-1.3,1.1-2.1,0.7c-0.2-0.1-0.4-0.3-0.5-0.4l-7.9-11.7c-0.4-1,0-2.1,0.9-2.6
			c0.2-0.1,0.4-0.1,0.6-0.2l13.3-1.4c1.1-0.1,2,0.7,2.1,1.7C666.7,95.9,666.7,96.2,666.6,96.4z"/>
		<path class="st2" d="M682.8,93.6l-6.4,13.2c-0.4,0.8-1.3,1.1-2.1,0.7c-0.2-0.1-0.4-0.3-0.5-0.4l-8-11.7c-0.4-1,0-2.1,0.9-2.6
			c0.2-0.1,0.4-0.1,0.6-0.2l13.3-1.4c1.1-0.1,2,0.6,2.1,1.7C682.9,93.2,682.9,93.4,682.8,93.6z"/>
		<path class="st4" d="M742.2,120.4L742.2,120.4c9.4-1.9,18.1,5.8,19.4,17.2l3.3,34.4l-33.8,0.9l-3.4-28.4
			C726.4,133.1,732.8,122.3,742.2,120.4z"/>
		<line class="st4" x1="727.8" y1="137.9" x2="761.2" y2="132.5"/>
		<line class="st4" x1="728.6" y1="151.3" x2="764.3" y2="145.4"/>
		<line class="st4" x1="730.2" y1="164.5" x2="764.3" y2="158.9"/>
		<path class="st3" d="M727.8,60.8c0,0.3,0.1,0.6,0.1,1l-26,3.4c-0.1-0.3-0.1-0.6-0.2-0.9c-1.1-8.5,3.9-16.1,11-17
			S726.8,52.3,727.8,60.8z"/>
		<path class="st0" d="M698.2,69.1l33.6-4.3c1.9-0.2,3.5-1.4,3.5-3.5c0-1.7-1.6-3.7-3.5-3.5l-33.6,4.3c-1.9,0.2-3.5,1.4-3.5,3.5
			C694.7,67.3,696.3,69.3,698.2,69.1z"/>
		<path class="st3" d="M82.8,93.6c-4.8,20.2-7.8,40.7-9,61.4c-2,39.4,4,69.3,4,69.3"/>
		<path class="st3" d="M131.3,63.6c0,0-9.1,19-12.9,78.1c-3.9,60,2.7,83.2,2.7,83.2"/>
		<path class="st3" d="M82.8,93.6c-4.8,20.2-7.8,40.7-9,61.4c-2,39.4,4,69.3,4,69.3"/>
		<path class="st3" d="M130,66.9c0,0-7.8,15.7-11.6,74.8c-3.9,60,2.7,83.2,2.7,83.2"/>
		<path class="st3" d="M259.8,147.9c0.2,2.4,0.3,4.7,0.5,7.2c2,39.4-4,69.3-4,69.3"/>
		<path class="st3" d="M202.8,63.6c0,0,9.1,19,12.9,78.1c3.9,60-2.7,83.2-2.7,83.2"/>
		<line class="st3" x1="166.8" y1="60.7" x2="166.8" y2="224.9"/>
	</g>
	<g id="arvore">
		<path class="st0" d="M382.2,395.3c0.8,6.7,1.6,13.3,2.5,19.9l1,6.8l0.3,2.2c0.1,0.5,0.5,1.4,0.1,0.4c-0.3-0.7,0-0.6-0.1-0.1
			s0,0.8,0,1.2l0.6,32.6l1,55.6l0.9,54l0.3,18.9c0,3-0.2,6.1,0.2,9.1c0,0.1,0,0.3,0,0.4l4.3-4.3h-32l4.3,4.3l0.4-23l0.9-52.2l1-57
			l0.6-36.6c0-1,0.1-2.1,0-3.1c0-0.6,0.2-1-0.1,0.7c0.2-1.2,0.3-2.4,0.5-3.7c1-7.3,2.1-14.7,3-22l0.6-4.2c0.3-2.3-2.2-4.3-4.3-4.3
			c-2.6,0-4,2-4.3,4.3c-0.5,3.5-0.9,7-1.4,10.5c-0.2,1.4,0-0.3,0-0.2c-0.1,0.5-0.1,1-0.2,1.6l-0.9,6c-0.6,4.1-1.5,8.3-1.5,12.5
			l-0.6,32.4l-1,55.8l-0.9,54c-0.2,9.3-0.7,18.7-0.5,27.9c0,0.1,0,0.3,0,0.4c-0.1,2.4,1.8,4.4,4.2,4.4h0.1h32c2.4,0,4.3-1.9,4.3-4.3
			l-0.4-22.8l-0.9-52.1l-1-56.8l-0.6-36.9c0-2.5-0.2-5-0.6-7.5l-1.9-13.1c-0.1-0.7-0.2-1.4-0.3-2c-0.2-1.2,0.1-0.4,0,0.3
			c-0.1-1.9-0.3-3.7-0.6-5.5l-0.5-4.6c-0.3-2.3-1.8-4.3-4.3-4.3C384.3,391,381.9,393,382.2,395.3L382.2,395.3z"/>
		<path class="st0" d="M389.5,480c-4.1,0.4-8.2,0.5-12.3,0.3c-3.2-0.1-3.2,4.9,0,5c4.1,0.2,8.2,0,12.3-0.3
			C392.7,484.7,392.7,479.7,389.5,480z"/>
		<path class="st0" d="M363.2,527.1h13c3.2,0,3.2-5,0-5h-13C359.9,522.1,359.9,527.1,363.2,527.1z"/>
		<path class="st0" d="M391.8,566.1h-16.7c-3.2,0-3.2,5,0,5h16.7C395.1,571.1,395.1,566.1,391.8,566.1z"/>
		<path class="st0" d="M389.2,557.1h-8c-3.2,0-3.2,5,0,5h8C392.4,562.1,392.4,557.1,389.2,557.1z"/>
		<path class="st0" d="M364.2,589.1h15.3c3.2,0,3.2-5,0-5h-15.3C360.9,584.1,360.9,589.1,364.2,589.1z"/>
		<path class="st0" d="M389.2,499.4h-15c-3.2,0-3.2,5,0,5h15C392.4,504.4,392.4,499.4,389.2,499.4z"/>
		<path class="st0" d="M366.2,461.4h12c3.2,0,3.2-5,0-5h-12C362.9,456.4,362.9,461.4,366.2,461.4z"/>
		<path class="st1" d="M364.3,435.4c7.3,6.3,18.1,6.9,26,1.3"/>
		<path class="st0" d="M346.7,357.3c-4.8,2.5-9.2,5.7-13,9.5c-9.1,8.6-15.9,19.4-19.7,31.3c-5.9,18.2-5,38.9,0.2,57.2
			c0.9,3.2,4,5.8,7.4,3.8c2.2-1.2,2.5-3.4,2.7-5.7c0.2-2.6,0.5-5.2,0.8-7.8c0.3-2.6,0.8-5.6,1.3-8.9c0.7-3.7,1.4-7.5,2.4-11.2
			c2.1-8.2,4.7-16,9.4-23.1c3.8-5.7,9.3-10,15.6-10.4c5.5-0.3,5.5-8.9,0-8.5c-12.4,0.7-21,9.8-26.3,20.3c-5.5,11-8.4,23.3-10.1,35.4
			c-0.5,3-0.8,6.1-1.2,9.2c-0.1,1.2-0.2,2.3-0.3,3.5c0,0.5-0.1,0.9-0.1,1.4c0,0.2,0,0.5-0.1,0.7s-0.4,0.8,0,0l2-2.5l-0.3,0.2
			l2.2-0.6h-0.4l2.2,0.6l-0.3-0.2l1.5,1.5c-0.6-1-0.7-3-1-4.2c-0.4-1.6-0.7-3.1-1-4.7c-0.6-3.1-1.1-6.1-1.4-9.2
			c-0.6-5.4-0.7-10.8-0.4-16.3c0.5-8.5,2.5-16.9,5.9-24.7c1.5-3.3,3.2-6.4,5.1-9.4c0.9-1.3,1.8-2.7,2.8-4c0.8-1-0.5,0.6,0.3-0.4
			l0.7-0.9c0.5-0.7,1.1-1.3,1.7-2c1.8-2,3.7-3.9,5.6-5.7c0.9-0.8,1.7-1.5,2.6-2.2l0.6-0.5c0.7-0.6-0.8,0.6-0.1,0l1.3-1
			c1.8-1.3,3.6-2.5,5.6-3.5c5-2.4,0.6-9.8-4.3-7.4L346.7,357.3z"/>
		<path class="st0" d="M402.5,364.7c1.6,0.8,3.2,1.7,4.8,2.8c0.8,0.5,1.5,1,2.2,1.5l1.2,0.9c0.8,0.6-0.8-0.6,0,0l0.9,0.7
			c2.1,1.7,4,3.5,5.9,5.4c4.6,4.6,8.5,10,11.4,15.8c3.8,7.4,6.2,15.4,7.1,23.6c0.7,5.9,0.7,11.9,0.2,17.9c-0.3,3.2-0.7,6.5-1.3,9.7
			c-0.3,1.8-0.7,3.6-1.1,5.3c-0.3,1.3-0.4,3.8-1.2,4.9l2.5-2l-0.4,0.1l3.3,0.4l-0.4-0.2l1.5,1.5l-0.2-0.4l0.6,2.2
			c-0.7-10.3-2.2-20.5-4.6-30.5c-2.9-11.6-7.2-24.3-15.9-32.9c-4.7-4.8-11-7.6-17.6-8c-5.5-0.3-5.5,8.2,0,8.5s10.7,3.8,14.3,8.5
			c4.5,5.9,7.2,12.8,9.4,19.9c2.1,7.2,3.7,14.6,4.7,22c0.2,1.3,0.3,1.9,0.5,3.6c0.2,1.5,0.3,2.9,0.5,4.4c0.3,3.4,0,8,4.1,9.2
			s5.8-2.7,6.6-5.9c0.7-2.8,1.3-5.6,1.8-8.5c1-5.3,1.6-10.6,1.8-16c0.4-8.9-0.5-17.8-2.8-26.5c-3.4-12.7-10.2-24.3-19.5-33.6
			c-4.6-4.5-10-9-15.9-11.8c-2-1.1-4.6-0.5-5.9,1.5C399.9,360.6,400.4,363.6,402.5,364.7L402.5,364.7z"/>
		<path class="st0" d="M351.6,384.1c-4,2.7-6.4,7.5-7.9,11.9c-1.5,5-2.2,10.1-2,15.3c0.1,3.7,0.5,7.5,1.2,11.1
			c0.7,3.9,1,9.8,4.4,12.2c1.7,1,3.8,0.7,5.2-0.7c1.5-1.5,1.5-3.5,1.8-5.5c0-0.4,0.1-0.7,0-0.1c0.1-0.4,0.1-0.8,0.2-1.2
			c0.1-0.8,0.3-1.6,0.4-2.3c0.7-3.8,1.6-7.6,2.9-11.2c1.1-3.5,2.7-6.9,4.8-10c0.4-0.6,0.9-1.2,1.4-1.7c0.3-0.3,1.4-1.3,1.1-1.1
			c0.3-0.3,0.7-0.5,1.1-0.7c0,0,1.2-0.6,0.5-0.3c0.4-0.1,0.8-0.3,1.2-0.4c0.9-0.2-0.5,0,0.5-0.1c5.5-0.4,5.5-8.9,0-8.5
			c-9.5,0.7-14.6,9.4-17.7,17.3c-2.8,7.1-4.5,14.7-5.1,22.3l1.3-3l-0.3,0.3l5.2-0.7l-0.4-0.3l2,2.5c-2.7-10.3-4.6-21.7-1.1-31.7
			c0.1-0.4,0.3-0.8,0.5-1.2c-0.3,0.7-0.1,0.1,0.1-0.2c0.3-0.6,0.6-1.2,0.9-1.8s0.6-1,0.9-1.5c0.1-0.2,0.3-0.4,0.4-0.6
			c0.5-0.7-0.7,0.8-0.1,0.1c0.5-0.5,0.9-1,1.4-1.4c0.8-0.9-0.8,0.5-0.2,0.2C360.5,388.5,356.2,381,351.6,384.1L351.6,384.1z"/>
		<path class="st0" d="M399.3,391.5c0.5,0.4-1.1-1-0.3-0.2c0.4,0.5,0.9,0.9,1.4,1.4c0.7,0.8-0.5-0.7,0,0c0.1,0.2,0.3,0.4,0.4,0.6
			c0.3,0.4,0.6,0.9,0.8,1.3c0.4,0.6,0.7,1.3,1,1.9c0.5,1-0.3-0.8,0.1,0.2c0.2,0.4,0.3,0.8,0.5,1.2c3.5,10,1.6,21.4-1.2,31.7l2-2.5
			l-0.4,0.2l5.2,0.7l-0.3-0.3l1.3,3c-0.6-7.7-2.4-15.2-5.3-22.3c-3.2-8-8.4-16.7-17.9-17.4c-5.5-0.4-5.5,8.2,0,8.5
			c1.3,0.1-0.7-0.2,0.5,0.1c0.4,0.1,0.8,0.2,1.2,0.4c-0.6-0.2,0.1,0.1,0.3,0.2c0.4,0.2,0.7,0.4,1.1,0.7c0.9,0.8,1.8,1.8,2.6,2.7
			c2.2,3.1,3.9,6.6,5,10.2c1.2,3.6,2.2,7.3,2.9,11c0.2,0.9,0.3,1.7,0.5,2.6c0,0.3,0.3,2.1,0.2,1.1c0.3,2.1,0.2,4,1.8,5.6
			c1.4,1.4,3.5,1.6,5.2,0.7c3.4-2.4,3.7-8.3,4.4-12.2c0.7-3.7,1-7.4,1.2-11.1c0.2-5.2-0.5-10.4-2-15.3c-1.5-4.4-3.9-9.2-7.9-11.9
			C399,381.1,394.7,388.5,399.3,391.5L399.3,391.5z"/>
		<path class="st0" d="M416.1,344.3c0.3,0-1.6,0.1-0.1,0c0.9,0,1.8-0.1,2.7,0c0.6,0,1.2,0.1,1.8,0.2c0.4,0-1.1-0.2,0,0
			c0.5,0.1,0.9,0.2,1.4,0.3c1.7,0.4,3.4,0.9,5.1,1.5c1.3,0.5-0.5-0.3,0.6,0.3c0.4,0.2,0.9,0.4,1.3,0.6c1.1,0.5,2.2,1.1,3.2,1.8
			c2.1,1.3,4.1,2.8,5.9,4.5c5.1,4.9,9.4,10.6,12.5,17c5.9,11,9.4,23.2,12,35.3v-2.3l-0.1,0.5l1.1-1.9l-0.3,0.3l3-1.3h-0.5l3,1.3
			c0.4,0.3-0.1-0.1-0.4-0.5s-0.4-0.7-0.6-1c-0.5-0.9-1.1-1.7-1.7-2.6c-1.3-2-2.7-4-4-6c-3.5-5-7.2-9.8-11.3-14.5
			c-7.9-9-17.5-18.2-29.2-21.7c-6.3-2-13.2-1.6-19.2,1.2c-2.1,0.9-2.6,4-1.5,5.8c1.3,2.2,3.7,2.5,5.9,1.5c5.5-2.4,11.7-1.3,17.2,1.6
			c6.8,3.5,12.6,8.7,17.8,14.3c5,5.4,9.6,11.2,13.8,17.3c1.6,2.4,3.2,4.8,4.7,7.2c0.6,1.1,1.2,2.1,2,3.1c1.9,2,5.1,2,7.1,0.1
			c0.6-0.6,1-1.2,1.2-2c0.7-2.4-0.5-5.6-1.1-8c-0.7-2.9-1.5-5.9-2.4-8.8c-1.4-4.6-3-9.2-4.8-13.7c-2.8-7.1-6.5-13.8-11-20
			c-6.1-8.1-13.8-15-23.5-18.3c-4.5-1.6-9.3-2.1-14.1-1.5c-2.3,0.4-3.6,3.2-3,5.3C411.5,343.6,413.8,344.9,416.1,344.3L416.1,344.3z
			"/>
		<path class="st0" d="M342,336.5c-13.4-2.4-27.3,5.8-35.9,15.2c-11.4,12.5-17.7,28.9-21.8,45c-0.7,2.7-2.2,6.3-1.6,9
			s3.2,4.4,5.8,3.8c0.5-0.1,0.9-0.3,1.3-0.5c2.3-1.4,3.8-4.8,5.2-7c3.8-5.9,7.9-11.5,12.4-16.8c5.6-6.6,11.9-13,19.4-17.5
			c6.2-3.7,13.4-5.9,19.9-3c2.1,0.9,4.6,0.6,5.9-1.5c1.1-1.8,0.6-4.9-1.5-5.8c-11.4-5-23.1-1.2-32.8,5.9
			c-10.1,7.4-18.3,17.1-25.5,27.2c-1.7,2.3-3.3,4.6-4.8,7c-0.7,1-1.3,2-2,3l-0.7,1.2c-0.1,0.2-0.2,0.4-0.3,0.5
			c-0.1,0.3-0.7,0.6-0.2,0.2l3-1.3h-0.5l3,1.3l-0.3-0.3l1.1,1.9l-0.1-0.5v2.3c4-18.2,10.3-37.8,23.9-50.7c1-1,2.1-2,3.3-2.9
			c0.9-0.8-0.4,0.3,0.2-0.1l0.7-0.5c0.7-0.5,1.3-0.9,2-1.4c1-0.7,2.1-1.3,3.1-1.8c0.5-0.2,0.9-0.5,1.4-0.7l0.8-0.4
			c1.1-0.5-0.4,0.1,0.3-0.1c1.8-0.7,3.7-1.3,5.7-1.8c0.8-0.2,1.6-0.3,2.4-0.4c0.5-0.1-1.1,0.1,0,0l1.3-0.1c1.2-0.1,2.4-0.1,3.5,0
			c0.3,0.1,0.7,0.1,1,0.1c0.2-0.1-1.5-0.2-0.8-0.1c2.3,0.6,4.6-0.8,5.3-3C345.5,339.7,344.2,336.9,342,336.5L342,336.5z"/>
		<path class="st0" d="M344.6,303c-18,0.8-34.9,8.8-46.9,22.2c-8.5,9.7-14.8,21.1-18.7,33.4c-0.8,2.4-1.5,4.8-2,7.3
			c-0.5,2.3,0.9,4.6,3.2,5.2c1.8,0.4,3.6-0.3,4.6-1.9c0.6-0.8-0.5,0.6-0.2,0.2c0.5-0.5,0.9-1.1,1.4-1.7c1.8-2,3.8-3.9,5.9-5.6
			c0.8-0.7,0.4-0.3,1.4-1.1c0.9-0.7,1.7-1.3,2.6-1.8c1.9-1.3,3.8-2.4,5.8-3.5c4.8-2.6,9.9-4.8,15.2-6.4c7.8-2.4,15.9-3.9,24-4.5
			c5.5-0.4,5.5-9,0-8.5c-21.6,1.7-45,8.5-60.4,24.7c-1.1,1.2-2.2,2.5-3.2,3.8l7.8,3.3c0.4-1.9,0.9-3.8,1.5-5.6c0.6-2,1.3-4,2-5.9
			c0.8-2.3,1.8-4.5,2.8-6.6c5.9-12.4,14.2-23.3,26-30.4c8.2-4.8,17.5-7.6,27-8C350,311.3,350,302.8,344.6,303L344.6,303z"/>
		<path class="st0" d="M407.2,311.6c16.1,0.8,31.1,8.2,41.5,20.4c4.2,4.9,7.7,10.3,10.6,16c0.6,1.2,1.2,2.5,1.8,3.7
			c0.3,0.6,0.5,1.1,0.8,1.7c0.5,1.1-0.3-0.8,0.1,0.3l0.5,1.3c0.8,2.1,1.6,4.2,2.3,6.3c0.7,2.2,1.4,4.5,1.9,6.8l7.8-3.3
			c-1.9-3.4-4.5-6.5-7.4-9.1c-7.4-7-16.6-11.8-26.3-15c-8.3-2.6-17-4.2-25.7-4.8c-5.5-0.4-5.5,8.1,0,8.5c12.4,1,25,3.8,35.9,10
			c3.3,1.8,6.5,4.1,9.3,6.6c1.2,1,2.3,2.2,3.3,3.3c0.4,0.4,0.8,0.9,1.1,1.3l0.5,0.7c0.4,0.5-0.6-0.8,0,0c0.7,0.9,1.3,1.8,1.9,2.8
			c2.3,4.5,8.7,1.2,7.8-3.3c-1.6-7.3-4.1-14.3-7.5-20.9c-6.6-13.5-16.6-25.7-29.7-33.3c-9.3-5.2-19.7-8.2-30.4-8.6
			C401.7,302.8,401.7,311.3,407.2,311.6L407.2,311.6z"/>
		<path class="st0" d="M344.6,303c-18,0.8-34.9,8.8-46.9,22.2c-8.5,9.7-14.8,21.1-18.7,33.4c-0.8,2.4-1.5,4.8-2,7.3
			c-0.5,2.3,0.9,4.6,3.2,5.2c1.8,0.4,3.6-0.3,4.6-1.9c0.6-0.8-0.5,0.6-0.2,0.2c0.5-0.5,0.9-1.1,1.4-1.7c1.8-2,3.8-3.9,5.9-5.6
			c0.8-0.7,0.4-0.3,1.4-1.1c0.9-0.7,1.7-1.3,2.6-1.8c1.9-1.3,3.8-2.4,5.8-3.5c4.8-2.6,9.9-4.8,15.2-6.4c7.8-2.4,15.9-3.9,24-4.5
			c5.5-0.4,5.5-9,0-8.5c-21.6,1.7-45,8.5-60.4,24.7c-1.1,1.2-2.2,2.5-3.2,3.8l7.8,3.3c0.4-1.9,0.9-3.8,1.5-5.6c0.6-2,1.3-4,2-5.9
			c0.8-2.3,1.8-4.5,2.8-6.6c5.9-12.4,14.2-23.3,26-30.4c8.2-4.8,17.5-7.6,27-8C350,311.3,350,302.8,344.6,303L344.6,303z"/>
		<path class="st0" d="M407.2,311.6c16.1,0.8,31.1,8.2,41.5,20.4c4.2,4.9,7.7,10.3,10.6,16c0.6,1.2,1.2,2.5,1.8,3.7
			c0.3,0.6,0.5,1.1,0.8,1.7c0.5,1.1-0.3-0.8,0.1,0.3l0.5,1.3c0.8,2.1,1.6,4.2,2.3,6.3c0.7,2.2,1.4,4.5,1.9,6.8l7.8-3.3
			c-1.9-3.4-4.5-6.5-7.4-9.1c-7.4-7-16.6-11.8-26.3-15c-8.3-2.6-17-4.2-25.7-4.8c-5.5-0.4-5.5,8.1,0,8.5c12.4,1,25,3.8,35.9,10
			c3.3,1.8,6.5,4.1,9.3,6.6c1.2,1,2.3,2.2,3.3,3.3c0.4,0.4,0.8,0.9,1.1,1.3l0.5,0.7c0.4,0.5-0.6-0.8,0,0c0.7,0.9,1.3,1.8,1.9,2.8
			c2.3,4.5,8.7,1.2,7.8-3.3c-1.6-7.3-4.1-14.3-7.5-20.9c-6.6-13.5-16.6-25.7-29.7-33.3c-9.3-5.2-19.7-8.2-30.4-8.6
			C401.7,302.8,401.7,311.3,407.2,311.6L407.2,311.6z"/>
		<path class="st0" d="M381.2,283.6c-17.6-10.6-38.3-13.7-58-7.7c-14,4.3-26.8,12.3-37.7,22c-2.3,2-4.4,4.1-6.5,6.4
			c-1.5,1.5-1.6,3.9-0.3,5.6c1.2,1.5,3.8,2.4,5.5,1.1c0.7-0.5,1.5-1,2.3-1.4c0.9-0.5,1.9-1,2.9-1.4c0.2-0.1-0.7,0.3,0.1,0l1-0.4
			c0.7-0.3,1.5-0.5,2.3-0.8c8.8-2.6,18.1-3.3,27.1-1.9c8.1,1.2,16,3.3,23.5,6.3c2.1,0.8,4.7-0.9,5.3-3c0.7-2.4-0.8-4.4-3-5.3
			c-19.5-7.5-43-11.1-62.5-1.5c-1.2,0.5-2.3,1.2-3.3,1.9l5.2,6.7c5-5.6,10.7-10.5,17-14.6c12.8-8.8,27.8-14.8,43.6-14.4
			c11.2,0.3,21.8,4,31.3,9.7C381.7,293.9,386,286.5,381.2,283.6L381.2,283.6z"/>
		<path class="st0" d="M408,311.3c11.9-4.6,24.4-7.6,37.2-6.8c3.9,0.2,7.8,0.9,11.6,2c1.5,0.4,2.9,0.9,4.3,1.5
			c0.8,0.3-0.6-0.3,0.1,0l0.8,0.4c0.5,0.2,1,0.5,1.5,0.7c1,0.5,2,1.1,2.9,1.8c3.4,2.6,8.3-2.5,5.9-5.8c-5-6.6-10.9-12.4-17.6-17.3
			c-12.6-9.6-28.1-15.7-44.1-15c-12,0.5-23.5,4.6-33.8,10.8l6.3,4.8c0.2-0.9,0.4-1.8,0.6-2.7c0.3-1.1,0.7-2.1,1.1-3.2
			c0.1-0.3,0.2-0.5,0-0.1c0.1-0.3,0.3-0.7,0.4-1c0.3-0.7,0.7-1.4,1-2.1c4-7.2,10-13.1,17.3-16.9c4.8-2.7,0.5-10-4.3-7.4
			c-8.4,4.5-15.3,11.3-20,19.6c-2.1,3.6-3.6,7.4-4.4,11.5c-0.5,3.5,2.8,6.9,6.3,4.8c8.2-5,17.4-8.7,27-9.5c7.8-0.7,15.6,0.4,23,3
			c11.4,4,21.1,11.2,29.3,19.9c1.3,1.3,2.5,2.7,3.7,4.2c0.5,0.6,1.2,2,0.4,0.5c0.1,0.2,0.2,0.3,0.3,0.4l5.9-5.8
			c-3-2.3-7-3.8-10.5-4.9c-9.4-3-19.7-3.4-29.4-2.2c-8.6,1.2-17.1,3.4-25.1,6.6c-2.2,0.7-3.6,3-3,5.3
			C403.2,310.4,405.8,312.2,408,311.3L408,311.3z"/>
		<path class="st0" d="M383.1,287.3c-2.1-16-12.7-31.1-27.3-38c-4.6-2.2-8.7,4.7-4,6.9c8.6,4.1,15.5,11,19.6,19.7
			c1.3,2.7,2.3,5.5,3.1,8.4c0.3,0.9,0.5,1.9,0.6,2.9c0.1,0.5,0.3,2.2,0,0.1c0.3,2.1,1.6,4,4,4C381.1,291.3,383.4,289.4,383.1,287.3
			L383.1,287.3z"/>
	</g>
</g>
</svg>
