<?xml version="1.0" encoding="utf-8"?>
<!-- Generator: Adobe Illustrator 21.0.0, SVG Export Plug-In . SVG Version: 6.00 Build 0)  -->
<svg version="1.1" id="Layer_1" xmlns="http://www.w3.org/2000/svg" xmlns:xlink="http://www.w3.org/1999/xlink" x="0px" y="0px"
	 viewBox="0 0 1187 595.7" style="enable-background:new 0 0 1187 595.7;" xml:space="preserve">
<style type="text/css">
	.st0{fill:#494949;}
	.st1{fill:none;stroke:#494949;stroke-width:8.55;stroke-miterlimit:10;}
	.st2{fill:none;stroke:#494949;stroke-width:8.63;stroke-miterlimit:10;}
</style>
<title>Pictograma_BCT</title>
<g id="base">
	<path class="st0" d="M1070.1,583.6H52.4c-13.7,0-27.5-0.3-41.3,0c-0.6,0-1.2,0-1.8,0c-7.7,0-7.7,12,0,12H1027
		c13.7,0,27.5,0.3,41.3,0c0.6,0,1.2,0,1.8,0C1077.8,595.6,1077.8,583.6,1070.1,583.6z"/>
	<path class="st0" d="M1123.4,595.6h57.8c7.7,0,7.7-12,0-12h-57.8C1115.7,583.6,1115.7,595.6,1123.4,595.6z"/>
</g>
<g id="BCT">
	<path class="st1" d="M794.4,121.3h329.7c0.9,0,1.6-0.7,1.6-1.6c0,0,0,0,0,0V5.8c0-0.9-0.7-1.6-1.6-1.6l0,0H56.2
		c-0.9,0-1.6,0.7-1.6,1.6v113.9c0,0.9,0.7,1.6,1.6,1.6h512.1"/>
	<path class="st1" d="M568.3,121.3H29.1c-0.9,0-1.6,0.7-1.6,1.6c0,0,0,0,0,0V149c0,0.9,0.7,1.6,1.6,1.6c0,0,0,0,0,0h539.2"/>
	<path class="st1" d="M568.3,165.2H99.5c-0.8,0-1.4,0.9-1.4,2v34.1c0,1.1,0.6,2,1.4,2h468.8"/>
	<polyline class="st1" points="237.2,275.3 251.1,275.3 568.3,275.3 	"/>
	<path class="st1" d="M222.7,263.4v-6.9c0-0.6,0.4-1,0.9-1.1c0,0,0,0,0.1,0h344.7"/>
	<path class="st1" d="M567.8,203.3H243.6c-0.5,0-1,1.3-1,2.8v46.6c0,1.5,0.4,2.8,1,2.8h324.2"/>
	<path class="st1" d="M568.3,150.5h-513c-0.9,0-1.6,0.7-1.7,1.5c0,0,0,0,0,0v11.5c0,0.9,0.8,1.6,1.7,1.6h512.6"/>
	<path class="st1" d="M797.3,165.2H1124c0.9,0,1.7-0.7,1.7-1.6v-11.5c0-0.9-0.8-1.6-1.7-1.6H797.3"/>
	<path class="st2" d="M794.4,39.9v376c0,0.4-0.2,0.8-0.5,1.1l-29.8,30.3c-0.3,0.3-0.7,0.5-1.1,0.5H601.7c-0.4,0-0.8-0.2-1.1-0.5
		l-31.8-32.4c-0.3-0.3-0.5-0.7-0.5-1.1v-374c0-0.9,0.7-1.6,1.5-1.6c0,0,0,0,0,0h223C793.8,38.2,794.5,38.9,794.4,39.9
		C794.4,39.8,794.4,39.8,794.4,39.9z"/>
	<path class="st1" d="M822.1,359h352.7c0.9,0,1.6,0.7,1.6,1.6v45.2c0,0.9-0.7,1.6-1.6,1.6H822.1c-0.9,0-1.6-0.7-1.6-1.6v-45.2
		C820.5,359.7,821.2,359,822.1,359z"/>
	<path class="st1" d="M323.9,275.3H487c0.9,0,1.6,0.7,1.6,1.6v119.7c0,0.9-0.7,1.6-1.6,1.6H323.9c-0.9,0-1.6-0.7-1.6-1.6V276.8
		C322.4,276,323.1,275.3,323.9,275.3z"/>
	<path class="st1" d="M323.9,275.3H487c0.9,0,1.6,0.7,1.6,1.6v119.7c0,0.9-0.7,1.6-1.6,1.6H323.9c-0.9,0-1.6-0.7-1.6-1.6V276.8
		C322.4,276,323.1,275.3,323.9,275.3z"/>
	<line class="st1" x1="292.3" y1="398.1" x2="263.4" y2="398.1"/>
	<path class="st1" d="M242.6,288.3v-11.4c0-0.9,0.7-1.6,1.6-1.6c0,0,0,0,0,0h76.6c0.5,0,0.9,0.2,1.2,0.6c0.2,0.3,0.4,0.6,0.4,1"/>
	<path class="st1" d="M201.1,490.8h70c0.9,0,1.6,0.7,1.6,1.6v95.7c0,0.9-0.7,1.6-1.6,1.6h-70c-0.9,0-1.6-0.7-1.6-1.6v-95.7
		C199.6,491.5,200.3,490.8,201.1,490.8z"/>
	<path class="st1" d="M826.1,589.6v-24.8c0-0.9,0.7-1.6,1.6-1.5H1168c0.9,0,1.6,0.7,1.6,1.6v24.8"/>
	<path class="st1" d="M844.5,537.3h307.9c0.9,0,1.6,0.7,1.6,1.6v22.9c0,0.9-0.7,1.6-1.6,1.6H844.5c-0.9,0-1.6-0.7-1.6-1.6v-22.9
		C842.9,538,843.6,537.3,844.5,537.3z"/>
	<path class="st1" d="M857.4,407.3h15.3c0.9,0,1.6,0.7,1.6,1.6v126.9c0,0.9-0.7,1.6-1.6,1.6h-15.3c-0.9,0-1.6-0.7-1.6-1.6V408.8
		C855.9,408,856.6,407.3,857.4,407.3z"/>
	<path class="st1" d="M1124.1,407.3h15.3c0.9,0,1.6,0.7,1.6,1.6v126.9c0,0.9-0.7,1.6-1.6,1.6h-15.3c-0.9,0-1.6-0.7-1.6-1.6V408.8
		C1122.6,408,1123.3,407.3,1124.1,407.3z"/>
	<path class="st0" d="M964,515.5h68.9c5.5,0,5.5-8.5,0-8.5H964C958.5,507,958.5,515.5,964,515.5z"/>
	<path class="st0" d="M1002.7,537.3v-67c0-5.5-8.5-5.5-8.5,0v67C994.1,542.8,1002.7,542.8,1002.7,537.3z"/>
	<path class="st0" d="M1006,537.3v-26c0-5.5-8.5-5.5-8.5,0v26C997.4,542.8,1006,542.8,1006,537.3z"/>
	<path class="st0" d="M999.5,537.3v-26c0-5.5-8.5-5.5-8.5,0v26C990.9,542.8,999.5,542.8,999.5,537.3z"/>
	<path class="st1" d="M905.8,407.3h15.3c0.9,0,1.6,0.7,1.6,1.6v126.9c0,0.9-0.7,1.6-1.6,1.6h-15.3c-0.9,0-1.6-0.7-1.6-1.6V408.8
		C904.3,408,905,407.3,905.8,407.3z"/>
	<path class="st1" d="M1075.7,407.3h15.3c0.9,0,1.6,0.7,1.6,1.6v126.9c0,0.9-0.7,1.6-1.6,1.6h-15.3c-0.9,0-1.6-0.7-1.6-1.6V408.8
		C1074.2,408,1074.9,407.3,1075.7,407.3z"/>
	<path class="st1" d="M199.6,521.6H40.9c-0.8-0.1-1.5,0.5-1.6,1.3c0,0,0,0,0,0v65.3c0.1,0.8,0.8,1.4,1.6,1.3h160.2"/>
	<line class="st1" x1="333.7" y1="398.1" x2="272.7" y2="529"/>
	<line class="st1" x1="536.9" y1="531.8" x2="474.5" y2="398.1"/>
	<line class="st1" x1="227.4" y1="490.8" x2="322.3" y2="355.3"/>
	<line class="st1" x1="583.5" y1="490.8" x2="488.6" y2="355.3"/>
	<path class="st0" d="M401.2,275.3v122.8c0,5.5,8.5,5.5,8.5,0V275.3C409.7,269.8,401.2,269.8,401.2,275.3z"/>
	<path class="st1" d="M538.5,490.8h70c0.9,0,1.6,0.7,1.6,1.6v95.7c0,0.9-0.7,1.6-1.6,1.6h-70c-0.9,0-1.6-0.7-1.6-1.6v-95.7
		C536.9,491.5,537.6,490.8,538.5,490.8z"/>
	<path class="st1" d="M610,589.6h160.1c0.8,0.1,1.6-0.5,1.7-1.3v-65.4c-0.1-0.8-0.9-1.4-1.7-1.3H610"/>
	<path class="st1" d="M822.1,359h257.5c0.9,0,1.6-0.8,1.6-1.7V166.9c0-0.9-0.7-1.7-1.6-1.7H796c-0.9,0-1.6,0.8-1.6,1.7v190.4"/>
	<line class="st1" x1="794.4" y1="207" x2="1081.2" y2="207"/>
	<line class="st1" x1="841.7" y1="165.2" x2="841.7" y2="359"/>
	<line class="st1" x1="926.9" y1="165.2" x2="926.9" y2="359"/>
	<line class="st1" x1="1012.2" y1="168.7" x2="1012.2" y2="359"/>
	<line class="st1" x1="794.4" y1="263.5" x2="1081.2" y2="263.5"/>
	<line class="st1" x1="794.4" y1="320" x2="1081.2" y2="320"/>
	<line class="st1" x1="796.6" y1="369.9" x2="820.5" y2="369.9"/>
	<line class="st1" x1="623.7" y1="135.9" x2="623.7" y2="226.7"/>
	<line class="st1" x1="663.2" y1="135.9" x2="663.2" y2="226.7"/>
	<line class="st1" x1="702.7" y1="135.9" x2="702.7" y2="226.7"/>
	<line class="st1" x1="742.2" y1="135.9" x2="742.2" y2="226.7"/>
	<path class="st0" d="M568.3,140.2h198.2c9.1,0,18.3,0.3,27.5,0h0.4c5.5,0,5.5-8.5,0-8.5H596.2c-9.1,0-18.3-0.3-27.5,0h-0.4
		C562.8,131.6,562.8,140.2,568.3,140.2z"/>
	<path class="st0" d="M568.3,169.4h198.2c9.1,0,18.3,0.3,27.5,0h0.4c5.5,0,5.5-8.5,0-8.5H596.2c-9.1,0-18.3-0.3-27.5,0h-0.4
		C562.8,160.9,562.8,169.4,568.3,169.4z"/>
	<path class="st0" d="M568.3,230.5h198.2c9.1,0,18.3,0.3,27.5,0h0.4c5.5,0,5.5-8.5,0-8.5H596.2c-9.1,0-18.3-0.3-27.5,0h-0.4
		C562.8,221.9,562.8,230.5,568.3,230.5z"/>
	<line class="st1" x1="623.7" y1="275.2" x2="623.7" y2="366"/>
	<line class="st1" x1="663.2" y1="275.2" x2="663.2" y2="366"/>
	<line class="st1" x1="702.7" y1="275.2" x2="702.7" y2="366"/>
	<line class="st1" x1="742.2" y1="275.2" x2="742.2" y2="366"/>
	<path class="st0" d="M568.3,279.4h198.2c9.1,0,18.3,0.3,27.5,0h0.4c5.5,0,5.5-8.5,0-8.5H596.2c-9.1,0-18.3-0.3-27.5,0h-0.4
		C562.8,270.9,562.8,279.4,568.3,279.4z"/>
	<path class="st0" d="M568.3,308.7h198.2c9.1,0,18.3,0.3,27.5,0h0.4c5.5,0,5.5-8.5,0-8.5H596.2c-9.1,0-18.3-0.3-27.5,0h-0.4
		C562.8,300.1,562.8,308.7,568.3,308.7z"/>
	<path class="st0" d="M568.3,369.7h198.2c9.1,0,18.3,0.3,27.5,0h0.4c5.5,0,5.5-8.5,0-8.5H596.2c-9.1,0-18.3-0.3-27.5,0h-0.4
		C562.8,361.2,562.8,369.7,568.3,369.7z"/>
	<path class="st1" d="M794.4,150.5h355.8c0.9,0,1.6-0.7,1.6-1.6v-26.1c0-0.9-0.7-1.6-1.6-1.6H794.4"/>
	<line class="st1" x1="322.4" y1="203.3" x2="322.4" y2="255.5"/>
	<line class="st1" x1="405.5" y1="203.8" x2="405.5" y2="256"/>
	<line class="st1" x1="488.6" y1="203.3" x2="488.6" y2="255.5"/>
	<path class="st1" d="M1083.2,359h18.7c0.1-0.6,0.1-1.1,0.1-1.7V166.9c0-0.6,0-1.1-0.1-1.7h-20.6c-0.1,0.6-0.1,1.1-0.1,1.7v190.4"/>
	<path class="st1" d="M142.6,237.8V205c0-0.6,0-1.1-0.1-1.7h-20.6c-0.1,0.6-0.1,1.1-0.1,1.7v31.7"/>
	<path class="st0" d="M270,362.5c-0.1-8.1-3.6-15.7-9.8-21l0.7,5.2c7.6-10.9,6.4-25.7-2.8-35.2l1.1,4.2c3.2-14-4.7-28.2-18.4-32.8
		l3.1,4.1c0.5-15.4-11.6-28.2-27-28.7c-0.5,0-1,0-1.5,0l3,1.3c-4.7-3.9-10.4-6.2-16.4-6.7l3.7,2.1c-6.5-14.4-23.8-19.9-37.7-13.1
		l5.9,1.5c-8.7-11.4-24-15-36.6-7.7h4.3c-10.2-6-23.1-4.8-32.2,2.8l5.2-0.7c-11.2-5.1-24.1-2.9-32.5,6.2l4.2-1.1
		c-12.8-3.2-26.1,2.9-31.9,14.8l2.6-2c-9.9,2.4-17.7,10-20.3,19.8l3-3c-11.9,3.1-20.4,13.7-20.9,26l2.1-3.7
		c-9.2,6.4-13.5,16.7-12,27.7l1.1-4.2c-7.5,7.2-10.3,18-7.3,28l0.4-3.3c-5,9.9-3.7,21.8,3.3,30.4l-1.1-4.2c-3,8-2.2,16.9,2.3,24.2
		l-0.4-3.3c-4.3,12,0.3,24.8,10.5,32.2l-2.1-3.7c-0.3,12.4,8.7,23.4,20.4,26.7l-3.1-4.1c-0.5,19.4,19.5,33.6,37.7,26.3l-4.8-2
		c7.8,13.3,24.9,17.7,38.1,9.9c2-1.2,3.8-2.5,5.4-4.1h-6c8.9,8.8,22.6,10.6,33.5,4.4l-5.2-0.7c8.5,8.2,21.2,10.2,31.8,5h-4.3
		c12.3,6,27.1,2.2,35-8.9l-3.7,2.1c13.7,1.5,26.5-7.4,29.9-20.8l-5.3,3c15,3.4,29.9-6,33.3-21c0.4-1.8,0.6-3.7,0.7-5.5l-2.1,3.7
		c8.8-5.4,13.9-15.2,13.3-25.5l-2.1,3.7c12.1-8.6,15.9-25,7.8-37.8v4.3C268.4,373,269.9,367.8,270,362.5c0.1-5.5-8.5-5.5-8.6,0
		c-0.1,3.8-1.2,7.4-3.2,10.6c-0.8,1.3-0.8,3,0,4.3c3.6,5.5,4.2,12.5,1.5,18.5c-1.3,2.7-3.1,5.1-5.4,7c-1.7,1.4-2.9,2.4-2.9,4.8
		c0.1,1.6,0,3.2-0.2,4.7c-0.5,3-1.8,5.8-3.6,8.2c-0.9,1.1-1.9,2.1-2.9,3c-1.2,1-3,1.7-3.8,3.2s-0.5,3.2-0.8,4.8
		c-0.2,1.5-0.6,3-1.2,4.5c-3.6,8.5-12.8,13.2-21.8,11.2c-2.3-0.6-4.6,0.7-5.3,3c-2.5,9.9-11.6,15.7-21.6,14.5
		c-1.6-0.2-2.9,1-3.7,2.1c-5.3,6.9-14.5,9.4-22.5,6.2c-1.4-0.5-2.5-1.2-4.1-0.8c-1.2,0.3-2.4,1-3.6,1.4c-2.3,0.7-4.7,0.9-7.1,0.8
		c-4.4-0.4-8.5-2.3-11.7-5.4c-1.4-1.3-3.5-1.6-5.2-0.7c-7.5,4.3-17,3-23.2-3.1c-1.7-1.6-4.3-1.6-6,0c-7.5,7.5-19.7,7.4-27.1-0.1
		c-1.1-1.2-2.1-2.5-3-3.9c-0.9-1.5-3.1-2.7-4.8-2c-6.5,2.6-13.8,2.1-19.5-2.2c-4.9-3.8-7.6-9.6-7.4-15.8c0-1.9-1.3-3.6-3.1-4.1
		c-5-1.3-9.2-4.6-11.7-9.1c-1.2-2.2-2-4.6-2.3-7.1c-0.2-1.5,0.1-3.1-0.7-4.5s-2.4-2.2-3.5-3.2c-4.2-4-6.3-9.7-5.8-15.5
		c0.2-1.6,0.5-3.1,1-4.6c0.6-2.3,0.1-3.4-0.9-5.4c-2.2-4.3-2.7-9.2-1.4-13.8c0.5-2,1.6-3.8,0.4-5.8c-1.6-2.7-3.3-4.8-4.1-8
		c-0.8-3.1-0.7-6.2,0.1-9.3c0.4-1.2,0.8-2.5,1.4-3.6c1-2.3,0-4.1-0.3-6.4c-0.9-6,1.3-11.6,5.4-16c1.6-1.8,1.8-3,1.6-5.3
		c-0.1-1.4-0.1-2.8,0-4.1c0.4-2.9,1.4-5.7,3-8.2c0.8-1.3,1.9-2.5,3-3.5c1.1-1,2.7-1.8,3.5-3.1c0.9-1.5,0.6-3.6,1-5.2
		c1.5-7.2,7-12.9,14.2-14.6c1.5-0.4,2.6-1.5,3-3c1-4,3.3-7.5,6.5-10.1c1.5-1.2,3.3-2.2,5.1-2.9c1.1-0.4,2.2-0.6,3.3-1
		c1.6-0.7,2.1-1.9,2.8-3.3c4.2-7.6,13-11.4,21.5-9.3c1.5,0.4,3.1,0,4.2-1.1c5.5-6.2,14.5-8.2,22.1-4.8c1.7,0.9,3.8,0.6,5.2-0.7
		c6.3-5,15-5.6,21.8-1.5c1.3,0.8,3,0.8,4.3,0c8.2-4.8,19-3.1,24.9,4.6c1.2,2,3.8,2.6,5.9,1.5c10.1-4.9,21.5,0.1,26,10
		c0.8,1.3,2.2,2.1,3.7,2.1c2.1,0.2,4.2,0.7,6.2,1.6c2.2,1,4.3,3.4,6.6,3.8c1.9,0.3,3.9,0.1,5.8,0.5c1.8,0.4,3.5,1.1,5.1,2
		c6.2,3.6,9.9,10.4,9.6,17.6c0,1.9,1.3,3.6,3.1,4.1c8.9,3.1,14.2,12.2,12.6,21.4c-0.3,2-0.5,3.4,0.9,5c0.8,0.9,1.5,1.8,2.2,2.7
		c1.4,2.1,2.3,4.4,2.8,6.8c1,5.4-0.3,10.9-3.6,15.3c-1,1.7-0.7,3.8,0.7,5.2c4.5,3.7,7.2,9.2,7.3,15C261.5,368,270,368,270,362.5z"/>
	<path class="st1" d="M97.4,473.9c0,0,4.3,37.1-5.7,47.7"/>
	<path class="st1" d="M158.6,477.4c0,0-7.1,36,3.1,44.2"/>
	<path class="st0" d="M118.8,520.6c-2.7-7.8-4.1-18,0.6-25.2c3-4.6-4.4-8.9-7.3-4.3c-5.9,9.1-4.9,21.9-1.4,31.8
		C112.4,528,120.6,525.8,118.8,520.6L118.8,520.6z"/>
	<path class="st0" d="M137.9,484.5c0.3,2.5,0.5,5,0.5,7.6c0.1,2.1,0,4.3-0.1,6.4c-0.1,0.7-0.2,1.4-0.3,2.1c-0.1,0.5-0.2,1-0.4,1.4
		c-0.3,0.8,0.1-0.2-0.2,0.6c-2.4,4.9,4.9,9.2,7.3,4.3c3.3-6.6,2.5-15.3,1.6-22.4c-0.3-2.3-1.8-4.3-4.3-4.3
		C140.1,480.2,137.7,482.2,137.9,484.5L137.9,484.5z"/>
	<path class="st0" d="M52.3,423.8c7.3-0.1,14.4-3,19.6-8.2h-6c8.9,8.8,22.6,10.6,33.5,4.4l-5.2-0.7c5.2,5,12.1,7.9,19.4,8
		c5.5,0.1,5.5-8.5,0-8.5c-5,0-9.8-2-13.4-5.5c-1.4-1.3-3.5-1.6-5.2-0.7c-7.5,4.3-17,3.1-23.2-3.1c-1.7-1.6-4.3-1.6-6,0
		c-3.6,3.6-8.5,5.7-13.6,5.7C46.8,415.4,46.8,423.9,52.3,423.8L52.3,423.8z"/>
	<path class="st0" d="M170.7,301.9c-7.3,0.1-14.4,3-19.6,8.2h6c-8.9-8.8-22.6-10.6-33.5-4.4l5.2,0.7c-5.2-5-12.1-7.9-19.4-8
		c-5.5-0.1-5.5,8.5,0,8.5c5,0,9.7,2,13.3,5.5c1.4,1.3,3.5,1.6,5.2,0.7c7.5-4.3,17-3.1,23.2,3.1c1.7,1.6,4.3,1.6,6,0
		c3.6-3.6,8.5-5.7,13.6-5.7C176.2,310.4,176.2,301.8,170.7,301.9L170.7,301.9z"/>
	<path class="st0" d="M165.7,360.3c8.9,8.8,22.6,10.6,33.5,4.4l-5.2-0.7c5.2,5,12.1,7.9,19.4,8c5.5,0.1,5.5-8.5,0-8.5
		c-5,0-9.7-2-13.3-5.5c-1.4-1.3-3.5-1.6-5.2-0.7c-7.5,4.3-17,3.1-23.2-3.1C167.8,350.4,161.8,356.5,165.7,360.3L165.7,360.3z"/>
	<path class="st0" d="M53.7,348.2c8.9,8.8,22.6,10.6,33.5,4.4c4.8-2.7,0.5-10.1-4.3-7.4c-7.5,4.4-17.1,3.1-23.2-3.1
		C55.7,338.2,49.7,344.3,53.7,348.2L53.7,348.2z"/>
	<path class="st0" d="M165.7,421.7c8.1,8,20.5,9.6,30.4,4c4.8-2.7,0.5-10.1-4.3-7.4c-6.5,3.7-14.7,2.6-20-2.7
		C167.9,411.8,161.8,417.8,165.7,421.7L165.7,421.7z"/>
	<path class="st1" d="M488.6,396.5V276.8c0-0.9,0.7-1.6,1.6-1.6h76.6c0.9,0,1.6,0.7,1.6,1.6v119.7c0,0.9-0.7,1.6-1.6,1.6h-48.2"/>
</g>
</svg>
