<?xml version="1.0" encoding="utf-8"?>
<!-- Generator: Adobe Illustrator 21.0.0, SVG Export Plug-In . SVG Version: 6.00 Build 0)  -->
<svg version="1.1" id="Layer_1" xmlns="http://www.w3.org/2000/svg" xmlns:xlink="http://www.w3.org/1999/xlink" x="0px" y="0px"
	 viewBox="0 0 1171.7 724.8" style="enable-background:new 0 0 1171.7 724.8;" xml:space="preserve">
<style type="text/css">
	.st0{fill:#494949;}
	.st1{fill:none;stroke:#494949;stroke-width:8.55;stroke-miterlimit:10;}
	.st2{fill:none;stroke:#494949;stroke-width:7;stroke-miterlimit:10;}
	.st3{font-family:'Arial-BoldMT';}
	.st4{font-size:18px;}
	.st5{font-size:14px;}
</style>
<title>Pictograma_BLOCO_SMD</title>
<g id="base">
	<path class="st0" d="M1165.9,712.6H52.9c-15,0-30-0.3-45.1,0c-0.7,0-1.3,0-2,0c-7.7,0-7.7,12,0,12h1113.1c15,0,30.1,0.3,45.1,0
		c0.7,0,1.3,0,2,0C1173.6,724.6,1173.6,712.6,1165.9,712.6z"/>
</g>
<g id="BLOCO_SMD">
	<path class="st1" d="M54.9,572h15.4c0.9,0,1.6,0.7,1.6,1.6v143.1c0,0.9-0.7,1.6-1.6,1.6H54.9c-0.9,0-1.6-0.7-1.6-1.6V573.6
		C53.4,572.7,54.1,572,54.9,572z"/>
	<path class="st1" d="M140.2,686.8h15.4c0.9,0,1.6,0.7,1.6,1.6v28.7c0,0.9-0.7,1.6-1.6,1.6h-15.4c-0.9,0-1.6-0.7-1.6-1.6v-28.7
		C138.6,687.5,139.3,686.8,140.2,686.8z"/>
	<path class="st1" d="M205.2,588.3H244c0.9,0,1.6,0.7,1.6,1.6v23.6c0,0.9-0.7,1.6-1.6,1.6h-38.7c-0.9,0-1.6-0.7-1.6-1.6v-23.6
		C203.7,589,204.4,588.3,205.2,588.3z"/>
	<path class="st1" d="M230.6,686.8H246c0.9,0,1.6,0.7,1.6,1.6v28.7c0,0.9-0.7,1.6-1.6,1.6h-15.4c-0.9,0-1.6-0.7-1.6-1.6v-28.7
		C229,687.5,229.7,686.8,230.6,686.8z"/>
	<path class="st1" d="M359.1,215.3h-93.4c-0.9,0-1.6,0.7-1.6,1.6v500.2c0,0.9,0.7,1.6,1.6,1.6h244.6c0.9,0,1.6-0.7,1.6-1.6V230.3"/>
	<path class="st1" d="M606.9,119.8v108.9c0,0.9-0.7,1.6-1.6,1.6h-93.4v-13.4c0-0.9-0.7-1.6-1.6-1.6H359.1v-95.4
		c0-0.9,0.7-1.6,1.6-1.6h244.6C606.2,118.3,606.9,119,606.9,119.8z"/>
	<path class="st1" d="M126.4,572h136.1c0.9,0,1.6,0.7,1.6,1.6v111.6c0,0.9-0.7,1.6-1.6,1.6H126.4c-0.9,0-1.6-0.7-1.6-1.6V573.6
		C124.9,572.7,125.6,572,126.4,572z"/>
	<path class="st1" d="M262.5,572H24c-0.9,0-1.6-0.7-1.6-1.6c0-0.5,0.2-1,0.6-1.3l152.3-111.1c0.6-0.4,1.5-0.4,2,0.1l86.3,84.1
		c0.3,0.3,0.5,0.7,0.5,1.1v27C264.1,571.3,263.5,572,262.5,572C262.6,572,262.6,572,262.5,572z"/>
	<path class="st1" d="M513.4,230.3h307.9c0.9,0,1.6,0.7,1.6,1.6v484.9c0,0.9-0.7,1.6-1.6,1.6H513.4c-0.9,0-1.6-0.7-1.6-1.6V231.8
		C511.9,231,512.6,230.3,513.4,230.3z"/>
	<path class="st1" d="M1135.3,718.3h-21.4c-0.9,0-1.6-0.7-1.6-1.6V169.4c0-0.9,0.7-1.6,1.6-1.6h21.4c0.9,0,1.6,0.7,1.6,1.6v547.3
		C1136.9,717.6,1136.2,718.3,1135.3,718.3z"/>
	<path class="st1" d="M1159.8,359h-21.4c-0.9,0-1.6-0.7-1.6-1.6v-97.6c0-0.9,0.7-1.6,1.6-1.6h21.4c0.9,0,1.6,0.7,1.6,1.6v97.6
		C1161.4,358.3,1160.7,359,1159.8,359z"/>
	<path class="st1" d="M905.3,101.7l-1,15.3c-0.1,0.7-0.8,1.3-1.6,1.2h-24.2c-0.8,0.1-1.4-0.5-1.6-1.2l-1-15.3c0-0.8,0.7-1.4,1.5-1.4
		c0,0,0.1,0,0.1,0h26.2C904.5,100.3,905.2,100.9,905.3,101.7C905.3,101.7,905.3,101.7,905.3,101.7z"/>
	<path class="st1" d="M1063.9,101.7l-1,15.3c-0.1,0.7-0.8,1.3-1.6,1.2h-24.2c-0.8,0.1-1.4-0.5-1.6-1.2l-1-15.3
		c0-0.8,0.7-1.4,1.5-1.4c0,0,0.1,0,0.1,0h26.2C1063.1,100.3,1063.8,100.9,1063.9,101.7C1063.9,101.7,1063.9,101.7,1063.9,101.7z"/>
	<path class="st1" d="M594,213.4l-1,15.3c-0.1,0.7-0.8,1.3-1.6,1.2h-24.2c-0.8,0.1-1.4-0.5-1.6-1.2l-1-15.3c0-0.8,0.7-1.4,1.5-1.4
		c0,0,0.1,0,0.1,0h26.2C593.2,212,593.9,212.6,594,213.4C594,213.4,594,213.4,594,213.4z"/>
	<path class="st1" d="M782.6,213.4l-1,15.3c-0.1,0.7-0.8,1.3-1.6,1.2h-24.2c-0.8,0.1-1.4-0.5-1.6-1.2l-1-15.3c0-0.8,0.7-1.4,1.5-1.4
		c0,0,0.1,0,0.1,0h26.2C781.8,212,782.5,212.6,782.6,213.4C782.6,213.4,782.6,213.4,782.6,213.4z"/>
	<path class="st1" d="M323.3,198.7l-1,15.3c-0.1,0.7-0.8,1.3-1.6,1.2h-24.2c-0.8,0.1-1.4-0.5-1.6-1.2l-1-15.3c0-0.8,0.7-1.4,1.5-1.4
		c0,0,0.1,0,0.1,0h26.2C322.6,197.3,323.3,197.9,323.3,198.7C323.3,198.7,323.3,198.7,323.3,198.7z"/>
	<path class="st1" d="M481.9,198.7l-1,15.3c-0.1,0.7-0.8,1.3-1.6,1.2h-24.2c-0.8,0.1-1.4-0.5-1.6-1.2l-1-15.3c0-0.8,0.7-1.4,1.5-1.4
		c0,0,0.1,0,0.1,0h26.2C481.2,197.3,481.9,197.9,481.9,198.7C481.9,198.7,481.9,198.7,481.9,198.7z"/>
	<path class="st1" d="M824.4,118.3h286.4c0.9,0,1.6,0.7,1.6,1.6v596.9c0,0.9-0.7,1.6-1.6,1.6H824.4c-0.9,0-1.6-0.7-1.6-1.6V119.8
		C822.9,119,823.6,118.3,824.4,118.3z"/>
	<path class="st1" d="M1060.4,704.3h12.9c0.9,0,1.6,0.7,1.6,1.6v0v12.4h-84v-12.4c0-0.9,0.7-1.6,1.6-1.6h12.9c0.9,0,1.6-0.7,1.6-1.6
		v-10.1c0-0.9-0.7-1.6-1.6-1.6h-3.9c-0.9,0-1.6-0.7-1.6-1.6V576.1c0-0.9,0.7-1.6,1.6-1.6h62.9c0.9,0,1.6,0.7,1.6,1.6v0v113.4
		c0,0.9-0.7,1.6-1.6,1.6l0,0h-3.9c-0.9,0-1.6,0.7-1.6,1.6v0v10.1C1058.9,703.6,1059.6,704.3,1060.4,704.3L1060.4,704.3z"/>
	<path class="st1" d="M621.9,284.8h198.7c0.9,0,1.6,0.7,1.6,1.6v430.1c0,0.9-0.7,1.6-1.6,1.6H621.9c-0.9,0-1.6-0.7-1.6-1.6V286.3
		C620.4,285.5,621.1,284.8,621.9,284.8z"/>
	<path class="st1" d="M621.9,284.8h198.7c0.9,0,1.6,0.7,1.6,1.6V580c0,0.9-0.7,1.6-1.6,1.6H621.9c-0.9,0-1.6-0.7-1.6-1.6V286.3
		C620.4,285.5,621.1,284.8,621.9,284.8z"/>
	<path class="st1" d="M692.8,718.3h-10.4c-0.9,0-1.6-0.7-1.6-1.6V583.2c0-0.9,0.7-1.6,1.6-1.6h10.4c0.9,0,1.6,0.7,1.6,1.6v133.5
		C694.4,717.6,693.7,718.3,692.8,718.3z"/>
	<path class="st1" d="M821.3,718.3h-10.4c-0.9,0-1.6-0.7-1.6-1.6V583.2c0-0.9,0.7-1.6,1.6-1.6h10.4c0.9,0,1.6,0.7,1.6,1.6v133.5
		C822.9,717.6,822.2,718.3,821.3,718.3z"/>
	<path class="st1" d="M621.9,284.8h198.7c0.9,0,1.6,0.7,1.6,1.6v71.1c0,0.9-0.7,1.6-1.6,1.6H621.9c-0.9,0-1.6-0.7-1.6-1.6v-71.1
		C620.4,285.5,621.1,284.8,621.9,284.8z"/>
	<path class="st1" d="M621.9,359h198.7c0.9,0,1.6,0.7,1.6,1.6v71.1c0,0.9-0.7,1.6-1.6,1.6H621.9c-0.9,0-1.6-0.7-1.6-1.6v-71.1
		C620.4,359.7,621.1,359,621.9,359z"/>
	<path class="st1" d="M621.9,433.2h198.7c0.9,0,1.6,0.7,1.6,1.6v71.1c0,0.9-0.7,1.6-1.6,1.6H621.9c-0.9,0-1.6-0.7-1.6-1.6v-71.1
		C620.4,433.9,621.1,433.2,621.9,433.2z"/>
	<path class="st1" d="M621.9,507.4h198.7c0.9,0,1.6,0.7,1.6,1.6V580c0,0.9-0.7,1.6-1.6,1.6H621.9c-0.9,0-1.6-0.7-1.6-1.6V509
		C620.4,508.1,621.1,507.4,621.9,507.4z"/>
	<path class="st1" d="M621.9,284.8h64.1c0.9,0,1.6,0.7,1.6,1.6V580c0,0.9-0.7,1.6-1.6,1.6h-64.1c-0.9,0-1.6-0.7-1.6-1.6V286.3
		C620.4,285.5,621.1,284.8,621.9,284.8z"/>
	<path class="st1" d="M689.2,284.8h64.1c0.9,0,1.6,0.7,1.6,1.6V580c0,0.9-0.7,1.6-1.6,1.6h-64.1c-0.9,0-1.6-0.7-1.6-1.6V286.3
		C687.6,285.5,688.3,284.8,689.2,284.8z"/>
	<path class="st1" d="M756.4,284.8h64.1c0.9,0,1.6,0.7,1.6,1.6V580c0,0.9-0.7,1.6-1.6,1.6h-64.1c-0.9,0-1.6-0.7-1.6-1.6V286.3
		C754.9,285.5,755.6,284.8,756.4,284.8z"/>
	<line class="st1" x1="509.7" y1="118.3" x2="509.7" y2="18.3"/>
	<circle class="st1" cx="509.7" cy="11.3" r="7"/>
	<path class="st1" d="M521.1,53.9l-10.6-0.7c-0.5-0.1-0.9-0.5-0.8-1v-15c0-0.5,0.3-0.9,0.8-1l10.6-0.6c0.5,0,0.9,0.4,0.9,0.9
		c0,0,0,0,0,0.1V53C522,53.5,521.6,53.9,521.1,53.9C521.1,53.9,521.1,53.9,521.1,53.9z"/>
	<path class="st1" d="M582.1,118.3V97.2c0-0.9,0.7-1.6,1.6-1.6h40.7c0.9,0,1.6,0.7,1.6,1.6v131.2c0,0.9-0.7,1.6-1.6,1.6h-18.1"/>
	<line class="st1" x1="606.9" y1="130.4" x2="625.9" y2="130.4"/>
	<line class="st1" x1="606.9" y1="156.8" x2="625.9" y2="156.8"/>
	<line class="st1" x1="606.9" y1="183.1" x2="625.9" y2="183.1"/>
	<line class="st1" x1="606.9" y1="209.4" x2="625.9" y2="209.4"/>
	<path class="st1" d="M124.9,602.8c-4.2,0-4.2-3.1-8.5-3.1s-4.2,3.1-8.5,3.1s-4.2-3.1-8.5-3.1s-4.2,3.1-8.5,3.1
		c-2.9,0-5.9-2.1-5.9-2.1s-0.5,0.4,0.4-0.3l39.3-28.4"/>
	<path class="st1" d="M418.8,308.8h66.5c0.9,0,1.6,0.7,1.6,1.6v287.1c0,0.9-0.7,1.6-1.6,1.6h-66.5c-0.9,0-1.6-0.7-1.6-1.6V310.3
		C417.2,309.5,417.9,308.8,418.8,308.8z"/>
	<path class="st1" d="M418.8,570.5h25.3c0.9,0,1.6,0.7,1.6,1.6v25.3c0,0.9-0.7,1.6-1.6,1.6h-25.3c-0.9,0-1.6-0.7-1.6-1.6v-25.3
		C417.2,571.2,417.9,570.5,418.8,570.5z"/>
	<path class="st1" d="M460,570.5h25.3c0.9,0,1.6,0.7,1.6,1.6v25.3c0,0.9-0.7,1.6-1.6,1.6H460c-0.9,0-1.6-0.7-1.6-1.6v-25.3
		C458.4,571.2,459.1,570.5,460,570.5z"/>
	<path class="st1" d="M418.8,308.8h25.3c0.9,0,1.6,0.7,1.6,1.6v25.3c0,0.9-0.7,1.6-1.6,1.6h-25.3c-0.9,0-1.6-0.7-1.6-1.6v-25.3
		C417.2,309.5,417.9,308.8,418.8,308.8z"/>
	<path class="st1" d="M460,308.8h25.3c0.9,0,1.6,0.7,1.6,1.6v25.3c0,0.9-0.7,1.6-1.6,1.6H460c-0.9,0-1.6-0.7-1.6-1.6v-25.3
		C458.4,309.5,459.1,308.8,460,308.8z"/>
	<path class="st1" d="M418.8,439.6h25.3c0.9,0,1.6,0.7,1.6,1.6v25.3c0,0.9-0.7,1.6-1.6,1.6h-25.3c-0.9,0-1.6-0.7-1.6-1.6v-25.3
		C417.2,440.3,417.9,439.6,418.8,439.6z"/>
	<path class="st1" d="M460,439.6h25.3c0.9,0,1.6,0.7,1.6,1.6v25.3c0,0.9-0.7,1.6-1.6,1.6H460c-0.9,0-1.6-0.7-1.6-1.6v-25.3
		C458.4,440.3,459.1,439.6,460,439.6z"/>
</g>
<g id="logo_simplificado">
	<path class="st2" d="M323.9,397.1c-0.1-0.8,0.5-1.6,1.3-1.7c3.5-0.6,12.3-2,15.7-2s11.7,1.4,15.2,2c0.9,0.1,1.4,1,1.3,1.8
		l-3.6,23.5c-0.7,4.8-4,8.8-8.6,10.5l0,0c-2.8,1-5.8,1.1-8.6,0.2l-1-0.3c-5.1-1.6-8.8-6.1-9.3-11.4L323.9,397.1z"/>
	<path class="st0" d="M326.2,387.7v5c0,1.9,1.6,3.5,3.5,3.5s3.5-1.6,3.5-3.5v-5c0-1.9-1.6-3.5-3.5-3.5S326.2,385.8,326.2,387.7z"/>
	<path class="st0" d="M337.1,383.3v10c0,4.5,7,4.5,7,0v-10C344.1,378.8,337.1,378.8,337.1,383.3z"/>
	<path class="st0" d="M348,387.7v5c0,1.9,1.6,3.5,3.5,3.5s3.5-1.6,3.5-3.5v-5c0-1.9-1.6-3.5-3.5-3.5S348,385.8,348,387.7z"/>
	<path class="st0" d="M355,442.7v-2.5c0-1.9-1.6-3.5-3.5-3.5s-3.5,1.6-3.5,3.5v2.5c0,1.9,1.6,3.5,3.5,3.5S355,444.7,355,442.7z"/>
	<path class="st0" d="M333.2,442.7v-2.5c0-1.9-1.6-3.5-3.5-3.5s-3.5,1.6-3.5,3.5v2.5c0,1.9,1.6,3.5,3.5,3.5S333.2,444.7,333.2,442.7
		z"/>
	<path class="st0" d="M344.1,447.2v-2.5c0-1.9-1.6-3.5-3.5-3.5s-3.5,1.6-3.5,3.5v2.5c0,1.9,1.6,3.5,3.5,3.5S344.1,449.1,344.1,447.2
		z"/>
	<path class="st0" d="M315.5,432.8c3.8,4.9,9,8.7,14.8,10.8c12.8,4.8,25.5-1.3,34.9-10.1c3.3-3.1-1.7-8-5-5
		c-7.8,7.3-18,12.5-28.5,8.2c-2.8-1.2-5.4-2.8-7.6-4.9c-0.8-0.7-1.5-1.4-2.2-2.2c-0.3-0.3-1.5-1.9-0.4-0.4c-1-1.6-3.1-2.2-4.8-1.3
		C315.3,428.9,314.3,431.3,315.5,432.8L315.5,432.8z"/>
	<text transform="matrix(1 0 0 1 298.2738 470.275)" class="st0 st3 st4">Instituto</text>
	<text transform="matrix(1 0 0 1 277.3038 487.715)" class="st0 st3 st4">Universidade</text>
	<text transform="matrix(1 0 0 1 306.7838 504.795)" class="st0 st3 st4">V</text>
	<text transform="matrix(1 0 0 1 319.7938 504.795)" class="st0 st3 st4">i</text>
	<text transform="matrix(1 0 0 1 326.1338 504.795)" class="st0 st3 st4">r</text>
	<text transform="matrix(1 0 0 1 334.6138 504.795)" class="st0 st3 st4">tual</text>
	<text transform="matrix(1 0 0 1 276.0438 521.465)" class="st0 st3 st5">Bloco Acadêmico</text>
</g>
</svg>
